<?xml version="1.0" encoding="utf-8"?>
<!-- Generator: Adobe Illustrator 19.1.0, SVG Export Plug-In . SVG Version: 6.00 Build 0)  -->
<svg version="1.0" id="Layer_1" xmlns="http://www.w3.org/2000/svg" xmlns:xlink="http://www.w3.org/1999/xlink" x="0px" y="0px"
	 width="255.9px" height="77.5px" viewBox="0 0 255.9 77.5" enable-background="new 0 0 255.9 77.5" xml:space="preserve">
<metadata><?xpacket begin="﻿" id="W5M0MpCehiHzreSzNTczkc9d"?>
<x:xmpmeta xmlns:x="adobe:ns:meta/" x:xmptk="Adobe XMP Core 5.6-c067 79.157747, 2015/03/30-23:40:42        ">
   <rdf:RDF xmlns:rdf="http://www.w3.org/1999/02/22-rdf-syntax-ns#">
      <rdf:Description rdf:about=""
            xmlns:dc="http://purl.org/dc/elements/1.1/"
            xmlns:xmp="http://ns.adobe.com/xap/1.0/"
            xmlns:xmpGImg="http://ns.adobe.com/xap/1.0/g/img/"
            xmlns:xmpMM="http://ns.adobe.com/xap/1.0/mm/"
            xmlns:stRef="http://ns.adobe.com/xap/1.0/sType/ResourceRef#"
            xmlns:stEvt="http://ns.adobe.com/xap/1.0/sType/ResourceEvent#"
            xmlns:illustrator="http://ns.adobe.com/illustrator/1.0/"
            xmlns:xmpTPg="http://ns.adobe.com/xap/1.0/t/pg/"
            xmlns:stDim="http://ns.adobe.com/xap/1.0/sType/Dimensions#"
            xmlns:stFnt="http://ns.adobe.com/xap/1.0/sType/Font#"
            xmlns:xmpG="http://ns.adobe.com/xap/1.0/g/"
            xmlns:pdf="http://ns.adobe.com/pdf/1.3/">
         <dc:format>image/svg+xml</dc:format>
         <dc:title>
            <rdf:Alt>
               <rdf:li xml:lang="x-default">Web</rdf:li>
            </rdf:Alt>
         </dc:title>
         <xmp:CreatorTool>Adobe Illustrator CC 2015 (Windows)</xmp:CreatorTool>
         <xmp:CreateDate>2015-11-09T20:30:32+02:00</xmp:CreateDate>
         <xmp:ModifyDate>2015-11-09T20:30:32+02:00</xmp:ModifyDate>
         <xmp:MetadataDate>2015-11-09T20:30:32+02:00</xmp:MetadataDate>
         <xmp:Thumbnails>
            <rdf:Alt>
               <rdf:li rdf:parseType="Resource">
                  <xmpGImg:width>256</xmpGImg:width>
                  <xmpGImg:height>132</xmpGImg:height>
                  <xmpGImg:format>JPEG</xmpGImg:format>
                  <xmpGImg:image>/9j/4AAQSkZJRgABAgEASABIAAD/7QAsUGhvdG9zaG9wIDMuMAA4QklNA+0AAAAAABAASAAAAAEA&#xA;AQBIAAAAAQAB/+4ADkFkb2JlAGTAAAAAAf/bAIQABgQEBAUEBgUFBgkGBQYJCwgGBggLDAoKCwoK&#xA;DBAMDAwMDAwQDA4PEA8ODBMTFBQTExwbGxscHx8fHx8fHx8fHwEHBwcNDA0YEBAYGhURFRofHx8f&#xA;Hx8fHx8fHx8fHx8fHx8fHx8fHx8fHx8fHx8fHx8fHx8fHx8fHx8fHx8fHx8f/8AAEQgAhAEAAwER&#xA;AAIRAQMRAf/EAaIAAAAHAQEBAQEAAAAAAAAAAAQFAwIGAQAHCAkKCwEAAgIDAQEBAQEAAAAAAAAA&#xA;AQACAwQFBgcICQoLEAACAQMDAgQCBgcDBAIGAnMBAgMRBAAFIRIxQVEGE2EicYEUMpGhBxWxQiPB&#xA;UtHhMxZi8CRygvElQzRTkqKyY3PCNUQnk6OzNhdUZHTD0uIIJoMJChgZhJRFRqS0VtNVKBry4/PE&#xA;1OT0ZXWFlaW1xdXl9WZ2hpamtsbW5vY3R1dnd4eXp7fH1+f3OEhYaHiImKi4yNjo+Ck5SVlpeYmZ&#xA;qbnJ2en5KjpKWmp6ipqqusra6voRAAICAQIDBQUEBQYECAMDbQEAAhEDBCESMUEFURNhIgZxgZEy&#xA;obHwFMHR4SNCFVJicvEzJDRDghaSUyWiY7LCB3PSNeJEgxdUkwgJChgZJjZFGidkdFU38qOzwygp&#xA;0+PzhJSktMTU5PRldYWVpbXF1eX1RlZmdoaWprbG1ub2R1dnd4eXp7fH1+f3OEhYaHiImKi4yNjo&#xA;+DlJWWl5iZmpucnZ6fkqOkpaanqKmqq6ytrq+v/aAAwDAQACEQMRAD8A9U4q7FXYq7FXYq7FXYq7&#xA;FXYq7FXYq7FXYqk723lDS5PTki0+xklUtwZYYWZIwSTQ8ahRX5ZmCeoyiwZyr3lxDDBjNEQjfuCO&#xA;stN0q2YzWVrBA0iqpkhjRCyKKKKqBUAdMoyZsktpEmu8t2PFCO8QB7gisqbXYq7FXYq7FXYq7FXY&#xA;q7FXYq7FXYq7FXYq7FXYq7FXYq7FXYq7FXYq7FXYq7FXYq7FXYq7FXYq7FXYq7FXYq7FXYq7FXYq&#xA;7FXYq7FXYq7FXYq7FXYq7FXYq7FXYq7FXYq7FXYq7FXYq7FXYq7FXYq7FXYqslaRUrGgdv5SeP40&#xA;OGIHVBJ6IaO+uHG9pIrdgdh0Pc++WnGB/EGsZCeiLUkqCRQkbjrTKS2hvFXYqpRuxuZlJPFQlB8w&#xA;cmR6QwB3KrkGbsVdirsVdirsVdirsVdirsVdirsVdirsVdirsVdirsVdirsVdirsVdirsVdirsVd&#xA;irsVdirsVdirqCtabnvirsVdirsVdirsVdirsVdirsVdirsVdirsVdirsVdirsVdirsVdirsVdir&#xA;sVdirsVdirsVdirsVdirsVdirsVdirsVdirsVdirsVdirsVdirsVdirsVdirsVdirsVdirsVdirs&#xA;VdirsVdirsVdirsVdirsVdirsVdirsVdirsVdirsVdirsVdirsVdirsVdirsVdirsVdirsVdirsV&#xA;dirsVdirsVdirsVdirsVdirsVdirsVdirsVdirsVdirsVdirsVdirsVdirsVdirsVdirsVdirsVd&#xA;irsVdirsVdirsVdirsVdirsVdirsVdirsVdirsVdirsVdirsVdirsVdirsVdirsVdirsVdirsVdi&#xA;rsVdirsVdirsVdirsVdirsVdirsVdirsVdirsVdirsVdirsVdirsVdirsVdirsVdirsVdirsVdir&#xA;sVdirsVdirsVdirsVdirsVdirsVdirsVdirsVdirsVdirsVdirsVdirsVdirsVdirsVdirsVdirs&#xA;VdirsVdirsVdirsVdirsVdirsVdirsVdirsVdirsVdirsVdirsVdirsVdirsVdirsVdirsVdirsV&#xA;dirsVdirsVdirsVdirsVdirsVdirsVdirsVdirsVdirsVdirsVdirsVdirsVdirsVdirsVdirsVd&#xA;irsVdirsVdirsVdirsVdirsVdirsVdirsVdirsVdirsVdirsVdirsVdirsVdirsVdirsVdirsVdi&#xA;rsVdirsVdirsVS9zqQY+nE/E7gmRDT23U5kDg6n7C0Hj6D7V5l1H0+IgPJq/HzSq7/IDI8ML5/YU&#xA;3OuX3NOdS4Kqq1aCr8o61ruDUEfhhHB+LU8f4p3LUhHx9Ms3XmWQe1KUpjUL5/etzr+xdGdQbkXB&#xA;SnIqAUIPgvTAeDokcfVYp1MUqjMehBaMDtvsMJ4PxbEcf4psPqILN6TN3CFkAP0jfGod/wB6bn3f&#xA;csU6uQKoy9a/HGenb7OSPh/i2I8T8UqBtRoPgbpvUx9foGQqH4tlc/xS31NV+FRBSlQXLoevQkU7&#xA;Yax96Ln3Lp/rzEFY2FBQhHQA79dwcY8Hf9iZcXc0ovmdVZHVeVTIJE2B3pQLvTE8NfsUcV/tadtT&#xA;LvRGVRy4gNHv4dVxAh+LQTP8UujfUijh4yGoCp5J1ruOnhgIhex+9IM63CmX1bekbdaghovDp08c&#xA;lWPv+9jeTu+5svq3FT6RqCaqGjG3XqQfljWPv+9Nz7vubL6maqISO6uHTw6bjpXBUO/71ufc0p1U&#xA;caqzctmJMfw79RQCu2E+H+LUcf4pwOq1b4GAHQlo9ztv0x/d/i19f4pUZ9Q40WI17nkv8ciBDvZE&#xA;y7lnLUw9fTJWnTklOnyrXDUK5/exud8lznUqtwU0NOO6bV+Y7Yjg/FpPG5G1EGrRFvYunifADARD&#xA;vUGfc07amW2Sg6bFKeFdwcIEFJm5X1IuEaIhRt6gdK9tyKHEiHf96gz7nB9S4hRGa13Yslf1U/DG&#xA;od/3rc+5r1NU5A+jWgJ480oT2HjjWPvRc+5tX1MsCYqA0+EspA+dKHEiHekGfc3/ALkZGeoMHEfB&#xA;QowY/SKiuD0Dz+a+s+TlbUeLAxmtfhYslfnttiRDvUGfcuJu/SUekzOV3PqAEGp8KY+m+f2J9Vcv&#xA;tUFTUS1XSWgINBKlD49FByZMOlfIsAJ+fzCZZjOQ7FXYq7FXYq7FXYq7FXYq7FXYq7FUE9hOZOSX&#xA;ciqBspJO5698uGUVuA0nEb2JXtbTrbiOKZjJUcnck123p1pg4wTZGzLgIFAqf1W+4qPWqy/tVYVH&#xA;uN6/hkuOPcx4Jd6J4XH1fhzHrAfbA2qPnXK7F+TZRrzQo/SUZ/eTw7j4A21SOp2C5Z6DyBavWOZC&#xA;nE19zUPfQstQCBxr8htkiIVtEoBle8gjpY52YGOb0wOq8Qa/flMSBzDdIE8ih1g1TblcqN/iooO3&#xA;am2TModzWIz71eGK4RyZJvUWlAvELQ+NRkJSBGwpnEEcyrZBm7FXYq7FXYq7FXYq7FXYq7FXYq7F&#xA;XYq7FXYq7FXYq7FXYq7FXYq7FXYq7FXYq7FXYqpXFrb3AAmQOFrSte/yycZmPJjKAlzUf0Xp439I&#xA;Cnep7fTkvHn3sPBh3Kcz6R6zmRl9StH3b+GSiMlbcmMjjvduHT9PeroTIrCvHkSN+nT2xllmExxQ&#xA;KIihtrevABAxAO/fsNz75XKUpc2cYiPJRktLSWaryszmoCc6U3qQAPlkxkkBsGJhEncq1taRWwYR&#xA;luJNQpNQPlkJ5DLmyhAR5K2QZuxV2KuxV2KuxV2KuxV2KuxV2KuxV2KuxV2KuxV2KuxV2KuxV2Ku&#xA;xV2KuxV2KuxVxpTfpiqw+j6i14+pT4elae2HekbWuHGp40rX4qePvilJb/8AR/qP9Y9f1KjnTjX2&#xA;zMxcdbU4eTgve1S2/Rn12P6t6vPbhT7NKb/a+LIz4+E8VMocHFtab5iOU7FXYq7FXYq7FXYq7FXY&#xA;q7FX/9k=</xmpGImg:image>
               </rdf:li>
            </rdf:Alt>
         </xmp:Thumbnails>
         <xmpMM:RenditionClass>proof:pdf</xmpMM:RenditionClass>
         <xmpMM:OriginalDocumentID>uuid:65E6390686CF11DBA6E2D887CEACB407</xmpMM:OriginalDocumentID>
         <xmpMM:DocumentID>xmp.did:caf37e73-a6b5-964d-9be3-e623b51bcc16</xmpMM:DocumentID>
         <xmpMM:InstanceID>xmp.iid:caf37e73-a6b5-964d-9be3-e623b51bcc16</xmpMM:InstanceID>
         <xmpMM:DerivedFrom rdf:parseType="Resource">
            <stRef:instanceID>xmp.iid:2c53e5a2-fe80-b44a-8aa4-21ea20129265</stRef:instanceID>
            <stRef:documentID>xmp.did:2c53e5a2-fe80-b44a-8aa4-21ea20129265</stRef:documentID>
            <stRef:originalDocumentID>uuid:65E6390686CF11DBA6E2D887CEACB407</stRef:originalDocumentID>
            <stRef:renditionClass>proof:pdf</stRef:renditionClass>
         </xmpMM:DerivedFrom>
         <xmpMM:History>
            <rdf:Seq>
               <rdf:li rdf:parseType="Resource">
                  <stEvt:action>saved</stEvt:action>
                  <stEvt:instanceID>xmp.iid:2c53e5a2-fe80-b44a-8aa4-21ea20129265</stEvt:instanceID>
                  <stEvt:when>2015-11-09T16:06:53+02:00</stEvt:when>
                  <stEvt:softwareAgent>Adobe Illustrator CC 2015 (Windows)</stEvt:softwareAgent>
                  <stEvt:changed>/</stEvt:changed>
               </rdf:li>
               <rdf:li rdf:parseType="Resource">
                  <stEvt:action>saved</stEvt:action>
                  <stEvt:instanceID>xmp.iid:caf37e73-a6b5-964d-9be3-e623b51bcc16</stEvt:instanceID>
                  <stEvt:when>2015-11-09T20:30:32+02:00</stEvt:when>
                  <stEvt:softwareAgent>Adobe Illustrator CC 2015 (Windows)</stEvt:softwareAgent>
                  <stEvt:changed>/</stEvt:changed>
               </rdf:li>
            </rdf:Seq>
         </xmpMM:History>
         <illustrator:StartupProfile>Web</illustrator:StartupProfile>
         <xmpTPg:NPages>1</xmpTPg:NPages>
         <xmpTPg:HasVisibleTransparency>False</xmpTPg:HasVisibleTransparency>
         <xmpTPg:HasVisibleOverprint>False</xmpTPg:HasVisibleOverprint>
         <xmpTPg:MaxPageSize rdf:parseType="Resource">
            <stDim:w>969.952353</stDim:w>
            <stDim:h>79.343972</stDim:h>
            <stDim:unit>Pixels</stDim:unit>
         </xmpTPg:MaxPageSize>
         <xmpTPg:Fonts>
            <rdf:Bag>
               <rdf:li rdf:parseType="Resource">
                  <stFnt:fontName>HelveticaRoundedLTStd-Bd</stFnt:fontName>
                  <stFnt:fontFamily>Helvetica Rounded LT Std</stFnt:fontFamily>
                  <stFnt:fontFace>Bold</stFnt:fontFace>
                  <stFnt:fontType>Open Type</stFnt:fontType>
                  <stFnt:versionString>OTF 1.029;PS 001.001;Core 1.0.33;makeotf.lib1.4.1585</stFnt:versionString>
                  <stFnt:composite>False</stFnt:composite>
                  <stFnt:fontFileName>HelveticaRoundedLTStd-Bd.otf</stFnt:fontFileName>
               </rdf:li>
            </rdf:Bag>
         </xmpTPg:Fonts>
         <xmpTPg:PlateNames>
            <rdf:Seq>
               <rdf:li>Cyan</rdf:li>
               <rdf:li>Magenta</rdf:li>
            </rdf:Seq>
         </xmpTPg:PlateNames>
         <xmpTPg:SwatchGroups>
            <rdf:Seq>
               <rdf:li rdf:parseType="Resource">
                  <xmpG:groupName>Default Swatch Group</xmpG:groupName>
                  <xmpG:groupType>0</xmpG:groupType>
                  <xmpG:Colorants>
                     <rdf:Seq>
                        <rdf:li rdf:parseType="Resource">
                           <xmpG:swatchName>White</xmpG:swatchName>
                           <xmpG:mode>RGB</xmpG:mode>
                           <xmpG:type>PROCESS</xmpG:type>
                           <xmpG:red>255</xmpG:red>
                           <xmpG:green>255</xmpG:green>
                           <xmpG:blue>255</xmpG:blue>
                        </rdf:li>
                        <rdf:li rdf:parseType="Resource">
                           <xmpG:swatchName>Black</xmpG:swatchName>
                           <xmpG:mode>RGB</xmpG:mode>
                           <xmpG:type>PROCESS</xmpG:type>
                           <xmpG:red>0</xmpG:red>
                           <xmpG:green>0</xmpG:green>
                           <xmpG:blue>0</xmpG:blue>
                        </rdf:li>
                        <rdf:li rdf:parseType="Resource">
                           <xmpG:swatchName>RGB Red</xmpG:swatchName>
                           <xmpG:mode>RGB</xmpG:mode>
                           <xmpG:type>PROCESS</xmpG:type>
                           <xmpG:red>255</xmpG:red>
                           <xmpG:green>0</xmpG:green>
                           <xmpG:blue>0</xmpG:blue>
                        </rdf:li>
                        <rdf:li rdf:parseType="Resource">
                           <xmpG:swatchName>RGB Yellow</xmpG:swatchName>
                           <xmpG:mode>RGB</xmpG:mode>
                           <xmpG:type>PROCESS</xmpG:type>
                           <xmpG:red>255</xmpG:red>
                           <xmpG:green>255</xmpG:green>
                           <xmpG:blue>0</xmpG:blue>
                        </rdf:li>
                        <rdf:li rdf:parseType="Resource">
                           <xmpG:swatchName>RGB Green</xmpG:swatchName>
                           <xmpG:mode>RGB</xmpG:mode>
                           <xmpG:type>PROCESS</xmpG:type>
                           <xmpG:red>0</xmpG:red>
                           <xmpG:green>255</xmpG:green>
                           <xmpG:blue>0</xmpG:blue>
                        </rdf:li>
                        <rdf:li rdf:parseType="Resource">
                           <xmpG:swatchName>RGB Cyan</xmpG:swatchName>
                           <xmpG:mode>RGB</xmpG:mode>
                           <xmpG:type>PROCESS</xmpG:type>
                           <xmpG:red>0</xmpG:red>
                           <xmpG:green>255</xmpG:green>
                           <xmpG:blue>255</xmpG:blue>
                        </rdf:li>
                        <rdf:li rdf:parseType="Resource">
                           <xmpG:swatchName>RGB Blue</xmpG:swatchName>
                           <xmpG:mode>RGB</xmpG:mode>
                           <xmpG:type>PROCESS</xmpG:type>
                           <xmpG:red>0</xmpG:red>
                           <xmpG:green>0</xmpG:green>
                           <xmpG:blue>255</xmpG:blue>
                        </rdf:li>
                        <rdf:li rdf:parseType="Resource">
                           <xmpG:swatchName>RGB Magenta</xmpG:swatchName>
                           <xmpG:mode>RGB</xmpG:mode>
                           <xmpG:type>PROCESS</xmpG:type>
                           <xmpG:red>255</xmpG:red>
                           <xmpG:green>0</xmpG:green>
                           <xmpG:blue>255</xmpG:blue>
                        </rdf:li>
                        <rdf:li rdf:parseType="Resource">
                           <xmpG:swatchName>R=193 G=39 B=45</xmpG:swatchName>
                           <xmpG:mode>RGB</xmpG:mode>
                           <xmpG:type>PROCESS</xmpG:type>
                           <xmpG:red>193</xmpG:red>
                           <xmpG:green>39</xmpG:green>
                           <xmpG:blue>45</xmpG:blue>
                        </rdf:li>
                        <rdf:li rdf:parseType="Resource">
                           <xmpG:swatchName>R=237 G=28 B=36</xmpG:swatchName>
                           <xmpG:mode>RGB</xmpG:mode>
                           <xmpG:type>PROCESS</xmpG:type>
                           <xmpG:red>237</xmpG:red>
                           <xmpG:green>28</xmpG:green>
                           <xmpG:blue>36</xmpG:blue>
                        </rdf:li>
                        <rdf:li rdf:parseType="Resource">
                           <xmpG:swatchName>R=241 G=90 B=36</xmpG:swatchName>
                           <xmpG:mode>RGB</xmpG:mode>
                           <xmpG:type>PROCESS</xmpG:type>
                           <xmpG:red>241</xmpG:red>
                           <xmpG:green>90</xmpG:green>
                           <xmpG:blue>36</xmpG:blue>
                        </rdf:li>
                        <rdf:li rdf:parseType="Resource">
                           <xmpG:swatchName>R=247 G=147 B=30</xmpG:swatchName>
                           <xmpG:mode>RGB</xmpG:mode>
                           <xmpG:type>PROCESS</xmpG:type>
                           <xmpG:red>247</xmpG:red>
                           <xmpG:green>147</xmpG:green>
                           <xmpG:blue>30</xmpG:blue>
                        </rdf:li>
                        <rdf:li rdf:parseType="Resource">
                           <xmpG:swatchName>R=251 G=176 B=59</xmpG:swatchName>
                           <xmpG:mode>RGB</xmpG:mode>
                           <xmpG:type>PROCESS</xmpG:type>
                           <xmpG:red>251</xmpG:red>
                           <xmpG:green>176</xmpG:green>
                           <xmpG:blue>59</xmpG:blue>
                        </rdf:li>
                        <rdf:li rdf:parseType="Resource">
                           <xmpG:swatchName>R=252 G=238 B=33</xmpG:swatchName>
                           <xmpG:mode>RGB</xmpG:mode>
                           <xmpG:type>PROCESS</xmpG:type>
                           <xmpG:red>252</xmpG:red>
                           <xmpG:green>238</xmpG:green>
                           <xmpG:blue>33</xmpG:blue>
                        </rdf:li>
                        <rdf:li rdf:parseType="Resource">
                           <xmpG:swatchName>R=217 G=224 B=33</xmpG:swatchName>
                           <xmpG:mode>RGB</xmpG:mode>
                           <xmpG:type>PROCESS</xmpG:type>
                           <xmpG:red>217</xmpG:red>
                           <xmpG:green>224</xmpG:green>
                           <xmpG:blue>33</xmpG:blue>
                        </rdf:li>
                        <rdf:li rdf:parseType="Resource">
                           <xmpG:swatchName>R=140 G=198 B=63</xmpG:swatchName>
                           <xmpG:mode>RGB</xmpG:mode>
                           <xmpG:type>PROCESS</xmpG:type>
                           <xmpG:red>140</xmpG:red>
                           <xmpG:green>198</xmpG:green>
                           <xmpG:blue>63</xmpG:blue>
                        </rdf:li>
                        <rdf:li rdf:parseType="Resource">
                           <xmpG:swatchName>R=57 G=181 B=74</xmpG:swatchName>
                           <xmpG:mode>RGB</xmpG:mode>
                           <xmpG:type>PROCESS</xmpG:type>
                           <xmpG:red>57</xmpG:red>
                           <xmpG:green>181</xmpG:green>
                           <xmpG:blue>74</xmpG:blue>
                        </rdf:li>
                        <rdf:li rdf:parseType="Resource">
                           <xmpG:swatchName>R=0 G=146 B=69</xmpG:swatchName>
                           <xmpG:mode>RGB</xmpG:mode>
                           <xmpG:type>PROCESS</xmpG:type>
                           <xmpG:red>0</xmpG:red>
                           <xmpG:green>146</xmpG:green>
                           <xmpG:blue>69</xmpG:blue>
                        </rdf:li>
                        <rdf:li rdf:parseType="Resource">
                           <xmpG:swatchName>R=0 G=104 B=55</xmpG:swatchName>
                           <xmpG:mode>RGB</xmpG:mode>
                           <xmpG:type>PROCESS</xmpG:type>
                           <xmpG:red>0</xmpG:red>
                           <xmpG:green>104</xmpG:green>
                           <xmpG:blue>55</xmpG:blue>
                        </rdf:li>
                        <rdf:li rdf:parseType="Resource">
                           <xmpG:swatchName>R=34 G=181 B=115</xmpG:swatchName>
                           <xmpG:mode>RGB</xmpG:mode>
                           <xmpG:type>PROCESS</xmpG:type>
                           <xmpG:red>34</xmpG:red>
                           <xmpG:green>181</xmpG:green>
                           <xmpG:blue>115</xmpG:blue>
                        </rdf:li>
                        <rdf:li rdf:parseType="Resource">
                           <xmpG:swatchName>R=0 G=169 B=157</xmpG:swatchName>
                           <xmpG:mode>RGB</xmpG:mode>
                           <xmpG:type>PROCESS</xmpG:type>
                           <xmpG:red>0</xmpG:red>
                           <xmpG:green>169</xmpG:green>
                           <xmpG:blue>157</xmpG:blue>
                        </rdf:li>
                        <rdf:li rdf:parseType="Resource">
                           <xmpG:swatchName>R=41 G=171 B=226</xmpG:swatchName>
                           <xmpG:mode>RGB</xmpG:mode>
                           <xmpG:type>PROCESS</xmpG:type>
                           <xmpG:red>41</xmpG:red>
                           <xmpG:green>171</xmpG:green>
                           <xmpG:blue>226</xmpG:blue>
                        </rdf:li>
                        <rdf:li rdf:parseType="Resource">
                           <xmpG:swatchName>R=0 G=113 B=188</xmpG:swatchName>
                           <xmpG:mode>RGB</xmpG:mode>
                           <xmpG:type>PROCESS</xmpG:type>
                           <xmpG:red>0</xmpG:red>
                           <xmpG:green>113</xmpG:green>
                           <xmpG:blue>188</xmpG:blue>
                        </rdf:li>
                        <rdf:li rdf:parseType="Resource">
                           <xmpG:swatchName>R=46 G=49 B=146</xmpG:swatchName>
                           <xmpG:mode>RGB</xmpG:mode>
                           <xmpG:type>PROCESS</xmpG:type>
                           <xmpG:red>46</xmpG:red>
                           <xmpG:green>49</xmpG:green>
                           <xmpG:blue>146</xmpG:blue>
                        </rdf:li>
                        <rdf:li rdf:parseType="Resource">
                           <xmpG:swatchName>R=27 G=20 B=100</xmpG:swatchName>
                           <xmpG:mode>RGB</xmpG:mode>
                           <xmpG:type>PROCESS</xmpG:type>
                           <xmpG:red>27</xmpG:red>
                           <xmpG:green>20</xmpG:green>
                           <xmpG:blue>100</xmpG:blue>
                        </rdf:li>
                        <rdf:li rdf:parseType="Resource">
                           <xmpG:swatchName>R=102 G=45 B=145</xmpG:swatchName>
                           <xmpG:mode>RGB</xmpG:mode>
                           <xmpG:type>PROCESS</xmpG:type>
                           <xmpG:red>102</xmpG:red>
                           <xmpG:green>45</xmpG:green>
                           <xmpG:blue>145</xmpG:blue>
                        </rdf:li>
                        <rdf:li rdf:parseType="Resource">
                           <xmpG:swatchName>R=147 G=39 B=143</xmpG:swatchName>
                           <xmpG:mode>RGB</xmpG:mode>
                           <xmpG:type>PROCESS</xmpG:type>
                           <xmpG:red>147</xmpG:red>
                           <xmpG:green>39</xmpG:green>
                           <xmpG:blue>143</xmpG:blue>
                        </rdf:li>
                        <rdf:li rdf:parseType="Resource">
                           <xmpG:swatchName>R=158 G=0 B=93</xmpG:swatchName>
                           <xmpG:mode>RGB</xmpG:mode>
                           <xmpG:type>PROCESS</xmpG:type>
                           <xmpG:red>158</xmpG:red>
                           <xmpG:green>0</xmpG:green>
                           <xmpG:blue>93</xmpG:blue>
                        </rdf:li>
                        <rdf:li rdf:parseType="Resource">
                           <xmpG:swatchName>R=212 G=20 B=90</xmpG:swatchName>
                           <xmpG:mode>RGB</xmpG:mode>
                           <xmpG:type>PROCESS</xmpG:type>
                           <xmpG:red>212</xmpG:red>
                           <xmpG:green>20</xmpG:green>
                           <xmpG:blue>90</xmpG:blue>
                        </rdf:li>
                        <rdf:li rdf:parseType="Resource">
                           <xmpG:swatchName>R=237 G=30 B=121</xmpG:swatchName>
                           <xmpG:mode>RGB</xmpG:mode>
                           <xmpG:type>PROCESS</xmpG:type>
                           <xmpG:red>237</xmpG:red>
                           <xmpG:green>30</xmpG:green>
                           <xmpG:blue>121</xmpG:blue>
                        </rdf:li>
                        <rdf:li rdf:parseType="Resource">
                           <xmpG:swatchName>R=199 G=178 B=153</xmpG:swatchName>
                           <xmpG:mode>RGB</xmpG:mode>
                           <xmpG:type>PROCESS</xmpG:type>
                           <xmpG:red>199</xmpG:red>
                           <xmpG:green>178</xmpG:green>
                           <xmpG:blue>153</xmpG:blue>
                        </rdf:li>
                        <rdf:li rdf:parseType="Resource">
                           <xmpG:swatchName>R=153 G=134 B=117</xmpG:swatchName>
                           <xmpG:mode>RGB</xmpG:mode>
                           <xmpG:type>PROCESS</xmpG:type>
                           <xmpG:red>153</xmpG:red>
                           <xmpG:green>134</xmpG:green>
                           <xmpG:blue>117</xmpG:blue>
                        </rdf:li>
                        <rdf:li rdf:parseType="Resource">
                           <xmpG:swatchName>R=115 G=99 B=87</xmpG:swatchName>
                           <xmpG:mode>RGB</xmpG:mode>
                           <xmpG:type>PROCESS</xmpG:type>
                           <xmpG:red>115</xmpG:red>
                           <xmpG:green>99</xmpG:green>
                           <xmpG:blue>87</xmpG:blue>
                        </rdf:li>
                        <rdf:li rdf:parseType="Resource">
                           <xmpG:swatchName>R=83 G=71 B=65</xmpG:swatchName>
                           <xmpG:mode>RGB</xmpG:mode>
                           <xmpG:type>PROCESS</xmpG:type>
                           <xmpG:red>83</xmpG:red>
                           <xmpG:green>71</xmpG:green>
                           <xmpG:blue>65</xmpG:blue>
                        </rdf:li>
                        <rdf:li rdf:parseType="Resource">
                           <xmpG:swatchName>R=198 G=156 B=109</xmpG:swatchName>
                           <xmpG:mode>RGB</xmpG:mode>
                           <xmpG:type>PROCESS</xmpG:type>
                           <xmpG:red>198</xmpG:red>
                           <xmpG:green>156</xmpG:green>
                           <xmpG:blue>109</xmpG:blue>
                        </rdf:li>
                        <rdf:li rdf:parseType="Resource">
                           <xmpG:swatchName>R=166 G=124 B=82</xmpG:swatchName>
                           <xmpG:mode>RGB</xmpG:mode>
                           <xmpG:type>PROCESS</xmpG:type>
                           <xmpG:red>166</xmpG:red>
                           <xmpG:green>124</xmpG:green>
                           <xmpG:blue>82</xmpG:blue>
                        </rdf:li>
                        <rdf:li rdf:parseType="Resource">
                           <xmpG:swatchName>R=140 G=98 B=57</xmpG:swatchName>
                           <xmpG:mode>RGB</xmpG:mode>
                           <xmpG:type>PROCESS</xmpG:type>
                           <xmpG:red>140</xmpG:red>
                           <xmpG:green>98</xmpG:green>
                           <xmpG:blue>57</xmpG:blue>
                        </rdf:li>
                        <rdf:li rdf:parseType="Resource">
                           <xmpG:swatchName>R=117 G=76 B=36</xmpG:swatchName>
                           <xmpG:mode>RGB</xmpG:mode>
                           <xmpG:type>PROCESS</xmpG:type>
                           <xmpG:red>117</xmpG:red>
                           <xmpG:green>76</xmpG:green>
                           <xmpG:blue>36</xmpG:blue>
                        </rdf:li>
                        <rdf:li rdf:parseType="Resource">
                           <xmpG:swatchName>R=96 G=56 B=19</xmpG:swatchName>
                           <xmpG:mode>RGB</xmpG:mode>
                           <xmpG:type>PROCESS</xmpG:type>
                           <xmpG:red>96</xmpG:red>
                           <xmpG:green>56</xmpG:green>
                           <xmpG:blue>19</xmpG:blue>
                        </rdf:li>
                        <rdf:li rdf:parseType="Resource">
                           <xmpG:swatchName>R=66 G=33 B=11</xmpG:swatchName>
                           <xmpG:mode>RGB</xmpG:mode>
                           <xmpG:type>PROCESS</xmpG:type>
                           <xmpG:red>66</xmpG:red>
                           <xmpG:green>33</xmpG:green>
                           <xmpG:blue>11</xmpG:blue>
                        </rdf:li>
                     </rdf:Seq>
                  </xmpG:Colorants>
               </rdf:li>
               <rdf:li rdf:parseType="Resource">
                  <xmpG:groupName>Grays</xmpG:groupName>
                  <xmpG:groupType>1</xmpG:groupType>
                  <xmpG:Colorants>
                     <rdf:Seq>
                        <rdf:li rdf:parseType="Resource">
                           <xmpG:swatchName>R=0 G=0 B=0</xmpG:swatchName>
                           <xmpG:mode>RGB</xmpG:mode>
                           <xmpG:type>PROCESS</xmpG:type>
                           <xmpG:red>0</xmpG:red>
                           <xmpG:green>0</xmpG:green>
                           <xmpG:blue>0</xmpG:blue>
                        </rdf:li>
                        <rdf:li rdf:parseType="Resource">
                           <xmpG:swatchName>R=26 G=26 B=26</xmpG:swatchName>
                           <xmpG:mode>RGB</xmpG:mode>
                           <xmpG:type>PROCESS</xmpG:type>
                           <xmpG:red>26</xmpG:red>
                           <xmpG:green>26</xmpG:green>
                           <xmpG:blue>26</xmpG:blue>
                        </rdf:li>
                        <rdf:li rdf:parseType="Resource">
                           <xmpG:swatchName>R=51 G=51 B=51</xmpG:swatchName>
                           <xmpG:mode>RGB</xmpG:mode>
                           <xmpG:type>PROCESS</xmpG:type>
                           <xmpG:red>51</xmpG:red>
                           <xmpG:green>51</xmpG:green>
                           <xmpG:blue>51</xmpG:blue>
                        </rdf:li>
                        <rdf:li rdf:parseType="Resource">
                           <xmpG:swatchName>R=77 G=77 B=77</xmpG:swatchName>
                           <xmpG:mode>RGB</xmpG:mode>
                           <xmpG:type>PROCESS</xmpG:type>
                           <xmpG:red>77</xmpG:red>
                           <xmpG:green>77</xmpG:green>
                           <xmpG:blue>77</xmpG:blue>
                        </rdf:li>
                        <rdf:li rdf:parseType="Resource">
                           <xmpG:swatchName>R=102 G=102 B=102</xmpG:swatchName>
                           <xmpG:mode>RGB</xmpG:mode>
                           <xmpG:type>PROCESS</xmpG:type>
                           <xmpG:red>102</xmpG:red>
                           <xmpG:green>102</xmpG:green>
                           <xmpG:blue>102</xmpG:blue>
                        </rdf:li>
                        <rdf:li rdf:parseType="Resource">
                           <xmpG:swatchName>R=128 G=128 B=128</xmpG:swatchName>
                           <xmpG:mode>RGB</xmpG:mode>
                           <xmpG:type>PROCESS</xmpG:type>
                           <xmpG:red>128</xmpG:red>
                           <xmpG:green>128</xmpG:green>
                           <xmpG:blue>128</xmpG:blue>
                        </rdf:li>
                        <rdf:li rdf:parseType="Resource">
                           <xmpG:swatchName>R=153 G=153 B=153</xmpG:swatchName>
                           <xmpG:mode>RGB</xmpG:mode>
                           <xmpG:type>PROCESS</xmpG:type>
                           <xmpG:red>153</xmpG:red>
                           <xmpG:green>153</xmpG:green>
                           <xmpG:blue>153</xmpG:blue>
                        </rdf:li>
                        <rdf:li rdf:parseType="Resource">
                           <xmpG:swatchName>R=179 G=179 B=179</xmpG:swatchName>
                           <xmpG:mode>RGB</xmpG:mode>
                           <xmpG:type>PROCESS</xmpG:type>
                           <xmpG:red>179</xmpG:red>
                           <xmpG:green>179</xmpG:green>
                           <xmpG:blue>179</xmpG:blue>
                        </rdf:li>
                        <rdf:li rdf:parseType="Resource">
                           <xmpG:swatchName>R=204 G=204 B=204</xmpG:swatchName>
                           <xmpG:mode>RGB</xmpG:mode>
                           <xmpG:type>PROCESS</xmpG:type>
                           <xmpG:red>204</xmpG:red>
                           <xmpG:green>204</xmpG:green>
                           <xmpG:blue>204</xmpG:blue>
                        </rdf:li>
                        <rdf:li rdf:parseType="Resource">
                           <xmpG:swatchName>R=230 G=230 B=230</xmpG:swatchName>
                           <xmpG:mode>RGB</xmpG:mode>
                           <xmpG:type>PROCESS</xmpG:type>
                           <xmpG:red>230</xmpG:red>
                           <xmpG:green>230</xmpG:green>
                           <xmpG:blue>230</xmpG:blue>
                        </rdf:li>
                        <rdf:li rdf:parseType="Resource">
                           <xmpG:swatchName>R=242 G=242 B=242</xmpG:swatchName>
                           <xmpG:mode>RGB</xmpG:mode>
                           <xmpG:type>PROCESS</xmpG:type>
                           <xmpG:red>242</xmpG:red>
                           <xmpG:green>242</xmpG:green>
                           <xmpG:blue>242</xmpG:blue>
                        </rdf:li>
                     </rdf:Seq>
                  </xmpG:Colorants>
               </rdf:li>
               <rdf:li rdf:parseType="Resource">
                  <xmpG:groupName>Web Color Group</xmpG:groupName>
                  <xmpG:groupType>1</xmpG:groupType>
                  <xmpG:Colorants>
                     <rdf:Seq>
                        <rdf:li rdf:parseType="Resource">
                           <xmpG:swatchName>R=63 G=169 B=245</xmpG:swatchName>
                           <xmpG:mode>RGB</xmpG:mode>
                           <xmpG:type>PROCESS</xmpG:type>
                           <xmpG:red>63</xmpG:red>
                           <xmpG:green>169</xmpG:green>
                           <xmpG:blue>245</xmpG:blue>
                        </rdf:li>
                        <rdf:li rdf:parseType="Resource">
                           <xmpG:swatchName>R=122 G=201 B=67</xmpG:swatchName>
                           <xmpG:mode>RGB</xmpG:mode>
                           <xmpG:type>PROCESS</xmpG:type>
                           <xmpG:red>122</xmpG:red>
                           <xmpG:green>201</xmpG:green>
                           <xmpG:blue>67</xmpG:blue>
                        </rdf:li>
                        <rdf:li rdf:parseType="Resource">
                           <xmpG:swatchName>R=255 G=147 B=30</xmpG:swatchName>
                           <xmpG:mode>RGB</xmpG:mode>
                           <xmpG:type>PROCESS</xmpG:type>
                           <xmpG:red>255</xmpG:red>
                           <xmpG:green>147</xmpG:green>
                           <xmpG:blue>30</xmpG:blue>
                        </rdf:li>
                        <rdf:li rdf:parseType="Resource">
                           <xmpG:swatchName>R=255 G=29 B=37</xmpG:swatchName>
                           <xmpG:mode>RGB</xmpG:mode>
                           <xmpG:type>PROCESS</xmpG:type>
                           <xmpG:red>255</xmpG:red>
                           <xmpG:green>29</xmpG:green>
                           <xmpG:blue>37</xmpG:blue>
                        </rdf:li>
                        <rdf:li rdf:parseType="Resource">
                           <xmpG:swatchName>R=255 G=123 B=172</xmpG:swatchName>
                           <xmpG:mode>RGB</xmpG:mode>
                           <xmpG:type>PROCESS</xmpG:type>
                           <xmpG:red>255</xmpG:red>
                           <xmpG:green>123</xmpG:green>
                           <xmpG:blue>172</xmpG:blue>
                        </rdf:li>
                        <rdf:li rdf:parseType="Resource">
                           <xmpG:swatchName>R=189 G=204 B=212</xmpG:swatchName>
                           <xmpG:mode>RGB</xmpG:mode>
                           <xmpG:type>PROCESS</xmpG:type>
                           <xmpG:red>189</xmpG:red>
                           <xmpG:green>204</xmpG:green>
                           <xmpG:blue>212</xmpG:blue>
                        </rdf:li>
                     </rdf:Seq>
                  </xmpG:Colorants>
               </rdf:li>
            </rdf:Seq>
         </xmpTPg:SwatchGroups>
         <pdf:Producer>Adobe PDF library 10.01</pdf:Producer>
      </rdf:Description>
   </rdf:RDF>
</x:xmpmeta>
                                                                                                    
                                                                                                    
                                                                                                    
                                                                                                    
                                                                                                    
                                                                                                    
                                                                                                    
                                                                                                    
                                                                                                    
                                                                                                    
                                                                                                    
                                                                                                    
                                                                                                    
                                                                                                    
                                                                                                    
                                                                                                    
                                                                                                    
                                                                                                    
                                                                                                    
                                                                                                    
                           
<?xpacket end="w"?>
	</metadata>
<g>
	<g>
		<path fill="#2E9BFF" d="M57.6,68.4c-5.3,0-7.3-3.2-8-5.1l-2.4-6.8h-15l-2.4,6.8c-1.2,3.4-3.8,5.1-7.9,5.1c-4.9,0-8.3-3.3-8.3-8
			c0-1.3,0.4-3.1,1.3-5.5l15.3-40.4c1.4-3.6,4.2-5.4,8.4-5.4h2.8c1.7,0,6.8,0,9,6.2l14.3,39.7c0.9,2.4,1.3,4.2,1.3,5.5
			C65.9,64.8,62.2,68.4,57.6,68.4z M42.7,42.7l-2.9-9.1l-3.1,9.1H42.7z"/>
		<path fill="#FFFFFF" d="M41.4,11.9c2.7,0,5,0.6,6.3,4.3L62,55.9c0.4,1.2,1.2,3.2,1.2,4.5c0,2.9-2.5,5.2-5.5,5.2
			c-2.6,0-4.5-0.9-5.3-3.2l-3-8.6h-19l-3.1,8.6c-0.8,2.3-2.4,3.2-5.3,3.2c-3.2,0-5.5-2-5.5-5.2c0-1.3,0.7-3.4,1.2-4.5l15.3-40.4
			c1-2.7,2.9-3.6,5.8-3.6H41.4 M32.8,45.5h13.8l-6.7-20.8h-0.1L32.8,45.5 M41.4,6.2h-2.8c-6.9,0-9.8,4-11.1,7.3L12.2,53.9
			c-1.4,3.6-1.5,5.5-1.5,6.5c0,6.3,4.7,10.9,11.1,10.9c7.1,0,9.7-4.4,10.6-7l1.7-4.9h11l1.7,4.8l0,0.1l0,0.1
			c1.6,4.4,5.5,6.9,10.6,6.9c6.2,0,11.2-4.9,11.2-10.9c0-1.1-0.2-2.9-1.5-6.5L53,14.3C51.7,10.6,48.7,6.2,41.4,6.2L41.4,6.2z"/>
	</g>
	<g>
		<path fill="#2E9BFF" d="M106.4,68.4c-6.2,0-8-2.7-9.3-7.6l-2.5-10l-2.5,10c-1.3,4.9-3.1,7.6-9.3,7.6c-5.6,0-7.7-1.7-9.6-7.7
			l-7.7-25.1c-0.4-1.3-0.8-2.7-0.8-4.7c0-4.2,3.6-7.7,7.9-7.7c6.2,0,7.3,4.4,7.9,7.3l2.7,11.2l1.9-9c0.8-3.8,2-9.4,9.1-9.4
			c0.1,0,0.5,0,0.6,0c7.2,0,8.6,5.9,9.4,9.4l1.9,8.8l2.4-10.8c0.6-2.7,1.6-7.3,7.9-7.3c4.3,0,7.9,3.5,7.9,7.7c0,2-0.4,3.4-0.8,4.7
			L116,60.7C114.2,66.7,112,68.4,106.4,68.4z"/>
		<path fill="#FFFFFF" d="M95,26.1c4.7,0,5.7,3.1,6.6,7.2l4.5,21h0.1l5.2-23c0.6-3,1.3-5.1,5.2-5.1c2.7,0,5.1,2.2,5.1,4.9
			c0,1.6-0.4,2.7-0.7,3.9l-7.7,25.1c-1.5,5-2.7,5.7-6.8,5.7c-4.4,0-5.5-1.3-6.6-5.5l-5.2-20.7h-0.1l-5.2,20.7
			c-1.1,4.2-2.2,5.5-6.6,5.5c-4.2,0-5.3-0.7-6.8-5.7l-7.7-25.1c-0.4-1.2-0.7-2.3-0.7-3.9c0-2.7,2.4-4.9,5.1-4.9
			c3.9,0,4.5,2.1,5.2,5.1l5.5,23h0.1l4.5-21c0.8-4,1.7-7.2,6.3-7.2c0.1,0,0.2,0,0.3,0C94.7,26.1,94.9,26.1,95,26.1 M95,20.4
			c-0.1,0-0.2,0-0.3,0c-0.1,0-0.2,0-0.3,0c-7.3,0-9.9,4.9-11.1,8.7c-0.8-3.1-2.7-8.7-10.5-8.7c-5.9,0-10.8,4.7-10.8,10.6
			c0,2.5,0.6,4.3,1,5.6l7.7,25c2.2,7.2,5.4,9.7,12.3,9.7c7.9,0,10.5-4.2,11.8-8.9c1.4,4.7,3.9,8.9,11.8,8.9c6.9,0,10.1-2.5,12.3-9.7
			l7.7-25c0.4-1.3,1-3.1,1-5.6c0-5.7-4.9-10.6-10.8-10.6c-7.5,0-9.6,5.2-10.4,8.3C104.9,24.9,102,20.4,95,20.4L95,20.4z"/>
	</g>
	<g>
		<path fill="#2E9BFF" d="M165.3,68.4c-6.2,0-8-2.7-9.3-7.6l-2.5-10l-2.5,10c-1.3,4.9-3.1,7.6-9.3,7.6c-5.6,0-7.7-1.7-9.6-7.7
			l-7.7-25.1c-0.4-1.2-0.8-2.7-0.8-4.7c0-4.2,3.6-7.7,7.9-7.7c6.2,0,7.2,4.4,7.9,7.3l2.7,11.2l1.9-9c0.8-3.8,2-9.4,9.1-9.4
			c0.1,0,0.5,0,0.6,0c7.2,0,8.6,5.9,9.4,9.4l1.9,8.8l2.4-10.8c0.6-2.7,1.6-7.3,8-7.3c4.3,0,7.9,3.5,7.9,7.7c0,2-0.5,3.5-0.9,4.7
			l-7.7,25C173.1,66.7,170.9,68.4,165.3,68.4z"/>
		<path fill="#FFFFFF" d="M153.9,26.1c4.7,0,5.7,3.1,6.6,7.2l4.5,21h0.1l5.2-23c0.6-3,1.3-5.1,5.2-5.1c2.7,0,5.1,2.2,5.1,4.9
			c0,1.6-0.4,2.7-0.7,3.9l-7.7,25.1c-1.5,5-2.7,5.7-6.8,5.7c-4.4,0-5.5-1.3-6.6-5.5l-5.2-20.7h-0.1l-5.2,20.7
			c-1.1,4.2-2.2,5.5-6.6,5.5c-4.2,0-5.3-0.7-6.8-5.7l-7.7-25.1c-0.4-1.2-0.7-2.3-0.7-3.9c0-2.7,2.4-4.9,5.1-4.9
			c3.9,0,4.5,2.1,5.2,5.1l5.5,23h0.1l4.5-21c0.8-4,1.7-7.2,6.3-7.2c0.1,0,0.2,0,0.3,0C153.6,26.1,153.7,26.1,153.9,26.1 M153.9,20.4
			c-0.1,0-0.2,0-0.3,0c-0.1,0-0.2,0-0.3,0c-7.3,0-9.9,4.9-11.1,8.7c-0.8-3.1-2.7-8.7-10.5-8.7c-5.8,0-10.8,4.8-10.8,10.6
			c0,2.5,0.6,4.3,1,5.6l7.7,25c2.2,7.2,5.4,9.7,12.3,9.7c7.9,0,10.4-4.2,11.8-8.9c1.4,4.7,3.9,8.9,11.8,8.9c6.9,0,10.1-2.5,12.3-9.7
			l7.7-25c0.4-1.3,1-3.1,1-5.6c0-5.8-4.8-10.6-10.8-10.6c-7.5,0-9.6,5.2-10.4,8.3C163.8,24.9,160.9,20.4,153.9,20.4L153.9,20.4z"/>
	</g>
	<g>
		<path fill="#2E9BFF" d="M224.2,68.4c-6.2,0-8-2.7-9.3-7.6l-2.5-10l-2.5,10c-1.3,4.9-3.1,7.6-9.3,7.6c-5.6,0-7.7-1.7-9.6-7.7
			l-7.7-25.1c-0.4-1.3-0.8-2.7-0.8-4.7c0-4.2,3.6-7.7,7.9-7.7c6.2,0,7.3,4.4,7.9,7.3l2.7,11.2l1.9-9c0.8-3.8,2-9.4,9.1-9.4
			c0.1,0,0.5,0,0.6,0c7.2,0,8.6,5.9,9.4,9.4l1.9,8.7l2.4-10.8c0.6-2.7,1.6-7.3,7.9-7.3c4.3,0,7.9,3.5,7.9,7.7c0,2-0.4,3.4-0.8,4.7
			l-7.7,25.1C232,66.7,229.8,68.4,224.2,68.4z"/>
		<path fill="#FFFFFF" d="M212.7,26.1c4.7,0,5.7,3.1,6.6,7.2l4.5,21h0.1l5.2-23c0.6-3,1.3-5.1,5.2-5.1c2.7,0,5.1,2.2,5.1,4.9
			c0,1.6-0.4,2.7-0.7,3.9l-7.7,25.1c-1.5,5-2.7,5.7-6.8,5.7c-4.4,0-5.5-1.3-6.6-5.5l-5.2-20.7h-0.1l-5.2,20.7
			c-1.1,4.2-2.2,5.5-6.6,5.5c-4.2,0-5.3-0.7-6.8-5.7l-7.7-25.1c-0.4-1.2-0.7-2.3-0.7-3.9c0-2.7,2.4-4.9,5.1-4.9
			c3.9,0,4.5,2.1,5.2,5.1l5.5,23h0.1l4.5-21c0.8-4,1.7-7.2,6.3-7.2c0.1,0,0.2,0,0.3,0C212.5,26.1,212.6,26.1,212.7,26.1 M212.7,20.4
			c-0.1,0-0.2,0-0.3,0c-0.1,0-0.2,0-0.3,0c-7.3,0-9.9,4.9-11.1,8.7c-0.8-3.1-2.7-8.7-10.5-8.7c-5.9,0-10.8,4.7-10.8,10.6
			c0,2.4,0.6,4.3,1,5.6l7.7,25c2.2,7.2,5.4,9.7,12.3,9.7c7.9,0,10.5-4.2,11.8-8.9c1.4,4.7,3.9,8.9,11.8,8.9c6.9,0,10.1-2.5,12.3-9.7
			l7.7-25c0.4-1.3,1-3.1,1-5.6c0-5.7-4.9-10.6-10.8-10.6c-7.5,0-9.6,5.2-10.4,8.3C222.7,24.9,219.8,20.4,212.7,20.4L212.7,20.4z"/>
	</g>
</g>
</svg>
