<?xml version="1.0" encoding="utf-8"?>
<!-- Generator: Adobe Illustrator 19.1.0, SVG Export Plug-In . SVG Version: 6.00 Build 0)  -->
<svg version="1.0" id="Layer_1" xmlns="http://www.w3.org/2000/svg" xmlns:xlink="http://www.w3.org/1999/xlink" x="0px" y="0px"
	 width="806.4px" height="77.9px" viewBox="0 0 806.4 77.9" enable-background="new 0 0 806.4 77.9" xml:space="preserve">
<metadata><?xpacket begin="﻿" id="W5M0MpCehiHzreSzNTczkc9d"?>
<x:xmpmeta xmlns:x="adobe:ns:meta/" x:xmptk="Adobe XMP Core 5.6-c067 79.157747, 2015/03/30-23:40:42        ">
   <rdf:RDF xmlns:rdf="http://www.w3.org/1999/02/22-rdf-syntax-ns#">
      <rdf:Description rdf:about=""
            xmlns:dc="http://purl.org/dc/elements/1.1/"
            xmlns:xmp="http://ns.adobe.com/xap/1.0/"
            xmlns:xmpGImg="http://ns.adobe.com/xap/1.0/g/img/"
            xmlns:xmpMM="http://ns.adobe.com/xap/1.0/mm/"
            xmlns:stRef="http://ns.adobe.com/xap/1.0/sType/ResourceRef#"
            xmlns:stEvt="http://ns.adobe.com/xap/1.0/sType/ResourceEvent#"
            xmlns:illustrator="http://ns.adobe.com/illustrator/1.0/"
            xmlns:xmpTPg="http://ns.adobe.com/xap/1.0/t/pg/"
            xmlns:stDim="http://ns.adobe.com/xap/1.0/sType/Dimensions#"
            xmlns:stFnt="http://ns.adobe.com/xap/1.0/sType/Font#"
            xmlns:xmpG="http://ns.adobe.com/xap/1.0/g/"
            xmlns:pdf="http://ns.adobe.com/pdf/1.3/">
         <dc:format>image/svg+xml</dc:format>
         <dc:title>
            <rdf:Alt>
               <rdf:li xml:lang="x-default">Web</rdf:li>
            </rdf:Alt>
         </dc:title>
         <xmp:CreatorTool>Adobe Illustrator CC 2015 (Windows)</xmp:CreatorTool>
         <xmp:CreateDate>2015-11-09T20:30:32+02:00</xmp:CreateDate>
         <xmp:ModifyDate>2015-11-09T20:30:32+02:00</xmp:ModifyDate>
         <xmp:MetadataDate>2015-11-09T20:30:32+02:00</xmp:MetadataDate>
         <xmp:Thumbnails>
            <rdf:Alt>
               <rdf:li rdf:parseType="Resource">
                  <xmpGImg:width>256</xmpGImg:width>
                  <xmpGImg:height>132</xmpGImg:height>
                  <xmpGImg:format>JPEG</xmpGImg:format>
                  <xmpGImg:image>/9j/4AAQSkZJRgABAgEASABIAAD/7QAsUGhvdG9zaG9wIDMuMAA4QklNA+0AAAAAABAASAAAAAEA&#xA;AQBIAAAAAQAB/+4ADkFkb2JlAGTAAAAAAf/bAIQABgQEBAUEBgUFBgkGBQYJCwgGBggLDAoKCwoK&#xA;DBAMDAwMDAwQDA4PEA8ODBMTFBQTExwbGxscHx8fHx8fHx8fHwEHBwcNDA0YEBAYGhURFRofHx8f&#xA;Hx8fHx8fHx8fHx8fHx8fHx8fHx8fHx8fHx8fHx8fHx8fHx8fHx8fHx8fHx8f/8AAEQgAhAEAAwER&#xA;AAIRAQMRAf/EAaIAAAAHAQEBAQEAAAAAAAAAAAQFAwIGAQAHCAkKCwEAAgIDAQEBAQEAAAAAAAAA&#xA;AQACAwQFBgcICQoLEAACAQMDAgQCBgcDBAIGAnMBAgMRBAAFIRIxQVEGE2EicYEUMpGhBxWxQiPB&#xA;UtHhMxZi8CRygvElQzRTkqKyY3PCNUQnk6OzNhdUZHTD0uIIJoMJChgZhJRFRqS0VtNVKBry4/PE&#xA;1OT0ZXWFlaW1xdXl9WZ2hpamtsbW5vY3R1dnd4eXp7fH1+f3OEhYaHiImKi4yNjo+Ck5SVlpeYmZ&#xA;qbnJ2en5KjpKWmp6ipqqusra6voRAAICAQIDBQUEBQYECAMDbQEAAhEDBCESMUEFURNhIgZxgZEy&#xA;obHwFMHR4SNCFVJicvEzJDRDghaSUyWiY7LCB3PSNeJEgxdUkwgJChgZJjZFGidkdFU38qOzwygp&#xA;0+PzhJSktMTU5PRldYWVpbXF1eX1RlZmdoaWprbG1ub2R1dnd4eXp7fH1+f3OEhYaHiImKi4yNjo&#xA;+DlJWWl5iZmpucnZ6fkqOkpaanqKmqq6ytrq+v/aAAwDAQACEQMRAD8A9U4q7FXYq7FXYq7FXYq7&#xA;FXYq7FXYq7FXYqk723lDS5PTki0+xklUtwZYYWZIwSTQ8ahRX5ZmCeoyiwZyr3lxDDBjNEQjfuCO&#xA;stN0q2YzWVrBA0iqpkhjRCyKKKKqBUAdMoyZsktpEmu8t2PFCO8QB7gisqbXYq7FXYq7FXYq7FXY&#xA;q7FXYq7FXYq7FXYq7FXYq7FXYq7FXYq7FXYq7FXYq7FXYq7FXYq7FXYq7FXYq7FXYq7FXYq7FXYq&#xA;7FXYq7FXYq7FXYq7FXYq7FXYq7FXYq7FXYq7FXYq7FXYq7FXYq7FXYq7FXYqslaRUrGgdv5SeP40&#xA;OGIHVBJ6IaO+uHG9pIrdgdh0Pc++WnGB/EGsZCeiLUkqCRQkbjrTKS2hvFXYqpRuxuZlJPFQlB8w&#xA;cmR6QwB3KrkGbsVdirsVdirsVdirsVdirsVdirsVdirsVdirsVdirsVdirsVdirsVdirsVdirsVd&#xA;irsVdirsVdirqCtabnvirsVdirsVdirsVdirsVdirsVdirsVdirsVdirsVdirsVdirsVdirsVdir&#xA;sVdirsVdirsVdirsVdirsVdirsVdirsVdirsVdirsVdirsVdirsVdirsVdirsVdirsVdirsVdirs&#xA;VdirsVdirsVdirsVdirsVdirsVdirsVdirsVdirsVdirsVdirsVdirsVdirsVdirsVdirsVdirsV&#xA;dirsVdirsVdirsVdirsVdirsVdirsVdirsVdirsVdirsVdirsVdirsVdirsVdirsVdirsVdirsVd&#xA;irsVdirsVdirsVdirsVdirsVdirsVdirsVdirsVdirsVdirsVdirsVdirsVdirsVdirsVdirsVdi&#xA;rsVdirsVdirsVdirsVdirsVdirsVdirsVdirsVdirsVdirsVdirsVdirsVdirsVdirsVdirsVdir&#xA;sVdirsVdirsVdirsVdirsVdirsVdirsVdirsVdirsVdirsVdirsVdirsVdirsVdirsVdirsVdirs&#xA;VdirsVdirsVdirsVdirsVdirsVdirsVdirsVdirsVdirsVdirsVdirsVdirsVdirsVdirsVdirsV&#xA;dirsVdirsVdirsVdirsVdirsVdirsVdirsVdirsVdirsVdirsVdirsVdirsVdirsVdirsVdirsVd&#xA;irsVdirsVdirsVdirsVdirsVdirsVdirsVdirsVdirsVdirsVdirsVdirsVdirsVdirsVdirsVdi&#xA;rsVdirsVdirsVS9zqQY+nE/E7gmRDT23U5kDg6n7C0Hj6D7V5l1H0+IgPJq/HzSq7/IDI8ML5/YU&#xA;3OuX3NOdS4Kqq1aCr8o61ruDUEfhhHB+LU8f4p3LUhHx9Ms3XmWQe1KUpjUL5/etzr+xdGdQbkXB&#xA;SnIqAUIPgvTAeDokcfVYp1MUqjMehBaMDtvsMJ4PxbEcf4psPqILN6TN3CFkAP0jfGod/wB6bn3f&#xA;csU6uQKoy9a/HGenb7OSPh/i2I8T8UqBtRoPgbpvUx9foGQqH4tlc/xS31NV+FRBSlQXLoevQkU7&#xA;Yax96Ln3Lp/rzEFY2FBQhHQA79dwcY8Hf9iZcXc0ovmdVZHVeVTIJE2B3pQLvTE8NfsUcV/tadtT&#xA;LvRGVRy4gNHv4dVxAh+LQTP8UujfUijh4yGoCp5J1ruOnhgIhex+9IM63CmX1bekbdaghovDp08c&#xA;lWPv+9jeTu+5svq3FT6RqCaqGjG3XqQfljWPv+9Nz7vubL6maqISO6uHTw6bjpXBUO/71ufc0p1U&#xA;caqzctmJMfw79RQCu2E+H+LUcf4pwOq1b4GAHQlo9ztv0x/d/i19f4pUZ9Q40WI17nkv8ciBDvZE&#xA;y7lnLUw9fTJWnTklOnyrXDUK5/exud8lznUqtwU0NOO6bV+Y7Yjg/FpPG5G1EGrRFvYunifADARD&#xA;vUGfc07amW2Sg6bFKeFdwcIEFJm5X1IuEaIhRt6gdK9tyKHEiHf96gz7nB9S4hRGa13Yslf1U/DG&#xA;od/3rc+5r1NU5A+jWgJ480oT2HjjWPvRc+5tX1MsCYqA0+EspA+dKHEiHekGfc3/ALkZGeoMHEfB&#xA;QowY/SKiuD0Dz+a+s+TlbUeLAxmtfhYslfnttiRDvUGfcuJu/SUekzOV3PqAEGp8KY+m+f2J9Vcv&#xA;tUFTUS1XSWgINBKlD49FByZMOlfIsAJ+fzCZZjOQ7FXYq7FXYq7FXYq7FXYq7FXYq7FUE9hOZOSX&#xA;ciqBspJO5698uGUVuA0nEb2JXtbTrbiOKZjJUcnck123p1pg4wTZGzLgIFAqf1W+4qPWqy/tVYVH&#xA;uN6/hkuOPcx4Jd6J4XH1fhzHrAfbA2qPnXK7F+TZRrzQo/SUZ/eTw7j4A21SOp2C5Z6DyBavWOZC&#xA;nE19zUPfQstQCBxr8htkiIVtEoBle8gjpY52YGOb0wOq8Qa/flMSBzDdIE8ih1g1TblcqN/iooO3&#xA;am2TModzWIz71eGK4RyZJvUWlAvELQ+NRkJSBGwpnEEcyrZBm7FXYq7FXYq7FXYq7FXYq7FXYq7F&#xA;XYq7FXYq7FXYq7FXYq7FXYq7FXYq7FXYq7FXYqpXFrb3AAmQOFrSte/yycZmPJjKAlzUf0Xp439I&#xA;Cnep7fTkvHn3sPBh3Kcz6R6zmRl9StH3b+GSiMlbcmMjjvduHT9PeroTIrCvHkSN+nT2xllmExxQ&#xA;KIihtrevABAxAO/fsNz75XKUpc2cYiPJRktLSWaryszmoCc6U3qQAPlkxkkBsGJhEncq1taRWwYR&#xA;luJNQpNQPlkJ5DLmyhAR5K2QZuxV2KuxV2KuxV2KuxV2KuxV2KuxV2KuxV2KuxV2KuxV2KuxV2Ku&#xA;xV2KuxV2KuxVxpTfpiqw+j6i14+pT4elae2HekbWuHGp40rX4qePvilJb/8AR/qP9Y9f1KjnTjX2&#xA;zMxcdbU4eTgve1S2/Rn12P6t6vPbhT7NKb/a+LIz4+E8VMocHFtab5iOU7FXYq7FXYq7FXYq7FXY&#xA;q7FX/9k=</xmpGImg:image>
               </rdf:li>
            </rdf:Alt>
         </xmp:Thumbnails>
         <xmpMM:RenditionClass>proof:pdf</xmpMM:RenditionClass>
         <xmpMM:OriginalDocumentID>uuid:65E6390686CF11DBA6E2D887CEACB407</xmpMM:OriginalDocumentID>
         <xmpMM:DocumentID>xmp.did:caf37e73-a6b5-964d-9be3-e623b51bcc16</xmpMM:DocumentID>
         <xmpMM:InstanceID>xmp.iid:caf37e73-a6b5-964d-9be3-e623b51bcc16</xmpMM:InstanceID>
         <xmpMM:DerivedFrom rdf:parseType="Resource">
            <stRef:instanceID>xmp.iid:2c53e5a2-fe80-b44a-8aa4-21ea20129265</stRef:instanceID>
            <stRef:documentID>xmp.did:2c53e5a2-fe80-b44a-8aa4-21ea20129265</stRef:documentID>
            <stRef:originalDocumentID>uuid:65E6390686CF11DBA6E2D887CEACB407</stRef:originalDocumentID>
            <stRef:renditionClass>proof:pdf</stRef:renditionClass>
         </xmpMM:DerivedFrom>
         <xmpMM:History>
            <rdf:Seq>
               <rdf:li rdf:parseType="Resource">
                  <stEvt:action>saved</stEvt:action>
                  <stEvt:instanceID>xmp.iid:2c53e5a2-fe80-b44a-8aa4-21ea20129265</stEvt:instanceID>
                  <stEvt:when>2015-11-09T16:06:53+02:00</stEvt:when>
                  <stEvt:softwareAgent>Adobe Illustrator CC 2015 (Windows)</stEvt:softwareAgent>
                  <stEvt:changed>/</stEvt:changed>
               </rdf:li>
               <rdf:li rdf:parseType="Resource">
                  <stEvt:action>saved</stEvt:action>
                  <stEvt:instanceID>xmp.iid:caf37e73-a6b5-964d-9be3-e623b51bcc16</stEvt:instanceID>
                  <stEvt:when>2015-11-09T20:30:32+02:00</stEvt:when>
                  <stEvt:softwareAgent>Adobe Illustrator CC 2015 (Windows)</stEvt:softwareAgent>
                  <stEvt:changed>/</stEvt:changed>
               </rdf:li>
            </rdf:Seq>
         </xmpMM:History>
         <illustrator:StartupProfile>Web</illustrator:StartupProfile>
         <xmpTPg:NPages>1</xmpTPg:NPages>
         <xmpTPg:HasVisibleTransparency>False</xmpTPg:HasVisibleTransparency>
         <xmpTPg:HasVisibleOverprint>False</xmpTPg:HasVisibleOverprint>
         <xmpTPg:MaxPageSize rdf:parseType="Resource">
            <stDim:w>969.952353</stDim:w>
            <stDim:h>79.343972</stDim:h>
            <stDim:unit>Pixels</stDim:unit>
         </xmpTPg:MaxPageSize>
         <xmpTPg:Fonts>
            <rdf:Bag>
               <rdf:li rdf:parseType="Resource">
                  <stFnt:fontName>HelveticaRoundedLTStd-Bd</stFnt:fontName>
                  <stFnt:fontFamily>Helvetica Rounded LT Std</stFnt:fontFamily>
                  <stFnt:fontFace>Bold</stFnt:fontFace>
                  <stFnt:fontType>Open Type</stFnt:fontType>
                  <stFnt:versionString>OTF 1.029;PS 001.001;Core 1.0.33;makeotf.lib1.4.1585</stFnt:versionString>
                  <stFnt:composite>False</stFnt:composite>
                  <stFnt:fontFileName>HelveticaRoundedLTStd-Bd.otf</stFnt:fontFileName>
               </rdf:li>
            </rdf:Bag>
         </xmpTPg:Fonts>
         <xmpTPg:PlateNames>
            <rdf:Seq>
               <rdf:li>Cyan</rdf:li>
               <rdf:li>Magenta</rdf:li>
            </rdf:Seq>
         </xmpTPg:PlateNames>
         <xmpTPg:SwatchGroups>
            <rdf:Seq>
               <rdf:li rdf:parseType="Resource">
                  <xmpG:groupName>Default Swatch Group</xmpG:groupName>
                  <xmpG:groupType>0</xmpG:groupType>
                  <xmpG:Colorants>
                     <rdf:Seq>
                        <rdf:li rdf:parseType="Resource">
                           <xmpG:swatchName>White</xmpG:swatchName>
                           <xmpG:mode>RGB</xmpG:mode>
                           <xmpG:type>PROCESS</xmpG:type>
                           <xmpG:red>255</xmpG:red>
                           <xmpG:green>255</xmpG:green>
                           <xmpG:blue>255</xmpG:blue>
                        </rdf:li>
                        <rdf:li rdf:parseType="Resource">
                           <xmpG:swatchName>Black</xmpG:swatchName>
                           <xmpG:mode>RGB</xmpG:mode>
                           <xmpG:type>PROCESS</xmpG:type>
                           <xmpG:red>0</xmpG:red>
                           <xmpG:green>0</xmpG:green>
                           <xmpG:blue>0</xmpG:blue>
                        </rdf:li>
                        <rdf:li rdf:parseType="Resource">
                           <xmpG:swatchName>RGB Red</xmpG:swatchName>
                           <xmpG:mode>RGB</xmpG:mode>
                           <xmpG:type>PROCESS</xmpG:type>
                           <xmpG:red>255</xmpG:red>
                           <xmpG:green>0</xmpG:green>
                           <xmpG:blue>0</xmpG:blue>
                        </rdf:li>
                        <rdf:li rdf:parseType="Resource">
                           <xmpG:swatchName>RGB Yellow</xmpG:swatchName>
                           <xmpG:mode>RGB</xmpG:mode>
                           <xmpG:type>PROCESS</xmpG:type>
                           <xmpG:red>255</xmpG:red>
                           <xmpG:green>255</xmpG:green>
                           <xmpG:blue>0</xmpG:blue>
                        </rdf:li>
                        <rdf:li rdf:parseType="Resource">
                           <xmpG:swatchName>RGB Green</xmpG:swatchName>
                           <xmpG:mode>RGB</xmpG:mode>
                           <xmpG:type>PROCESS</xmpG:type>
                           <xmpG:red>0</xmpG:red>
                           <xmpG:green>255</xmpG:green>
                           <xmpG:blue>0</xmpG:blue>
                        </rdf:li>
                        <rdf:li rdf:parseType="Resource">
                           <xmpG:swatchName>RGB Cyan</xmpG:swatchName>
                           <xmpG:mode>RGB</xmpG:mode>
                           <xmpG:type>PROCESS</xmpG:type>
                           <xmpG:red>0</xmpG:red>
                           <xmpG:green>255</xmpG:green>
                           <xmpG:blue>255</xmpG:blue>
                        </rdf:li>
                        <rdf:li rdf:parseType="Resource">
                           <xmpG:swatchName>RGB Blue</xmpG:swatchName>
                           <xmpG:mode>RGB</xmpG:mode>
                           <xmpG:type>PROCESS</xmpG:type>
                           <xmpG:red>0</xmpG:red>
                           <xmpG:green>0</xmpG:green>
                           <xmpG:blue>255</xmpG:blue>
                        </rdf:li>
                        <rdf:li rdf:parseType="Resource">
                           <xmpG:swatchName>RGB Magenta</xmpG:swatchName>
                           <xmpG:mode>RGB</xmpG:mode>
                           <xmpG:type>PROCESS</xmpG:type>
                           <xmpG:red>255</xmpG:red>
                           <xmpG:green>0</xmpG:green>
                           <xmpG:blue>255</xmpG:blue>
                        </rdf:li>
                        <rdf:li rdf:parseType="Resource">
                           <xmpG:swatchName>R=193 G=39 B=45</xmpG:swatchName>
                           <xmpG:mode>RGB</xmpG:mode>
                           <xmpG:type>PROCESS</xmpG:type>
                           <xmpG:red>193</xmpG:red>
                           <xmpG:green>39</xmpG:green>
                           <xmpG:blue>45</xmpG:blue>
                        </rdf:li>
                        <rdf:li rdf:parseType="Resource">
                           <xmpG:swatchName>R=237 G=28 B=36</xmpG:swatchName>
                           <xmpG:mode>RGB</xmpG:mode>
                           <xmpG:type>PROCESS</xmpG:type>
                           <xmpG:red>237</xmpG:red>
                           <xmpG:green>28</xmpG:green>
                           <xmpG:blue>36</xmpG:blue>
                        </rdf:li>
                        <rdf:li rdf:parseType="Resource">
                           <xmpG:swatchName>R=241 G=90 B=36</xmpG:swatchName>
                           <xmpG:mode>RGB</xmpG:mode>
                           <xmpG:type>PROCESS</xmpG:type>
                           <xmpG:red>241</xmpG:red>
                           <xmpG:green>90</xmpG:green>
                           <xmpG:blue>36</xmpG:blue>
                        </rdf:li>
                        <rdf:li rdf:parseType="Resource">
                           <xmpG:swatchName>R=247 G=147 B=30</xmpG:swatchName>
                           <xmpG:mode>RGB</xmpG:mode>
                           <xmpG:type>PROCESS</xmpG:type>
                           <xmpG:red>247</xmpG:red>
                           <xmpG:green>147</xmpG:green>
                           <xmpG:blue>30</xmpG:blue>
                        </rdf:li>
                        <rdf:li rdf:parseType="Resource">
                           <xmpG:swatchName>R=251 G=176 B=59</xmpG:swatchName>
                           <xmpG:mode>RGB</xmpG:mode>
                           <xmpG:type>PROCESS</xmpG:type>
                           <xmpG:red>251</xmpG:red>
                           <xmpG:green>176</xmpG:green>
                           <xmpG:blue>59</xmpG:blue>
                        </rdf:li>
                        <rdf:li rdf:parseType="Resource">
                           <xmpG:swatchName>R=252 G=238 B=33</xmpG:swatchName>
                           <xmpG:mode>RGB</xmpG:mode>
                           <xmpG:type>PROCESS</xmpG:type>
                           <xmpG:red>252</xmpG:red>
                           <xmpG:green>238</xmpG:green>
                           <xmpG:blue>33</xmpG:blue>
                        </rdf:li>
                        <rdf:li rdf:parseType="Resource">
                           <xmpG:swatchName>R=217 G=224 B=33</xmpG:swatchName>
                           <xmpG:mode>RGB</xmpG:mode>
                           <xmpG:type>PROCESS</xmpG:type>
                           <xmpG:red>217</xmpG:red>
                           <xmpG:green>224</xmpG:green>
                           <xmpG:blue>33</xmpG:blue>
                        </rdf:li>
                        <rdf:li rdf:parseType="Resource">
                           <xmpG:swatchName>R=140 G=198 B=63</xmpG:swatchName>
                           <xmpG:mode>RGB</xmpG:mode>
                           <xmpG:type>PROCESS</xmpG:type>
                           <xmpG:red>140</xmpG:red>
                           <xmpG:green>198</xmpG:green>
                           <xmpG:blue>63</xmpG:blue>
                        </rdf:li>
                        <rdf:li rdf:parseType="Resource">
                           <xmpG:swatchName>R=57 G=181 B=74</xmpG:swatchName>
                           <xmpG:mode>RGB</xmpG:mode>
                           <xmpG:type>PROCESS</xmpG:type>
                           <xmpG:red>57</xmpG:red>
                           <xmpG:green>181</xmpG:green>
                           <xmpG:blue>74</xmpG:blue>
                        </rdf:li>
                        <rdf:li rdf:parseType="Resource">
                           <xmpG:swatchName>R=0 G=146 B=69</xmpG:swatchName>
                           <xmpG:mode>RGB</xmpG:mode>
                           <xmpG:type>PROCESS</xmpG:type>
                           <xmpG:red>0</xmpG:red>
                           <xmpG:green>146</xmpG:green>
                           <xmpG:blue>69</xmpG:blue>
                        </rdf:li>
                        <rdf:li rdf:parseType="Resource">
                           <xmpG:swatchName>R=0 G=104 B=55</xmpG:swatchName>
                           <xmpG:mode>RGB</xmpG:mode>
                           <xmpG:type>PROCESS</xmpG:type>
                           <xmpG:red>0</xmpG:red>
                           <xmpG:green>104</xmpG:green>
                           <xmpG:blue>55</xmpG:blue>
                        </rdf:li>
                        <rdf:li rdf:parseType="Resource">
                           <xmpG:swatchName>R=34 G=181 B=115</xmpG:swatchName>
                           <xmpG:mode>RGB</xmpG:mode>
                           <xmpG:type>PROCESS</xmpG:type>
                           <xmpG:red>34</xmpG:red>
                           <xmpG:green>181</xmpG:green>
                           <xmpG:blue>115</xmpG:blue>
                        </rdf:li>
                        <rdf:li rdf:parseType="Resource">
                           <xmpG:swatchName>R=0 G=169 B=157</xmpG:swatchName>
                           <xmpG:mode>RGB</xmpG:mode>
                           <xmpG:type>PROCESS</xmpG:type>
                           <xmpG:red>0</xmpG:red>
                           <xmpG:green>169</xmpG:green>
                           <xmpG:blue>157</xmpG:blue>
                        </rdf:li>
                        <rdf:li rdf:parseType="Resource">
                           <xmpG:swatchName>R=41 G=171 B=226</xmpG:swatchName>
                           <xmpG:mode>RGB</xmpG:mode>
                           <xmpG:type>PROCESS</xmpG:type>
                           <xmpG:red>41</xmpG:red>
                           <xmpG:green>171</xmpG:green>
                           <xmpG:blue>226</xmpG:blue>
                        </rdf:li>
                        <rdf:li rdf:parseType="Resource">
                           <xmpG:swatchName>R=0 G=113 B=188</xmpG:swatchName>
                           <xmpG:mode>RGB</xmpG:mode>
                           <xmpG:type>PROCESS</xmpG:type>
                           <xmpG:red>0</xmpG:red>
                           <xmpG:green>113</xmpG:green>
                           <xmpG:blue>188</xmpG:blue>
                        </rdf:li>
                        <rdf:li rdf:parseType="Resource">
                           <xmpG:swatchName>R=46 G=49 B=146</xmpG:swatchName>
                           <xmpG:mode>RGB</xmpG:mode>
                           <xmpG:type>PROCESS</xmpG:type>
                           <xmpG:red>46</xmpG:red>
                           <xmpG:green>49</xmpG:green>
                           <xmpG:blue>146</xmpG:blue>
                        </rdf:li>
                        <rdf:li rdf:parseType="Resource">
                           <xmpG:swatchName>R=27 G=20 B=100</xmpG:swatchName>
                           <xmpG:mode>RGB</xmpG:mode>
                           <xmpG:type>PROCESS</xmpG:type>
                           <xmpG:red>27</xmpG:red>
                           <xmpG:green>20</xmpG:green>
                           <xmpG:blue>100</xmpG:blue>
                        </rdf:li>
                        <rdf:li rdf:parseType="Resource">
                           <xmpG:swatchName>R=102 G=45 B=145</xmpG:swatchName>
                           <xmpG:mode>RGB</xmpG:mode>
                           <xmpG:type>PROCESS</xmpG:type>
                           <xmpG:red>102</xmpG:red>
                           <xmpG:green>45</xmpG:green>
                           <xmpG:blue>145</xmpG:blue>
                        </rdf:li>
                        <rdf:li rdf:parseType="Resource">
                           <xmpG:swatchName>R=147 G=39 B=143</xmpG:swatchName>
                           <xmpG:mode>RGB</xmpG:mode>
                           <xmpG:type>PROCESS</xmpG:type>
                           <xmpG:red>147</xmpG:red>
                           <xmpG:green>39</xmpG:green>
                           <xmpG:blue>143</xmpG:blue>
                        </rdf:li>
                        <rdf:li rdf:parseType="Resource">
                           <xmpG:swatchName>R=158 G=0 B=93</xmpG:swatchName>
                           <xmpG:mode>RGB</xmpG:mode>
                           <xmpG:type>PROCESS</xmpG:type>
                           <xmpG:red>158</xmpG:red>
                           <xmpG:green>0</xmpG:green>
                           <xmpG:blue>93</xmpG:blue>
                        </rdf:li>
                        <rdf:li rdf:parseType="Resource">
                           <xmpG:swatchName>R=212 G=20 B=90</xmpG:swatchName>
                           <xmpG:mode>RGB</xmpG:mode>
                           <xmpG:type>PROCESS</xmpG:type>
                           <xmpG:red>212</xmpG:red>
                           <xmpG:green>20</xmpG:green>
                           <xmpG:blue>90</xmpG:blue>
                        </rdf:li>
                        <rdf:li rdf:parseType="Resource">
                           <xmpG:swatchName>R=237 G=30 B=121</xmpG:swatchName>
                           <xmpG:mode>RGB</xmpG:mode>
                           <xmpG:type>PROCESS</xmpG:type>
                           <xmpG:red>237</xmpG:red>
                           <xmpG:green>30</xmpG:green>
                           <xmpG:blue>121</xmpG:blue>
                        </rdf:li>
                        <rdf:li rdf:parseType="Resource">
                           <xmpG:swatchName>R=199 G=178 B=153</xmpG:swatchName>
                           <xmpG:mode>RGB</xmpG:mode>
                           <xmpG:type>PROCESS</xmpG:type>
                           <xmpG:red>199</xmpG:red>
                           <xmpG:green>178</xmpG:green>
                           <xmpG:blue>153</xmpG:blue>
                        </rdf:li>
                        <rdf:li rdf:parseType="Resource">
                           <xmpG:swatchName>R=153 G=134 B=117</xmpG:swatchName>
                           <xmpG:mode>RGB</xmpG:mode>
                           <xmpG:type>PROCESS</xmpG:type>
                           <xmpG:red>153</xmpG:red>
                           <xmpG:green>134</xmpG:green>
                           <xmpG:blue>117</xmpG:blue>
                        </rdf:li>
                        <rdf:li rdf:parseType="Resource">
                           <xmpG:swatchName>R=115 G=99 B=87</xmpG:swatchName>
                           <xmpG:mode>RGB</xmpG:mode>
                           <xmpG:type>PROCESS</xmpG:type>
                           <xmpG:red>115</xmpG:red>
                           <xmpG:green>99</xmpG:green>
                           <xmpG:blue>87</xmpG:blue>
                        </rdf:li>
                        <rdf:li rdf:parseType="Resource">
                           <xmpG:swatchName>R=83 G=71 B=65</xmpG:swatchName>
                           <xmpG:mode>RGB</xmpG:mode>
                           <xmpG:type>PROCESS</xmpG:type>
                           <xmpG:red>83</xmpG:red>
                           <xmpG:green>71</xmpG:green>
                           <xmpG:blue>65</xmpG:blue>
                        </rdf:li>
                        <rdf:li rdf:parseType="Resource">
                           <xmpG:swatchName>R=198 G=156 B=109</xmpG:swatchName>
                           <xmpG:mode>RGB</xmpG:mode>
                           <xmpG:type>PROCESS</xmpG:type>
                           <xmpG:red>198</xmpG:red>
                           <xmpG:green>156</xmpG:green>
                           <xmpG:blue>109</xmpG:blue>
                        </rdf:li>
                        <rdf:li rdf:parseType="Resource">
                           <xmpG:swatchName>R=166 G=124 B=82</xmpG:swatchName>
                           <xmpG:mode>RGB</xmpG:mode>
                           <xmpG:type>PROCESS</xmpG:type>
                           <xmpG:red>166</xmpG:red>
                           <xmpG:green>124</xmpG:green>
                           <xmpG:blue>82</xmpG:blue>
                        </rdf:li>
                        <rdf:li rdf:parseType="Resource">
                           <xmpG:swatchName>R=140 G=98 B=57</xmpG:swatchName>
                           <xmpG:mode>RGB</xmpG:mode>
                           <xmpG:type>PROCESS</xmpG:type>
                           <xmpG:red>140</xmpG:red>
                           <xmpG:green>98</xmpG:green>
                           <xmpG:blue>57</xmpG:blue>
                        </rdf:li>
                        <rdf:li rdf:parseType="Resource">
                           <xmpG:swatchName>R=117 G=76 B=36</xmpG:swatchName>
                           <xmpG:mode>RGB</xmpG:mode>
                           <xmpG:type>PROCESS</xmpG:type>
                           <xmpG:red>117</xmpG:red>
                           <xmpG:green>76</xmpG:green>
                           <xmpG:blue>36</xmpG:blue>
                        </rdf:li>
                        <rdf:li rdf:parseType="Resource">
                           <xmpG:swatchName>R=96 G=56 B=19</xmpG:swatchName>
                           <xmpG:mode>RGB</xmpG:mode>
                           <xmpG:type>PROCESS</xmpG:type>
                           <xmpG:red>96</xmpG:red>
                           <xmpG:green>56</xmpG:green>
                           <xmpG:blue>19</xmpG:blue>
                        </rdf:li>
                        <rdf:li rdf:parseType="Resource">
                           <xmpG:swatchName>R=66 G=33 B=11</xmpG:swatchName>
                           <xmpG:mode>RGB</xmpG:mode>
                           <xmpG:type>PROCESS</xmpG:type>
                           <xmpG:red>66</xmpG:red>
                           <xmpG:green>33</xmpG:green>
                           <xmpG:blue>11</xmpG:blue>
                        </rdf:li>
                     </rdf:Seq>
                  </xmpG:Colorants>
               </rdf:li>
               <rdf:li rdf:parseType="Resource">
                  <xmpG:groupName>Grays</xmpG:groupName>
                  <xmpG:groupType>1</xmpG:groupType>
                  <xmpG:Colorants>
                     <rdf:Seq>
                        <rdf:li rdf:parseType="Resource">
                           <xmpG:swatchName>R=0 G=0 B=0</xmpG:swatchName>
                           <xmpG:mode>RGB</xmpG:mode>
                           <xmpG:type>PROCESS</xmpG:type>
                           <xmpG:red>0</xmpG:red>
                           <xmpG:green>0</xmpG:green>
                           <xmpG:blue>0</xmpG:blue>
                        </rdf:li>
                        <rdf:li rdf:parseType="Resource">
                           <xmpG:swatchName>R=26 G=26 B=26</xmpG:swatchName>
                           <xmpG:mode>RGB</xmpG:mode>
                           <xmpG:type>PROCESS</xmpG:type>
                           <xmpG:red>26</xmpG:red>
                           <xmpG:green>26</xmpG:green>
                           <xmpG:blue>26</xmpG:blue>
                        </rdf:li>
                        <rdf:li rdf:parseType="Resource">
                           <xmpG:swatchName>R=51 G=51 B=51</xmpG:swatchName>
                           <xmpG:mode>RGB</xmpG:mode>
                           <xmpG:type>PROCESS</xmpG:type>
                           <xmpG:red>51</xmpG:red>
                           <xmpG:green>51</xmpG:green>
                           <xmpG:blue>51</xmpG:blue>
                        </rdf:li>
                        <rdf:li rdf:parseType="Resource">
                           <xmpG:swatchName>R=77 G=77 B=77</xmpG:swatchName>
                           <xmpG:mode>RGB</xmpG:mode>
                           <xmpG:type>PROCESS</xmpG:type>
                           <xmpG:red>77</xmpG:red>
                           <xmpG:green>77</xmpG:green>
                           <xmpG:blue>77</xmpG:blue>
                        </rdf:li>
                        <rdf:li rdf:parseType="Resource">
                           <xmpG:swatchName>R=102 G=102 B=102</xmpG:swatchName>
                           <xmpG:mode>RGB</xmpG:mode>
                           <xmpG:type>PROCESS</xmpG:type>
                           <xmpG:red>102</xmpG:red>
                           <xmpG:green>102</xmpG:green>
                           <xmpG:blue>102</xmpG:blue>
                        </rdf:li>
                        <rdf:li rdf:parseType="Resource">
                           <xmpG:swatchName>R=128 G=128 B=128</xmpG:swatchName>
                           <xmpG:mode>RGB</xmpG:mode>
                           <xmpG:type>PROCESS</xmpG:type>
                           <xmpG:red>128</xmpG:red>
                           <xmpG:green>128</xmpG:green>
                           <xmpG:blue>128</xmpG:blue>
                        </rdf:li>
                        <rdf:li rdf:parseType="Resource">
                           <xmpG:swatchName>R=153 G=153 B=153</xmpG:swatchName>
                           <xmpG:mode>RGB</xmpG:mode>
                           <xmpG:type>PROCESS</xmpG:type>
                           <xmpG:red>153</xmpG:red>
                           <xmpG:green>153</xmpG:green>
                           <xmpG:blue>153</xmpG:blue>
                        </rdf:li>
                        <rdf:li rdf:parseType="Resource">
                           <xmpG:swatchName>R=179 G=179 B=179</xmpG:swatchName>
                           <xmpG:mode>RGB</xmpG:mode>
                           <xmpG:type>PROCESS</xmpG:type>
                           <xmpG:red>179</xmpG:red>
                           <xmpG:green>179</xmpG:green>
                           <xmpG:blue>179</xmpG:blue>
                        </rdf:li>
                        <rdf:li rdf:parseType="Resource">
                           <xmpG:swatchName>R=204 G=204 B=204</xmpG:swatchName>
                           <xmpG:mode>RGB</xmpG:mode>
                           <xmpG:type>PROCESS</xmpG:type>
                           <xmpG:red>204</xmpG:red>
                           <xmpG:green>204</xmpG:green>
                           <xmpG:blue>204</xmpG:blue>
                        </rdf:li>
                        <rdf:li rdf:parseType="Resource">
                           <xmpG:swatchName>R=230 G=230 B=230</xmpG:swatchName>
                           <xmpG:mode>RGB</xmpG:mode>
                           <xmpG:type>PROCESS</xmpG:type>
                           <xmpG:red>230</xmpG:red>
                           <xmpG:green>230</xmpG:green>
                           <xmpG:blue>230</xmpG:blue>
                        </rdf:li>
                        <rdf:li rdf:parseType="Resource">
                           <xmpG:swatchName>R=242 G=242 B=242</xmpG:swatchName>
                           <xmpG:mode>RGB</xmpG:mode>
                           <xmpG:type>PROCESS</xmpG:type>
                           <xmpG:red>242</xmpG:red>
                           <xmpG:green>242</xmpG:green>
                           <xmpG:blue>242</xmpG:blue>
                        </rdf:li>
                     </rdf:Seq>
                  </xmpG:Colorants>
               </rdf:li>
               <rdf:li rdf:parseType="Resource">
                  <xmpG:groupName>Web Color Group</xmpG:groupName>
                  <xmpG:groupType>1</xmpG:groupType>
                  <xmpG:Colorants>
                     <rdf:Seq>
                        <rdf:li rdf:parseType="Resource">
                           <xmpG:swatchName>R=63 G=169 B=245</xmpG:swatchName>
                           <xmpG:mode>RGB</xmpG:mode>
                           <xmpG:type>PROCESS</xmpG:type>
                           <xmpG:red>63</xmpG:red>
                           <xmpG:green>169</xmpG:green>
                           <xmpG:blue>245</xmpG:blue>
                        </rdf:li>
                        <rdf:li rdf:parseType="Resource">
                           <xmpG:swatchName>R=122 G=201 B=67</xmpG:swatchName>
                           <xmpG:mode>RGB</xmpG:mode>
                           <xmpG:type>PROCESS</xmpG:type>
                           <xmpG:red>122</xmpG:red>
                           <xmpG:green>201</xmpG:green>
                           <xmpG:blue>67</xmpG:blue>
                        </rdf:li>
                        <rdf:li rdf:parseType="Resource">
                           <xmpG:swatchName>R=255 G=147 B=30</xmpG:swatchName>
                           <xmpG:mode>RGB</xmpG:mode>
                           <xmpG:type>PROCESS</xmpG:type>
                           <xmpG:red>255</xmpG:red>
                           <xmpG:green>147</xmpG:green>
                           <xmpG:blue>30</xmpG:blue>
                        </rdf:li>
                        <rdf:li rdf:parseType="Resource">
                           <xmpG:swatchName>R=255 G=29 B=37</xmpG:swatchName>
                           <xmpG:mode>RGB</xmpG:mode>
                           <xmpG:type>PROCESS</xmpG:type>
                           <xmpG:red>255</xmpG:red>
                           <xmpG:green>29</xmpG:green>
                           <xmpG:blue>37</xmpG:blue>
                        </rdf:li>
                        <rdf:li rdf:parseType="Resource">
                           <xmpG:swatchName>R=255 G=123 B=172</xmpG:swatchName>
                           <xmpG:mode>RGB</xmpG:mode>
                           <xmpG:type>PROCESS</xmpG:type>
                           <xmpG:red>255</xmpG:red>
                           <xmpG:green>123</xmpG:green>
                           <xmpG:blue>172</xmpG:blue>
                        </rdf:li>
                        <rdf:li rdf:parseType="Resource">
                           <xmpG:swatchName>R=189 G=204 B=212</xmpG:swatchName>
                           <xmpG:mode>RGB</xmpG:mode>
                           <xmpG:type>PROCESS</xmpG:type>
                           <xmpG:red>189</xmpG:red>
                           <xmpG:green>204</xmpG:green>
                           <xmpG:blue>212</xmpG:blue>
                        </rdf:li>
                     </rdf:Seq>
                  </xmpG:Colorants>
               </rdf:li>
            </rdf:Seq>
         </xmpTPg:SwatchGroups>
         <pdf:Producer>Adobe PDF library 10.01</pdf:Producer>
      </rdf:Description>
   </rdf:RDF>
</x:xmpmeta>
                                                                                                    
                                                                                                    
                                                                                                    
                                                                                                    
                                                                                                    
                                                                                                    
                                                                                                    
                                                                                                    
                                                                                                    
                                                                                                    
                                                                                                    
                                                                                                    
                                                                                                    
                                                                                                    
                                                                                                    
                                                                                                    
                                                                                                    
                                                                                                    
                                                                                                    
                                                                                                    
                           
<?xpacket end="w"?>
	</metadata>
<g>
	<g>
		<path fill="#2E9BFF" d="M25.3,67.7c-6.3,0-9.7-3.5-9.7-9.7v-38c0-6.3,3.5-9.7,9.7-9.7h14.4c17.8,0,27.5,10.2,27.5,28.8
			c0,18-10.4,28.8-27.7,28.8H25.3z M40.1,52.5c8.4,0,9.6-8.5,9.6-13.6c0-13.6-7.3-13.6-9.7-13.6h-7v27.2H40.1z"/>
		<path fill="#FFFFFF" d="M39.7,13c12.9,0,24.7,5.6,24.7,25.9c0,16.4-9.1,25.9-24.9,25.9H25.3c-4.2,0-6.9-1.7-6.9-6.9v-38
			c0-5.3,2.7-6.9,6.9-6.9H39.7 M30.2,55.4h9.9c9.4,0,12.5-8.4,12.5-16.4c0-10.2-3.9-16.4-12.5-16.4h-9.9V55.4 M39.7,7.4H25.3
			c-7.9,0-12.6,4.7-12.6,12.6v38c0,7.9,4.7,12.6,12.6,12.6h14.2c18.9,0,30.6-12.1,30.6-31.6c0-11.1-3.2-19.4-9.5-24.9
			C55.4,9.6,48.4,7.4,39.7,7.4L39.7,7.4z M35.9,28.2h4.2c2.4,0,6.9,0,6.9,10.7c0,4.9-1.2,10.7-6.8,10.7h-4.3V28.2L35.9,28.2z"/>
	</g>
	<g>
		<path fill="#2E9BFF" d="M99.8,68.9c-18.2,0-29-11.4-29-30.6C70.8,20.5,82.2,9,99.8,9s29,11.5,29,29.3
			C128.9,53.5,119.9,68.9,99.8,68.9z M99.8,24.1c-10.1,0-11.6,8.9-11.6,14.2c0,13.9,6.6,15.5,11.6,15.5c7.7,0,11.6-5.2,11.6-15.5
			C111.4,33,109.9,24.1,99.8,24.1z"/>
		<path fill="#FFFFFF" d="M99.8,11.8c17,0,26.2,11.3,26.2,26.5c0,14.6-8.5,27.8-26.2,27.8c-18.6,0-26.2-12.1-26.2-27.8
			C73.6,23.1,82.8,11.8,99.8,11.8 M99.8,56.6c10.7,0,14.4-8.4,14.4-18.3c0-9.9-4.8-17-14.4-17s-14.4,7.1-14.4,17
			C85.4,48.2,88.7,56.6,99.8,56.6 M99.8,6.1c-9.7,0-17.9,3.2-23.6,9.3c-5.4,5.8-8.3,13.7-8.3,22.8c0,21,11.9,33.5,31.9,33.5
			c10,0,18.3-3.6,24.1-10.4c5-5.9,7.8-14.1,7.8-23c0-9.2-2.9-17.1-8.3-22.8C117.7,9.4,109.5,6.1,99.8,6.1L99.8,6.1z M99.8,50.9
			c-3.1,0-8.7,0-8.7-12.6c0-7.5,2.9-11.3,8.7-11.3c5.8,0,8.7,3.8,8.7,11.3C108.5,50.9,102.4,50.9,99.8,50.9L99.8,50.9z"/>
	</g>
	<g>
		<path fill="#2E9BFF" d="M198.8,68.6c-5.3,0-7.3-3.2-8-5.1l-2.4-6.8h-15l-2.4,6.8c-1.2,3.4-3.8,5.1-7.9,5.1c-4.9,0-8.3-3.3-8.3-8
			c0-1.3,0.4-3.1,1.3-5.5l15.3-40.4c1.4-3.6,4.2-5.4,8.4-5.4h2.8c1.7,0,6.8,0,9,6.2l14.3,39.7c0.9,2.4,1.3,4.2,1.3,5.5
			C207.2,65,203.4,68.6,198.8,68.6z M184,42.9l-2.9-9.1l-3.1,9.1H184z"/>
		<path fill="#FFFFFF" d="M182.6,12.1c2.7,0,5,0.6,6.3,4.3l14.3,39.7c0.4,1.2,1.2,3.2,1.2,4.5c0,2.9-2.5,5.2-5.5,5.2
			c-2.6,0-4.5-0.9-5.3-3.2l-3-8.6h-19l-3.1,8.6c-0.8,2.3-2.4,3.2-5.3,3.2c-3.2,0-5.5-2-5.5-5.2c0-1.3,0.7-3.4,1.2-4.5L174,15.7
			c1-2.7,2.9-3.6,5.8-3.6H182.6 M174,45.7h13.8l-6.7-20.8H181L174,45.7 M182.6,6.4h-2.8c-6.9,0-9.8,3.9-11.1,7.3l-15.3,40.4
			c-1.4,3.6-1.5,5.5-1.5,6.5c0,6.3,4.7,10.9,11.1,10.9c7.1,0,9.7-4.4,10.6-7l1.7-4.9h11l1.7,4.8l0,0.1l0,0.1
			c1.6,4.4,5.5,6.9,10.6,6.9c6.2,0,11.2-4.9,11.2-10.9c0-1.1-0.2-2.9-1.5-6.5l-14.2-39.6C193,10.8,189.9,6.4,182.6,6.4L182.6,6.4z"
			/>
	</g>
	<g>
		<path fill="#2E9BFF" d="M262.4,68.9c-18.2,0-28.6-10.9-28.6-30c0-14.9,8.7-30,28.2-30c14.7,0,23.8,9.5,23.8,16.4
			c0,5-3.2,8.2-8.2,8.2c-4.5,0-6.6-2.9-8.1-5.1c-1.7-2.4-3-4.3-7.5-4.3c-6.4,0-10.7,6-10.7,14.8c0,6.8,1.9,14.8,11.1,14.8
			c3.6,0,5-1.8,7.1-4.7c1.7-2.3,3.7-5.3,7.7-5.3c4.9,0,8.6,3.2,8.6,7.4C285.7,60.6,274.8,68.9,262.4,68.9z"/>
		<path fill="#FFFFFF" d="M262,11.8c13.5,0,21,8.5,21,13.5c0,3.3-1.8,5.3-5.3,5.3c-6.8,0-4.8-9.4-15.6-9.4
			c-7.4,0-13.5,6.4-13.5,17.6c0,9.4,3.7,17.6,14,17.6c9.3,0,9.1-9.9,14.8-9.9c2.9,0,5.8,1.7,5.8,4.5c0,7.5-9.1,14.9-20.5,14.9
			c-16.2,0-25.8-9.3-25.8-27.1C236.6,24.3,245.2,11.8,262,11.8 M262,6.1c-9.6,0-17.6,3.5-23.2,10.1c-5,5.9-7.8,13.9-7.8,22.7
			c0,20.5,11.8,32.8,31.4,32.8c14.2,0,26.2-9.4,26.2-20.6c0-5.7-5-10.2-11.4-10.2c-5.4,0-8.2,3.9-10,6.5c-2,2.8-2.7,3.5-4.8,3.5
			c-2.1,0-8.3,0-8.3-12c0-7.2,3.2-12,7.9-12c3.1,0,3.7,0.8,5.2,3.1c1.7,2.4,4.4,6.3,10.4,6.3c6.6,0,11-4.4,11-11
			C288.6,17.5,279.1,6.1,262,6.1L262,6.1z"/>
	</g>
	<g>
		<path fill="#2E9BFF" d="M331.7,68.6c-6,0-9.8-4.4-9.8-11.2c0-9.5-1.8-9.9-5.3-9.9h-8.8v12.4c0,5.1-3.6,8.7-8.7,8.7
			s-8.7-3.6-8.7-8.7v-40c0-6.3,3.5-9.7,9.7-9.7h19.7c19.1,0,20.6,13.2,20.6,17.2c0,5-2.1,9.5-5.4,12.3c3.6,3.2,3.6,8.4,3.6,10.8
			c0,3.3,0.5,5.2,1,6.9c0.3,1.2,0.6,2.4,0.6,3.7C340.1,65.8,335.8,68.6,331.7,68.6z M316.7,33.2c5.6,0,6.1-2,6.1-4.1
			c0-2.6-0.4-4.1-5.7-4.1h-9.3v8.3H316.7z"/>
		<path fill="#FFFFFF" d="M319.7,13c14,0,17.8,7.7,17.8,14.4c0,5.6-3.3,11.2-8.9,12.5V40c6,0.9,7.1,5.3,7.1,10.5
			c0,6,1.6,8.2,1.6,10.7c0,2.7-2.8,4.6-5.5,4.6c-6.5,0-7-6.3-7-8.4c0-9.1-1.7-12.7-8.1-12.7h-11.7v15.2c0,3.5-2.3,5.9-5.9,5.9
			c-3.6,0-5.9-2.4-5.9-5.9v-40c0-5.3,2.7-6.9,6.9-6.9H319.7 M304.9,36.1h11.8c4.5,0,8.9-1.2,8.9-7c0-5.5-3.4-7-8.6-7h-12.2V36.1
			 M319.7,7.4H300c-7.9,0-12.6,4.7-12.6,12.6v40c0,6.7,4.9,11.6,11.6,11.6s11.6-4.9,11.6-11.6v-9.5h6c1,0,1.5,0.1,1.6,0.2
			c0.2,0.3,0.8,1.6,0.8,6.9c0,8.4,5.1,14,12.7,14c6.2,0,11.2-4.6,11.2-10.3c0-1.7-0.4-3.1-0.7-4.4c-0.4-1.6-0.9-3.3-0.9-6.2
			c0-4.4-0.9-8-2.6-10.6c2.8-3.3,4.4-7.7,4.4-12.5C343.2,17.7,337,7.4,319.7,7.4L319.7,7.4z M310.6,27.8h6.5c1.7,0,2.5,0.2,2.8,0.3
			c0,0.2,0.1,0.5,0.1,1c0,0.5-0.1,0.7-0.1,0.9c-0.2,0.1-1,0.5-3.2,0.5h-6.1V27.8L310.6,27.8z"/>
	</g>
	<g>
		<path fill="#2E9BFF" d="M385.7,68.6c-5.3,0-7.3-3.2-8-5.1l-2.4-6.8h-15l-2.4,6.8c-1.2,3.4-3.8,5.1-7.9,5.1c-4.9,0-8.3-3.3-8.3-8
			c0-1.3,0.4-3.1,1.3-5.5l15.3-40.4c1.4-3.6,4.2-5.4,8.4-5.4h2.8c1.7,0,6.8,0,9,6.2l14.3,39.7c1.3,3.5,1.3,5,1.3,5.5
			C394.1,65,390.3,68.6,385.7,68.6z M370.9,42.9l-2.9-9.1l-3.1,9.1H370.9z"/>
		<path fill="#FFFFFF" d="M369.5,12.1c2.7,0,5,0.6,6.3,4.3l14.3,39.7c0.4,1.2,1.2,3.2,1.2,4.5c0,2.9-2.5,5.2-5.5,5.2
			c-2.6,0-4.5-0.9-5.3-3.2l-3-8.6h-19l-3.1,8.6c-0.8,2.3-2.4,3.2-5.3,3.2c-3.2,0-5.5-2-5.5-5.2c0-1.3,0.7-3.4,1.2-4.5L361,15.7
			c1-2.7,2.9-3.6,5.8-3.6H369.5 M361,45.7h13.8l-6.7-20.8h-0.1L361,45.7 M369.5,6.4h-2.8c-6.9,0-9.8,4-11.1,7.3l-15.3,40.4
			c-1.4,3.6-1.5,5.5-1.5,6.5c0,6.3,4.7,10.9,11.1,10.9c7.1,0,9.7-4.4,10.6-7l1.7-4.9h11l1.7,4.8l0,0.1l0,0.1
			c1.6,4.4,5.5,6.9,10.6,6.9c6.2,0,11.2-4.9,11.2-10.9c0-1.1-0.2-2.9-1.5-6.5l-14.2-39.6C379.9,10.8,376.8,6.4,369.5,6.4L369.5,6.4z
			"/>
	</g>
	<g>
		<path fill="#2E9BFF" d="M403.8,67.7c-8,0-9.7-4.7-9.7-8.7c0-2.9,1.4-4.9,2.6-6.4l22.8-26.9H405c-5.3,0-9-3.2-9-7.8
			c0-4.6,3.7-7.8,9-7.8h31.1c5.2,0,8.3,3.1,8.3,8.2c0,2.2-0.9,4.4-2.4,6.1l-23.2,27.5h17c5.3,0,9,3.2,9,7.8s-3.7,7.8-9,7.8H403.8z"
			/>
		<path fill="#FFFFFF" d="M436.1,13c3,0,5.5,1.3,5.5,5.4c0,1.4-0.6,3-1.7,4.2l-27.1,32.3h23c3.4,0,6.1,1.7,6.1,5s-2.7,5-6.1,5h-32
			c-4.3,0-6.8-1.4-6.8-5.8c0-1.9,0.9-3.2,1.9-4.5L425.6,23H405c-3.4,0-6.1-1.7-6.1-5s2.7-5,6.1-5H436.1 M436.1,7.4H405
			c-6.8,0-11.8,4.5-11.8,10.6c0,6.2,5,10.6,11.8,10.6h8.4l-18.8,22.2c-1.4,1.7-3.3,4.4-3.3,8.2c0,2.7,0.9,11.5,12.5,11.5h32
			c6.8,0,11.8-4.5,11.8-10.6s-5-10.6-11.8-10.6H425l19.3-22.9c1.9-2.2,3-5.1,3-7.9C447.3,11.7,442.9,7.4,436.1,7.4L436.1,7.4z"/>
	</g>
	<g>
		<path fill="#2E9BFF" d="M469,68.6c-5.1,0-8.7-3.6-8.7-8.7V45.4L446.2,22c-0.9-1.5-1.4-3.1-1.4-4.6c0-5.3,4.5-8.2,8.8-8.2
			c4.6,0,6.5,2.5,7.8,5l7.8,14.3l7.7-14.3c1.8-3.5,4.1-4.9,7.6-4.9c4.2,0,8.7,2.9,8.7,8.2c0,1.5-0.5,3-1.4,4.6l-14.1,23.4v14.5
			C477.8,65,474.2,68.6,469,68.6z"/>
		<path fill="#FFFFFF" d="M484.6,12.1c2.2,0,5.8,1.4,5.8,5.4c0,1.1-0.4,2.2-1,3.1l-14.5,24v15.3c0,3.5-2.3,5.9-5.9,5.9
			c-3.6,0-5.9-2.4-5.9-5.9V44.6l-14.5-24c-0.6-0.9-1-2-1-3.1c0-4,3.7-5.4,6-5.4c2.8,0,4.1,1.2,5.3,3.5l10.3,18.9l10.2-18.9
			C480.8,12.9,482.1,12.1,484.6,12.1 M484.6,6.4c-6,0-8.6,3.7-10.1,6.5l-5.2,9.7l-5.3-9.7c-1.5-2.8-4.2-6.4-10.3-6.4
			c-5.6,0-11.6,3.9-11.6,11.1c0,2,0.6,4.1,1.8,6l13.6,22.7v13.7c0,6.7,4.9,11.6,11.6,11.6c6.7,0,11.6-4.9,11.6-11.6V46.2l13.6-22.7
			c1.2-2,1.8-4,1.8-6C496.1,10.6,490.2,6.4,484.6,6.4L484.6,6.4z"/>
	</g>
	<g>
		<path fill="#2E9BFF" d="M531.2,67.7c-6.3,0-9.7-3.5-9.7-9.7v-38c0-6.3,3.5-9.7,9.7-9.7h14.4c17.8,0,27.5,10.2,27.5,28.8
			c0,18-10.4,28.8-27.7,28.8H531.2z M546.1,52.5c8.4,0,9.6-8.5,9.6-13.6c0-13.6-7.3-13.6-9.7-13.6h-7v27.2H546.1z"/>
		<path fill="#FFFFFF" d="M545.6,13c12.9,0,24.7,5.6,24.7,25.9c0,16.4-9.1,25.9-24.9,25.9h-14.2c-4.2,0-6.9-1.7-6.9-6.9v-38
			c0-5.3,2.7-6.9,6.9-6.9H545.6 M536.1,55.4h9.9c9.4,0,12.5-8.4,12.5-16.4c0-10.2-3.9-16.4-12.5-16.4h-9.9V55.4 M545.6,7.4h-14.4
			c-7.9,0-12.6,4.7-12.6,12.6v38c0,7.9,4.7,12.6,12.6,12.6h14.2c18.9,0,30.6-12.1,30.6-31.6c0-11.1-3.2-19.4-9.5-24.9
			C561.4,9.6,554.3,7.4,545.6,7.4L545.6,7.4z M541.8,28.2h4.2c2.2,0,6.9,0,6.9,10.7c0,4.9-1.2,10.7-6.8,10.7h-4.3V28.2L541.8,28.2z"
			/>
	</g>
	<g>
		<path fill="#2E9BFF" d="M618.2,68.6c-5.3,0-7.3-3.2-8-5.1l-2.4-6.8h-15l-2.4,6.8c-1.2,3.4-3.8,5.1-7.9,5.1c-4.9,0-8.3-3.3-8.3-8
			c0-1.3,0.4-3.1,1.3-5.5l15.3-40.4c1.4-3.6,4.2-5.4,8.4-5.4h2.8c1.7,0,6.8,0,9,6.2l14.3,39.7c0.9,2.4,1.3,4.2,1.3,5.5
			C626.6,65,622.8,68.6,618.2,68.6z M603.4,42.9l-2.9-9.1l-3.1,9.1H603.4z"/>
		<path fill="#FFFFFF" d="M602,12.1c2.7,0,5,0.6,6.3,4.3l14.3,39.7c0.4,1.2,1.2,3.2,1.2,4.5c0,2.9-2.5,5.2-5.5,5.2
			c-2.6,0-4.5-0.9-5.3-3.2l-3-8.6h-19l-3.1,8.6c-0.8,2.3-2.4,3.2-5.3,3.2c-3.2,0-5.5-2-5.5-5.2c0-1.3,0.7-3.4,1.2-4.5l15.3-40.4
			c1-2.7,2.9-3.6,5.8-3.6H602 M593.4,45.7h13.8l-6.7-20.8h-0.1L593.4,45.7 M602,6.4h-2.8c-6.9,0-9.8,4-11.1,7.3l-15.3,40.4
			c-1.4,3.6-1.5,5.5-1.5,6.5c0,6.3,4.7,10.9,11.1,10.9c7.1,0,9.7-4.4,10.6-7l1.7-4.9h11l1.7,4.8l0,0.1l0,0.1
			c1.6,4.4,5.5,6.9,10.6,6.9c6.2,0,11.2-4.9,11.2-10.9c0-1.1-0.2-2.9-1.5-6.5l-14.2-39.6C612.4,10.8,609.3,6.4,602,6.4L602,6.4z"/>
	</g>
	<g>
		<path fill="#2E9BFF" d="M671.1,68.6c-4.5,0-6.7-1.1-8.9-4.5l-15.4-24.4v20.3c0,5.3-3.3,8.5-8.5,8.5c-5.3,0-8.5-3.3-8.5-8.5V19
			c0-4.4,1.8-9.7,10.3-9.7c3.6,0,6.6,1.6,8.3,4.5l15.5,25.1v-21c0-5.3,3.3-8.5,8.5-8.5c5.3,0,8.5,3.3,8.5,8.5v40.7
			C680.9,64.9,677.3,68.6,671.1,68.6z"/>
		<path fill="#FFFFFF" d="M672.4,12.1c3.5,0,5.7,1.9,5.7,5.7v40.7c0,4.7-2,7.3-7,7.3c-3.7,0-5-0.8-6.5-3.2l-20.5-32.4h-0.1v29.9
			c0,3.8-2.2,5.7-5.7,5.7s-5.7-1.9-5.7-5.7V19c0-4.9,2.4-6.9,7.4-6.9c2.4,0,4.6,0.9,5.9,3.1l20.7,33.3h0.1V17.8
			C666.7,14,668.8,12.1,672.4,12.1 M672.4,6.4c-6.8,0-11.4,4.6-11.4,11.4v11.1l-10.3-16.6c-2.2-3.7-6.1-5.8-10.7-5.8
			c-8.3,0-13.1,4.6-13.1,12.6v41.1c0,6.8,4.6,11.4,11.4,11.4s11.4-4.6,11.4-11.4V49.6l10.2,16.1c2.7,4.2,5.8,5.8,11.3,5.8
			c7.8,0,12.7-5,12.7-13V17.8C683.7,11,679.1,6.4,672.4,6.4L672.4,6.4z"/>
	</g>
	<g>
		<path fill="#2E9BFF" d="M715.8,68.9c-18.2,0-28.6-10.9-28.6-30c0-14.9,8.7-30,28.2-30c14.7,0,23.8,9.5,23.8,16.4
			c0,5-3.2,8.2-8.2,8.2c-4.5,0-6.6-2.9-8.1-5.1c-1.7-2.4-3-4.3-7.5-4.3c-6.4,0-10.7,6-10.7,14.8c0,6.8,1.9,14.8,11.1,14.8
			c3.6,0,5-1.8,7.1-4.7c1.7-2.3,3.7-5.3,7.7-5.3c4.9,0,8.6,3.2,8.6,7.4C739.1,60.6,728.2,68.9,715.8,68.9z"/>
		<path fill="#FFFFFF" d="M715.3,11.8c13.5,0,21,8.5,21,13.5c0,3.3-1.8,5.3-5.3,5.3c-6.8,0-4.8-9.4-15.6-9.4
			c-7.4,0-13.5,6.4-13.5,17.6c0,9.4,3.7,17.6,14,17.6c9.3,0,9.1-9.9,14.8-9.9c2.9,0,5.8,1.7,5.8,4.5c0,7.5-9.1,14.9-20.5,14.9
			c-16.2,0-25.8-9.3-25.8-27.1C690,24.3,698.6,11.8,715.3,11.8 M715.3,6.1c-9.6,0-17.6,3.5-23.2,10.1c-5,5.9-7.8,13.9-7.8,22.7
			c0,20.5,11.8,32.8,31.4,32.8c14.2,0,26.2-9.4,26.2-20.6c0-5.7-5-10.2-11.4-10.2c-5.4,0-8.2,3.9-10,6.5c-2,2.8-2.7,3.5-4.8,3.5
			c-2.1,0-8.3,0-8.3-12c0-7.2,3.2-12,7.9-12c3.1,0,3.7,0.8,5.2,3.1c1.7,2.4,4.4,6.3,10.4,6.3c6.6,0,11-4.4,11-11
			C742,17.5,732.5,6.1,715.3,6.1L715.3,6.1z"/>
	</g>
	<g>
		<path fill="#2E9BFF" d="M753.7,67.7c-6.3,0-9.7-3.5-9.7-9.7v-38c0-6.3,3.5-9.7,9.7-9.7h27.7c7.7,0,8.8,4.8,8.8,7.6
			s-1.1,7.6-8.8,7.6h-20v5.6h17.2c7.3,0,8.4,4.6,8.4,7.4s-1.1,7.4-8.4,7.4h-17.2v6.9H782c7.7,0,8.8,4.8,8.8,7.6s-1.1,7.6-8.8,7.6
			H753.7z"/>
		<path fill="#FFFFFF" d="M781.4,13c3.5,0,6,1,6,4.8c0,3.7-2.5,4.8-6,4.8h-22.8v11.2h20c3.1,0,5.5,0.9,5.5,4.5
			c0,3.7-2.4,4.5-5.5,4.5h-20v12.5H782c3.5,0,6,1,6,4.8s-2.5,4.8-6,4.8h-28.3c-4.2,0-6.9-1.7-6.9-6.9v-38c0-5.3,2.7-6.9,6.9-6.9
			H781.4 M781.4,7.4h-27.7c-7.9,0-12.6,4.7-12.6,12.6v38c0,7.9,4.7,12.6,12.6,12.6H782c8.6,0,11.6-5.4,11.6-10.4
			c0-5-3.1-10.4-11.6-10.4h-17.7v-1.2h14.3c8.3,0,11.2-5.3,11.2-10.2c0-4.5-2.5-9.3-9.3-10.1h0.9c8.6,0,11.6-5.4,11.6-10.4
			C793.1,12.7,790,7.4,781.4,7.4L781.4,7.4z"/>
	</g>
</g>
</svg>
