<?xml version="1.0" encoding="utf-8"?>
<!-- Generator: Adobe Illustrator 19.1.0, SVG Export Plug-In . SVG Version: 6.00 Build 0)  -->
<svg version="1.0" id="Layer_1" xmlns="http://www.w3.org/2000/svg" xmlns:xlink="http://www.w3.org/1999/xlink" x="0px" y="0px"
	 width="901.8px" height="72.9px" viewBox="0 0 901.8 72.9" enable-background="new 0 0 901.8 72.9" xml:space="preserve">
<metadata><?xpacket begin="﻿" id="W5M0MpCehiHzreSzNTczkc9d"?>
<x:xmpmeta xmlns:x="adobe:ns:meta/" x:xmptk="Adobe XMP Core 5.6-c067 79.157747, 2015/03/30-23:40:42        ">
   <rdf:RDF xmlns:rdf="http://www.w3.org/1999/02/22-rdf-syntax-ns#">
      <rdf:Description rdf:about=""
            xmlns:dc="http://purl.org/dc/elements/1.1/"
            xmlns:xmp="http://ns.adobe.com/xap/1.0/"
            xmlns:xmpGImg="http://ns.adobe.com/xap/1.0/g/img/"
            xmlns:xmpMM="http://ns.adobe.com/xap/1.0/mm/"
            xmlns:stRef="http://ns.adobe.com/xap/1.0/sType/ResourceRef#"
            xmlns:stEvt="http://ns.adobe.com/xap/1.0/sType/ResourceEvent#"
            xmlns:illustrator="http://ns.adobe.com/illustrator/1.0/"
            xmlns:xmpTPg="http://ns.adobe.com/xap/1.0/t/pg/"
            xmlns:stDim="http://ns.adobe.com/xap/1.0/sType/Dimensions#"
            xmlns:stFnt="http://ns.adobe.com/xap/1.0/sType/Font#"
            xmlns:xmpG="http://ns.adobe.com/xap/1.0/g/"
            xmlns:pdf="http://ns.adobe.com/pdf/1.3/">
         <dc:format>image/svg+xml</dc:format>
         <dc:title>
            <rdf:Alt>
               <rdf:li xml:lang="x-default">Web</rdf:li>
            </rdf:Alt>
         </dc:title>
         <xmp:CreatorTool>Adobe Illustrator CC 2015 (Windows)</xmp:CreatorTool>
         <xmp:CreateDate>2015-11-09T20:30:32+02:00</xmp:CreateDate>
         <xmp:ModifyDate>2015-11-09T20:30:32+02:00</xmp:ModifyDate>
         <xmp:MetadataDate>2015-11-09T20:30:32+02:00</xmp:MetadataDate>
         <xmp:Thumbnails>
            <rdf:Alt>
               <rdf:li rdf:parseType="Resource">
                  <xmpGImg:width>256</xmpGImg:width>
                  <xmpGImg:height>132</xmpGImg:height>
                  <xmpGImg:format>JPEG</xmpGImg:format>
                  <xmpGImg:image>/9j/4AAQSkZJRgABAgEASABIAAD/7QAsUGhvdG9zaG9wIDMuMAA4QklNA+0AAAAAABAASAAAAAEA&#xA;AQBIAAAAAQAB/+4ADkFkb2JlAGTAAAAAAf/bAIQABgQEBAUEBgUFBgkGBQYJCwgGBggLDAoKCwoK&#xA;DBAMDAwMDAwQDA4PEA8ODBMTFBQTExwbGxscHx8fHx8fHx8fHwEHBwcNDA0YEBAYGhURFRofHx8f&#xA;Hx8fHx8fHx8fHx8fHx8fHx8fHx8fHx8fHx8fHx8fHx8fHx8fHx8fHx8fHx8f/8AAEQgAhAEAAwER&#xA;AAIRAQMRAf/EAaIAAAAHAQEBAQEAAAAAAAAAAAQFAwIGAQAHCAkKCwEAAgIDAQEBAQEAAAAAAAAA&#xA;AQACAwQFBgcICQoLEAACAQMDAgQCBgcDBAIGAnMBAgMRBAAFIRIxQVEGE2EicYEUMpGhBxWxQiPB&#xA;UtHhMxZi8CRygvElQzRTkqKyY3PCNUQnk6OzNhdUZHTD0uIIJoMJChgZhJRFRqS0VtNVKBry4/PE&#xA;1OT0ZXWFlaW1xdXl9WZ2hpamtsbW5vY3R1dnd4eXp7fH1+f3OEhYaHiImKi4yNjo+Ck5SVlpeYmZ&#xA;qbnJ2en5KjpKWmp6ipqqusra6voRAAICAQIDBQUEBQYECAMDbQEAAhEDBCESMUEFURNhIgZxgZEy&#xA;obHwFMHR4SNCFVJicvEzJDRDghaSUyWiY7LCB3PSNeJEgxdUkwgJChgZJjZFGidkdFU38qOzwygp&#xA;0+PzhJSktMTU5PRldYWVpbXF1eX1RlZmdoaWprbG1ub2R1dnd4eXp7fH1+f3OEhYaHiImKi4yNjo&#xA;+DlJWWl5iZmpucnZ6fkqOkpaanqKmqq6ytrq+v/aAAwDAQACEQMRAD8A9U4q7FXYq7FXYq7FXYq7&#xA;FXYq7FXYq7FXYqk723lDS5PTki0+xklUtwZYYWZIwSTQ8ahRX5ZmCeoyiwZyr3lxDDBjNEQjfuCO&#xA;stN0q2YzWVrBA0iqpkhjRCyKKKKqBUAdMoyZsktpEmu8t2PFCO8QB7gisqbXYq7FXYq7FXYq7FXY&#xA;q7FXYq7FXYq7FXYq7FXYq7FXYq7FXYq7FXYq7FXYq7FXYq7FXYq7FXYq7FXYq7FXYq7FXYq7FXYq&#xA;7FXYq7FXYq7FXYq7FXYq7FXYq7FXYq7FXYq7FXYq7FXYq7FXYq7FXYq7FXYqslaRUrGgdv5SeP40&#xA;OGIHVBJ6IaO+uHG9pIrdgdh0Pc++WnGB/EGsZCeiLUkqCRQkbjrTKS2hvFXYqpRuxuZlJPFQlB8w&#xA;cmR6QwB3KrkGbsVdirsVdirsVdirsVdirsVdirsVdirsVdirsVdirsVdirsVdirsVdirsVdirsVd&#xA;irsVdirsVdirqCtabnvirsVdirsVdirsVdirsVdirsVdirsVdirsVdirsVdirsVdirsVdirsVdir&#xA;sVdirsVdirsVdirsVdirsVdirsVdirsVdirsVdirsVdirsVdirsVdirsVdirsVdirsVdirsVdirs&#xA;VdirsVdirsVdirsVdirsVdirsVdirsVdirsVdirsVdirsVdirsVdirsVdirsVdirsVdirsVdirsV&#xA;dirsVdirsVdirsVdirsVdirsVdirsVdirsVdirsVdirsVdirsVdirsVdirsVdirsVdirsVdirsVd&#xA;irsVdirsVdirsVdirsVdirsVdirsVdirsVdirsVdirsVdirsVdirsVdirsVdirsVdirsVdirsVdi&#xA;rsVdirsVdirsVdirsVdirsVdirsVdirsVdirsVdirsVdirsVdirsVdirsVdirsVdirsVdirsVdir&#xA;sVdirsVdirsVdirsVdirsVdirsVdirsVdirsVdirsVdirsVdirsVdirsVdirsVdirsVdirsVdirs&#xA;VdirsVdirsVdirsVdirsVdirsVdirsVdirsVdirsVdirsVdirsVdirsVdirsVdirsVdirsVdirsV&#xA;dirsVdirsVdirsVdirsVdirsVdirsVdirsVdirsVdirsVdirsVdirsVdirsVdirsVdirsVdirsVd&#xA;irsVdirsVdirsVdirsVdirsVdirsVdirsVdirsVdirsVdirsVdirsVdirsVdirsVdirsVdirsVdi&#xA;rsVdirsVdirsVS9zqQY+nE/E7gmRDT23U5kDg6n7C0Hj6D7V5l1H0+IgPJq/HzSq7/IDI8ML5/YU&#xA;3OuX3NOdS4Kqq1aCr8o61ruDUEfhhHB+LU8f4p3LUhHx9Ms3XmWQe1KUpjUL5/etzr+xdGdQbkXB&#xA;SnIqAUIPgvTAeDokcfVYp1MUqjMehBaMDtvsMJ4PxbEcf4psPqILN6TN3CFkAP0jfGod/wB6bn3f&#xA;csU6uQKoy9a/HGenb7OSPh/i2I8T8UqBtRoPgbpvUx9foGQqH4tlc/xS31NV+FRBSlQXLoevQkU7&#xA;Yax96Ln3Lp/rzEFY2FBQhHQA79dwcY8Hf9iZcXc0ovmdVZHVeVTIJE2B3pQLvTE8NfsUcV/tadtT&#xA;LvRGVRy4gNHv4dVxAh+LQTP8UujfUijh4yGoCp5J1ruOnhgIhex+9IM63CmX1bekbdaghovDp08c&#xA;lWPv+9jeTu+5svq3FT6RqCaqGjG3XqQfljWPv+9Nz7vubL6maqISO6uHTw6bjpXBUO/71ufc0p1U&#xA;caqzctmJMfw79RQCu2E+H+LUcf4pwOq1b4GAHQlo9ztv0x/d/i19f4pUZ9Q40WI17nkv8ciBDvZE&#xA;y7lnLUw9fTJWnTklOnyrXDUK5/exud8lznUqtwU0NOO6bV+Y7Yjg/FpPG5G1EGrRFvYunifADARD&#xA;vUGfc07amW2Sg6bFKeFdwcIEFJm5X1IuEaIhRt6gdK9tyKHEiHf96gz7nB9S4hRGa13Yslf1U/DG&#xA;od/3rc+5r1NU5A+jWgJ480oT2HjjWPvRc+5tX1MsCYqA0+EspA+dKHEiHekGfc3/ALkZGeoMHEfB&#xA;QowY/SKiuD0Dz+a+s+TlbUeLAxmtfhYslfnttiRDvUGfcuJu/SUekzOV3PqAEGp8KY+m+f2J9Vcv&#xA;tUFTUS1XSWgINBKlD49FByZMOlfIsAJ+fzCZZjOQ7FXYq7FXYq7FXYq7FXYq7FXYq7FUE9hOZOSX&#xA;ciqBspJO5698uGUVuA0nEb2JXtbTrbiOKZjJUcnck123p1pg4wTZGzLgIFAqf1W+4qPWqy/tVYVH&#xA;uN6/hkuOPcx4Jd6J4XH1fhzHrAfbA2qPnXK7F+TZRrzQo/SUZ/eTw7j4A21SOp2C5Z6DyBavWOZC&#xA;nE19zUPfQstQCBxr8htkiIVtEoBle8gjpY52YGOb0wOq8Qa/flMSBzDdIE8ih1g1TblcqN/iooO3&#xA;am2TModzWIz71eGK4RyZJvUWlAvELQ+NRkJSBGwpnEEcyrZBm7FXYq7FXYq7FXYq7FXYq7FXYq7F&#xA;XYq7FXYq7FXYq7FXYq7FXYq7FXYq7FXYq7FXYqpXFrb3AAmQOFrSte/yycZmPJjKAlzUf0Xp439I&#xA;Cnep7fTkvHn3sPBh3Kcz6R6zmRl9StH3b+GSiMlbcmMjjvduHT9PeroTIrCvHkSN+nT2xllmExxQ&#xA;KIihtrevABAxAO/fsNz75XKUpc2cYiPJRktLSWaryszmoCc6U3qQAPlkxkkBsGJhEncq1taRWwYR&#xA;luJNQpNQPlkJ5DLmyhAR5K2QZuxV2KuxV2KuxV2KuxV2KuxV2KuxV2KuxV2KuxV2KuxV2KuxV2Ku&#xA;xV2KuxV2KuxVxpTfpiqw+j6i14+pT4elae2HekbWuHGp40rX4qePvilJb/8AR/qP9Y9f1KjnTjX2&#xA;zMxcdbU4eTgve1S2/Rn12P6t6vPbhT7NKb/a+LIz4+E8VMocHFtab5iOU7FXYq7FXYq7FXYq7FXY&#xA;q7FX/9k=</xmpGImg:image>
               </rdf:li>
            </rdf:Alt>
         </xmp:Thumbnails>
         <xmpMM:RenditionClass>proof:pdf</xmpMM:RenditionClass>
         <xmpMM:OriginalDocumentID>uuid:65E6390686CF11DBA6E2D887CEACB407</xmpMM:OriginalDocumentID>
         <xmpMM:DocumentID>xmp.did:caf37e73-a6b5-964d-9be3-e623b51bcc16</xmpMM:DocumentID>
         <xmpMM:InstanceID>xmp.iid:caf37e73-a6b5-964d-9be3-e623b51bcc16</xmpMM:InstanceID>
         <xmpMM:DerivedFrom rdf:parseType="Resource">
            <stRef:instanceID>xmp.iid:2c53e5a2-fe80-b44a-8aa4-21ea20129265</stRef:instanceID>
            <stRef:documentID>xmp.did:2c53e5a2-fe80-b44a-8aa4-21ea20129265</stRef:documentID>
            <stRef:originalDocumentID>uuid:65E6390686CF11DBA6E2D887CEACB407</stRef:originalDocumentID>
            <stRef:renditionClass>proof:pdf</stRef:renditionClass>
         </xmpMM:DerivedFrom>
         <xmpMM:History>
            <rdf:Seq>
               <rdf:li rdf:parseType="Resource">
                  <stEvt:action>saved</stEvt:action>
                  <stEvt:instanceID>xmp.iid:2c53e5a2-fe80-b44a-8aa4-21ea20129265</stEvt:instanceID>
                  <stEvt:when>2015-11-09T16:06:53+02:00</stEvt:when>
                  <stEvt:softwareAgent>Adobe Illustrator CC 2015 (Windows)</stEvt:softwareAgent>
                  <stEvt:changed>/</stEvt:changed>
               </rdf:li>
               <rdf:li rdf:parseType="Resource">
                  <stEvt:action>saved</stEvt:action>
                  <stEvt:instanceID>xmp.iid:caf37e73-a6b5-964d-9be3-e623b51bcc16</stEvt:instanceID>
                  <stEvt:when>2015-11-09T20:30:32+02:00</stEvt:when>
                  <stEvt:softwareAgent>Adobe Illustrator CC 2015 (Windows)</stEvt:softwareAgent>
                  <stEvt:changed>/</stEvt:changed>
               </rdf:li>
            </rdf:Seq>
         </xmpMM:History>
         <illustrator:StartupProfile>Web</illustrator:StartupProfile>
         <xmpTPg:NPages>1</xmpTPg:NPages>
         <xmpTPg:HasVisibleTransparency>False</xmpTPg:HasVisibleTransparency>
         <xmpTPg:HasVisibleOverprint>False</xmpTPg:HasVisibleOverprint>
         <xmpTPg:MaxPageSize rdf:parseType="Resource">
            <stDim:w>969.952353</stDim:w>
            <stDim:h>79.343972</stDim:h>
            <stDim:unit>Pixels</stDim:unit>
         </xmpTPg:MaxPageSize>
         <xmpTPg:Fonts>
            <rdf:Bag>
               <rdf:li rdf:parseType="Resource">
                  <stFnt:fontName>HelveticaRoundedLTStd-Bd</stFnt:fontName>
                  <stFnt:fontFamily>Helvetica Rounded LT Std</stFnt:fontFamily>
                  <stFnt:fontFace>Bold</stFnt:fontFace>
                  <stFnt:fontType>Open Type</stFnt:fontType>
                  <stFnt:versionString>OTF 1.029;PS 001.001;Core 1.0.33;makeotf.lib1.4.1585</stFnt:versionString>
                  <stFnt:composite>False</stFnt:composite>
                  <stFnt:fontFileName>HelveticaRoundedLTStd-Bd.otf</stFnt:fontFileName>
               </rdf:li>
            </rdf:Bag>
         </xmpTPg:Fonts>
         <xmpTPg:PlateNames>
            <rdf:Seq>
               <rdf:li>Cyan</rdf:li>
               <rdf:li>Magenta</rdf:li>
            </rdf:Seq>
         </xmpTPg:PlateNames>
         <xmpTPg:SwatchGroups>
            <rdf:Seq>
               <rdf:li rdf:parseType="Resource">
                  <xmpG:groupName>Default Swatch Group</xmpG:groupName>
                  <xmpG:groupType>0</xmpG:groupType>
                  <xmpG:Colorants>
                     <rdf:Seq>
                        <rdf:li rdf:parseType="Resource">
                           <xmpG:swatchName>White</xmpG:swatchName>
                           <xmpG:mode>RGB</xmpG:mode>
                           <xmpG:type>PROCESS</xmpG:type>
                           <xmpG:red>255</xmpG:red>
                           <xmpG:green>255</xmpG:green>
                           <xmpG:blue>255</xmpG:blue>
                        </rdf:li>
                        <rdf:li rdf:parseType="Resource">
                           <xmpG:swatchName>Black</xmpG:swatchName>
                           <xmpG:mode>RGB</xmpG:mode>
                           <xmpG:type>PROCESS</xmpG:type>
                           <xmpG:red>0</xmpG:red>
                           <xmpG:green>0</xmpG:green>
                           <xmpG:blue>0</xmpG:blue>
                        </rdf:li>
                        <rdf:li rdf:parseType="Resource">
                           <xmpG:swatchName>RGB Red</xmpG:swatchName>
                           <xmpG:mode>RGB</xmpG:mode>
                           <xmpG:type>PROCESS</xmpG:type>
                           <xmpG:red>255</xmpG:red>
                           <xmpG:green>0</xmpG:green>
                           <xmpG:blue>0</xmpG:blue>
                        </rdf:li>
                        <rdf:li rdf:parseType="Resource">
                           <xmpG:swatchName>RGB Yellow</xmpG:swatchName>
                           <xmpG:mode>RGB</xmpG:mode>
                           <xmpG:type>PROCESS</xmpG:type>
                           <xmpG:red>255</xmpG:red>
                           <xmpG:green>255</xmpG:green>
                           <xmpG:blue>0</xmpG:blue>
                        </rdf:li>
                        <rdf:li rdf:parseType="Resource">
                           <xmpG:swatchName>RGB Green</xmpG:swatchName>
                           <xmpG:mode>RGB</xmpG:mode>
                           <xmpG:type>PROCESS</xmpG:type>
                           <xmpG:red>0</xmpG:red>
                           <xmpG:green>255</xmpG:green>
                           <xmpG:blue>0</xmpG:blue>
                        </rdf:li>
                        <rdf:li rdf:parseType="Resource">
                           <xmpG:swatchName>RGB Cyan</xmpG:swatchName>
                           <xmpG:mode>RGB</xmpG:mode>
                           <xmpG:type>PROCESS</xmpG:type>
                           <xmpG:red>0</xmpG:red>
                           <xmpG:green>255</xmpG:green>
                           <xmpG:blue>255</xmpG:blue>
                        </rdf:li>
                        <rdf:li rdf:parseType="Resource">
                           <xmpG:swatchName>RGB Blue</xmpG:swatchName>
                           <xmpG:mode>RGB</xmpG:mode>
                           <xmpG:type>PROCESS</xmpG:type>
                           <xmpG:red>0</xmpG:red>
                           <xmpG:green>0</xmpG:green>
                           <xmpG:blue>255</xmpG:blue>
                        </rdf:li>
                        <rdf:li rdf:parseType="Resource">
                           <xmpG:swatchName>RGB Magenta</xmpG:swatchName>
                           <xmpG:mode>RGB</xmpG:mode>
                           <xmpG:type>PROCESS</xmpG:type>
                           <xmpG:red>255</xmpG:red>
                           <xmpG:green>0</xmpG:green>
                           <xmpG:blue>255</xmpG:blue>
                        </rdf:li>
                        <rdf:li rdf:parseType="Resource">
                           <xmpG:swatchName>R=193 G=39 B=45</xmpG:swatchName>
                           <xmpG:mode>RGB</xmpG:mode>
                           <xmpG:type>PROCESS</xmpG:type>
                           <xmpG:red>193</xmpG:red>
                           <xmpG:green>39</xmpG:green>
                           <xmpG:blue>45</xmpG:blue>
                        </rdf:li>
                        <rdf:li rdf:parseType="Resource">
                           <xmpG:swatchName>R=237 G=28 B=36</xmpG:swatchName>
                           <xmpG:mode>RGB</xmpG:mode>
                           <xmpG:type>PROCESS</xmpG:type>
                           <xmpG:red>237</xmpG:red>
                           <xmpG:green>28</xmpG:green>
                           <xmpG:blue>36</xmpG:blue>
                        </rdf:li>
                        <rdf:li rdf:parseType="Resource">
                           <xmpG:swatchName>R=241 G=90 B=36</xmpG:swatchName>
                           <xmpG:mode>RGB</xmpG:mode>
                           <xmpG:type>PROCESS</xmpG:type>
                           <xmpG:red>241</xmpG:red>
                           <xmpG:green>90</xmpG:green>
                           <xmpG:blue>36</xmpG:blue>
                        </rdf:li>
                        <rdf:li rdf:parseType="Resource">
                           <xmpG:swatchName>R=247 G=147 B=30</xmpG:swatchName>
                           <xmpG:mode>RGB</xmpG:mode>
                           <xmpG:type>PROCESS</xmpG:type>
                           <xmpG:red>247</xmpG:red>
                           <xmpG:green>147</xmpG:green>
                           <xmpG:blue>30</xmpG:blue>
                        </rdf:li>
                        <rdf:li rdf:parseType="Resource">
                           <xmpG:swatchName>R=251 G=176 B=59</xmpG:swatchName>
                           <xmpG:mode>RGB</xmpG:mode>
                           <xmpG:type>PROCESS</xmpG:type>
                           <xmpG:red>251</xmpG:red>
                           <xmpG:green>176</xmpG:green>
                           <xmpG:blue>59</xmpG:blue>
                        </rdf:li>
                        <rdf:li rdf:parseType="Resource">
                           <xmpG:swatchName>R=252 G=238 B=33</xmpG:swatchName>
                           <xmpG:mode>RGB</xmpG:mode>
                           <xmpG:type>PROCESS</xmpG:type>
                           <xmpG:red>252</xmpG:red>
                           <xmpG:green>238</xmpG:green>
                           <xmpG:blue>33</xmpG:blue>
                        </rdf:li>
                        <rdf:li rdf:parseType="Resource">
                           <xmpG:swatchName>R=217 G=224 B=33</xmpG:swatchName>
                           <xmpG:mode>RGB</xmpG:mode>
                           <xmpG:type>PROCESS</xmpG:type>
                           <xmpG:red>217</xmpG:red>
                           <xmpG:green>224</xmpG:green>
                           <xmpG:blue>33</xmpG:blue>
                        </rdf:li>
                        <rdf:li rdf:parseType="Resource">
                           <xmpG:swatchName>R=140 G=198 B=63</xmpG:swatchName>
                           <xmpG:mode>RGB</xmpG:mode>
                           <xmpG:type>PROCESS</xmpG:type>
                           <xmpG:red>140</xmpG:red>
                           <xmpG:green>198</xmpG:green>
                           <xmpG:blue>63</xmpG:blue>
                        </rdf:li>
                        <rdf:li rdf:parseType="Resource">
                           <xmpG:swatchName>R=57 G=181 B=74</xmpG:swatchName>
                           <xmpG:mode>RGB</xmpG:mode>
                           <xmpG:type>PROCESS</xmpG:type>
                           <xmpG:red>57</xmpG:red>
                           <xmpG:green>181</xmpG:green>
                           <xmpG:blue>74</xmpG:blue>
                        </rdf:li>
                        <rdf:li rdf:parseType="Resource">
                           <xmpG:swatchName>R=0 G=146 B=69</xmpG:swatchName>
                           <xmpG:mode>RGB</xmpG:mode>
                           <xmpG:type>PROCESS</xmpG:type>
                           <xmpG:red>0</xmpG:red>
                           <xmpG:green>146</xmpG:green>
                           <xmpG:blue>69</xmpG:blue>
                        </rdf:li>
                        <rdf:li rdf:parseType="Resource">
                           <xmpG:swatchName>R=0 G=104 B=55</xmpG:swatchName>
                           <xmpG:mode>RGB</xmpG:mode>
                           <xmpG:type>PROCESS</xmpG:type>
                           <xmpG:red>0</xmpG:red>
                           <xmpG:green>104</xmpG:green>
                           <xmpG:blue>55</xmpG:blue>
                        </rdf:li>
                        <rdf:li rdf:parseType="Resource">
                           <xmpG:swatchName>R=34 G=181 B=115</xmpG:swatchName>
                           <xmpG:mode>RGB</xmpG:mode>
                           <xmpG:type>PROCESS</xmpG:type>
                           <xmpG:red>34</xmpG:red>
                           <xmpG:green>181</xmpG:green>
                           <xmpG:blue>115</xmpG:blue>
                        </rdf:li>
                        <rdf:li rdf:parseType="Resource">
                           <xmpG:swatchName>R=0 G=169 B=157</xmpG:swatchName>
                           <xmpG:mode>RGB</xmpG:mode>
                           <xmpG:type>PROCESS</xmpG:type>
                           <xmpG:red>0</xmpG:red>
                           <xmpG:green>169</xmpG:green>
                           <xmpG:blue>157</xmpG:blue>
                        </rdf:li>
                        <rdf:li rdf:parseType="Resource">
                           <xmpG:swatchName>R=41 G=171 B=226</xmpG:swatchName>
                           <xmpG:mode>RGB</xmpG:mode>
                           <xmpG:type>PROCESS</xmpG:type>
                           <xmpG:red>41</xmpG:red>
                           <xmpG:green>171</xmpG:green>
                           <xmpG:blue>226</xmpG:blue>
                        </rdf:li>
                        <rdf:li rdf:parseType="Resource">
                           <xmpG:swatchName>R=0 G=113 B=188</xmpG:swatchName>
                           <xmpG:mode>RGB</xmpG:mode>
                           <xmpG:type>PROCESS</xmpG:type>
                           <xmpG:red>0</xmpG:red>
                           <xmpG:green>113</xmpG:green>
                           <xmpG:blue>188</xmpG:blue>
                        </rdf:li>
                        <rdf:li rdf:parseType="Resource">
                           <xmpG:swatchName>R=46 G=49 B=146</xmpG:swatchName>
                           <xmpG:mode>RGB</xmpG:mode>
                           <xmpG:type>PROCESS</xmpG:type>
                           <xmpG:red>46</xmpG:red>
                           <xmpG:green>49</xmpG:green>
                           <xmpG:blue>146</xmpG:blue>
                        </rdf:li>
                        <rdf:li rdf:parseType="Resource">
                           <xmpG:swatchName>R=27 G=20 B=100</xmpG:swatchName>
                           <xmpG:mode>RGB</xmpG:mode>
                           <xmpG:type>PROCESS</xmpG:type>
                           <xmpG:red>27</xmpG:red>
                           <xmpG:green>20</xmpG:green>
                           <xmpG:blue>100</xmpG:blue>
                        </rdf:li>
                        <rdf:li rdf:parseType="Resource">
                           <xmpG:swatchName>R=102 G=45 B=145</xmpG:swatchName>
                           <xmpG:mode>RGB</xmpG:mode>
                           <xmpG:type>PROCESS</xmpG:type>
                           <xmpG:red>102</xmpG:red>
                           <xmpG:green>45</xmpG:green>
                           <xmpG:blue>145</xmpG:blue>
                        </rdf:li>
                        <rdf:li rdf:parseType="Resource">
                           <xmpG:swatchName>R=147 G=39 B=143</xmpG:swatchName>
                           <xmpG:mode>RGB</xmpG:mode>
                           <xmpG:type>PROCESS</xmpG:type>
                           <xmpG:red>147</xmpG:red>
                           <xmpG:green>39</xmpG:green>
                           <xmpG:blue>143</xmpG:blue>
                        </rdf:li>
                        <rdf:li rdf:parseType="Resource">
                           <xmpG:swatchName>R=158 G=0 B=93</xmpG:swatchName>
                           <xmpG:mode>RGB</xmpG:mode>
                           <xmpG:type>PROCESS</xmpG:type>
                           <xmpG:red>158</xmpG:red>
                           <xmpG:green>0</xmpG:green>
                           <xmpG:blue>93</xmpG:blue>
                        </rdf:li>
                        <rdf:li rdf:parseType="Resource">
                           <xmpG:swatchName>R=212 G=20 B=90</xmpG:swatchName>
                           <xmpG:mode>RGB</xmpG:mode>
                           <xmpG:type>PROCESS</xmpG:type>
                           <xmpG:red>212</xmpG:red>
                           <xmpG:green>20</xmpG:green>
                           <xmpG:blue>90</xmpG:blue>
                        </rdf:li>
                        <rdf:li rdf:parseType="Resource">
                           <xmpG:swatchName>R=237 G=30 B=121</xmpG:swatchName>
                           <xmpG:mode>RGB</xmpG:mode>
                           <xmpG:type>PROCESS</xmpG:type>
                           <xmpG:red>237</xmpG:red>
                           <xmpG:green>30</xmpG:green>
                           <xmpG:blue>121</xmpG:blue>
                        </rdf:li>
                        <rdf:li rdf:parseType="Resource">
                           <xmpG:swatchName>R=199 G=178 B=153</xmpG:swatchName>
                           <xmpG:mode>RGB</xmpG:mode>
                           <xmpG:type>PROCESS</xmpG:type>
                           <xmpG:red>199</xmpG:red>
                           <xmpG:green>178</xmpG:green>
                           <xmpG:blue>153</xmpG:blue>
                        </rdf:li>
                        <rdf:li rdf:parseType="Resource">
                           <xmpG:swatchName>R=153 G=134 B=117</xmpG:swatchName>
                           <xmpG:mode>RGB</xmpG:mode>
                           <xmpG:type>PROCESS</xmpG:type>
                           <xmpG:red>153</xmpG:red>
                           <xmpG:green>134</xmpG:green>
                           <xmpG:blue>117</xmpG:blue>
                        </rdf:li>
                        <rdf:li rdf:parseType="Resource">
                           <xmpG:swatchName>R=115 G=99 B=87</xmpG:swatchName>
                           <xmpG:mode>RGB</xmpG:mode>
                           <xmpG:type>PROCESS</xmpG:type>
                           <xmpG:red>115</xmpG:red>
                           <xmpG:green>99</xmpG:green>
                           <xmpG:blue>87</xmpG:blue>
                        </rdf:li>
                        <rdf:li rdf:parseType="Resource">
                           <xmpG:swatchName>R=83 G=71 B=65</xmpG:swatchName>
                           <xmpG:mode>RGB</xmpG:mode>
                           <xmpG:type>PROCESS</xmpG:type>
                           <xmpG:red>83</xmpG:red>
                           <xmpG:green>71</xmpG:green>
                           <xmpG:blue>65</xmpG:blue>
                        </rdf:li>
                        <rdf:li rdf:parseType="Resource">
                           <xmpG:swatchName>R=198 G=156 B=109</xmpG:swatchName>
                           <xmpG:mode>RGB</xmpG:mode>
                           <xmpG:type>PROCESS</xmpG:type>
                           <xmpG:red>198</xmpG:red>
                           <xmpG:green>156</xmpG:green>
                           <xmpG:blue>109</xmpG:blue>
                        </rdf:li>
                        <rdf:li rdf:parseType="Resource">
                           <xmpG:swatchName>R=166 G=124 B=82</xmpG:swatchName>
                           <xmpG:mode>RGB</xmpG:mode>
                           <xmpG:type>PROCESS</xmpG:type>
                           <xmpG:red>166</xmpG:red>
                           <xmpG:green>124</xmpG:green>
                           <xmpG:blue>82</xmpG:blue>
                        </rdf:li>
                        <rdf:li rdf:parseType="Resource">
                           <xmpG:swatchName>R=140 G=98 B=57</xmpG:swatchName>
                           <xmpG:mode>RGB</xmpG:mode>
                           <xmpG:type>PROCESS</xmpG:type>
                           <xmpG:red>140</xmpG:red>
                           <xmpG:green>98</xmpG:green>
                           <xmpG:blue>57</xmpG:blue>
                        </rdf:li>
                        <rdf:li rdf:parseType="Resource">
                           <xmpG:swatchName>R=117 G=76 B=36</xmpG:swatchName>
                           <xmpG:mode>RGB</xmpG:mode>
                           <xmpG:type>PROCESS</xmpG:type>
                           <xmpG:red>117</xmpG:red>
                           <xmpG:green>76</xmpG:green>
                           <xmpG:blue>36</xmpG:blue>
                        </rdf:li>
                        <rdf:li rdf:parseType="Resource">
                           <xmpG:swatchName>R=96 G=56 B=19</xmpG:swatchName>
                           <xmpG:mode>RGB</xmpG:mode>
                           <xmpG:type>PROCESS</xmpG:type>
                           <xmpG:red>96</xmpG:red>
                           <xmpG:green>56</xmpG:green>
                           <xmpG:blue>19</xmpG:blue>
                        </rdf:li>
                        <rdf:li rdf:parseType="Resource">
                           <xmpG:swatchName>R=66 G=33 B=11</xmpG:swatchName>
                           <xmpG:mode>RGB</xmpG:mode>
                           <xmpG:type>PROCESS</xmpG:type>
                           <xmpG:red>66</xmpG:red>
                           <xmpG:green>33</xmpG:green>
                           <xmpG:blue>11</xmpG:blue>
                        </rdf:li>
                     </rdf:Seq>
                  </xmpG:Colorants>
               </rdf:li>
               <rdf:li rdf:parseType="Resource">
                  <xmpG:groupName>Grays</xmpG:groupName>
                  <xmpG:groupType>1</xmpG:groupType>
                  <xmpG:Colorants>
                     <rdf:Seq>
                        <rdf:li rdf:parseType="Resource">
                           <xmpG:swatchName>R=0 G=0 B=0</xmpG:swatchName>
                           <xmpG:mode>RGB</xmpG:mode>
                           <xmpG:type>PROCESS</xmpG:type>
                           <xmpG:red>0</xmpG:red>
                           <xmpG:green>0</xmpG:green>
                           <xmpG:blue>0</xmpG:blue>
                        </rdf:li>
                        <rdf:li rdf:parseType="Resource">
                           <xmpG:swatchName>R=26 G=26 B=26</xmpG:swatchName>
                           <xmpG:mode>RGB</xmpG:mode>
                           <xmpG:type>PROCESS</xmpG:type>
                           <xmpG:red>26</xmpG:red>
                           <xmpG:green>26</xmpG:green>
                           <xmpG:blue>26</xmpG:blue>
                        </rdf:li>
                        <rdf:li rdf:parseType="Resource">
                           <xmpG:swatchName>R=51 G=51 B=51</xmpG:swatchName>
                           <xmpG:mode>RGB</xmpG:mode>
                           <xmpG:type>PROCESS</xmpG:type>
                           <xmpG:red>51</xmpG:red>
                           <xmpG:green>51</xmpG:green>
                           <xmpG:blue>51</xmpG:blue>
                        </rdf:li>
                        <rdf:li rdf:parseType="Resource">
                           <xmpG:swatchName>R=77 G=77 B=77</xmpG:swatchName>
                           <xmpG:mode>RGB</xmpG:mode>
                           <xmpG:type>PROCESS</xmpG:type>
                           <xmpG:red>77</xmpG:red>
                           <xmpG:green>77</xmpG:green>
                           <xmpG:blue>77</xmpG:blue>
                        </rdf:li>
                        <rdf:li rdf:parseType="Resource">
                           <xmpG:swatchName>R=102 G=102 B=102</xmpG:swatchName>
                           <xmpG:mode>RGB</xmpG:mode>
                           <xmpG:type>PROCESS</xmpG:type>
                           <xmpG:red>102</xmpG:red>
                           <xmpG:green>102</xmpG:green>
                           <xmpG:blue>102</xmpG:blue>
                        </rdf:li>
                        <rdf:li rdf:parseType="Resource">
                           <xmpG:swatchName>R=128 G=128 B=128</xmpG:swatchName>
                           <xmpG:mode>RGB</xmpG:mode>
                           <xmpG:type>PROCESS</xmpG:type>
                           <xmpG:red>128</xmpG:red>
                           <xmpG:green>128</xmpG:green>
                           <xmpG:blue>128</xmpG:blue>
                        </rdf:li>
                        <rdf:li rdf:parseType="Resource">
                           <xmpG:swatchName>R=153 G=153 B=153</xmpG:swatchName>
                           <xmpG:mode>RGB</xmpG:mode>
                           <xmpG:type>PROCESS</xmpG:type>
                           <xmpG:red>153</xmpG:red>
                           <xmpG:green>153</xmpG:green>
                           <xmpG:blue>153</xmpG:blue>
                        </rdf:li>
                        <rdf:li rdf:parseType="Resource">
                           <xmpG:swatchName>R=179 G=179 B=179</xmpG:swatchName>
                           <xmpG:mode>RGB</xmpG:mode>
                           <xmpG:type>PROCESS</xmpG:type>
                           <xmpG:red>179</xmpG:red>
                           <xmpG:green>179</xmpG:green>
                           <xmpG:blue>179</xmpG:blue>
                        </rdf:li>
                        <rdf:li rdf:parseType="Resource">
                           <xmpG:swatchName>R=204 G=204 B=204</xmpG:swatchName>
                           <xmpG:mode>RGB</xmpG:mode>
                           <xmpG:type>PROCESS</xmpG:type>
                           <xmpG:red>204</xmpG:red>
                           <xmpG:green>204</xmpG:green>
                           <xmpG:blue>204</xmpG:blue>
                        </rdf:li>
                        <rdf:li rdf:parseType="Resource">
                           <xmpG:swatchName>R=230 G=230 B=230</xmpG:swatchName>
                           <xmpG:mode>RGB</xmpG:mode>
                           <xmpG:type>PROCESS</xmpG:type>
                           <xmpG:red>230</xmpG:red>
                           <xmpG:green>230</xmpG:green>
                           <xmpG:blue>230</xmpG:blue>
                        </rdf:li>
                        <rdf:li rdf:parseType="Resource">
                           <xmpG:swatchName>R=242 G=242 B=242</xmpG:swatchName>
                           <xmpG:mode>RGB</xmpG:mode>
                           <xmpG:type>PROCESS</xmpG:type>
                           <xmpG:red>242</xmpG:red>
                           <xmpG:green>242</xmpG:green>
                           <xmpG:blue>242</xmpG:blue>
                        </rdf:li>
                     </rdf:Seq>
                  </xmpG:Colorants>
               </rdf:li>
               <rdf:li rdf:parseType="Resource">
                  <xmpG:groupName>Web Color Group</xmpG:groupName>
                  <xmpG:groupType>1</xmpG:groupType>
                  <xmpG:Colorants>
                     <rdf:Seq>
                        <rdf:li rdf:parseType="Resource">
                           <xmpG:swatchName>R=63 G=169 B=245</xmpG:swatchName>
                           <xmpG:mode>RGB</xmpG:mode>
                           <xmpG:type>PROCESS</xmpG:type>
                           <xmpG:red>63</xmpG:red>
                           <xmpG:green>169</xmpG:green>
                           <xmpG:blue>245</xmpG:blue>
                        </rdf:li>
                        <rdf:li rdf:parseType="Resource">
                           <xmpG:swatchName>R=122 G=201 B=67</xmpG:swatchName>
                           <xmpG:mode>RGB</xmpG:mode>
                           <xmpG:type>PROCESS</xmpG:type>
                           <xmpG:red>122</xmpG:red>
                           <xmpG:green>201</xmpG:green>
                           <xmpG:blue>67</xmpG:blue>
                        </rdf:li>
                        <rdf:li rdf:parseType="Resource">
                           <xmpG:swatchName>R=255 G=147 B=30</xmpG:swatchName>
                           <xmpG:mode>RGB</xmpG:mode>
                           <xmpG:type>PROCESS</xmpG:type>
                           <xmpG:red>255</xmpG:red>
                           <xmpG:green>147</xmpG:green>
                           <xmpG:blue>30</xmpG:blue>
                        </rdf:li>
                        <rdf:li rdf:parseType="Resource">
                           <xmpG:swatchName>R=255 G=29 B=37</xmpG:swatchName>
                           <xmpG:mode>RGB</xmpG:mode>
                           <xmpG:type>PROCESS</xmpG:type>
                           <xmpG:red>255</xmpG:red>
                           <xmpG:green>29</xmpG:green>
                           <xmpG:blue>37</xmpG:blue>
                        </rdf:li>
                        <rdf:li rdf:parseType="Resource">
                           <xmpG:swatchName>R=255 G=123 B=172</xmpG:swatchName>
                           <xmpG:mode>RGB</xmpG:mode>
                           <xmpG:type>PROCESS</xmpG:type>
                           <xmpG:red>255</xmpG:red>
                           <xmpG:green>123</xmpG:green>
                           <xmpG:blue>172</xmpG:blue>
                        </rdf:li>
                        <rdf:li rdf:parseType="Resource">
                           <xmpG:swatchName>R=189 G=204 B=212</xmpG:swatchName>
                           <xmpG:mode>RGB</xmpG:mode>
                           <xmpG:type>PROCESS</xmpG:type>
                           <xmpG:red>189</xmpG:red>
                           <xmpG:green>204</xmpG:green>
                           <xmpG:blue>212</xmpG:blue>
                        </rdf:li>
                     </rdf:Seq>
                  </xmpG:Colorants>
               </rdf:li>
            </rdf:Seq>
         </xmpTPg:SwatchGroups>
         <pdf:Producer>Adobe PDF library 10.01</pdf:Producer>
      </rdf:Description>
   </rdf:RDF>
</x:xmpmeta>
                                                                                                    
                                                                                                    
                                                                                                    
                                                                                                    
                                                                                                    
                                                                                                    
                                                                                                    
                                                                                                    
                                                                                                    
                                                                                                    
                                                                                                    
                                                                                                    
                                                                                                    
                                                                                                    
                                                                                                    
                                                                                                    
                                                                                                    
                                                                                                    
                                                                                                    
                                                                                                    
                           
<?xpacket end="w"?>
	</metadata>
<g>
	<g>
		<path fill="#2E9BFF" d="M23.6,66.1c-5.1,0-8.7-3.6-8.7-8.7V15.5c0-5.1,3.6-8.7,8.7-8.7s8.7,3.6,8.7,8.7v41.9
			C32.4,62.5,28.8,66.1,23.6,66.1z"/>
		<path fill="#FFFFFF" d="M23.6,9.6c3.6,0,5.9,2.4,5.9,5.9v41.9c0,3.5-2.3,5.9-5.9,5.9c-3.6,0-5.9-2.4-5.9-5.9V15.5
			C17.7,12,20,9.6,23.6,9.6 M23.6,3.9c-6.7,0-11.6,4.9-11.6,11.6v41.9c0,6.7,4.9,11.6,11.6,11.6s11.6-4.9,11.6-11.6V15.5
			C35.2,8.8,30.3,3.9,23.6,3.9L23.6,3.9z"/>
	</g>
	<g>
		<path fill="#2E9BFF" d="M62.7,66.4c-15.9,0-24.5-8.2-24.5-15.9c0-4.4,3.4-7.7,7.8-7.7c4.1,0,6.1,2.6,7.7,4.7
			c1.9,2.5,3.5,4.6,9,4.6c4.3,0,6.7-2.1,6.7-4c0-0.7,0-1.9-2.9-2.7l-13.3-3.4c-10-2.5-14.8-8.1-14.8-16.9C38.4,11.3,51,6.5,61.9,6.5
			c10.8,0,22.9,6.1,22.9,14.9c0,4.3-3.5,7.5-8.2,7.5c-3.5,0-5.4-2.1-6.9-3.8c-1.7-2-3.4-3.9-8.6-3.9c-1.7,0-5.7,0.3-5.7,3.3
			c0,1.3,2.8,2.2,5.9,2.9l9.9,2.2c13,3,15.7,11.2,15.7,17.7C86.9,56.5,80.5,66.4,62.7,66.4z"/>
		<path fill="#FFFFFF" d="M61.9,9.3c9.2,0,20.1,5.2,20.1,12.1c0,3-2.5,4.7-5.4,4.7c-5.5,0-4.5-7.7-15.5-7.7c-5.5,0-8.5,2.5-8.5,6.1
			s4.3,4.8,8.1,5.6l9.9,2.2C81.3,34.8,84,41.2,84,47.2c0,9.4-7.1,16.3-21.3,16.3c-15,0-21.7-7.5-21.7-13.1c0-2.9,2.1-4.9,5-4.9
			c6.4,0,4.8,9.4,16.7,9.4c6.1,0,9.5-3.4,9.5-6.8c0-2.1-1-4.4-5-5.4l-13.3-3.4c-10.7-2.7-12.7-8.6-12.7-14.2
			C41.2,13.6,51.9,9.3,61.9,9.3 M61.9,3.6c-15.8,0-26.3,8.6-26.3,21.5c0,6.6,2.4,11.7,7.1,15.3c-4.3,1.3-7.3,5.2-7.3,10.1
			c0,9.1,9.6,18.8,27.3,18.8c19.9,0,27-11.9,27-22c0-4.5-1.3-11.6-8.3-16.5c3.8-1.6,6.3-5.1,6.3-9.4C87.6,10.8,74.3,3.6,61.9,3.6
			L61.9,3.6z M60,24.1c0.3,0,0.7-0.1,1.1-0.1c2.8,0,4,0.5,5.1,1.5l-4.3-1C61.5,24.5,60.7,24.3,60,24.1L60,24.1z M62.7,49.3
			c-4.1,0-5-1.2-6.7-3.5c0,0,0,0-0.1-0.1l9.9,2.5c0.2,0.1,0.4,0.1,0.5,0.1C65.8,48.7,64.7,49.3,62.7,49.3L62.7,49.3z"/>
	</g>
	<g>
		<path fill="#2E9BFF" d="M139.1,66.1c-5.1,0-8.7-3.6-8.7-8.7V23.3H122c-5.3,0-9-3.2-9-7.8c0-4.6,3.7-7.8,9-7.8h34.1
			c5.3,0,9,3.2,9,7.8c0,4.6-3.7,7.8-9,7.8h-8.3v34.1C147.8,62.5,144.2,66.1,139.1,66.1z"/>
		<path fill="#FFFFFF" d="M156.1,10.5c3.4,0,6.1,1.7,6.1,5s-2.7,5-6.1,5H145v36.9c0,3.5-2.3,5.9-5.9,5.9c-3.6,0-5.9-2.4-5.9-5.9
			V20.4H122c-3.4,0-6.1-1.7-6.1-5s2.7-5,6.1-5H156.1 M156.1,4.8H122c-6.8,0-11.8,4.5-11.8,10.6c0,6.2,5,10.6,11.8,10.6h5.5v31.3
			c0,6.7,4.9,11.6,11.6,11.6c6.7,0,11.6-4.9,11.6-11.6V26.1h5.5c6.8,0,11.8-4.5,11.8-10.6C167.9,9.3,162.9,4.8,156.1,4.8L156.1,4.8z
			"/>
	</g>
	<g>
		<path fill="#2E9BFF" d="M210.6,66.1c-5.1,0-8.7-3.6-8.7-8.7V42.9h-15.8v14.4c0,5.1-3.6,8.7-8.7,8.7s-8.7-3.6-8.7-8.7V15.5
			c0-5.1,3.6-8.7,8.7-8.7s8.7,3.6,8.7,8.7v11.9h15.8V15.5c0-5.1,3.6-8.7,8.7-8.7s8.7,3.6,8.7,8.7v41.9
			C219.4,62.5,215.8,66.1,210.6,66.1z"/>
		<path fill="#FFFFFF" d="M210.6,9.6c3.6,0,5.9,2.4,5.9,5.9v41.9c0,3.5-2.3,5.9-5.9,5.9c-3.6,0-5.9-2.4-5.9-5.9V40.1h-21.5v17.3
			c0,3.5-2.3,5.9-5.9,5.9s-5.9-2.4-5.9-5.9V15.5c0-3.5,2.3-5.9,5.9-5.9s5.9,2.4,5.9,5.9v14.7h21.5V15.5C204.7,12,207,9.6,210.6,9.6
			 M210.6,3.9c-6.7,0-11.6,4.9-11.6,11.6v9h-10.1v-9c0-6.7-4.9-11.6-11.6-11.6c-6.7,0-11.6,4.9-11.6,11.6v41.9
			c0,6.7,4.9,11.6,11.6,11.6c6.7,0,11.6-4.9,11.6-11.6V45.8H199v11.6c0,6.7,4.9,11.6,11.6,11.6c6.7,0,11.6-4.9,11.6-11.6V15.5
			C222.2,8.8,217.3,3.9,210.6,3.9L210.6,3.9z"/>
	</g>
	<g>
		<path fill="#2E9BFF" d="M266.7,66.1c-5.3,0-7.3-3.2-8-5.1l-2.4-6.8h-15l-2.4,6.8c-1.2,3.4-3.8,5.1-7.9,5.1c-4.9,0-8.3-3.3-8.3-8
			c0-1.3,0.4-3.1,1.3-5.5l15.3-40.4c1.4-3.6,4.2-5.4,8.4-5.4h2.8c1.7,0,6.8,0,9,6.2l14.3,39.7c0.9,2.4,1.3,4.2,1.3,5.5
			C275.1,62.5,271.3,66.1,266.7,66.1z M251.9,40.4l-2.9-9.1l-3.1,9.1H251.9z"/>
		<path fill="#FFFFFF" d="M250.5,9.6c2.7,0,5,0.6,6.3,4.3l14.3,39.7c0.4,1.2,1.2,3.2,1.2,4.5c0,2.9-2.5,5.2-5.5,5.2
			c-2.6,0-4.5-0.9-5.3-3.2l-3-8.6h-19l-3.1,8.6c-0.8,2.3-2.4,3.2-5.3,3.2c-3.2,0-5.5-2-5.5-5.2c0-1.3,0.7-3.4,1.2-4.5l15.3-40.4
			c1-2.7,2.9-3.6,5.8-3.6H250.5 M241.9,43.2h13.8l-6.7-20.8h-0.1L241.9,43.2 M250.5,3.9h-2.8c-6.9,0-9.8,3.9-11.1,7.3l-15.3,40.4
			c-1.4,3.6-1.5,5.5-1.5,6.5c0,6.3,4.7,10.9,11.1,10.9c7.1,0,9.7-4.4,10.6-7l1.7-4.9h11l1.7,4.8l0,0.1l0,0.1
			c1.6,4.4,5.5,6.9,10.6,6.9c6.2,0,11.2-4.9,11.2-10.9c0-1.1-0.2-2.9-1.5-6.5L262.2,12C260.9,8.3,257.8,3.9,250.5,3.9L250.5,3.9z"/>
	</g>
	<g>
		<path fill="#2E9BFF" d="M299.8,66.1c-5.1,0-8.7-3.6-8.7-8.7V23.3h-8.3c-5.3,0-9-3.2-9-7.8c0-4.6,3.7-7.8,9-7.8h34.1
			c5.3,0,9,3.2,9,7.8c0,4.6-3.7,7.8-9,7.8h-8.3v34.1C308.6,62.5,305,66.1,299.8,66.1z"/>
		<path fill="#FFFFFF" d="M316.9,10.5c3.4,0,6.1,1.7,6.1,5s-2.7,5-6.1,5h-11.2v36.9c0,3.5-2.3,5.9-5.9,5.9c-3.6,0-5.9-2.4-5.9-5.9
			V20.4h-11.2c-3.4,0-6.1-1.7-6.1-5s2.7-5,6.1-5H316.9 M316.9,4.8h-34.1c-6.8,0-11.8,4.5-11.8,10.6c0,6.2,5,10.6,11.8,10.6h5.5v31.3
			c0,6.7,4.9,11.6,11.6,11.6c6.7,0,11.6-4.9,11.6-11.6V26.1h5.5c6.8,0,11.8-4.5,11.8-10.6C328.7,9.3,323.7,4.8,316.9,4.8L316.9,4.8z
			"/>
	</g>
	<g>
		<path fill="#2E9BFF" d="M393.5,66.1c-5.3,0-7.3-3.2-8-5.1l-2.4-6.8h-15l-2.4,6.8c-1.2,3.4-3.8,5.1-7.9,5.1c-4.9,0-8.3-3.3-8.3-8
			c0-1.3,0.4-3.1,1.3-5.5l15.3-40.4c1.4-3.6,4.2-5.4,8.4-5.4h2.8c1.7,0,6.8,0,9,6.2l14.3,39.7c0.9,2.4,1.3,4.2,1.3,5.5
			C401.9,62.5,398.1,66.1,393.5,66.1z M378.7,40.4l-2.9-9.1l-3.1,9.1H378.7z"/>
		<path fill="#FFFFFF" d="M377.3,9.6c2.7,0,5,0.6,6.3,4.3l14.3,39.7c0.4,1.2,1.2,3.2,1.2,4.5c0,2.9-2.5,5.2-5.5,5.2
			c-2.6,0-4.5-0.9-5.3-3.2l-3-8.6h-19l-3.1,8.6c-0.8,2.3-2.4,3.2-5.3,3.2c-3.2,0-5.5-2-5.5-5.2c0-1.3,0.7-3.4,1.2-4.5l15.3-40.4
			c1-2.7,2.9-3.6,5.8-3.6H377.3 M368.7,43.2h13.8l-6.7-20.8h-0.1L368.7,43.2 M377.3,3.9h-2.8c-6.9,0-9.8,3.9-11.1,7.3l-15.3,40.4
			c-1.4,3.6-1.5,5.5-1.5,6.5c0,6.3,4.7,10.9,11.1,10.9c7.1,0,9.7-4.4,10.6-7l1.7-4.9h11l1.7,4.8l0,0.1l0,0.1
			c1.6,4.4,5.5,6.9,10.6,6.9c6.2,0,11.2-4.9,11.2-10.9c0-1.1-0.2-2.9-1.5-6.5L389,12C387.7,8.3,384.6,3.9,377.3,3.9L377.3,3.9z"/>
	</g>
	<g>
		<path fill="#2E9BFF" d="M415,65.2c-6.3,0-9.7-3.5-9.7-9.7v-40c0-5.1,3.6-8.7,8.7-8.7s8.7,3.6,8.7,8.7v34.1h16.9c5.3,0,9,3.2,9,7.8
			c0,4.6-3.7,7.8-9,7.8H415z"/>
		<path fill="#FFFFFF" d="M413.9,9.6c3.6,0,5.9,2.4,5.9,5.9v36.9h19.7c3.4,0,6.1,1.7,6.1,5s-2.7,5-6.1,5H415c-4.2,0-6.9-1.7-6.9-6.9
			v-40C408,12,410.3,9.6,413.9,9.6 M413.9,3.9c-6.7,0-11.6,4.9-11.6,11.6v40c0,7.9,4.7,12.6,12.6,12.6h24.6
			c6.8,0,11.8-4.5,11.8-10.6c0-6.2-5-10.6-11.8-10.6h-14.1V15.5C425.5,8.8,420.7,3.9,413.9,3.9L413.9,3.9z"/>
	</g>
	<g>
		<path fill="#2E9BFF" d="M461.8,65.2c-6.3,0-9.7-3.5-9.7-9.7v-40c0-5.1,3.6-8.7,8.7-8.7s8.7,3.6,8.7,8.7v34.1h16.9
			c5.3,0,9,3.2,9,7.8c0,4.6-3.7,7.8-9,7.8H461.8z"/>
		<path fill="#FFFFFF" d="M460.8,9.6c3.6,0,5.9,2.4,5.9,5.9v36.9h19.7c3.4,0,6.1,1.7,6.1,5s-2.7,5-6.1,5h-24.6
			c-4.2,0-6.9-1.7-6.9-6.9v-40C454.9,12,457.2,9.6,460.8,9.6 M460.8,3.9c-6.7,0-11.6,4.9-11.6,11.6v40c0,7.9,4.7,12.6,12.6,12.6
			h24.6c6.8,0,11.8-4.5,11.8-10.6c0-6.2-5-10.6-11.8-10.6h-14.1V15.5C472.4,8.8,467.5,3.9,460.8,3.9L460.8,3.9z"/>
	</g>
	<g>
		<path fill="#2E9BFF" d="M543.3,66.1c-5.1,0-8.7-3.6-8.7-8.7V42.9l-14.1-23.4c-0.9-1.5-1.4-3.1-1.4-4.6c0-5.3,4.5-8.2,8.8-8.2
			c4.6,0,6.5,2.5,7.8,5l7.8,14.3l7.7-14.3c1.8-3.5,4.1-4.9,7.6-4.9c4.2,0,8.7,2.9,8.7,8.2c0,1.5-0.5,3-1.4,4.6L552,42.9v14.5
			C552,62.5,548.4,66.1,543.3,66.1z"/>
		<path fill="#FFFFFF" d="M558.8,9.6c2.2,0,5.8,1.4,5.8,5.4c0,1.1-0.4,2.2-1,3.1l-14.5,24v15.3c0,3.5-2.3,5.9-5.9,5.9
			c-3.6,0-5.9-2.4-5.9-5.9V42.1l-14.5-24c-0.6-0.9-1-2-1-3.1c0-4,3.7-5.4,6-5.4c2.8,0,4.1,1.2,5.3,3.5L543.5,32L553.7,13
			C555.1,10.4,556.4,9.6,558.8,9.6 M558.8,3.9c-6,0-8.6,3.7-10.1,6.5l-5.2,9.7l-5.3-9.7c-1.5-2.8-4.2-6.4-10.3-6.4
			c-5.6,0-11.6,3.9-11.6,11.1c0,2,0.6,4.1,1.8,6l13.6,22.7v13.7c0,6.7,4.9,11.6,11.6,11.6s11.6-4.9,11.6-11.6V43.7L568.5,21
			c1.2-2,1.8-4,1.8-6C570.3,8,564.5,3.9,558.8,3.9L558.8,3.9z"/>
	</g>
	<g>
		<path fill="#2E9BFF" d="M597.5,66.4c-18.2,0-29-11.5-29-30.6c0-17.8,11.4-29.3,29-29.3c17.6,0,29,11.5,29,29.3
			C626.6,51,617.6,66.4,597.5,66.4z M597.5,21.6c-10.1,0-11.6,8.9-11.6,14.2c0,13.9,6.6,15.5,11.6,15.5c7.7,0,11.6-5.2,11.6-15.5
			C609.1,30.5,607.6,21.6,597.5,21.6z"/>
		<path fill="#FFFFFF" d="M597.5,9.3c17,0,26.2,11.3,26.2,26.5c0,14.6-8.5,27.8-26.2,27.8c-18.6,0-26.2-12.1-26.2-27.8
			C571.3,20.6,580.6,9.3,597.5,9.3 M597.5,54.1c10.7,0,14.4-8.4,14.4-18.3c0-9.9-4.8-17-14.4-17c-9.6,0-14.4,7.1-14.4,17
			C583.1,45.7,586.5,54.1,597.5,54.1 M597.5,3.6c-9.7,0-17.9,3.2-23.6,9.3c-5.4,5.8-8.3,13.7-8.3,22.8c0,21,11.9,33.5,31.9,33.5
			c10,0,18.3-3.6,24.1-10.4c5-5.9,7.8-14.1,7.8-23c0-9.2-2.9-17.1-8.3-22.8C615.4,6.8,607.3,3.6,597.5,3.6L597.5,3.6z M597.5,48.4
			c-3.1,0-8.7,0-8.7-12.6c0-7.5,2.9-11.3,8.7-11.3s8.7,3.8,8.7,11.3C606.3,48.4,600.2,48.4,597.5,48.4L597.5,48.4z"/>
	</g>
	<g>
		<path fill="#2E9BFF" d="M657.8,66.4c-16.1,0-25.4-8.6-25.4-23.5V15.5c0-5.1,3.6-8.7,8.7-8.7s8.7,3.6,8.7,8.7v28.4
			c0,5.2,2.4,7.4,7.9,7.4c5.5,0,7.9-2.2,7.9-7.4V15.5c0-5.1,3.6-8.7,8.7-8.7s8.7,3.6,8.7,8.7v27.4C683.2,57.8,673.9,66.4,657.8,66.4
			z"/>
		<path fill="#FFFFFF" d="M674.4,9.6c3.6,0,5.9,2.4,5.9,5.9v27.4c0,14.3-8.8,20.7-22.5,20.7c-13.8,0-22.5-6.4-22.5-20.7V15.5
			c0-3.5,2.3-5.9,5.9-5.9s5.9,2.4,5.9,5.9v28.4c0,7.1,4,10.2,10.7,10.2s10.7-3.2,10.7-10.2V15.5C668.5,12,670.8,9.6,674.4,9.6
			 M674.4,3.9c-6.7,0-11.6,4.9-11.6,11.6v28.4c0,3.2-0.7,4.6-5.1,4.6c-4.4,0-5.1-1.3-5.1-4.6V15.5c0-6.7-4.9-11.6-11.6-11.6
			s-11.6,4.9-11.6,11.6v27.4c0,8.6,2.7,15.3,8.1,20c4.9,4.2,11.7,6.4,20.1,6.4c8.5,0,15.2-2.1,20.1-6.4c5.4-4.6,8.1-11.3,8.1-20
			V15.5C686,8.8,681.1,3.9,674.4,3.9L674.4,3.9z"/>
	</g>
	<g>
		<path fill="#2E9BFF" d="M742.7,66.4c-17.6,0-28.1-11.2-28.1-30c0-18.5,11.4-30,29.8-30c14.8,0,22.9,9,22.9,15.3c0,4.9-3.3,8-8.4,8
			c-3.9,0-5.7-2.4-7-4.2c-1.6-2.1-2.9-3.9-8.2-3.9c-9.7,0-11.7,8.5-11.7,15.6c0,4.3,1.2,14.4,11.9,14.4c3.9,0,7.1-1.9,8.6-4.9h-4
			c-5,0-8.2-2.9-8.2-7.4s2.9-7.4,7.4-7.4h14.5c4.9,0,7.7,2.8,7.7,7.8v19.5c0,3.8-3,6.8-6.9,6.8c-3.7,0-5.5-1.8-6.5-4.1
			C752.8,65,748.3,66.4,742.7,66.4z"/>
		<path fill="#FFFFFF" d="M744.4,9.3c13.1,0,20.1,7.8,20.1,12.5c0,4.1-3,5.2-5.5,5.2c-5.8,0-3.7-8.1-15.2-8.1
			c-8.1,0-14.5,5.3-14.5,18.4c0,10.2,5,17.3,14.7,17.3c6.3,0,11.7-4.2,12.3-10.6h-7.7c-2.5,0-5.3-0.9-5.3-4.5c0-2.9,1.7-4.5,4.6-4.5
			h14.5c3.5,0,4.8,1.7,4.8,5v19.5c0,2.2-1.7,4-4,4c-3.4,0-4.3-2.1-5-6.7c-3.4,4.2-8.1,7-15.4,7c-18.3,0-25.3-12.6-25.3-27.1
			C717.4,18.9,728.4,9.3,744.4,9.3 M744.4,3.6c-19.8,0-32.7,12.9-32.7,32.8c0,20.2,11.9,32.8,30.9,32.8c5.1,0,9.4-1.1,13.2-3.3
			c1.6,1.7,3.8,3,7.3,3c5.4,0,9.7-4.2,9.7-9.6V39.8c0-4.9-2.3-8.5-6.2-9.9c2.2-1.9,3.5-4.8,3.5-8.2c0-4.3-2.8-9-7.4-12.5
			C759.4,6.7,753.4,3.6,744.4,3.6L744.4,3.6z M743.9,48.8c-6,0-9-3.9-9-11.6c0-12.8,6.7-12.8,8.9-12.8c3.9,0,4.6,0.9,6,2.8
			c0.4,0.5,0.9,1.2,1.6,1.9h-3.5c-6.1,0-10.3,4.2-10.3,10.2C737.5,43.9,740,47.4,743.9,48.8C744,48.8,743.9,48.8,743.9,48.8
			L743.9,48.8z"/>
	</g>
	<g>
		<path fill="#2E9BFF" d="M804.5,66.4c-18.2,0-29-11.5-29-30.6c0-17.8,11.4-29.3,29-29.3c17.6,0,29,11.5,29,29.3
			C833.6,51,824.6,66.4,804.5,66.4z M804.5,21.6c-10.1,0-11.6,8.9-11.6,14.2c0,13.9,6.6,15.5,11.6,15.5c7.7,0,11.6-5.2,11.6-15.5
			C816.1,30.5,814.6,21.6,804.5,21.6z"/>
		<path fill="#FFFFFF" d="M804.5,9.3c17,0,26.2,11.3,26.2,26.5c0,14.6-8.5,27.8-26.2,27.8c-18.6,0-26.2-12.1-26.2-27.8
			C778.3,20.6,787.6,9.3,804.5,9.3 M804.5,54.1c10.7,0,14.4-8.4,14.4-18.3c0-9.9-4.8-17-14.4-17c-9.6,0-14.4,7.1-14.4,17
			C790.1,45.7,793.5,54.1,804.5,54.1 M804.5,3.6c-9.7,0-17.9,3.2-23.6,9.3c-5.4,5.8-8.3,13.7-8.3,22.8c0,21,11.9,33.5,31.9,33.5
			c10,0,18.3-3.6,24.1-10.4c5-5.9,7.8-14.1,7.8-23c0-9.2-2.9-17.1-8.3-22.8C822.4,6.8,814.3,3.6,804.5,3.6L804.5,3.6z M804.5,48.4
			c-3.1,0-8.7,0-8.7-12.6c0-7.5,2.9-11.3,8.7-11.3s8.7,3.8,8.7,11.3C813.3,48.4,807.2,48.4,804.5,48.4L804.5,48.4z"/>
	</g>
	<g>
		<path fill="#2E9BFF" d="M860.8,66.1c-5.1,0-8.7-3.6-8.7-8.7V23.3h-8.3c-5.3,0-9-3.2-9-7.8c0-4.6,3.7-7.8,9-7.8h34.1
			c5.3,0,9,3.2,9,7.8c0,4.6-3.7,7.8-9,7.8h-8.3v34.1C869.6,62.5,866,66.1,860.8,66.1z"/>
		<path fill="#FFFFFF" d="M877.9,10.5c3.4,0,6.1,1.7,6.1,5s-2.7,5-6.1,5h-11.2v36.9c0,3.5-2.3,5.9-5.9,5.9c-3.6,0-5.9-2.4-5.9-5.9
			V20.4h-11.2c-3.4,0-6.1-1.7-6.1-5s2.7-5,6.1-5H877.9 M877.9,4.8h-34.1C837,4.8,832,9.3,832,15.5c0,6.2,5,10.6,11.8,10.6h5.5v31.3
			c0,6.7,4.9,11.6,11.6,11.6c6.7,0,11.6-4.9,11.6-11.6V26.1h5.5c6.8,0,11.8-4.5,11.8-10.6C889.7,9.3,884.7,4.8,877.9,4.8L877.9,4.8z
			"/>
	</g>
</g>
</svg>
