<?xml version="1.0" encoding="utf-8"?>
<!-- Generator: Adobe Illustrator 19.1.0, SVG Export Plug-In . SVG Version: 6.00 Build 0)  -->
<svg version="1.0" id="Layer_1" xmlns="http://www.w3.org/2000/svg" xmlns:xlink="http://www.w3.org/1999/xlink" x="0px" y="0px"
	 viewBox="-25.1 353 608.1 88.4" style="enable-background:new -25.1 353 608.1 88.4;" xml:space="preserve">
<style type="text/css">
	.st0{fill:#2E9BFF;}
	.st1{fill:#FFFFFF;}
</style>
<g>
	<g>
		<path class="st0" d="M28.4,420.1c-4.5,0-6.7-1.1-8.9-4.5L4,391.2v20.3c0,5.3-3.3,8.5-8.5,8.5s-8.5-3.2-8.5-8.4v-41.2
			c0-4.4,1.8-9.7,10.3-9.7c3.6,0,6.6,1.6,8.3,4.5l15.5,25.1v-21c0-5.3,3.3-8.5,8.5-8.5s8.5,3.3,8.5,8.5V410
			C38.2,416.4,34.6,420.1,28.4,420.1z"/>
		<path class="st1" d="M29.7,363.5c3.5,0,5.7,1.9,5.7,5.7v40.7c0,4.7-2,7.3-7,7.3c-3.7,0-5-0.8-6.5-3.2L1.4,381.7H1.3v29.9
			c0,3.8-2.2,5.7-5.7,5.7s-5.8-1.9-5.8-5.7v-41.2c0-4.9,2.4-6.9,7.4-6.9c2.4,0,4.6,0.9,5.9,3.1l20.7,33.3H24v-30.7
			C24,365.4,26.1,363.5,29.7,363.5 M29.7,357.9c-6.8,0-11.4,4.5-11.4,11.3v11.1L8,363.7c-2.2-3.7-6.1-5.8-10.7-5.8
			c-8.4,0-13.1,4.5-13.1,12.5v41.1c0,6.8,4.6,11.4,11.4,11.4S7,418.3,7,411.5V401l10.2,16.1c2.7,4.2,5.8,5.8,11.3,5.8
			c7.8,0,12.7-5,12.7-13v-40.7C41,362.4,36.4,357.9,29.7,357.9L29.7,357.9z"/>
	</g>
	<g>
		<path class="st0" d="M78.5,420.1c-3.1,0-5.4-1.3-6.6-3.7c-3.2,2.5-6.8,3.7-11,3.7c-7.8,0-16.1-4.4-16.1-16.7V383
			c0-5.1,3-8.1,8.1-8.1s8.1,3,8.1,8.1v18.4c0,4.4,2.7,4.4,3.8,4.4c2.1,0,5.2-1.7,5.2-5.4V383c0-5.1,3-8.1,8.1-8.1s8.1,3,8.1,8.1v29
			C86.1,417,83.2,420.1,78.5,420.1z"/>
		<path class="st1" d="M78,377.7c4.1,0,5.3,2.4,5.3,5.3v29c0,3.2-1.4,5.3-4.8,5.3c-3.3,0-4.8-2.1-4.8-5.3v-1.4h-0.1
			c-3,3.9-6.8,6.6-12.7,6.6c-6.3,0-13.2-3.2-13.2-13.8V383c0-2.8,1.2-5.3,5.3-5.3s5.3,2.4,5.3,5.3v18.4c0,4.2,2.1,7.3,6.6,7.3
			c3.7,0,8-3,8-8.3V383C72.8,380.2,73.9,377.7,78,377.7 M78,372c-6.6,0-10.9,4.3-10.9,10.9v17.4c0,2.1-1.9,2.6-2.3,2.6
			s-0.6,0-0.7-0.1c-0.1-0.2-0.2-0.7-0.2-1.5V383c0-6.6-4.3-10.9-10.9-10.9s-10.9,4.3-10.9,10.9v20.4c0,11.8,7.4,19.5,18.9,19.5
			c3.9,0,7.4-0.9,10.4-2.7c1.8,1.7,4.3,2.7,7.2,2.7c6.2,0,10.4-4.4,10.4-10.9v-29C89,376.3,84.7,372,78,372L78,372z"/>
	</g>
	<g>
		<path class="st0" d="M108.1,420.1c-11.3,0-13.6-6.6-13.6-12.2v-19.6c-5.4-0.5-6-4.5-6-6.2c0-1.8,0.6-5.8,6-6.2v-3.6
			c0-4.9,3.2-8.1,8.1-8.1s8.1,3.2,8.1,8.1v3.6h0.3c6.8,0,7.6,4.4,7.6,6.3c0,1.9-0.7,6.3-7.6,6.3h-0.3v17.8h1.4
			c3.9,0,6.5,2.6,6.5,6.4C118.5,414.8,117.5,420.1,108.1,420.1z"/>
		<path class="st1" d="M102.5,367c3.2,0,5.3,1.8,5.3,5.3v6.4h3.2c3.1,0,4.8,0.9,4.8,3.5c0,2.5-1.7,3.5-4.8,3.5h-3.2v21
			c0,1.6,0.9,2.4,2.7,2.4h1.5c2.3,0,3.7,1.3,3.7,3.5c0,3-2.6,4.7-7.6,4.7c-7.6,0-10.8-3.2-10.8-9.4v-22.3h-1.8c-3,0-4.2-1.2-4.2-3.5
			c0-2.3,1.2-3.5,4.2-3.5h1.8v-6.4C97.3,368.8,99.3,367,102.5,367 M102.5,361.3c-6.4,0-10.9,4.5-10.9,10.9v1.3c-4.3,1.4-6,5.2-6,8.6
			s1.6,7.2,6,8.6v17.2c0,4.5,1.6,15,16.5,15c12.7,0,13.3-8.6,13.3-10.3c0-4.9-3.3-8.5-7.9-9.1V391c5.8-0.9,7.9-5,7.9-8.9
			s-2.1-8-7.9-8.9v-0.9C113.4,365.8,108.9,361.3,102.5,361.3L102.5,361.3z"/>
	</g>
	<g>
		<path class="st0" d="M129.9,420.1c-5.1,0-8.1-3-8.1-8.1v-29.4c0-4.6,3.1-7.7,7.6-7.7c2.7,0,4.9,1.2,6.3,3.1
			c2.4-2.5,5.1-3.1,7.3-3.1c4.9,0,8.6,3.4,8.6,7.9c0,4.8-3.2,8.1-8,8.1h-1.9c-1.3,0-3.7,0-3.7,8.8v12.2
			C138,417,134.9,420.1,129.9,420.1z"/>
		<path class="st1" d="M143,377.7c3.3,0,5.8,2.2,5.8,5.1c0,3.9-2.6,5.3-5.2,5.3h-1.9c-4.2,0-6.6,3-6.6,11.7V412
			c0,2.8-1.2,5.3-5.3,5.3s-5.3-2.4-5.3-5.3v-29.4c0-3.2,2.1-4.9,4.8-4.9s4.8,1.7,4.8,4.9v4h0.1C135.5,382.2,137.9,377.7,143,377.7
			 M143,372c-1.9,0-4.6,0.4-7.1,2.1c-1.7-1.3-4-2.1-6.5-2.1c-6,0-10.4,4.4-10.4,10.6V412c0,6.6,4.3,10.9,10.9,10.9
			s10.9-4.3,10.9-10.9v-12.3c0-3.9,0.5-5.5,0.8-6h0.1h1.9c6.4,0,10.9-4.5,10.9-10.9C154.4,376.8,149.4,372,143,372L143,372z"/>
	</g>
	<g>
		<path class="st0" d="M162.1,420.1c-5.1,0-8.1-3-8.1-8.1v-29c0-3.4,1.4-5.9,3.8-7.1c-2.4-1.5-4-4.1-4-7.1c0-4.6,3.7-8.3,8.3-8.3
			s8.3,3.7,8.3,8.3c0,3-1.6,5.7-4,7.1c2.4,1.3,3.8,3.7,3.8,7.1v29C170.1,417,167.1,420.1,162.1,420.1z"/>
		<path class="st1" d="M162.1,363.2c3,0,5.5,2.4,5.5,5.5c0,3.1-2.4,5.5-5.5,5.5s-5.5-2.4-5.5-5.5C156.6,365.6,159,363.2,162.1,363.2
			 M162.1,377.7c4.1,0,5.3,2.4,5.3,5.3v29c0,2.8-1.2,5.3-5.3,5.3s-5.3-2.4-5.3-5.3v-29C156.8,380.2,158,377.7,162.1,377.7
			 M162.1,357.6c-6.1,0-11.1,5-11.1,11.1c0,2.7,0.9,5.1,2.5,7.1c-1.5,1.8-2.3,4.3-2.3,7.2v29c0,6.6,4.3,10.9,10.9,10.9
			S173,418.6,173,412v-29c0-2.9-0.8-5.4-2.3-7.2c1.6-1.9,2.5-4.4,2.5-7.1C173.2,362.6,168.2,357.6,162.1,357.6L162.1,357.6z"/>
	</g>
	<g>
		<path class="st0" d="M210,420.1c-2.8,0-5-1.1-6.3-3c-2.5,1.9-5.8,3-9.7,3c-9.6,0-19.3-7.1-19.3-22.9c0-11.1,5.9-22.3,19-22.3
			c2.9,0,5.5,0.6,7.7,1.8v-7.9c0-4.9,3.2-8.1,8.1-8.1s8.1,3.2,8.1,8.1v43.5C217.6,417.2,214.8,420.1,210,420.1z M196.4,388.8
			c-5,0-5.6,6.2-5.6,8.8c0,2,0.4,8.5,5.6,8.6c4.8,0,5.5-5.4,5.5-8.6C202,395.5,201.6,388.8,196.4,388.8L196.4,388.8z"/>
		<path class="st1" d="M209.5,363.5c3.2,0,5.3,1.8,5.3,5.3v43.5c0,3.2-1.5,5-4.8,5c-3.1,0-4.8-1.7-4.8-5v-1.7h-0.1
			c-1.7,4.5-6,6.6-11.1,6.6c-8.8,0-16.5-6.4-16.5-20c0-10.1,5.1-19.5,16.2-19.5c4.7,0,8.3,1.9,10.4,5.3h0.1v-14.2
			C204.3,365.3,206.3,363.5,209.5,363.5 M196.4,409c6.1,0,8.4-5.5,8.4-11.4c0-5.4-2-11.7-8.3-11.7h-0.1c-6.7,0-8.4,6.8-8.4,11.7
			C188.1,403.8,190.8,408.9,196.4,409 M209.5,357.9c-6.4,0-10.9,4.5-10.9,10.9v3.8c-1.5-0.4-3.1-0.6-4.8-0.6
			c-6.9,0-12.9,2.9-16.8,8.3c-3.3,4.4-5,10.4-5,16.9c0,17.7,11.1,25.7,22.2,25.7c3.5,0,6.6-0.8,9.3-2.2c1.8,1.4,4.1,2.2,6.7,2.2
			c6.3,0,10.4-4.2,10.4-10.6v-43.5C220.4,362.3,215.9,357.9,209.5,357.9L209.5,357.9z M196.5,403.4c-2.6-0.2-2.8-4.8-2.8-5.8
			c0-2,0.4-3.8,1-5c0.5-0.9,0.9-1,1.7-1l0,0l0,0c2.6,0,2.7,5.4,2.7,6C199.2,400.2,198.7,403.3,196.5,403.4L196.5,403.4z"/>
	</g>
	<g>
		<path class="st0" d="M257.2,420.1c-3.5,0-6.1-1.4-7.6-3.8c-3.6,2.6-7.8,3.8-13,3.8c-7.2,0-14.7-5.1-14.7-13.6
			c0-7.1,3.7-10.7,7.9-12.6c-3.2-0.7-5.5-3.4-5.5-6.7c0-6.1,7.3-12.3,19.5-12.3c18,0,19.9,9.5,19.9,13.6v17.6c0,2.3,0.3,3.4,0.6,4.4
			c0.2,0.8,0.5,1.6,0.5,2.6C264.8,417.1,261.5,420.1,257.2,420.1z M247.6,402.8c-0.4,0.1-0.8,0.2-1.1,0.2l-4,0.6
			c-4.4,0.6-4.4,1.7-4.4,2.4s1.1,1.5,3,1.5C245.2,407.5,247.5,405.1,247.6,402.8z M243.8,388.3c-3.3,0-4.6,1.3-6.1,2.7
			c-0.3,0.3-0.6,0.6-0.9,0.9c0.9-0.1,1.7-0.2,2.4-0.3l6.4-0.7c1.5-0.2,1.9-0.4,1.9-0.5c0,0,0.1-0.2,0.1-0.6
			C247.6,388.6,245.1,388.3,243.8,388.3z"/>
		<path class="st1" d="M243.9,377.7c10.1,0,17.1,3.2,17.1,10.8v17.6c0,4.4,1.1,5.4,1.1,7.1c0,2.4-2.2,4-4.8,4c-4.5,0-6-2.9-6.2-6.1
			c-4.1,4.5-8.9,6.1-14.4,6.1c-6,0-11.9-4.1-11.9-10.7c0-8.7,6.6-11.2,14.7-12.1l6.4-0.7c2.5-0.3,4.5-0.9,4.5-3.9s-3.1-4.3-6.6-4.3
			c-7.8,0-8,5.8-12.2,5.8c-2.7,0-4.5-1.9-4.5-4C227.1,383,233,377.7,243.9,377.7 M241.1,410.3c5.8,0,9.3-3.7,9.3-7.6v-4.1
			c-1.2,1.1-3.3,1.4-4.5,1.7l-3.8,0.6c-4.4,0.6-6.8,2-6.8,5.2C235.3,408.4,237.5,410.3,241.1,410.3 M243.9,372
			c-14,0-22.4,7.7-22.4,15.2c0,2.7,1.1,5.1,2.9,6.8c-2.7,2.3-5.3,6.2-5.3,12.5c0,10.3,8.9,16.4,17.6,16.4c4.7,0,8.8-1,12.4-3
			c2.1,1.9,4.9,3,8.2,3c5.8,0,10.4-4.3,10.4-9.7c0-1.4-0.3-2.6-0.6-3.4c-0.3-0.9-0.5-1.7-0.5-3.6v-17.7c0-5.6-2.7-10.3-7.6-13.1
			C255.2,373.2,250.1,372,243.9,372L243.9,372z"/>
	</g>
	<g>
		<path class="st0" d="M278.8,434c-6.5,0-9.5-3.8-9.5-7.7c0-4.2,3.1-7.1,7.7-7.1h1.1c0.1,0,0.4,0,0.5,0c0-0.1,0.1-0.2,0.2-0.4
			l-10.6-30.3l-0.2-0.6c-0.8-2.4-1.3-3.7-1.3-5.3c0-4.4,3.5-7.9,7.9-7.9c4,0,7.1,2.3,8.1,6l4.1,14.8l3.8-14c1.6-5.9,5.6-6.8,7.8-6.8
			c5.6,0,8.2,4.5,8.2,7.6c0,1.2-0.3,2.5-1,4.3l-12.2,34.5C291.2,427.9,287.8,434,278.8,434z"/>
		<path class="st1" d="M298.4,377.7c4.2,0,5.4,3.5,5.4,4.8c0,0.9-0.3,1.9-0.8,3.3l-12.2,34.5c-2.5,7.2-5.4,10.9-12,10.9
			c-4.7,0-6.6-2.3-6.6-4.8c0-2.8,2-4.2,4.8-4.2h1.1c1.4,0,2.9-0.1,3.7-3.3l-10.9-31.2c-0.9-2.5-1.3-3.7-1.3-4.9c0-2.9,2.3-5,5.1-5
			s4.8,1.6,5.4,4l6.8,24.6h0.1l6.4-23.8C294.1,379.7,295.5,377.7,298.4,377.7 M298.4,372c-2.4,0-8.4,0.9-10.5,8.9l-1.1,4l-1.3-4.7
			c-1.3-4.9-5.6-8.1-10.9-8.1c-6,0-10.8,4.7-10.8,10.7c0,2.1,0.6,3.7,1.4,6.2l0.2,0.6l9.5,27.1c-5.1,0.8-8.5,4.6-8.5,9.8
			c0,5.1,3.8,10.5,12.3,10.5c10.8,0,14.8-7.5,17.4-14.7l12.2-34.4c0.8-2.2,1.1-3.7,1.1-5.2C309.5,378.3,306,372,298.4,372L298.4,372
			z"/>
	</g>
	<g>
		<path class="st0" d="M352.4,420.1c-11.4,0-20.3-5.4-20.3-12.3c0-3.9,2.5-6.7,6.1-7.2c-3.4-2.1-6.1-5.4-6.1-11.2
			c0-10.1,9.3-14.6,18.6-14.6c9.2,0,18.9,3.8,18.9,10.8c0,3.9-2.6,6.9-6.2,7.4c4.1,2,8,5.4,8,11.6
			C371.5,415.3,361.6,420.1,352.4,420.1z M345,403.2c0.3,0.3,0.5,0.5,0.8,0.8c1.7,1.7,3,3,6.2,3c2.3,0,3.2-0.8,3.3-1v-0.1
			c-0.5-0.3-2.1-0.7-3.3-1C351.9,404.9,345.1,403.3,345,403.2z M348.5,388.8c0.7,0.4,2.3,0.7,3.3,0.9c0,0,5,1.1,5.3,1.2
			c-0.2-0.2-0.4-0.3-0.6-0.5c-1.4-1.2-2.3-2.1-5-2.1C349.7,388.3,348.9,388.6,348.5,388.8z"/>
		<path class="st1" d="M350.8,377.7c8,0,16.1,3.2,16.1,8c0,2.4-1.7,4.6-4.4,4.6c-4.1,0-4.2-4.8-10.9-4.8c-3.7,0-6,1-6,3.2
			c0,2.4,2.4,3,5.6,3.7l4.4,1c6,1.4,13.1,3.9,13.1,11.2c0,8.6-8.3,12.5-16.2,12.5c-9.5,0-17.4-4.2-17.4-9.4c0-2.3,1.3-4.4,4.2-4.4
			c4.5,0,5,6.5,12.7,6.5c3.7,0,6.1-1.7,6.1-3.8c0-2.7-2.3-3.1-6-4l-6.2-1.5c-6.1-1.5-10.9-4-10.9-11.1
			C335,380.9,343.5,377.7,350.8,377.7 M350.8,372c-12.6,0-21.4,7.2-21.4,17.4c0,4.7,1.5,8,3.6,10.4c-2.2,1.8-3.6,4.6-3.6,7.9
			c0,8.6,9.9,15.1,23.1,15.1c10.9,0,21.9-6.3,21.9-18.2c0-4.5-1.8-8.4-5.2-11.3c2.1-1.9,3.4-4.6,3.4-7.7
			C372.5,376.7,361.6,372,350.8,372L350.8,372z"/>
	</g>
	<g>
		<path class="st0" d="M409.5,420.1c-3.5,0-6.1-1.4-7.6-3.8c-3.6,2.6-7.8,3.8-13,3.8c-7.2,0-14.7-5.1-14.7-13.6
			c0-7.1,3.7-10.7,7.9-12.6c-3.2-0.7-5.5-3.4-5.5-6.7c0-6.1,7.3-12.3,19.5-12.3c18,0,19.9,9.5,19.9,13.6v17.6c0,2.3,0.3,3.4,0.6,4.4
			c0.2,0.8,0.5,1.6,0.5,2.6C417,417.1,413.7,420.1,409.5,420.1z M399.8,402.8c-0.4,0.1-0.8,0.2-1.1,0.2l-4,0.6
			c-4.4,0.6-4.4,1.7-4.4,2.4s1.1,1.5,3,1.5C397.4,407.5,399.7,405.1,399.8,402.8z M396,388.3c-3.3,0-4.6,1.3-6.1,2.7
			c-0.3,0.3-0.6,0.6-0.9,0.9c0.9-0.1,1.7-0.2,2.4-0.3l6.4-0.7c1.5-0.2,1.9-0.4,1.9-0.5c0,0,0.1-0.2,0.1-0.6
			C399.8,388.6,397.3,388.3,396,388.3z"/>
		<path class="st1" d="M396.1,377.7c10.1,0,17.1,3.2,17.1,10.8v17.6c0,4.4,1.1,5.4,1.1,7.1c0,2.4-2.2,4-4.8,4c-4.5,0-6-2.9-6.2-6.1
			c-4.1,4.5-8.9,6.1-14.4,6.1c-6,0-11.9-4.1-11.9-10.7c0-8.7,6.6-11.2,14.7-12.1l6.4-0.7c2.5-0.3,4.5-0.9,4.5-3.9s-3.1-4.3-6.6-4.3
			c-7.8,0-8,5.8-12.2,5.8c-2.7,0-4.5-1.9-4.5-4C379.4,383,385.3,377.7,396.1,377.7 M393.3,410.3c5.8,0,9.3-3.7,9.3-7.6v-4.1
			c-1.2,1.1-3.3,1.4-4.5,1.7l-3.8,0.6c-4.4,0.6-6.8,2-6.8,5.2C387.5,408.4,389.7,410.3,393.3,410.3 M396.1,372
			c-14,0-22.4,7.7-22.4,15.2c0,2.7,1.1,5.1,2.9,6.8c-2.7,2.3-5.3,6.2-5.3,12.5c0,10.3,8.9,16.4,17.6,16.4c4.7,0,8.8-1,12.4-3
			c2.1,1.9,4.9,3,8.2,3c5.8,0,10.4-4.3,10.4-9.7c0-1.4-0.3-2.6-0.6-3.4c-0.3-0.9-0.5-1.7-0.5-3.6v-17.7c0-5.6-2.7-10.3-7.6-13.1
			C407.4,373.2,402.3,372,396.1,372L396.1,372z"/>
	</g>
	<g>
		<path class="st0" d="M431,434c-6.5,0-9.5-3.8-9.5-7.7c0-4.2,3.1-7.1,7.7-7.1h1.1c0.1,0,0.4,0,0.5,0c0-0.1,0.1-0.2,0.2-0.4
			l-10.6-30.3l-0.2-0.6c-0.8-2.4-1.3-3.7-1.3-5.3c0-4.4,3.5-7.9,7.9-7.9c4,0,7.1,2.3,8.1,6l4.1,14.8l3.8-14c1.6-5.9,5.6-6.8,7.8-6.8
			c5.6,0,8.2,4.5,8.2,7.6c0,1.2-0.3,2.5-1,4.3l-12.2,34.5C443.4,427.9,440,434,431,434z"/>
		<path class="st1" d="M450.6,377.7c4.2,0,5.4,3.5,5.4,4.8c0,0.9-0.3,1.9-0.8,3.3L443,420.3c-2.5,7.2-5.4,10.9-12,10.9
			c-4.7,0-6.6-2.3-6.6-4.8c0-2.8,2-4.2,4.8-4.2h1.1c1.4,0,2.9-0.1,3.7-3.3l-10.9-31.2c-0.9-2.5-1.3-3.7-1.3-4.9c0-2.9,2.3-5,5.1-5
			s4.8,1.6,5.4,4l6.8,24.6h0.1l6.4-23.8C446.3,379.7,447.8,377.7,450.6,377.7 M450.6,372c-2.4,0-8.4,0.9-10.5,8.9l-1.1,4l-1.3-4.7
			c-1.3-4.9-5.6-8.1-10.9-8.1c-6,0-10.8,4.7-10.8,10.7c0,2.1,0.6,3.7,1.4,6.2l0.2,0.6l9.5,27.1c-5.1,0.8-8.5,4.6-8.5,9.8
			c0,5.1,3.8,10.5,12.3,10.5c10.8,0,14.8-7.5,17.4-14.7l12.2-34.4c0.8-2.2,1.1-3.7,1.1-5.2C461.7,378.3,458.2,372,450.6,372
			L450.6,372z"/>
	</g>
	<g>
		<path class="st0" d="M479.7,420.1c-11.4,0-20.3-5.4-20.3-12.3c0-3.9,2.5-6.7,6.1-7.2c-3.4-2.1-6.1-5.4-6.1-11.2
			c0-10.1,9.3-14.6,18.6-14.6c9.2,0,18.9,3.8,18.9,10.8c0,3.9-2.6,6.9-6.2,7.4c4.1,2,8,5.4,8,11.6
			C498.8,415.3,488.9,420.1,479.7,420.1z M472.3,403.2c0.3,0.3,0.5,0.5,0.8,0.8c1.7,1.7,3,3,6.2,3c2.3,0,3.2-0.8,3.3-1v-0.1
			c-0.5-0.3-2.1-0.7-3.3-1C479.2,404.9,472.4,403.3,472.3,403.2z M475.8,388.8c0.7,0.4,2.3,0.7,3.3,0.9c0,0,5,1.1,5.3,1.2
			c-0.2-0.2-0.4-0.3-0.6-0.5c-1.4-1.2-2.3-2.1-5-2.1C477,388.3,476.2,388.6,475.8,388.8z"/>
		<path class="st1" d="M478.1,377.7c8,0,16.1,3.2,16.1,8c0,2.4-1.7,4.6-4.4,4.6c-4.1,0-4.2-4.8-10.9-4.8c-3.7,0-6,1-6,3.2
			c0,2.4,2.4,3,5.6,3.7l4.4,1c6,1.4,13.1,3.9,13.1,11.2c0,8.6-8.3,12.5-16.2,12.5c-9.5,0-17.4-4.2-17.4-9.4c0-2.3,1.3-4.4,4.2-4.4
			c4.5,0,5,6.5,12.7,6.5c3.7,0,6.1-1.7,6.1-3.8c0-2.7-2.3-3.1-6-4l-6.2-1.5c-6.1-1.5-10.9-4-10.9-11.1
			C462.3,380.9,470.8,377.7,478.1,377.7 M478.1,372c-12.6,0-21.4,7.2-21.4,17.4c0,4.7,1.5,8,3.6,10.4c-2.2,1.8-3.6,4.6-3.6,7.9
			c0,8.6,9.9,15.1,23.1,15.1c10.9,0,21.9-6.3,21.9-18.2c0-4.5-1.8-8.4-5.2-11.3c2.1-1.9,3.4-4.6,3.4-7.7
			C499.8,376.7,488.9,372,478.1,372L478.1,372z"/>
	</g>
	<g>
		<path class="st0" d="M512.3,419.6c-4.8,0-8.7-3.9-8.7-8.7c0-4.8,3.9-8.7,8.7-8.7s8.7,3.9,8.7,8.7
			C521,415.7,517.2,419.6,512.3,419.6z"/>
		<path class="st1" d="M512.3,405c3.2,0,5.9,2.7,5.9,5.9c0,3.2-2.7,5.9-5.9,5.9s-5.9-2.7-5.9-5.9C506.4,407.7,509.1,405,512.3,405
			 M512.3,399.3c-6.4,0-11.6,5.2-11.6,11.6s5.2,11.6,11.6,11.6c6.4,0,11.6-5.2,11.6-11.6C523.9,404.5,518.7,399.3,512.3,399.3
			L512.3,399.3z"/>
	</g>
	<g>
		<path class="st0" d="M537.2,419.6c-4.8,0-8.7-3.9-8.7-8.7c0-4.8,3.9-8.7,8.7-8.7s8.7,3.9,8.7,8.7
			C545.9,415.7,542.1,419.6,537.2,419.6z"/>
		<path class="st1" d="M537.2,405c3.2,0,5.9,2.7,5.9,5.9c0,3.2-2.7,5.9-5.9,5.9s-5.9-2.7-5.9-5.9C531.3,407.7,534,405,537.2,405
			 M537.2,399.3c-6.4,0-11.6,5.2-11.6,11.6s5.2,11.6,11.6,11.6c6.4,0,11.6-5.2,11.6-11.6S543.6,399.3,537.2,399.3L537.2,399.3z"/>
	</g>
	<g>
		<path class="st0" d="M562.2,419.6c-4.8,0-8.7-3.9-8.7-8.7c0-4.8,3.9-8.7,8.7-8.7s8.7,3.9,8.7,8.7
			C570.9,415.7,567,419.6,562.2,419.6z"/>
		<path class="st1" d="M562.2,405c3.2,0,5.9,2.7,5.9,5.9c0,3.2-2.7,5.9-5.9,5.9s-5.9-2.7-5.9-5.9C556.3,407.7,558.9,405,562.2,405
			 M562.2,399.3c-6.4,0-11.6,5.2-11.6,11.6s5.2,11.6,11.6,11.6c6.4,0,11.6-5.2,11.6-11.6C573.7,404.5,568.5,399.3,562.2,399.3
			L562.2,399.3z"/>
	</g>
</g>
</svg>
