<?xml version="1.0" encoding="utf-8"?>
<!-- Generator: Adobe Illustrator 19.1.0, SVG Export Plug-In . SVG Version: 6.00 Build 0)  -->
<svg version="1.0" id="Layer_1" xmlns="http://www.w3.org/2000/svg" xmlns:xlink="http://www.w3.org/1999/xlink" x="0px" y="0px"
	 width="824.2px" height="244px" viewBox="0 0 824.2 244" enable-background="new 0 0 824.2 244" xml:space="preserve">
<metadata><?xpacket begin="﻿" id="W5M0MpCehiHzreSzNTczkc9d"?>
<x:xmpmeta xmlns:x="adobe:ns:meta/" x:xmptk="Adobe XMP Core 5.6-c067 79.157747, 2015/03/30-23:40:42        ">
   <rdf:RDF xmlns:rdf="http://www.w3.org/1999/02/22-rdf-syntax-ns#">
      <rdf:Description rdf:about=""
            xmlns:dc="http://purl.org/dc/elements/1.1/"
            xmlns:xmp="http://ns.adobe.com/xap/1.0/"
            xmlns:xmpGImg="http://ns.adobe.com/xap/1.0/g/img/"
            xmlns:xmpMM="http://ns.adobe.com/xap/1.0/mm/"
            xmlns:stRef="http://ns.adobe.com/xap/1.0/sType/ResourceRef#"
            xmlns:stEvt="http://ns.adobe.com/xap/1.0/sType/ResourceEvent#"
            xmlns:illustrator="http://ns.adobe.com/illustrator/1.0/"
            xmlns:xmpTPg="http://ns.adobe.com/xap/1.0/t/pg/"
            xmlns:stDim="http://ns.adobe.com/xap/1.0/sType/Dimensions#"
            xmlns:stFnt="http://ns.adobe.com/xap/1.0/sType/Font#"
            xmlns:xmpG="http://ns.adobe.com/xap/1.0/g/"
            xmlns:pdf="http://ns.adobe.com/pdf/1.3/">
         <dc:format>image/svg+xml</dc:format>
         <dc:title>
            <rdf:Alt>
               <rdf:li xml:lang="x-default">Web</rdf:li>
            </rdf:Alt>
         </dc:title>
         <xmp:CreatorTool>Adobe Illustrator CC 2015 (Windows)</xmp:CreatorTool>
         <xmp:CreateDate>2015-11-09T20:30:32+02:00</xmp:CreateDate>
         <xmp:ModifyDate>2015-11-09T20:30:32+02:00</xmp:ModifyDate>
         <xmp:MetadataDate>2015-11-09T20:30:32+02:00</xmp:MetadataDate>
         <xmp:Thumbnails>
            <rdf:Alt>
               <rdf:li rdf:parseType="Resource">
                  <xmpGImg:width>256</xmpGImg:width>
                  <xmpGImg:height>132</xmpGImg:height>
                  <xmpGImg:format>JPEG</xmpGImg:format>
                  <xmpGImg:image>/9j/4AAQSkZJRgABAgEASABIAAD/7QAsUGhvdG9zaG9wIDMuMAA4QklNA+0AAAAAABAASAAAAAEA&#xA;AQBIAAAAAQAB/+4ADkFkb2JlAGTAAAAAAf/bAIQABgQEBAUEBgUFBgkGBQYJCwgGBggLDAoKCwoK&#xA;DBAMDAwMDAwQDA4PEA8ODBMTFBQTExwbGxscHx8fHx8fHx8fHwEHBwcNDA0YEBAYGhURFRofHx8f&#xA;Hx8fHx8fHx8fHx8fHx8fHx8fHx8fHx8fHx8fHx8fHx8fHx8fHx8fHx8fHx8f/8AAEQgAhAEAAwER&#xA;AAIRAQMRAf/EAaIAAAAHAQEBAQEAAAAAAAAAAAQFAwIGAQAHCAkKCwEAAgIDAQEBAQEAAAAAAAAA&#xA;AQACAwQFBgcICQoLEAACAQMDAgQCBgcDBAIGAnMBAgMRBAAFIRIxQVEGE2EicYEUMpGhBxWxQiPB&#xA;UtHhMxZi8CRygvElQzRTkqKyY3PCNUQnk6OzNhdUZHTD0uIIJoMJChgZhJRFRqS0VtNVKBry4/PE&#xA;1OT0ZXWFlaW1xdXl9WZ2hpamtsbW5vY3R1dnd4eXp7fH1+f3OEhYaHiImKi4yNjo+Ck5SVlpeYmZ&#xA;qbnJ2en5KjpKWmp6ipqqusra6voRAAICAQIDBQUEBQYECAMDbQEAAhEDBCESMUEFURNhIgZxgZEy&#xA;obHwFMHR4SNCFVJicvEzJDRDghaSUyWiY7LCB3PSNeJEgxdUkwgJChgZJjZFGidkdFU38qOzwygp&#xA;0+PzhJSktMTU5PRldYWVpbXF1eX1RlZmdoaWprbG1ub2R1dnd4eXp7fH1+f3OEhYaHiImKi4yNjo&#xA;+DlJWWl5iZmpucnZ6fkqOkpaanqKmqq6ytrq+v/aAAwDAQACEQMRAD8A9U4q7FXYq7FXYq7FXYq7&#xA;FXYq7FXYq7FXYqk723lDS5PTki0+xklUtwZYYWZIwSTQ8ahRX5ZmCeoyiwZyr3lxDDBjNEQjfuCO&#xA;stN0q2YzWVrBA0iqpkhjRCyKKKKqBUAdMoyZsktpEmu8t2PFCO8QB7gisqbXYq7FXYq7FXYq7FXY&#xA;q7FXYq7FXYq7FXYq7FXYq7FXYq7FXYq7FXYq7FXYq7FXYq7FXYq7FXYq7FXYq7FXYq7FXYq7FXYq&#xA;7FXYq7FXYq7FXYq7FXYq7FXYq7FXYq7FXYq7FXYq7FXYq7FXYq7FXYq7FXYqslaRUrGgdv5SeP40&#xA;OGIHVBJ6IaO+uHG9pIrdgdh0Pc++WnGB/EGsZCeiLUkqCRQkbjrTKS2hvFXYqpRuxuZlJPFQlB8w&#xA;cmR6QwB3KrkGbsVdirsVdirsVdirsVdirsVdirsVdirsVdirsVdirsVdirsVdirsVdirsVdirsVd&#xA;irsVdirsVdirqCtabnvirsVdirsVdirsVdirsVdirsVdirsVdirsVdirsVdirsVdirsVdirsVdir&#xA;sVdirsVdirsVdirsVdirsVdirsVdirsVdirsVdirsVdirsVdirsVdirsVdirsVdirsVdirsVdirs&#xA;VdirsVdirsVdirsVdirsVdirsVdirsVdirsVdirsVdirsVdirsVdirsVdirsVdirsVdirsVdirsV&#xA;dirsVdirsVdirsVdirsVdirsVdirsVdirsVdirsVdirsVdirsVdirsVdirsVdirsVdirsVdirsVd&#xA;irsVdirsVdirsVdirsVdirsVdirsVdirsVdirsVdirsVdirsVdirsVdirsVdirsVdirsVdirsVdi&#xA;rsVdirsVdirsVdirsVdirsVdirsVdirsVdirsVdirsVdirsVdirsVdirsVdirsVdirsVdirsVdir&#xA;sVdirsVdirsVdirsVdirsVdirsVdirsVdirsVdirsVdirsVdirsVdirsVdirsVdirsVdirsVdirs&#xA;VdirsVdirsVdirsVdirsVdirsVdirsVdirsVdirsVdirsVdirsVdirsVdirsVdirsVdirsVdirsV&#xA;dirsVdirsVdirsVdirsVdirsVdirsVdirsVdirsVdirsVdirsVdirsVdirsVdirsVdirsVdirsVd&#xA;irsVdirsVdirsVdirsVdirsVdirsVdirsVdirsVdirsVdirsVdirsVdirsVdirsVdirsVdirsVdi&#xA;rsVdirsVdirsVS9zqQY+nE/E7gmRDT23U5kDg6n7C0Hj6D7V5l1H0+IgPJq/HzSq7/IDI8ML5/YU&#xA;3OuX3NOdS4Kqq1aCr8o61ruDUEfhhHB+LU8f4p3LUhHx9Ms3XmWQe1KUpjUL5/etzr+xdGdQbkXB&#xA;SnIqAUIPgvTAeDokcfVYp1MUqjMehBaMDtvsMJ4PxbEcf4psPqILN6TN3CFkAP0jfGod/wB6bn3f&#xA;csU6uQKoy9a/HGenb7OSPh/i2I8T8UqBtRoPgbpvUx9foGQqH4tlc/xS31NV+FRBSlQXLoevQkU7&#xA;Yax96Ln3Lp/rzEFY2FBQhHQA79dwcY8Hf9iZcXc0ovmdVZHVeVTIJE2B3pQLvTE8NfsUcV/tadtT&#xA;LvRGVRy4gNHv4dVxAh+LQTP8UujfUijh4yGoCp5J1ruOnhgIhex+9IM63CmX1bekbdaghovDp08c&#xA;lWPv+9jeTu+5svq3FT6RqCaqGjG3XqQfljWPv+9Nz7vubL6maqISO6uHTw6bjpXBUO/71ufc0p1U&#xA;caqzctmJMfw79RQCu2E+H+LUcf4pwOq1b4GAHQlo9ztv0x/d/i19f4pUZ9Q40WI17nkv8ciBDvZE&#xA;y7lnLUw9fTJWnTklOnyrXDUK5/exud8lznUqtwU0NOO6bV+Y7Yjg/FpPG5G1EGrRFvYunifADARD&#xA;vUGfc07amW2Sg6bFKeFdwcIEFJm5X1IuEaIhRt6gdK9tyKHEiHf96gz7nB9S4hRGa13Yslf1U/DG&#xA;od/3rc+5r1NU5A+jWgJ480oT2HjjWPvRc+5tX1MsCYqA0+EspA+dKHEiHekGfc3/ALkZGeoMHEfB&#xA;QowY/SKiuD0Dz+a+s+TlbUeLAxmtfhYslfnttiRDvUGfcuJu/SUekzOV3PqAEGp8KY+m+f2J9Vcv&#xA;tUFTUS1XSWgINBKlD49FByZMOlfIsAJ+fzCZZjOQ7FXYq7FXYq7FXYq7FXYq7FXYq7FUE9hOZOSX&#xA;ciqBspJO5698uGUVuA0nEb2JXtbTrbiOKZjJUcnck123p1pg4wTZGzLgIFAqf1W+4qPWqy/tVYVH&#xA;uN6/hkuOPcx4Jd6J4XH1fhzHrAfbA2qPnXK7F+TZRrzQo/SUZ/eTw7j4A21SOp2C5Z6DyBavWOZC&#xA;nE19zUPfQstQCBxr8htkiIVtEoBle8gjpY52YGOb0wOq8Qa/flMSBzDdIE8ih1g1TblcqN/iooO3&#xA;am2TModzWIz71eGK4RyZJvUWlAvELQ+NRkJSBGwpnEEcyrZBm7FXYq7FXYq7FXYq7FXYq7FXYq7F&#xA;XYq7FXYq7FXYq7FXYq7FXYq7FXYq7FXYq7FXYqpXFrb3AAmQOFrSte/yycZmPJjKAlzUf0Xp439I&#xA;Cnep7fTkvHn3sPBh3Kcz6R6zmRl9StH3b+GSiMlbcmMjjvduHT9PeroTIrCvHkSN+nT2xllmExxQ&#xA;KIihtrevABAxAO/fsNz75XKUpc2cYiPJRktLSWaryszmoCc6U3qQAPlkxkkBsGJhEncq1taRWwYR&#xA;luJNQpNQPlkJ5DLmyhAR5K2QZuxV2KuxV2KuxV2KuxV2KuxV2KuxV2KuxV2KuxV2KuxV2KuxV2Ku&#xA;xV2KuxV2KuxVxpTfpiqw+j6i14+pT4elae2HekbWuHGp40rX4qePvilJb/8AR/qP9Y9f1KjnTjX2&#xA;zMxcdbU4eTgve1S2/Rn12P6t6vPbhT7NKb/a+LIz4+E8VMocHFtab5iOU7FXYq7FXYq7FXYq7FXY&#xA;q7FX/9k=</xmpGImg:image>
               </rdf:li>
            </rdf:Alt>
         </xmp:Thumbnails>
         <xmpMM:RenditionClass>proof:pdf</xmpMM:RenditionClass>
         <xmpMM:OriginalDocumentID>uuid:65E6390686CF11DBA6E2D887CEACB407</xmpMM:OriginalDocumentID>
         <xmpMM:DocumentID>xmp.did:caf37e73-a6b5-964d-9be3-e623b51bcc16</xmpMM:DocumentID>
         <xmpMM:InstanceID>xmp.iid:caf37e73-a6b5-964d-9be3-e623b51bcc16</xmpMM:InstanceID>
         <xmpMM:DerivedFrom rdf:parseType="Resource">
            <stRef:instanceID>xmp.iid:2c53e5a2-fe80-b44a-8aa4-21ea20129265</stRef:instanceID>
            <stRef:documentID>xmp.did:2c53e5a2-fe80-b44a-8aa4-21ea20129265</stRef:documentID>
            <stRef:originalDocumentID>uuid:65E6390686CF11DBA6E2D887CEACB407</stRef:originalDocumentID>
            <stRef:renditionClass>proof:pdf</stRef:renditionClass>
         </xmpMM:DerivedFrom>
         <xmpMM:History>
            <rdf:Seq>
               <rdf:li rdf:parseType="Resource">
                  <stEvt:action>saved</stEvt:action>
                  <stEvt:instanceID>xmp.iid:2c53e5a2-fe80-b44a-8aa4-21ea20129265</stEvt:instanceID>
                  <stEvt:when>2015-11-09T16:06:53+02:00</stEvt:when>
                  <stEvt:softwareAgent>Adobe Illustrator CC 2015 (Windows)</stEvt:softwareAgent>
                  <stEvt:changed>/</stEvt:changed>
               </rdf:li>
               <rdf:li rdf:parseType="Resource">
                  <stEvt:action>saved</stEvt:action>
                  <stEvt:instanceID>xmp.iid:caf37e73-a6b5-964d-9be3-e623b51bcc16</stEvt:instanceID>
                  <stEvt:when>2015-11-09T20:30:32+02:00</stEvt:when>
                  <stEvt:softwareAgent>Adobe Illustrator CC 2015 (Windows)</stEvt:softwareAgent>
                  <stEvt:changed>/</stEvt:changed>
               </rdf:li>
            </rdf:Seq>
         </xmpMM:History>
         <illustrator:StartupProfile>Web</illustrator:StartupProfile>
         <xmpTPg:NPages>1</xmpTPg:NPages>
         <xmpTPg:HasVisibleTransparency>False</xmpTPg:HasVisibleTransparency>
         <xmpTPg:HasVisibleOverprint>False</xmpTPg:HasVisibleOverprint>
         <xmpTPg:MaxPageSize rdf:parseType="Resource">
            <stDim:w>969.952353</stDim:w>
            <stDim:h>79.343972</stDim:h>
            <stDim:unit>Pixels</stDim:unit>
         </xmpTPg:MaxPageSize>
         <xmpTPg:Fonts>
            <rdf:Bag>
               <rdf:li rdf:parseType="Resource">
                  <stFnt:fontName>HelveticaRoundedLTStd-Bd</stFnt:fontName>
                  <stFnt:fontFamily>Helvetica Rounded LT Std</stFnt:fontFamily>
                  <stFnt:fontFace>Bold</stFnt:fontFace>
                  <stFnt:fontType>Open Type</stFnt:fontType>
                  <stFnt:versionString>OTF 1.029;PS 001.001;Core 1.0.33;makeotf.lib1.4.1585</stFnt:versionString>
                  <stFnt:composite>False</stFnt:composite>
                  <stFnt:fontFileName>HelveticaRoundedLTStd-Bd.otf</stFnt:fontFileName>
               </rdf:li>
            </rdf:Bag>
         </xmpTPg:Fonts>
         <xmpTPg:PlateNames>
            <rdf:Seq>
               <rdf:li>Cyan</rdf:li>
               <rdf:li>Magenta</rdf:li>
            </rdf:Seq>
         </xmpTPg:PlateNames>
         <xmpTPg:SwatchGroups>
            <rdf:Seq>
               <rdf:li rdf:parseType="Resource">
                  <xmpG:groupName>Default Swatch Group</xmpG:groupName>
                  <xmpG:groupType>0</xmpG:groupType>
                  <xmpG:Colorants>
                     <rdf:Seq>
                        <rdf:li rdf:parseType="Resource">
                           <xmpG:swatchName>White</xmpG:swatchName>
                           <xmpG:mode>RGB</xmpG:mode>
                           <xmpG:type>PROCESS</xmpG:type>
                           <xmpG:red>255</xmpG:red>
                           <xmpG:green>255</xmpG:green>
                           <xmpG:blue>255</xmpG:blue>
                        </rdf:li>
                        <rdf:li rdf:parseType="Resource">
                           <xmpG:swatchName>Black</xmpG:swatchName>
                           <xmpG:mode>RGB</xmpG:mode>
                           <xmpG:type>PROCESS</xmpG:type>
                           <xmpG:red>0</xmpG:red>
                           <xmpG:green>0</xmpG:green>
                           <xmpG:blue>0</xmpG:blue>
                        </rdf:li>
                        <rdf:li rdf:parseType="Resource">
                           <xmpG:swatchName>RGB Red</xmpG:swatchName>
                           <xmpG:mode>RGB</xmpG:mode>
                           <xmpG:type>PROCESS</xmpG:type>
                           <xmpG:red>255</xmpG:red>
                           <xmpG:green>0</xmpG:green>
                           <xmpG:blue>0</xmpG:blue>
                        </rdf:li>
                        <rdf:li rdf:parseType="Resource">
                           <xmpG:swatchName>RGB Yellow</xmpG:swatchName>
                           <xmpG:mode>RGB</xmpG:mode>
                           <xmpG:type>PROCESS</xmpG:type>
                           <xmpG:red>255</xmpG:red>
                           <xmpG:green>255</xmpG:green>
                           <xmpG:blue>0</xmpG:blue>
                        </rdf:li>
                        <rdf:li rdf:parseType="Resource">
                           <xmpG:swatchName>RGB Green</xmpG:swatchName>
                           <xmpG:mode>RGB</xmpG:mode>
                           <xmpG:type>PROCESS</xmpG:type>
                           <xmpG:red>0</xmpG:red>
                           <xmpG:green>255</xmpG:green>
                           <xmpG:blue>0</xmpG:blue>
                        </rdf:li>
                        <rdf:li rdf:parseType="Resource">
                           <xmpG:swatchName>RGB Cyan</xmpG:swatchName>
                           <xmpG:mode>RGB</xmpG:mode>
                           <xmpG:type>PROCESS</xmpG:type>
                           <xmpG:red>0</xmpG:red>
                           <xmpG:green>255</xmpG:green>
                           <xmpG:blue>255</xmpG:blue>
                        </rdf:li>
                        <rdf:li rdf:parseType="Resource">
                           <xmpG:swatchName>RGB Blue</xmpG:swatchName>
                           <xmpG:mode>RGB</xmpG:mode>
                           <xmpG:type>PROCESS</xmpG:type>
                           <xmpG:red>0</xmpG:red>
                           <xmpG:green>0</xmpG:green>
                           <xmpG:blue>255</xmpG:blue>
                        </rdf:li>
                        <rdf:li rdf:parseType="Resource">
                           <xmpG:swatchName>RGB Magenta</xmpG:swatchName>
                           <xmpG:mode>RGB</xmpG:mode>
                           <xmpG:type>PROCESS</xmpG:type>
                           <xmpG:red>255</xmpG:red>
                           <xmpG:green>0</xmpG:green>
                           <xmpG:blue>255</xmpG:blue>
                        </rdf:li>
                        <rdf:li rdf:parseType="Resource">
                           <xmpG:swatchName>R=193 G=39 B=45</xmpG:swatchName>
                           <xmpG:mode>RGB</xmpG:mode>
                           <xmpG:type>PROCESS</xmpG:type>
                           <xmpG:red>193</xmpG:red>
                           <xmpG:green>39</xmpG:green>
                           <xmpG:blue>45</xmpG:blue>
                        </rdf:li>
                        <rdf:li rdf:parseType="Resource">
                           <xmpG:swatchName>R=237 G=28 B=36</xmpG:swatchName>
                           <xmpG:mode>RGB</xmpG:mode>
                           <xmpG:type>PROCESS</xmpG:type>
                           <xmpG:red>237</xmpG:red>
                           <xmpG:green>28</xmpG:green>
                           <xmpG:blue>36</xmpG:blue>
                        </rdf:li>
                        <rdf:li rdf:parseType="Resource">
                           <xmpG:swatchName>R=241 G=90 B=36</xmpG:swatchName>
                           <xmpG:mode>RGB</xmpG:mode>
                           <xmpG:type>PROCESS</xmpG:type>
                           <xmpG:red>241</xmpG:red>
                           <xmpG:green>90</xmpG:green>
                           <xmpG:blue>36</xmpG:blue>
                        </rdf:li>
                        <rdf:li rdf:parseType="Resource">
                           <xmpG:swatchName>R=247 G=147 B=30</xmpG:swatchName>
                           <xmpG:mode>RGB</xmpG:mode>
                           <xmpG:type>PROCESS</xmpG:type>
                           <xmpG:red>247</xmpG:red>
                           <xmpG:green>147</xmpG:green>
                           <xmpG:blue>30</xmpG:blue>
                        </rdf:li>
                        <rdf:li rdf:parseType="Resource">
                           <xmpG:swatchName>R=251 G=176 B=59</xmpG:swatchName>
                           <xmpG:mode>RGB</xmpG:mode>
                           <xmpG:type>PROCESS</xmpG:type>
                           <xmpG:red>251</xmpG:red>
                           <xmpG:green>176</xmpG:green>
                           <xmpG:blue>59</xmpG:blue>
                        </rdf:li>
                        <rdf:li rdf:parseType="Resource">
                           <xmpG:swatchName>R=252 G=238 B=33</xmpG:swatchName>
                           <xmpG:mode>RGB</xmpG:mode>
                           <xmpG:type>PROCESS</xmpG:type>
                           <xmpG:red>252</xmpG:red>
                           <xmpG:green>238</xmpG:green>
                           <xmpG:blue>33</xmpG:blue>
                        </rdf:li>
                        <rdf:li rdf:parseType="Resource">
                           <xmpG:swatchName>R=217 G=224 B=33</xmpG:swatchName>
                           <xmpG:mode>RGB</xmpG:mode>
                           <xmpG:type>PROCESS</xmpG:type>
                           <xmpG:red>217</xmpG:red>
                           <xmpG:green>224</xmpG:green>
                           <xmpG:blue>33</xmpG:blue>
                        </rdf:li>
                        <rdf:li rdf:parseType="Resource">
                           <xmpG:swatchName>R=140 G=198 B=63</xmpG:swatchName>
                           <xmpG:mode>RGB</xmpG:mode>
                           <xmpG:type>PROCESS</xmpG:type>
                           <xmpG:red>140</xmpG:red>
                           <xmpG:green>198</xmpG:green>
                           <xmpG:blue>63</xmpG:blue>
                        </rdf:li>
                        <rdf:li rdf:parseType="Resource">
                           <xmpG:swatchName>R=57 G=181 B=74</xmpG:swatchName>
                           <xmpG:mode>RGB</xmpG:mode>
                           <xmpG:type>PROCESS</xmpG:type>
                           <xmpG:red>57</xmpG:red>
                           <xmpG:green>181</xmpG:green>
                           <xmpG:blue>74</xmpG:blue>
                        </rdf:li>
                        <rdf:li rdf:parseType="Resource">
                           <xmpG:swatchName>R=0 G=146 B=69</xmpG:swatchName>
                           <xmpG:mode>RGB</xmpG:mode>
                           <xmpG:type>PROCESS</xmpG:type>
                           <xmpG:red>0</xmpG:red>
                           <xmpG:green>146</xmpG:green>
                           <xmpG:blue>69</xmpG:blue>
                        </rdf:li>
                        <rdf:li rdf:parseType="Resource">
                           <xmpG:swatchName>R=0 G=104 B=55</xmpG:swatchName>
                           <xmpG:mode>RGB</xmpG:mode>
                           <xmpG:type>PROCESS</xmpG:type>
                           <xmpG:red>0</xmpG:red>
                           <xmpG:green>104</xmpG:green>
                           <xmpG:blue>55</xmpG:blue>
                        </rdf:li>
                        <rdf:li rdf:parseType="Resource">
                           <xmpG:swatchName>R=34 G=181 B=115</xmpG:swatchName>
                           <xmpG:mode>RGB</xmpG:mode>
                           <xmpG:type>PROCESS</xmpG:type>
                           <xmpG:red>34</xmpG:red>
                           <xmpG:green>181</xmpG:green>
                           <xmpG:blue>115</xmpG:blue>
                        </rdf:li>
                        <rdf:li rdf:parseType="Resource">
                           <xmpG:swatchName>R=0 G=169 B=157</xmpG:swatchName>
                           <xmpG:mode>RGB</xmpG:mode>
                           <xmpG:type>PROCESS</xmpG:type>
                           <xmpG:red>0</xmpG:red>
                           <xmpG:green>169</xmpG:green>
                           <xmpG:blue>157</xmpG:blue>
                        </rdf:li>
                        <rdf:li rdf:parseType="Resource">
                           <xmpG:swatchName>R=41 G=171 B=226</xmpG:swatchName>
                           <xmpG:mode>RGB</xmpG:mode>
                           <xmpG:type>PROCESS</xmpG:type>
                           <xmpG:red>41</xmpG:red>
                           <xmpG:green>171</xmpG:green>
                           <xmpG:blue>226</xmpG:blue>
                        </rdf:li>
                        <rdf:li rdf:parseType="Resource">
                           <xmpG:swatchName>R=0 G=113 B=188</xmpG:swatchName>
                           <xmpG:mode>RGB</xmpG:mode>
                           <xmpG:type>PROCESS</xmpG:type>
                           <xmpG:red>0</xmpG:red>
                           <xmpG:green>113</xmpG:green>
                           <xmpG:blue>188</xmpG:blue>
                        </rdf:li>
                        <rdf:li rdf:parseType="Resource">
                           <xmpG:swatchName>R=46 G=49 B=146</xmpG:swatchName>
                           <xmpG:mode>RGB</xmpG:mode>
                           <xmpG:type>PROCESS</xmpG:type>
                           <xmpG:red>46</xmpG:red>
                           <xmpG:green>49</xmpG:green>
                           <xmpG:blue>146</xmpG:blue>
                        </rdf:li>
                        <rdf:li rdf:parseType="Resource">
                           <xmpG:swatchName>R=27 G=20 B=100</xmpG:swatchName>
                           <xmpG:mode>RGB</xmpG:mode>
                           <xmpG:type>PROCESS</xmpG:type>
                           <xmpG:red>27</xmpG:red>
                           <xmpG:green>20</xmpG:green>
                           <xmpG:blue>100</xmpG:blue>
                        </rdf:li>
                        <rdf:li rdf:parseType="Resource">
                           <xmpG:swatchName>R=102 G=45 B=145</xmpG:swatchName>
                           <xmpG:mode>RGB</xmpG:mode>
                           <xmpG:type>PROCESS</xmpG:type>
                           <xmpG:red>102</xmpG:red>
                           <xmpG:green>45</xmpG:green>
                           <xmpG:blue>145</xmpG:blue>
                        </rdf:li>
                        <rdf:li rdf:parseType="Resource">
                           <xmpG:swatchName>R=147 G=39 B=143</xmpG:swatchName>
                           <xmpG:mode>RGB</xmpG:mode>
                           <xmpG:type>PROCESS</xmpG:type>
                           <xmpG:red>147</xmpG:red>
                           <xmpG:green>39</xmpG:green>
                           <xmpG:blue>143</xmpG:blue>
                        </rdf:li>
                        <rdf:li rdf:parseType="Resource">
                           <xmpG:swatchName>R=158 G=0 B=93</xmpG:swatchName>
                           <xmpG:mode>RGB</xmpG:mode>
                           <xmpG:type>PROCESS</xmpG:type>
                           <xmpG:red>158</xmpG:red>
                           <xmpG:green>0</xmpG:green>
                           <xmpG:blue>93</xmpG:blue>
                        </rdf:li>
                        <rdf:li rdf:parseType="Resource">
                           <xmpG:swatchName>R=212 G=20 B=90</xmpG:swatchName>
                           <xmpG:mode>RGB</xmpG:mode>
                           <xmpG:type>PROCESS</xmpG:type>
                           <xmpG:red>212</xmpG:red>
                           <xmpG:green>20</xmpG:green>
                           <xmpG:blue>90</xmpG:blue>
                        </rdf:li>
                        <rdf:li rdf:parseType="Resource">
                           <xmpG:swatchName>R=237 G=30 B=121</xmpG:swatchName>
                           <xmpG:mode>RGB</xmpG:mode>
                           <xmpG:type>PROCESS</xmpG:type>
                           <xmpG:red>237</xmpG:red>
                           <xmpG:green>30</xmpG:green>
                           <xmpG:blue>121</xmpG:blue>
                        </rdf:li>
                        <rdf:li rdf:parseType="Resource">
                           <xmpG:swatchName>R=199 G=178 B=153</xmpG:swatchName>
                           <xmpG:mode>RGB</xmpG:mode>
                           <xmpG:type>PROCESS</xmpG:type>
                           <xmpG:red>199</xmpG:red>
                           <xmpG:green>178</xmpG:green>
                           <xmpG:blue>153</xmpG:blue>
                        </rdf:li>
                        <rdf:li rdf:parseType="Resource">
                           <xmpG:swatchName>R=153 G=134 B=117</xmpG:swatchName>
                           <xmpG:mode>RGB</xmpG:mode>
                           <xmpG:type>PROCESS</xmpG:type>
                           <xmpG:red>153</xmpG:red>
                           <xmpG:green>134</xmpG:green>
                           <xmpG:blue>117</xmpG:blue>
                        </rdf:li>
                        <rdf:li rdf:parseType="Resource">
                           <xmpG:swatchName>R=115 G=99 B=87</xmpG:swatchName>
                           <xmpG:mode>RGB</xmpG:mode>
                           <xmpG:type>PROCESS</xmpG:type>
                           <xmpG:red>115</xmpG:red>
                           <xmpG:green>99</xmpG:green>
                           <xmpG:blue>87</xmpG:blue>
                        </rdf:li>
                        <rdf:li rdf:parseType="Resource">
                           <xmpG:swatchName>R=83 G=71 B=65</xmpG:swatchName>
                           <xmpG:mode>RGB</xmpG:mode>
                           <xmpG:type>PROCESS</xmpG:type>
                           <xmpG:red>83</xmpG:red>
                           <xmpG:green>71</xmpG:green>
                           <xmpG:blue>65</xmpG:blue>
                        </rdf:li>
                        <rdf:li rdf:parseType="Resource">
                           <xmpG:swatchName>R=198 G=156 B=109</xmpG:swatchName>
                           <xmpG:mode>RGB</xmpG:mode>
                           <xmpG:type>PROCESS</xmpG:type>
                           <xmpG:red>198</xmpG:red>
                           <xmpG:green>156</xmpG:green>
                           <xmpG:blue>109</xmpG:blue>
                        </rdf:li>
                        <rdf:li rdf:parseType="Resource">
                           <xmpG:swatchName>R=166 G=124 B=82</xmpG:swatchName>
                           <xmpG:mode>RGB</xmpG:mode>
                           <xmpG:type>PROCESS</xmpG:type>
                           <xmpG:red>166</xmpG:red>
                           <xmpG:green>124</xmpG:green>
                           <xmpG:blue>82</xmpG:blue>
                        </rdf:li>
                        <rdf:li rdf:parseType="Resource">
                           <xmpG:swatchName>R=140 G=98 B=57</xmpG:swatchName>
                           <xmpG:mode>RGB</xmpG:mode>
                           <xmpG:type>PROCESS</xmpG:type>
                           <xmpG:red>140</xmpG:red>
                           <xmpG:green>98</xmpG:green>
                           <xmpG:blue>57</xmpG:blue>
                        </rdf:li>
                        <rdf:li rdf:parseType="Resource">
                           <xmpG:swatchName>R=117 G=76 B=36</xmpG:swatchName>
                           <xmpG:mode>RGB</xmpG:mode>
                           <xmpG:type>PROCESS</xmpG:type>
                           <xmpG:red>117</xmpG:red>
                           <xmpG:green>76</xmpG:green>
                           <xmpG:blue>36</xmpG:blue>
                        </rdf:li>
                        <rdf:li rdf:parseType="Resource">
                           <xmpG:swatchName>R=96 G=56 B=19</xmpG:swatchName>
                           <xmpG:mode>RGB</xmpG:mode>
                           <xmpG:type>PROCESS</xmpG:type>
                           <xmpG:red>96</xmpG:red>
                           <xmpG:green>56</xmpG:green>
                           <xmpG:blue>19</xmpG:blue>
                        </rdf:li>
                        <rdf:li rdf:parseType="Resource">
                           <xmpG:swatchName>R=66 G=33 B=11</xmpG:swatchName>
                           <xmpG:mode>RGB</xmpG:mode>
                           <xmpG:type>PROCESS</xmpG:type>
                           <xmpG:red>66</xmpG:red>
                           <xmpG:green>33</xmpG:green>
                           <xmpG:blue>11</xmpG:blue>
                        </rdf:li>
                     </rdf:Seq>
                  </xmpG:Colorants>
               </rdf:li>
               <rdf:li rdf:parseType="Resource">
                  <xmpG:groupName>Grays</xmpG:groupName>
                  <xmpG:groupType>1</xmpG:groupType>
                  <xmpG:Colorants>
                     <rdf:Seq>
                        <rdf:li rdf:parseType="Resource">
                           <xmpG:swatchName>R=0 G=0 B=0</xmpG:swatchName>
                           <xmpG:mode>RGB</xmpG:mode>
                           <xmpG:type>PROCESS</xmpG:type>
                           <xmpG:red>0</xmpG:red>
                           <xmpG:green>0</xmpG:green>
                           <xmpG:blue>0</xmpG:blue>
                        </rdf:li>
                        <rdf:li rdf:parseType="Resource">
                           <xmpG:swatchName>R=26 G=26 B=26</xmpG:swatchName>
                           <xmpG:mode>RGB</xmpG:mode>
                           <xmpG:type>PROCESS</xmpG:type>
                           <xmpG:red>26</xmpG:red>
                           <xmpG:green>26</xmpG:green>
                           <xmpG:blue>26</xmpG:blue>
                        </rdf:li>
                        <rdf:li rdf:parseType="Resource">
                           <xmpG:swatchName>R=51 G=51 B=51</xmpG:swatchName>
                           <xmpG:mode>RGB</xmpG:mode>
                           <xmpG:type>PROCESS</xmpG:type>
                           <xmpG:red>51</xmpG:red>
                           <xmpG:green>51</xmpG:green>
                           <xmpG:blue>51</xmpG:blue>
                        </rdf:li>
                        <rdf:li rdf:parseType="Resource">
                           <xmpG:swatchName>R=77 G=77 B=77</xmpG:swatchName>
                           <xmpG:mode>RGB</xmpG:mode>
                           <xmpG:type>PROCESS</xmpG:type>
                           <xmpG:red>77</xmpG:red>
                           <xmpG:green>77</xmpG:green>
                           <xmpG:blue>77</xmpG:blue>
                        </rdf:li>
                        <rdf:li rdf:parseType="Resource">
                           <xmpG:swatchName>R=102 G=102 B=102</xmpG:swatchName>
                           <xmpG:mode>RGB</xmpG:mode>
                           <xmpG:type>PROCESS</xmpG:type>
                           <xmpG:red>102</xmpG:red>
                           <xmpG:green>102</xmpG:green>
                           <xmpG:blue>102</xmpG:blue>
                        </rdf:li>
                        <rdf:li rdf:parseType="Resource">
                           <xmpG:swatchName>R=128 G=128 B=128</xmpG:swatchName>
                           <xmpG:mode>RGB</xmpG:mode>
                           <xmpG:type>PROCESS</xmpG:type>
                           <xmpG:red>128</xmpG:red>
                           <xmpG:green>128</xmpG:green>
                           <xmpG:blue>128</xmpG:blue>
                        </rdf:li>
                        <rdf:li rdf:parseType="Resource">
                           <xmpG:swatchName>R=153 G=153 B=153</xmpG:swatchName>
                           <xmpG:mode>RGB</xmpG:mode>
                           <xmpG:type>PROCESS</xmpG:type>
                           <xmpG:red>153</xmpG:red>
                           <xmpG:green>153</xmpG:green>
                           <xmpG:blue>153</xmpG:blue>
                        </rdf:li>
                        <rdf:li rdf:parseType="Resource">
                           <xmpG:swatchName>R=179 G=179 B=179</xmpG:swatchName>
                           <xmpG:mode>RGB</xmpG:mode>
                           <xmpG:type>PROCESS</xmpG:type>
                           <xmpG:red>179</xmpG:red>
                           <xmpG:green>179</xmpG:green>
                           <xmpG:blue>179</xmpG:blue>
                        </rdf:li>
                        <rdf:li rdf:parseType="Resource">
                           <xmpG:swatchName>R=204 G=204 B=204</xmpG:swatchName>
                           <xmpG:mode>RGB</xmpG:mode>
                           <xmpG:type>PROCESS</xmpG:type>
                           <xmpG:red>204</xmpG:red>
                           <xmpG:green>204</xmpG:green>
                           <xmpG:blue>204</xmpG:blue>
                        </rdf:li>
                        <rdf:li rdf:parseType="Resource">
                           <xmpG:swatchName>R=230 G=230 B=230</xmpG:swatchName>
                           <xmpG:mode>RGB</xmpG:mode>
                           <xmpG:type>PROCESS</xmpG:type>
                           <xmpG:red>230</xmpG:red>
                           <xmpG:green>230</xmpG:green>
                           <xmpG:blue>230</xmpG:blue>
                        </rdf:li>
                        <rdf:li rdf:parseType="Resource">
                           <xmpG:swatchName>R=242 G=242 B=242</xmpG:swatchName>
                           <xmpG:mode>RGB</xmpG:mode>
                           <xmpG:type>PROCESS</xmpG:type>
                           <xmpG:red>242</xmpG:red>
                           <xmpG:green>242</xmpG:green>
                           <xmpG:blue>242</xmpG:blue>
                        </rdf:li>
                     </rdf:Seq>
                  </xmpG:Colorants>
               </rdf:li>
               <rdf:li rdf:parseType="Resource">
                  <xmpG:groupName>Web Color Group</xmpG:groupName>
                  <xmpG:groupType>1</xmpG:groupType>
                  <xmpG:Colorants>
                     <rdf:Seq>
                        <rdf:li rdf:parseType="Resource">
                           <xmpG:swatchName>R=63 G=169 B=245</xmpG:swatchName>
                           <xmpG:mode>RGB</xmpG:mode>
                           <xmpG:type>PROCESS</xmpG:type>
                           <xmpG:red>63</xmpG:red>
                           <xmpG:green>169</xmpG:green>
                           <xmpG:blue>245</xmpG:blue>
                        </rdf:li>
                        <rdf:li rdf:parseType="Resource">
                           <xmpG:swatchName>R=122 G=201 B=67</xmpG:swatchName>
                           <xmpG:mode>RGB</xmpG:mode>
                           <xmpG:type>PROCESS</xmpG:type>
                           <xmpG:red>122</xmpG:red>
                           <xmpG:green>201</xmpG:green>
                           <xmpG:blue>67</xmpG:blue>
                        </rdf:li>
                        <rdf:li rdf:parseType="Resource">
                           <xmpG:swatchName>R=255 G=147 B=30</xmpG:swatchName>
                           <xmpG:mode>RGB</xmpG:mode>
                           <xmpG:type>PROCESS</xmpG:type>
                           <xmpG:red>255</xmpG:red>
                           <xmpG:green>147</xmpG:green>
                           <xmpG:blue>30</xmpG:blue>
                        </rdf:li>
                        <rdf:li rdf:parseType="Resource">
                           <xmpG:swatchName>R=255 G=29 B=37</xmpG:swatchName>
                           <xmpG:mode>RGB</xmpG:mode>
                           <xmpG:type>PROCESS</xmpG:type>
                           <xmpG:red>255</xmpG:red>
                           <xmpG:green>29</xmpG:green>
                           <xmpG:blue>37</xmpG:blue>
                        </rdf:li>
                        <rdf:li rdf:parseType="Resource">
                           <xmpG:swatchName>R=255 G=123 B=172</xmpG:swatchName>
                           <xmpG:mode>RGB</xmpG:mode>
                           <xmpG:type>PROCESS</xmpG:type>
                           <xmpG:red>255</xmpG:red>
                           <xmpG:green>123</xmpG:green>
                           <xmpG:blue>172</xmpG:blue>
                        </rdf:li>
                        <rdf:li rdf:parseType="Resource">
                           <xmpG:swatchName>R=189 G=204 B=212</xmpG:swatchName>
                           <xmpG:mode>RGB</xmpG:mode>
                           <xmpG:type>PROCESS</xmpG:type>
                           <xmpG:red>189</xmpG:red>
                           <xmpG:green>204</xmpG:green>
                           <xmpG:blue>212</xmpG:blue>
                        </rdf:li>
                     </rdf:Seq>
                  </xmpG:Colorants>
               </rdf:li>
            </rdf:Seq>
         </xmpTPg:SwatchGroups>
         <pdf:Producer>Adobe PDF library 10.01</pdf:Producer>
      </rdf:Description>
   </rdf:RDF>
</x:xmpmeta>
                                                                                                    
                                                                                                    
                                                                                                    
                                                                                                    
                                                                                                    
                                                                                                    
                                                                                                    
                                                                                                    
                                                                                                    
                                                                                                    
                                                                                                    
                                                                                                    
                                                                                                    
                                                                                                    
                                                                                                    
                                                                                                    
                                                                                                    
                                                                                                    
                                                                                                    
                                                                                                    
                           
<?xpacket end="w"?>
	</metadata>
<g>
	<g>
		<path fill="#2E9BFF" d="M118.6,72c-15.9,0-24.5-8.2-24.5-15.9c0-4.4,3.4-7.7,7.8-7.7c4.1,0,6.1,2.6,7.7,4.7c1.9,2.5,3.5,4.6,9,4.6
			c4.3,0,6.7-2.1,6.7-4c0-0.7,0-1.9-2.9-2.7l-13.3-3.4c-10-2.5-14.8-8.1-14.8-16.9c0-13.8,12.7-18.7,23.5-18.7
			c10.8,0,22.9,6.1,22.9,14.9c0,4.3-3.5,7.5-8.2,7.5c-3.5,0-5.4-2.1-6.9-3.8c-1.7-2-3.4-3.9-8.6-3.9c-1.7,0-5.7,0.3-5.7,3.3
			c0,1.3,2.8,2.2,5.9,2.9l9.9,2.2c13,2.9,15.7,11.2,15.7,17.7C142.8,62.1,136.4,72,118.6,72z"/>
		<path fill="#FFFFFF" d="M117.7,14.9c9.2,0,20.1,5.2,20.1,12.1c0,3-2.5,4.7-5.4,4.7c-5.5,0-4.5-7.7-15.5-7.7
			c-5.5,0-8.5,2.5-8.5,6.1c0,3.6,4.3,4.8,8.1,5.6l9.9,2.2c10.8,2.4,13.5,8.9,13.5,14.9c0,9.4-7.1,16.3-21.3,16.3
			c-15,0-21.7-7.5-21.7-13.1c0-2.9,2.1-4.9,5-4.9c6.4,0,4.8,9.4,16.7,9.4c6.1,0,9.5-3.4,9.5-6.8c0-2.1-1-4.4-5-5.4l-13.3-3.4
			C99,42.2,97.1,36.3,97.1,30.7C97.1,19.2,107.7,14.9,117.7,14.9 M117.7,9.2c-15.8,0-26.3,8.6-26.3,21.5c0,6.6,2.4,11.7,7.1,15.3
			c-4.3,1.3-7.3,5.2-7.3,10.1c0,9.1,9.6,18.8,27.3,18.8c19.9,0,27-11.9,27-22c0-4.5-1.3-11.6-8.3-16.5c3.8-1.6,6.3-5.1,6.3-9.4
			C143.5,16.3,130.2,9.2,117.7,9.2L117.7,9.2z M115.8,29.7c0.3,0,0.7-0.1,1.1-0.1c2.8,0,4,0.5,5.1,1.5l-4.3-1
			C117.4,30.1,116.6,29.9,115.8,29.7L115.8,29.7z M118.6,54.9c-4.1,0-5-1.2-6.7-3.5c0,0,0,0-0.1-0.1l9.9,2.5
			c0.2,0.1,0.4,0.1,0.5,0.1C121.7,54.3,120.6,54.9,118.6,54.9L118.6,54.9z"/>
	</g>
	<g>
		<path fill="#2E9BFF" d="M190.6,71.7c-5.1,0-8.7-3.6-8.7-8.7V48.5h-15.8V63c0,5.1-3.6,8.7-8.7,8.7s-8.7-3.6-8.7-8.7V21.1
			c0-5.1,3.6-8.7,8.7-8.7s8.7,3.6,8.7,8.7v11.9h15.8V21.1c0-5.1,3.6-8.7,8.7-8.7s8.7,3.6,8.7,8.7V63
			C199.3,68.1,195.8,71.7,190.6,71.7z"/>
		<path fill="#FFFFFF" d="M190.6,15.2c3.6,0,5.9,2.4,5.9,5.9V63c0,3.5-2.3,5.9-5.9,5.9c-3.6,0-5.9-2.4-5.9-5.9V45.7h-21.5V63
			c0,3.5-2.3,5.9-5.9,5.9s-5.9-2.4-5.9-5.9V21.1c0-3.5,2.3-5.9,5.9-5.9s5.9,2.4,5.9,5.9v14.7h21.5V21.1
			C184.7,17.5,187,15.2,190.6,15.2 M190.6,9.5c-6.7,0-11.6,4.9-11.6,11.6v9h-10.1v-9c0-6.7-4.9-11.6-11.6-11.6
			c-6.7,0-11.6,4.9-11.6,11.6V63c0,6.7,4.9,11.6,11.6,11.6c6.7,0,11.6-4.9,11.6-11.6V51.4H179V63c0,6.7,4.9,11.6,11.6,11.6
			c6.7,0,11.6-4.9,11.6-11.6V21.1C202.2,14.4,197.3,9.5,190.6,9.5L190.6,9.5z"/>
	</g>
	<g>
		<path fill="#2E9BFF" d="M234.2,72c-18.2,0-29-11.5-29-30.6c0-17.8,11.4-29.3,29-29.3s29,11.5,29,29.3
			C263.3,56.6,254.3,72,234.2,72z M234.2,27.2c-10.1,0-11.6,8.9-11.6,14.2c0,13.9,6.6,15.5,11.6,15.5c7.7,0,11.6-5.2,11.6-15.5
			C245.8,36.1,244.3,27.2,234.2,27.2z"/>
		<path fill="#FFFFFF" d="M234.2,14.9c17,0,26.2,11.3,26.2,26.5c0,14.6-8.5,27.8-26.2,27.8c-18.6,0-26.2-12.1-26.2-27.8
			C208,26.2,217.2,14.9,234.2,14.9 M234.2,59.7c10.7,0,14.4-8.4,14.4-18.3c0-9.9-4.8-17-14.4-17s-14.4,7.1-14.4,17
			C219.8,51.3,223.1,59.7,234.2,59.7 M234.2,9.2c-9.7,0-17.9,3.2-23.6,9.3c-5.4,5.8-8.3,13.7-8.3,22.8c0,21,11.9,33.5,31.9,33.5
			c10,0,18.3-3.6,24.1-10.4c5-5.9,7.8-14.1,7.8-23c0-9.2-2.9-17.1-8.3-22.8C252.1,12.4,244,9.2,234.2,9.2L234.2,9.2z M234.2,54
			c-3.1,0-8.7,0-8.7-12.6c0-7.5,2.9-11.3,8.7-11.3c5.8,0,8.7,3.8,8.7,11.3C243,54,236.9,54,234.2,54L234.2,54z"/>
	</g>
	<g>
		<path fill="#2E9BFF" d="M314.7,71.7c-6.9,0-8.8-4-9.8-8l-5-20.6l-5,20.6c-0.9,3.7-2.8,8-9.8,8c-5.5,0-8.4-2.3-9.9-7.7L265,24.6
			c-0.3-1.3-0.7-2.6-0.7-4.1c0-5.3,4.4-8.2,8.5-8.2c3.1,0,7.1,1.2,8.3,7.1l4.5,22l5.2-22.5c1-4.6,3.7-6.6,9-6.6
			c7.7,0,8.9,5.3,9.5,7.8l5,21.3l4.5-22.1c1.2-5.9,5.1-7.1,8.1-7.1c4.1,0,8.5,2.9,8.5,8.2c0,1.5-0.3,2.8-0.7,4.1L324.5,64
			C323.1,69.4,320.2,71.7,314.7,71.7z"/>
		<path fill="#FFFFFF" d="M326.8,15.2c2.7,0,5.7,1.7,5.7,5.3c0,1.2-0.3,2.3-0.6,3.4l-10.2,39.4c-1.1,4.1-2.8,5.6-7.1,5.6
			c-4.5,0-6-1.9-7.1-5.8l-7.7-31.6h-0.1L292.1,63c-0.9,4-2.6,5.8-7.1,5.8c-4.3,0-6-1.5-7.1-5.6l-10.2-39.4c-0.3-1.1-0.6-2.2-0.6-3.4
			c0-3.6,3-5.3,5.7-5.3c3,0,4.8,1.4,5.5,4.8l7,34.4h0.1l8.1-34.9c0.6-2.9,1.8-4.4,6.2-4.4c5,0,6,2.4,6.7,5.6l7.8,33.6h0.1l7.1-34.4
			C322.2,16.5,324,15.2,326.8,15.2 M326.8,9.5c-5.7,0-9.6,3.4-10.9,9.3l-1.9,9.4l-2-8.7c-0.6-2.8-2.3-10-12.2-10
			c-6.6,0-10.4,2.9-11.7,8.8l-2.2,9.7l-1.9-9.2c-1.2-6-5.3-9.4-11.1-9.4c-6.5,0-11.4,4.7-11.4,11c0,1.8,0.4,3.5,0.8,4.8l10.1,39.3
			c1.8,6.7,5.8,9.9,12.6,9.9c6.8,0,11-3.3,12.6-10.2l2.3-9.3l2.3,9.3l0,0l0,0c0.6,2.5,2.6,10.1,12.6,10.1c6.8,0,10.8-3.1,12.6-9.8
			l10.2-39.4c0.4-1.3,0.8-3,0.8-4.8C338.2,14.2,333.3,9.5,326.8,9.5L326.8,9.5z"/>
	</g>
	<g>
		<path fill="#2E9BFF" d="M414.4,71.7c-4.8,0-8.1-3.5-8.1-8.6V48.7l-5.6,17.6c-1.1,3.5-3.9,5.4-7.7,5.4s-6.6-1.9-7.7-5.4l-5.6-17.6
			v14.4c0,5.1-3.3,8.6-8.1,8.6c-4.8,0-8.1-3.5-8.1-8.6V21c0-5.4,3.5-8.7,9.2-8.7h3.5c4.9,0,7.7,2.2,9.3,7.4l7.6,24.7l7.5-24.7
			c1.6-5.2,4.4-7.4,9.3-7.4h3.3c5.8,0,9.2,3.2,9.2,8.7v42.1C422.5,68.3,419.2,71.7,414.4,71.7z"/>
		<path fill="#FFFFFF" d="M413.2,15.2c3.2,0,6.4,1.1,6.4,5.8v42.1c0,3-1.4,5.8-5.3,5.8s-5.3-2.8-5.3-5.8V31H409l-11,34.4
			c-0.8,2.4-2.6,3.5-5,3.5c-2.4,0-4.2-1-5-3.5l-11-34.4h-0.1v32.1c0,3-1.4,5.8-5.3,5.8c-3.8,0-5.3-2.8-5.3-5.8V21
			c0-4.8,3.2-5.8,6.4-5.8h3.5c3.7,0,5.4,1.4,6.6,5.4L393,53.8h0.1l10.2-33.3c1.2-4,3-5.4,6.6-5.4H413.2 M413.2,9.5h-3.3
			c-6.1,0-10.1,3.1-12,9.4L393,34.8l-4.9-15.9c-2-6.3-5.9-9.4-12-9.4h-3.5c-7.3,0-12.1,4.5-12.1,11.5v42.1c0,6.7,4.5,11.4,10.9,11.4
			c5.5,0,9.6-3.4,10.6-8.6l0.4,1.2c1.5,4.6,5.4,7.4,10.4,7.4s8.9-2.8,10.4-7.4l0.4-1.2c1.1,5.2,5.2,8.6,10.6,8.6
			c6.4,0,10.9-4.7,10.9-11.4V21C425.3,14,420.6,9.5,413.2,9.5L413.2,9.5z"/>
	</g>
	<g>
		<path fill="#2E9BFF" d="M440.4,70.8c-6.3,0-9.7-3.5-9.7-9.7V23c0-6.3,3.5-9.7,9.7-9.7h27.7c7.7,0,8.8,4.8,8.8,7.6
			s-1.1,7.6-8.8,7.6h-20V34h17.2c7.3,0,8.4,4.6,8.4,7.4s-1.1,7.4-8.4,7.4h-17.2v6.9h20.6c7.7,0,8.8,4.8,8.8,7.6
			c0,2.8-1.1,7.6-8.8,7.6H440.4z"/>
		<path fill="#FFFFFF" d="M468.2,16.1c3.5,0,6,1,6,4.8s-2.5,4.8-6,4.8h-22.8v11.2h20c3.1,0,5.5,0.9,5.5,4.5c0,3.7-2.4,4.5-5.5,4.5
			h-20v12.5h23.4c3.5,0,6,1,6,4.8c0,3.7-2.5,4.8-6,4.8h-28.3c-4.2,0-6.9-1.7-6.9-6.9V23c0-5.3,2.7-6.9,6.9-6.9H468.2 M468.2,10.4
			h-27.7c-7.9,0-12.6,4.7-12.6,12.6v38c0,7.9,4.7,12.6,12.6,12.6h28.3c8.6,0,11.6-5.4,11.6-10.4s-3.1-10.4-11.6-10.4H451v-1.2h14.3
			c8.3,0,11.2-5.3,11.2-10.2c0-4.5-2.5-9.3-9.3-10.1h0.9c8.6,0,11.6-5.4,11.6-10.4S476.8,10.4,468.2,10.4L468.2,10.4z"/>
	</g>
	<g>
		<path fill="#2E9BFF" d="M529.7,72c-15.9,0-24.5-8.2-24.5-15.9c0-4.4,3.4-7.7,7.8-7.7c4.1,0,6.1,2.6,7.7,4.7c1.9,2.5,3.5,4.6,9,4.6
			c4.3,0,6.7-2.1,6.7-4c0-0.7,0-1.9-2.9-2.7l-13.3-3.4c-10-2.5-14.8-8.1-14.8-16.9c0-13.8,12.7-18.7,23.5-18.7
			c10.8,0,22.9,6.1,22.9,14.9c0,4.3-3.5,7.5-8.2,7.5c-3.5,0-5.4-2.1-6.9-3.8c-1.7-2-3.4-3.9-8.6-3.9c-1.7,0-5.7,0.3-5.7,3.3
			c0,1.3,2.8,2.2,5.9,2.9l9.9,2.2c13,2.9,15.7,11.2,15.7,17.7C553.9,62.1,547.5,72,529.7,72z"/>
		<path fill="#FFFFFF" d="M528.9,14.9c9.2,0,20.1,5.2,20.1,12.1c0,3-2.5,4.7-5.4,4.7c-5.5,0-4.5-7.7-15.5-7.7
			c-5.5,0-8.5,2.5-8.5,6.1c0,3.6,4.3,4.8,8.1,5.6l9.9,2.2c10.8,2.4,13.5,8.9,13.5,14.9c0,9.4-7.1,16.3-21.3,16.3
			c-15,0-21.7-7.5-21.7-13.1c0-2.9,2.1-4.9,5-4.9c6.4,0,4.8,9.4,16.7,9.4c6.1,0,9.5-3.4,9.5-6.8c0-2.1-1-4.4-5-5.4l-13.3-3.4
			c-10.7-2.7-12.7-8.6-12.7-14.2C508.2,19.2,518.9,14.9,528.9,14.9 M528.9,9.2c-15.8,0-26.3,8.6-26.3,21.5c0,6.6,2.4,11.7,7.1,15.3
			c-4.3,1.3-7.3,5.2-7.3,10.1c0,9.1,9.6,18.8,27.3,18.8c19.9,0,27-11.9,27-22c0-4.5-1.3-11.6-8.3-16.5c3.8-1.6,6.3-5.1,6.3-9.4
			C554.6,16.3,541.3,9.2,528.9,9.2L528.9,9.2z M527,29.7c0.3,0,0.7-0.1,1.1-0.1c2.8,0,4,0.5,5.1,1.5l-4.3-1
			C528.5,30.1,527.7,29.9,527,29.7L527,29.7z M529.7,54.9c-4.1,0-5-1.2-6.7-3.5c0,0,0,0-0.1-0.1l9.9,2.5c0.2,0.1,0.4,0.1,0.5,0.1
			C532.8,54.3,531.7,54.9,529.7,54.9L529.7,54.9z"/>
	</g>
	<g>
		<path fill="#2E9BFF" d="M586.5,72c-18.2,0-29-11.5-29-30.6c0-17.8,11.4-29.3,29-29.3c17.6,0,29,11.5,29,29.3
			C615.5,56.6,606.5,72,586.5,72z M586.5,27.2c-10.1,0-11.6,8.9-11.6,14.2c0,13.9,6.6,15.5,11.6,15.5c7.7,0,11.6-5.2,11.6-15.5
			C598,36.1,596.5,27.2,586.5,27.2z"/>
		<path fill="#FFFFFF" d="M586.5,14.9c17,0,26.2,11.3,26.2,26.5c0,14.6-8.5,27.8-26.2,27.8c-18.6,0-26.2-12.1-26.2-27.8
			C560.3,26.2,569.5,14.9,586.5,14.9 M586.5,59.7c10.7,0,14.4-8.4,14.4-18.3c0-9.9-4.8-17-14.4-17c-9.7,0-14.4,7.1-14.4,17
			C572.1,51.3,575.4,59.7,586.5,59.7 M586.5,9.2c-9.7,0-17.9,3.2-23.6,9.3c-5.4,5.8-8.3,13.7-8.3,22.8c0,21,11.9,33.5,31.9,33.5
			c10,0,18.3-3.6,24.1-10.4c5-5.9,7.8-14.1,7.8-23c0-9.2-2.9-17.1-8.3-22.8C604.3,12.4,596.2,9.2,586.5,9.2L586.5,9.2z M586.5,54
			c-3.1,0-8.7,0-8.7-12.6c0-7.5,2.9-11.3,8.7-11.3c5.8,0,8.7,3.8,8.7,11.3C595.2,54,589.1,54,586.5,54L586.5,54z"/>
	</g>
	<g>
		<path fill="#2E9BFF" d="M672.1,71.7c-4.8,0-8.1-3.5-8.1-8.6V48.7l-5.6,17.6c-1.1,3.5-3.9,5.4-7.7,5.4c-3.9,0-6.6-1.9-7.7-5.4
			l-5.6-17.6v14.4c0,5.1-3.3,8.6-8.1,8.6s-8.1-3.5-8.1-8.6V21c0-5.4,3.5-8.7,9.2-8.7h3.5c4.9,0,7.7,2.2,9.3,7.4l7.6,24.7l7.5-24.7
			c1.6-5.2,4.4-7.4,9.3-7.4h3.3c5.8,0,9.2,3.2,9.2,8.7v42.1C680.2,68.3,677,71.7,672.1,71.7z"/>
		<path fill="#FFFFFF" d="M671,15.2c3.2,0,6.4,1.1,6.4,5.8v42.1c0,3-1.4,5.8-5.3,5.8s-5.3-2.8-5.3-5.8V31h-0.1l-11,34.4
			c-0.8,2.4-2.6,3.5-5,3.5c-2.4,0-4.2-1-5-3.5l-11-34.4h-0.1v32.1c0,3-1.4,5.8-5.3,5.8s-5.3-2.8-5.3-5.8V21c0-4.8,3.2-5.8,6.4-5.8
			h3.5c3.7,0,5.4,1.4,6.6,5.4l10.3,33.3h0.1l10.2-33.3c1.2-4,3-5.4,6.6-5.4H671 M671,9.5h-3.3c-6.1,0-10.1,3.1-12,9.4l-4.8,15.9
			l-4.9-15.9c-2-6.3-5.9-9.4-12-9.4h-3.5c-7.3,0-12.1,4.5-12.1,11.5v42.1c0,6.7,4.5,11.4,10.9,11.4c5.5,0,9.6-3.4,10.6-8.6l0.4,1.2
			c1.5,4.6,5.4,7.4,10.4,7.4c5,0,8.9-2.8,10.4-7.4l0.4-1.2c1.1,5.2,5.2,8.6,10.6,8.6c6.4,0,10.9-4.7,10.9-11.4V21
			C683.1,14,678.3,9.5,671,9.5L671,9.5z"/>
	</g>
	<g>
		<path fill="#2E9BFF" d="M698.2,70.8c-6.3,0-9.7-3.5-9.7-9.7V23c0-6.3,3.5-9.7,9.7-9.7h27.7c7.7,0,8.8,4.8,8.8,7.6
			s-1.1,7.6-8.8,7.6h-20V34h17.2c7.3,0,8.4,4.6,8.4,7.4s-1.1,7.4-8.4,7.4h-17.2v6.9h20.6c7.7,0,8.8,4.8,8.8,7.6
			c0,2.8-1.1,7.6-8.8,7.6H698.2z"/>
		<path fill="#FFFFFF" d="M725.9,16.1c3.5,0,6,1,6,4.8s-2.5,4.8-6,4.8h-22.8v11.2h20c3.1,0,5.5,0.9,5.5,4.5c0,3.7-2.4,4.5-5.5,4.5
			h-20v12.5h23.4c3.5,0,6,1,6,4.8c0,3.7-2.5,4.8-6,4.8h-28.3c-4.2,0-6.9-1.7-6.9-6.9V23c0-5.3,2.7-6.9,6.9-6.9H725.9 M725.9,10.4
			h-27.7c-7.9,0-12.6,4.7-12.6,12.6v38c0,7.9,4.7,12.6,12.6,12.6h28.3c8.6,0,11.6-5.4,11.6-10.4s-3.1-10.4-11.6-10.4h-17.7v-1.2
			h14.3c8.3,0,11.2-5.3,11.2-10.2c0-4.5-2.5-9.3-9.3-10.1h0.9c8.6,0,11.6-5.4,11.6-10.4S734.5,10.4,725.9,10.4L725.9,10.4z"/>
	</g>
	<g>
		<path fill="#2E9BFF" d="M138.9,151.7c-4.5,0-6.7-1.1-8.9-4.5l-15.4-24.4v20.3c0,5.3-3.3,8.5-8.5,8.5s-8.5-3.3-8.5-8.5v-41.1
			c0-4.4,1.8-9.7,10.3-9.7c3.6,0,6.6,1.6,8.3,4.5l15.5,25.1v-21c0-5.3,3.3-8.5,8.5-8.5s8.5,3.3,8.5,8.5v40.7
			C148.8,148,145.2,151.7,138.9,151.7z"/>
		<path fill="#FFFFFF" d="M140.2,95.2c3.5,0,5.7,1.9,5.7,5.7v40.7c0,4.7-2,7.3-7,7.3c-3.7,0-5-0.8-6.5-3.2l-20.5-32.4h-0.1v29.9
			c0,3.8-2.2,5.7-5.7,5.7s-5.7-1.9-5.7-5.7v-41.1c0-4.9,2.4-6.9,7.4-6.9c2.4,0,4.6,0.9,5.9,3.1l20.7,33.3h0.1v-30.7
			C134.6,97,136.7,95.2,140.2,95.2 M140.2,89.5c-6.8,0-11.4,4.6-11.4,11.4v11.1l-10.3-16.6c-2.2-3.7-6.1-5.8-10.7-5.8
			c-8.3,0-13.1,4.6-13.1,12.6v41.1c0,6.8,4.6,11.4,11.4,11.4c6.8,0,11.4-4.6,11.4-11.4v-10.6l10.2,16.1c2.7,4.2,5.8,5.8,11.3,5.8
			c7.8,0,12.7-5,12.7-13v-40.7C151.6,94.1,147,89.5,140.2,89.5L140.2,89.5z"/>
	</g>
	<g>
		<path fill="#2E9BFF" d="M182.1,152c-16.1,0-25.4-8.6-25.4-23.5v-27.4c0-5.1,3.6-8.7,8.7-8.7s8.7,3.6,8.7,8.7v28.4
			c0,5.2,2.4,7.4,7.9,7.4s7.9-2.2,7.9-7.4v-28.4c0-5.1,3.6-8.7,8.7-8.7s8.7,3.6,8.7,8.7v27.4C207.4,143.4,198.2,152,182.1,152z"/>
		<path fill="#FFFFFF" d="M198.7,95.2c3.6,0,5.9,2.4,5.9,5.9v27.4c0,14.3-8.8,20.7-22.5,20.7c-13.8,0-22.5-6.4-22.5-20.7v-27.4
			c0-3.5,2.3-5.9,5.9-5.9c3.6,0,5.9,2.4,5.9,5.9v28.4c0,7.1,4,10.2,10.7,10.2s10.7-3.2,10.7-10.2v-28.4
			C192.8,97.5,195.1,95.2,198.7,95.2 M198.7,89.5c-6.7,0-11.6,4.9-11.6,11.6v28.4c0,3.2-0.7,4.6-5.1,4.6c-4.4,0-5.1-1.3-5.1-4.6
			v-28.4c0-6.7-4.9-11.6-11.6-11.6s-11.6,4.9-11.6,11.6v27.4c0,8.6,2.7,15.3,8.1,20c4.9,4.2,11.7,6.4,20.1,6.4
			c8.5,0,15.2-2.1,20.1-6.4c5.4-4.6,8.1-11.3,8.1-20v-27.4C210.3,94.4,205.4,89.5,198.7,89.5L198.7,89.5z"/>
	</g>
	<g>
		<path fill="#2E9BFF" d="M237,151.7c-5.1,0-8.7-3.6-8.7-8.7v-34.1h-8.3c-5.3,0-9-3.2-9-7.8c0-4.6,3.7-7.8,9-7.8h34.1
			c5.3,0,9,3.2,9,7.8c0,4.6-3.7,7.8-9,7.8h-8.3V143C245.7,148.1,242.2,151.7,237,151.7z"/>
		<path fill="#FFFFFF" d="M254.1,96.1c3.4,0,6.1,1.7,6.1,5s-2.7,5-6.1,5h-11.2V143c0,3.5-2.3,5.9-5.9,5.9c-3.6,0-5.9-2.4-5.9-5.9
			V106h-11.2c-3.4,0-6.1-1.7-6.1-5s2.7-5,6.1-5H254.1 M254.1,90.4h-34.1c-6.8,0-11.8,4.5-11.8,10.6c0,6.2,5,10.6,11.8,10.6h5.5V143
			c0,6.7,4.9,11.6,11.6,11.6c6.7,0,11.6-4.9,11.6-11.6v-31.3h5.5c6.8,0,11.8-4.5,11.8-10.6C265.9,94.9,260.9,90.4,254.1,90.4
			L254.1,90.4z"/>
	</g>
	<g>
		<path fill="#2E9BFF" d="M308,151.7c-6,0-9.8-4.4-9.8-11.2c0-9.5-1.8-9.9-5.3-9.9h-8.8V143c0,5.1-3.6,8.7-8.7,8.7s-8.7-3.6-8.7-8.7
			v-40c0-6.3,3.5-9.7,9.7-9.7H296c19.1,0,20.6,13.2,20.6,17.2c0,5-2.1,9.5-5.4,12.3c3.6,3.2,3.6,8.4,3.6,10.8c0,3.3,0.5,5.2,1,6.9
			c0.3,1.2,0.6,2.4,0.6,3.7C316.4,148.9,312,151.7,308,151.7z M293,116.3c5.6,0,6.1-2,6.1-4.2c0-2.6-0.4-4.1-5.7-4.1h-9.3v8.3H293z"
			/>
		<path fill="#FFFFFF" d="M296,96.1c14,0,17.8,7.7,17.8,14.4c0,5.6-3.3,11.2-8.9,12.5v0.1c6,0.9,7.1,5.3,7.1,10.5
			c0,6,1.6,8.2,1.6,10.7c0,2.7-2.8,4.6-5.5,4.6c-6.5,0-7-6.3-7-8.4c0-9.1-1.7-12.7-8.1-12.7h-11.7V143c0,3.5-2.3,5.9-5.9,5.9
			s-5.9-2.4-5.9-5.9v-40c0-5.3,2.7-6.9,6.9-6.9H296 M281.2,119.1H293c4.5,0,8.9-1.2,8.9-7c0-5.5-3.4-7-8.6-7h-12.2V119.1 M296,90.4
			h-19.7c-7.9,0-12.6,4.7-12.6,12.6v40c0,6.7,4.9,11.6,11.6,11.6c6.7,0,11.6-4.9,11.6-11.6v-9.5h6c1,0,1.5,0.1,1.6,0.2
			c0.2,0.3,0.8,1.6,0.8,6.9c0,8.4,5.1,14,12.7,14c6.2,0,11.2-4.6,11.2-10.3c0-1.7-0.4-3.1-0.7-4.4c-0.4-1.6-0.9-3.3-0.9-6.2
			c0-4.4-0.9-8-2.6-10.6c2.8-3.3,4.4-7.7,4.4-12.5C319.4,100.8,313.3,90.4,296,90.4L296,90.4z M286.9,110.8h6.5
			c1.7,0,2.5,0.2,2.8,0.3c0,0.2,0.1,0.5,0.1,1c0,0.5-0.1,0.7-0.1,0.9c-0.2,0.1-1,0.5-3.2,0.5h-6.1V110.8L286.9,110.8z"/>
	</g>
	<g>
		<path fill="#2E9BFF" d="M331.5,151.7c-5.1,0-8.7-3.6-8.7-8.7v-41.9c0-5.1,3.6-8.7,8.7-8.7s8.7,3.6,8.7,8.7V143
			C340.3,148.1,336.7,151.7,331.5,151.7z"/>
		<path fill="#FFFFFF" d="M331.5,95.2c3.6,0,5.9,2.4,5.9,5.9V143c0,3.5-2.3,5.9-5.9,5.9s-5.9-2.4-5.9-5.9v-41.9
			C325.6,97.5,327.9,95.2,331.5,95.2 M331.5,89.5c-6.7,0-11.6,4.9-11.6,11.6V143c0,6.7,4.9,11.6,11.6,11.6c6.7,0,11.6-4.9,11.6-11.6
			v-41.9C343.1,94.4,338.3,89.5,331.5,89.5L331.5,89.5z"/>
	</g>
	<g>
		<path fill="#2E9BFF" d="M358.2,150.8c-6.3,0-9.7-3.5-9.7-9.7v-38c0-6.3,3.5-9.7,9.7-9.7h14.4c17.8,0,27.5,10.2,27.5,28.8
			c0,18-10.4,28.8-27.7,28.8H358.2z M373,135.6c8.4,0,9.6-8.5,9.6-13.6c0-13.6-7.3-13.6-9.7-13.6h-7v27.2H373z"/>
		<path fill="#FFFFFF" d="M372.6,96.1c12.9,0,24.7,5.6,24.7,25.9c0,16.4-9.1,25.9-24.9,25.9h-14.2c-4.2,0-6.9-1.7-6.9-6.9v-38
			c0-5.3,2.7-6.9,6.9-6.9H372.6 M363.1,138.4h9.9c9.4,0,12.5-8.4,12.5-16.4c0-10.2-3.9-16.4-12.5-16.4h-9.9V138.4 M372.6,90.4h-14.4
			c-7.9,0-12.6,4.7-12.6,12.6v38c0,7.9,4.7,12.6,12.6,12.6h14.2c18.9,0,30.6-12.1,30.6-31.6c0-11.1-3.2-19.4-9.5-24.9
			C388.3,92.7,381.3,90.4,372.6,90.4L372.6,90.4z M368.8,111.3h4.2c2.2,0,6.9,0,6.9,10.7c0,4.9-1.2,10.7-6.8,10.7h-4.3V111.3
			L368.8,111.3z"/>
	</g>
	<g>
		<path fill="#2E9BFF" d="M445.2,151.7c-5.3,0-7.3-3.2-8-5.1l-2.4-6.8h-15l-2.4,6.8c-1.2,3.4-3.8,5.1-7.9,5.1c-4.9,0-8.3-3.3-8.3-8
			c0-1.3,0.4-3.1,1.3-5.5l15.3-40.4c1.4-3.6,4.2-5.4,8.4-5.4h2.8c1.7,0,6.8,0,9,6.2l14.3,39.7c0.9,2.4,1.3,4.2,1.3,5.5
			C453.5,148.1,449.8,151.7,445.2,151.7z M430.3,126l-2.9-9.1l-3.1,9.1H430.3z"/>
		<path fill="#FFFFFF" d="M429,95.2c2.7,0,5,0.6,6.3,4.3l14.3,39.7c0.4,1.2,1.2,3.2,1.2,4.5c0,2.9-2.5,5.2-5.5,5.2
			c-2.6,0-4.5-0.9-5.3-3.2l-3-8.6h-19l-3.1,8.6c-0.8,2.3-2.4,3.2-5.3,3.2c-3.2,0-5.5-2-5.5-5.2c0-1.3,0.7-3.4,1.2-4.5l15.3-40.4
			c1-2.7,2.9-3.6,5.8-3.6H429 M420.4,128.8h13.8l-6.7-20.8h-0.1L420.4,128.8 M429,89.5h-2.8c-6.9,0-9.8,4-11.1,7.3l-15.3,40.4
			c-1.4,3.6-1.5,5.5-1.5,6.5c0,6.3,4.7,10.9,11.1,10.9c7.1,0,9.7-4.4,10.6-7l1.7-4.9h11l1.7,4.8l0,0.1l0,0.1
			c1.6,4.4,5.5,6.9,10.6,6.9c6.2,0,11.2-4.9,11.2-10.9c0-1.1-0.2-2.9-1.5-6.5l-14.2-39.6C439.3,93.9,436.3,89.5,429,89.5L429,89.5z"
			/>
	</g>
	<g>
		<path fill="#2E9BFF" d="M476.3,151.7c-5.1,0-8.7-3.6-8.7-8.7v-14.5l-14.1-23.4c-0.9-1.5-1.4-3.1-1.4-4.6c0-5.3,4.5-8.2,8.8-8.2
			c4.6,0,6.5,2.5,7.8,5l7.8,14.3l7.7-14.3c1.8-3.5,4.1-4.9,7.6-4.9c4.2,0,8.7,2.9,8.7,8.2c0,1.5-0.5,3-1.4,4.6L485,128.5V143
			C485,148.1,481.4,151.7,476.3,151.7z"/>
		<path fill="#FFFFFF" d="M491.8,95.2c2.2,0,5.8,1.4,5.8,5.4c0,1.1-0.4,2.2-1,3.1l-14.5,24V143c0,3.5-2.3,5.9-5.9,5.9
			s-5.9-2.4-5.9-5.9v-15.3l-14.5-24c-0.6-0.9-1-2-1-3.1c0-4,3.7-5.4,6-5.4c2.8,0,4.1,1.2,5.3,3.5l10.3,18.9l10.2-18.9
			C488.1,96,489.4,95.2,491.8,95.2 M491.8,89.5c-6,0-8.6,3.7-10.1,6.5l-5.2,9.7l-5.3-9.7c-1.5-2.8-4.2-6.4-10.3-6.4
			c-5.6,0-11.6,3.9-11.6,11.1c0,2,0.6,4.1,1.8,6l13.6,22.7V143c0,6.7,4.9,11.6,11.6,11.6s11.6-4.9,11.6-11.6v-13.7l13.7-22.7
			c1.2-2,1.8-4,1.8-6C503.3,93.6,497.5,89.5,491.8,89.5L491.8,89.5z"/>
	</g>
	<g>
		<path fill="#2E9BFF" d="M538.5,150.8c-6.3,0-9.7-3.5-9.7-9.7v-40c0-5.1,3.6-8.7,8.7-8.7s8.7,3.6,8.7,8.7v34.1h16.9
			c5.3,0,9,3.2,9,7.8c0,4.6-3.7,7.8-9,7.8H538.5z"/>
		<path fill="#FFFFFF" d="M537.5,95.2c3.6,0,5.9,2.4,5.9,5.9V138h19.7c3.4,0,6.1,1.7,6.1,5s-2.7,5-6.1,5h-24.6
			c-4.2,0-6.9-1.7-6.9-6.9v-40C531.6,97.5,533.9,95.2,537.5,95.2 M537.5,89.5c-6.7,0-11.6,4.9-11.6,11.6v40
			c0,7.9,4.7,12.6,12.6,12.6h24.6c6.8,0,11.8-4.5,11.8-10.6c0-6.2-5-10.6-11.8-10.6H549v-31.3C549,94.4,544.2,89.5,537.5,89.5
			L537.5,89.5z"/>
	</g>
	<g>
		<path fill="#2E9BFF" d="M602.3,152c-18.2,0-29-11.5-29-30.6c0-17.8,11.4-29.3,29-29.3s29,11.5,29,29.3
			C631.4,136.6,622.4,152,602.3,152z M602.3,107.2c-10.1,0-11.6,8.9-11.6,14.2c0,13.9,6.6,15.5,11.6,15.5c7.7,0,11.6-5.2,11.6-15.5
			C613.9,116.1,612.4,107.2,602.3,107.2z"/>
		<path fill="#FFFFFF" d="M602.3,94.9c17,0,26.2,11.3,26.2,26.5c0,14.6-8.5,27.8-26.2,27.8c-18.6,0-26.2-12.1-26.2-27.8
			C576.1,106.2,585.3,94.9,602.3,94.9 M602.3,139.7c10.7,0,14.4-8.4,14.4-18.3c0-9.9-4.8-17-14.4-17s-14.4,7.1-14.4,17
			C587.9,131.3,591.2,139.7,602.3,139.7 M602.3,89.2c-9.7,0-17.9,3.2-23.6,9.3c-5.4,5.8-8.3,13.7-8.3,22.8c0,21,11.9,33.5,31.9,33.5
			c10,0,18.3-3.6,24.1-10.4c5-5.9,7.8-14.1,7.8-23c0-9.2-2.9-17.1-8.3-22.8C620.2,92.4,612.1,89.2,602.3,89.2L602.3,89.2z
			 M602.3,134c-3.1,0-8.7,0-8.7-12.6c0-7.5,2.9-11.3,8.7-11.3c5.8,0,8.7,3.8,8.7,11.3C611.1,134,604.9,134,602.3,134L602.3,134z"/>
	</g>
	<g>
		<path fill="#2E9BFF" d="M657.7,151.7c-3.8,0-8-0.7-9.9-6l-14.5-40.9c-0.6-1.6-0.9-3.1-0.9-4.4c0-4.9,3.5-8.1,8.8-8.1
			c6.5,0,8.1,5.4,8.7,7.2l8.1,26.7l8.4-26.7c1.5-4.8,4.2-7.2,8.2-7.2c5.4,0,8.8,3.2,8.8,8.1c0,1.3-0.3,2.8-0.9,4.4l-15,40.9
			C665.7,151,661.5,151.7,657.7,151.7z"/>
		<path fill="#FFFFFF" d="M674.6,95.2c3,0,6,1.3,6,5.3c0,0.9-0.2,2.1-0.7,3.5l-15,40.9c-1.2,3.4-3.5,4.1-7.2,4.1s-6-0.7-7.2-4.1
			L636,103.9c-0.5-1.4-0.7-2.5-0.7-3.5c0-4,3-5.3,6-5.3c3.2,0,4.9,1.7,6,5.2l10.7,35.3h0.1l11.1-35.3
			C670.2,96.8,671.9,95.2,674.6,95.2 M674.6,89.5c-3,0-8.5,1.2-11,9.2l-5.6,17.9l-5.4-17.9c-2.3-7.6-7.5-9.2-11.4-9.2
			c-6.9,0-11.6,4.5-11.6,10.9c0,1.7,0.4,3.5,1.1,5.4l14.5,40.9c2.8,7.9,9.9,7.9,12.5,7.9c2.7,0,9.7,0,12.5-7.8l15-40.9
			c0.7-1.9,1.1-3.7,1.1-5.4C686.3,94,681.5,89.5,674.6,89.5L674.6,89.5z"/>
	</g>
	<g>
		<path fill="#2E9BFF" d="M696.8,150.8c-6.3,0-9.7-3.5-9.7-9.7v-38c0-6.3,3.5-9.7,9.7-9.7h27.7c7.7,0,8.8,4.8,8.8,7.6
			s-1.1,7.6-8.8,7.6h-20v5.6h17.2c7.3,0,8.4,4.6,8.4,7.4s-1.1,7.4-8.4,7.4h-17.2v6.9h20.6c7.7,0,8.8,4.8,8.8,7.6s-1.1,7.6-8.8,7.6
			H696.8z"/>
		<path fill="#FFFFFF" d="M724.5,96.1c3.5,0,6,1,6,4.8s-2.5,4.8-6,4.8h-22.8v11.2h20c3.1,0,5.5,0.9,5.5,4.5c0,3.7-2.4,4.5-5.5,4.5
			h-20v12.5h23.4c3.5,0,6,1,6,4.8s-2.5,4.8-6,4.8h-28.3c-4.2,0-6.9-1.7-6.9-6.9v-38c0-5.3,2.7-6.9,6.9-6.9H724.5 M724.5,90.4h-27.7
			c-7.9,0-12.6,4.7-12.6,12.6v38c0,7.9,4.7,12.6,12.6,12.6h28.3c8.6,0,11.6-5.4,11.6-10.4s-3.1-10.4-11.6-10.4h-17.7v-1.2h14.3
			c8.3,0,11.2-5.3,11.2-10.2c0-4.5-2.5-9.3-9.3-10.1h0.9c8.6,0,11.6-5.4,11.6-10.4S733.1,90.4,724.5,90.4L724.5,90.4z"/>
	</g>
	<g>
		<path fill="#2E9BFF" d="M55,231.7c-5.3,0-7.3-3.2-8-5.1l-2.4-6.8h-15l-2.4,6.8c-1.2,3.4-3.8,5.1-7.9,5.1c-4.9,0-8.3-3.3-8.3-8
			c0-1.3,0.4-3.1,1.3-5.5l15.3-40.4c1.4-3.6,4.2-5.4,8.4-5.4h2.8c1.7,0,6.8,0,9,6.2l14.3,39.7c0.9,2.4,1.3,4.2,1.3,5.5
			C63.4,228.1,59.6,231.7,55,231.7z M40.2,206l-2.9-9.1l-3.1,9.1H40.2z"/>
		<path fill="#FFFFFF" d="M38.8,175.2c2.7,0,5,0.6,6.3,4.3l14.3,39.7c0.4,1.2,1.2,3.2,1.2,4.5c0,2.9-2.5,5.2-5.5,5.2
			c-2.6,0-4.5-0.9-5.3-3.2l-3-8.6h-19l-3.1,8.6c-0.8,2.3-2.4,3.2-5.3,3.2c-3.2,0-5.5-2-5.5-5.2c0-1.3,0.7-3.4,1.2-4.5l15.3-40.4
			c1-2.7,2.9-3.6,5.8-3.6H38.8 M30.2,208.8h13.8L37.4,188h-0.1L30.2,208.8 M38.8,169.5H36c-6.9,0-9.8,3.9-11.1,7.3L9.7,217.2
			c-1.4,3.6-1.5,5.5-1.5,6.5c0,6.3,4.7,10.9,11.1,10.9c7.1,0,9.7-4.4,10.6-7l1.7-4.9h11l1.7,4.8l0,0.1l0,0.1
			c1.6,4.4,5.5,6.9,10.6,6.9c6.2,0,11.2-4.9,11.2-10.9c0-1.1-0.2-2.9-1.5-6.5l-14.2-39.6C49.2,173.9,46.1,169.5,38.8,169.5
			L38.8,169.5z"/>
	</g>
	<g>
		<path fill="#2E9BFF" d="M107.8,231.7c-4.5,0-6.7-1.1-8.9-4.5l-15.4-24.4v20.3c0,5.3-3.3,8.5-8.5,8.5s-8.5-3.3-8.5-8.5v-41.1
			c0-4.4,1.8-9.7,10.3-9.7c3.6,0,6.6,1.6,8.3,4.5l15.5,25.1v-21c0-5.3,3.3-8.5,8.5-8.5s8.5,3.3,8.5,8.5v40.7
			C117.7,228,114.1,231.7,107.8,231.7z"/>
		<path fill="#FFFFFF" d="M109.1,175.2c3.5,0,5.7,1.9,5.7,5.7v40.7c0,4.7-2,7.3-7,7.3c-3.7,0-5-0.8-6.5-3.2l-20.5-32.4h-0.1v29.9
			c0,3.8-2.2,5.7-5.7,5.7s-5.7-1.9-5.7-5.7v-41.1c0-4.9,2.4-6.9,7.4-6.9c2.4,0,4.6,0.9,5.9,3.1l20.7,33.3h0.1v-30.7
			C103.5,177,105.6,175.2,109.1,175.2 M109.1,169.5c-6.8,0-11.4,4.6-11.4,11.4v11.1l-10.3-16.6c-2.2-3.7-6.1-5.8-10.7-5.8
			c-8.3,0-13.1,4.6-13.1,12.6v41.1c0,6.8,4.6,11.4,11.4,11.4c6.8,0,11.4-4.6,11.4-11.4v-10.6l10.2,16.1c2.7,4.2,5.8,5.8,11.3,5.8
			c7.8,0,12.7-5,12.7-13v-40.7C120.5,174.1,115.9,169.5,109.1,169.5L109.1,169.5z"/>
	</g>
	<g>
		<path fill="#2E9BFF" d="M135.3,230.8c-6.3,0-9.7-3.5-9.7-9.7v-38c0-6.3,3.5-9.7,9.7-9.7h14.4c17.8,0,27.5,10.2,27.5,28.8
			c0,18-10.4,28.8-27.7,28.8H135.3z M150.2,215.6c8.4,0,9.6-8.5,9.6-13.6c0-13.6-7.3-13.6-9.7-13.6h-7v27.2H150.2z"/>
		<path fill="#FFFFFF" d="M149.7,176.1c12.9,0,24.7,5.6,24.7,25.9c0,16.4-9.1,25.9-24.9,25.9h-14.2c-4.2,0-6.9-1.7-6.9-6.9v-38
			c0-5.3,2.7-6.9,6.9-6.9H149.7 M140.2,218.4h9.9c9.4,0,12.5-8.4,12.5-16.4c0-10.2-3.9-16.4-12.5-16.4h-9.9V218.4 M149.7,170.4
			h-14.4c-7.9,0-12.6,4.7-12.6,12.6v38c0,7.9,4.7,12.6,12.6,12.6h14.2c18.9,0,30.6-12.1,30.6-31.6c0-11.1-3.2-19.4-9.5-24.9
			C165.5,172.7,158.4,170.4,149.7,170.4L149.7,170.4z M145.9,191.3h4.2c2.2,0,6.9,0,6.9,10.7c0,4.9-1.2,10.7-6.8,10.7h-4.3V191.3
			L145.9,191.3z"/>
	</g>
	<g>
		<path fill="#2E9BFF" d="M234.5,232c-17.6,0-28.1-11.2-28.1-30c0-18.5,11.4-30,29.8-30c14.8,0,22.9,9,22.9,15.3c0,4.9-3.3,8-8.4,8
			c-3.9,0-5.7-2.4-7-4.2c-1.6-2.1-2.9-3.9-8.2-3.9c-9.7,0-11.7,8.5-11.7,15.6c0,4.3,1.2,14.4,11.9,14.4c3.9,0,7.1-1.9,8.6-4.9h-4
			c-5,0-8.2-2.9-8.2-7.4s2.9-7.4,7.4-7.4h14.5c4.9,0,7.7,2.8,7.7,7.8v19.5c0,3.8-3,6.8-6.9,6.8c-3.7,0-5.5-1.8-6.5-4.1
			C244.6,230.6,240,232,234.5,232z"/>
		<path fill="#FFFFFF" d="M236.2,174.9c13.1,0,20.1,7.8,20.1,12.5c0,4.1-3,5.2-5.5,5.2c-5.8,0-3.7-8.1-15.2-8.1
			c-8.1,0-14.5,5.3-14.5,18.4c0,10.2,5,17.3,14.7,17.3c6.3,0,11.7-4.2,12.3-10.6h-7.7c-2.5,0-5.3-0.9-5.3-4.5c0-2.9,1.7-4.5,4.6-4.5
			h14.5c3.5,0,4.8,1.7,4.8,5v19.5c0,2.2-1.7,4-4,4c-3.4,0-4.3-2.1-5-6.7c-3.4,4.2-8.1,7-15.4,7c-18.3,0-25.3-12.6-25.3-27.1
			C209.2,184.5,220.2,174.9,236.2,174.9 M236.2,169.2c-19.8,0-32.7,12.9-32.7,32.8c0,20.2,11.9,32.8,30.9,32.8
			c5.1,0,9.4-1.1,13.1-3.2c1.5,1.7,3.8,2.9,7.3,2.9c5.4,0,9.7-4.2,9.7-9.6v-19.5c0-4.9-2.3-8.5-6.2-9.9c2.2-1.9,3.5-4.8,3.5-8.2
			c0-4.3-2.8-9-7.4-12.5C251.2,172.3,245.2,169.2,236.2,169.2L236.2,169.2z M235.7,214.4c-6,0-9-3.9-9-11.6
			c0-12.8,6.7-12.8,8.9-12.8c3.9,0,4.6,0.9,6,2.8c0.4,0.5,0.9,1.2,1.6,1.9h-3.5c-6.1,0-10.3,4.2-10.3,10.2
			C229.3,209.5,231.8,213,235.7,214.4C235.8,214.4,235.7,214.4,235.7,214.4L235.7,214.4z"/>
	</g>
	<g>
		<path fill="#2E9BFF" d="M278.3,231.7c-5.1,0-8.7-3.6-8.7-8.7v-41.9c0-5.1,3.6-8.7,8.7-8.7s8.7,3.6,8.7,8.7V223
			C287.1,228.1,283.5,231.7,278.3,231.7z"/>
		<path fill="#FFFFFF" d="M278.3,175.2c3.6,0,5.9,2.4,5.9,5.9V223c0,3.5-2.3,5.9-5.9,5.9c-3.6,0-5.9-2.4-5.9-5.9v-41.9
			C272.4,177.5,274.7,175.2,278.3,175.2 M278.3,169.5c-6.7,0-11.6,4.9-11.6,11.6V223c0,6.7,4.9,11.6,11.6,11.6s11.6-4.9,11.6-11.6
			v-41.9C289.9,174.4,285,169.5,278.3,169.5L278.3,169.5z"/>
	</g>
	<g>
		<path fill="#2E9BFF" d="M315.7,231.7c-3.8,0-8-0.7-9.9-6l-14.6-40.9c-0.6-1.6-0.9-3.1-0.9-4.4c0-4.9,3.5-8.1,8.8-8.1
			c6.5,0,8.1,5.4,8.7,7.2l8.1,26.7l8.4-26.7c1.5-4.8,4.2-7.2,8.2-7.2c5.4,0,8.8,3.2,8.8,8.1c0,1.3-0.3,2.8-0.9,4.4l-15,40.9
			C323.7,231,319.5,231.7,315.7,231.7z"/>
		<path fill="#FFFFFF" d="M332.6,175.2c3,0,6,1.3,6,5.3c0,0.9-0.2,2.1-0.7,3.5l-15,40.9c-1.2,3.4-3.5,4.1-7.2,4.1
			c-3.7,0-6-0.7-7.2-4.1L294,183.9c-0.5-1.4-0.7-2.5-0.7-3.5c0-4,3-5.3,6-5.3c3.2,0,4.9,1.7,6,5.2l10.7,35.3h0.1l11.1-35.3
			C328.2,176.8,329.9,175.2,332.6,175.2 M332.6,169.5c-3,0-8.5,1.2-11,9.2l-5.6,17.9l-5.4-17.9c-2.3-7.6-7.5-9.2-11.4-9.2
			c-6.9,0-11.6,4.5-11.6,10.9c0,1.7,0.4,3.5,1.1,5.4l14.5,40.9c2.8,7.9,9.9,7.9,12.5,7.9c2.7,0,9.7,0,12.5-7.8l15-40.9
			c0.7-1.9,1.1-3.7,1.1-5.4C344.3,174,339.5,169.5,332.6,169.5L332.6,169.5z"/>
	</g>
	<g>
		<path fill="#2E9BFF" d="M354.8,230.8c-6.3,0-9.7-3.5-9.7-9.7v-38c0-6.3,3.5-9.7,9.7-9.7h27.7c7.7,0,8.8,4.8,8.8,7.6
			s-1.1,7.6-8.8,7.6h-20v5.6h17.2c7.3,0,8.4,4.6,8.4,7.4s-1.1,7.4-8.4,7.4h-17.2v6.9h20.6c7.7,0,8.8,4.8,8.8,7.6s-1.1,7.6-8.8,7.6
			H354.8z"/>
		<path fill="#FFFFFF" d="M382.5,176.1c3.5,0,6,1,6,4.8s-2.5,4.8-6,4.8h-22.8v11.2h20c3.1,0,5.5,0.9,5.5,4.5c0,3.7-2.4,4.5-5.5,4.5
			h-20v12.5h23.4c3.5,0,6,1,6,4.8s-2.5,4.8-6,4.8h-28.3c-4.2,0-6.9-1.7-6.9-6.9v-38c0-5.3,2.7-6.9,6.9-6.9H382.5 M382.5,170.4h-27.7
			c-7.9,0-12.6,4.7-12.6,12.6v38c0,7.9,4.7,12.6,12.6,12.6h28.3c8.6,0,11.6-5.4,11.6-10.4s-3.1-10.4-11.6-10.4h-17.7v-1.2h14.3
			c8.3,0,11.2-5.3,11.2-10.2c0-4.5-2.5-9.3-9.3-10.1h0.9c8.6,0,11.6-5.4,11.6-10.4S391.1,170.4,382.5,170.4L382.5,170.4z"/>
	</g>
	<g>
		<path fill="#2E9BFF" d="M472.7,231.7c-4.8,0-8.1-3.5-8.1-8.6v-14.4l-5.6,17.6c-1.1,3.5-3.9,5.4-7.7,5.4c-3.9,0-6.6-1.9-7.7-5.4
			l-5.6-17.6v14.4c0,5.1-3.3,8.6-8.1,8.6c-4.8,0-8.1-3.5-8.1-8.6V181c0-5.4,3.5-8.7,9.2-8.7h3.5c4.9,0,7.7,2.2,9.3,7.4l7.6,24.7
			l7.5-24.7c1.6-5.2,4.4-7.4,9.3-7.4h3.3c5.8,0,9.2,3.2,9.2,8.7v42.1C480.8,228.3,477.5,231.7,472.7,231.7z"/>
		<path fill="#FFFFFF" d="M471.5,175.2c3.2,0,6.4,1.1,6.4,5.8v42.1c0,3-1.4,5.8-5.3,5.8s-5.3-2.8-5.3-5.8V191h-0.1l-11,34.4
			c-0.8,2.4-2.6,3.5-5,3.5c-2.4,0-4.2-1-5-3.5l-11-34.4H435v32.1c0,3-1.4,5.8-5.3,5.8s-5.3-2.8-5.3-5.8V181c0-4.8,3.2-5.8,6.4-5.8
			h3.5c3.7,0,5.4,1.4,6.6,5.4l10.3,33.3h0.1l10.2-33.3c1.2-4,3-5.4,6.6-5.4H471.5 M471.5,169.5h-3.3c-6.1,0-10.1,3.1-12,9.4
			l-4.8,15.9l-4.9-15.9c-2-6.3-5.9-9.4-12-9.4h-3.5c-7.3,0-12.1,4.5-12.1,11.5v42.1c0,6.7,4.5,11.4,10.9,11.4
			c5.5,0,9.6-3.4,10.6-8.6l0.4,1.2c1.5,4.6,5.4,7.4,10.4,7.4c5,0,8.9-2.8,10.4-7.4l0.4-1.2c1.1,5.2,5.2,8.6,10.6,8.6
			c6.4,0,10.9-4.7,10.9-11.4V181C483.6,174,478.9,169.5,471.5,169.5L471.5,169.5z"/>
	</g>
	<g>
		<path fill="#2E9BFF" d="M498.7,230.8c-6.3,0-9.7-3.5-9.7-9.7v-38c0-6.3,3.5-9.7,9.7-9.7h27.7c7.7,0,8.8,4.8,8.8,7.6
			s-1.1,7.6-8.8,7.6h-20v5.6h17.2c7.3,0,8.4,4.6,8.4,7.4s-1.1,7.4-8.4,7.4h-17.2v6.9H527c7.7,0,8.8,4.8,8.8,7.6s-1.1,7.6-8.8,7.6
			H498.7z"/>
		<path fill="#FFFFFF" d="M526.4,176.1c3.5,0,6,1,6,4.8s-2.5,4.8-6,4.8h-22.8v11.2h20c3.1,0,5.5,0.9,5.5,4.5c0,3.7-2.4,4.5-5.5,4.5
			h-20v12.5H527c3.5,0,6,1,6,4.8s-2.5,4.8-6,4.8h-28.3c-4.2,0-6.9-1.7-6.9-6.9v-38c0-5.3,2.7-6.9,6.9-6.9H526.4 M526.4,170.4h-27.7
			c-7.9,0-12.6,4.7-12.6,12.6v38c0,7.9,4.7,12.6,12.6,12.6H527c8.6,0,11.6-5.4,11.6-10.4s-3.1-10.4-11.6-10.4h-17.7v-1.2h14.3
			c8.3,0,11.2-5.3,11.2-10.2c0-4.5-2.5-9.3-9.3-10.1h0.9c8.6,0,11.6-5.4,11.6-10.4S535,170.4,526.4,170.4L526.4,170.4z"/>
	</g>
	<g>
		<path fill="#2E9BFF" d="M605,231.7c-5.3,0-7.3-3.2-8-5.1l-2.4-6.8h-15l-2.4,6.8c-1.2,3.4-3.8,5.1-7.9,5.1c-4.9,0-8.3-3.3-8.3-8
			c0-0.5,0-2,1.3-5.5l15.3-40.4c1.4-3.6,4.2-5.4,8.4-5.4h2.8c1.7,0,6.8,0,9,6.2l14.3,39.7c1.3,3.5,1.3,5,1.3,5.5
			C613.4,228.1,609.6,231.7,605,231.7z M590.2,206l-2.9-9.1l-3.1,9.1H590.2z"/>
		<path fill="#FFFFFF" d="M588.8,175.2c2.7,0,5,0.6,6.3,4.3l14.3,39.7c0.4,1.2,1.2,3.2,1.2,4.5c0,2.9-2.5,5.2-5.5,5.2
			c-2.6,0-4.5-0.9-5.3-3.2l-3-8.6h-19l-3.1,8.6c-0.8,2.3-2.4,3.2-5.3,3.2c-3.2,0-5.5-2-5.5-5.2c0-1.3,0.7-3.4,1.2-4.5l15.3-40.4
			c1-2.7,2.9-3.6,5.8-3.6H588.8 M580.2,208.8h13.8l-6.7-20.8h-0.1L580.2,208.8 M588.8,169.5H586c-6.9,0-9.8,4-11.1,7.3l-15.3,40.4
			c-1.4,3.6-1.5,5.5-1.5,6.5c0,6.3,4.7,10.9,11.1,10.9c7.1,0,9.7-4.4,10.6-7l1.7-4.9h11l1.7,4.8l0,0.1l0,0.1
			c1.7,4.4,5.5,6.9,10.6,6.9c6.2,0,11.2-4.9,11.2-10.9c0-0.6,0-2.5-1.5-6.5l-14.2-39.6C599.2,173.9,596.1,169.5,588.8,169.5
			L588.8,169.5z"/>
	</g>
	<g>
		<path fill="#2E9BFF" d="M683.6,231.7c-5.1,0-8.7-3.6-8.7-8.7v-14.4h-15.8V223c0,5.1-3.6,8.7-8.7,8.7s-8.7-3.6-8.7-8.7v-41.9
			c0-5.1,3.6-8.7,8.7-8.7s8.7,3.6,8.7,8.7v11.9h15.8v-11.9c0-5.1,3.6-8.7,8.7-8.7c5.1,0,8.7,3.6,8.7,8.7V223
			C692.4,228.1,688.8,231.7,683.6,231.7z"/>
		<path fill="#FFFFFF" d="M683.6,175.2c3.6,0,5.9,2.4,5.9,5.9V223c0,3.5-2.3,5.9-5.9,5.9c-3.6,0-5.9-2.4-5.9-5.9v-17.3h-21.5V223
			c0,3.5-2.3,5.9-5.9,5.9c-3.6,0-5.9-2.4-5.9-5.9v-41.9c0-3.5,2.3-5.9,5.9-5.9c3.6,0,5.9,2.4,5.9,5.9v14.7h21.5v-14.7
			C677.7,177.5,680,175.2,683.6,175.2 M683.6,169.5c-6.7,0-11.6,4.9-11.6,11.6v9h-10.1v-9c0-6.7-4.9-11.6-11.6-11.6
			s-11.6,4.9-11.6,11.6V223c0,6.7,4.9,11.6,11.6,11.6s11.6-4.9,11.6-11.6v-11.6H672V223c0,6.7,4.9,11.6,11.6,11.6
			c6.7,0,11.6-4.9,11.6-11.6v-41.9C695.2,174.4,690.3,169.5,683.6,169.5L683.6,169.5z"/>
	</g>
	<g>
		<path fill="#2E9BFF" d="M725.9,232c-16.1,0-25.4-8.6-25.4-23.5v-27.4c0-5.1,3.6-8.7,8.7-8.7s8.7,3.6,8.7,8.7v28.4
			c0,5.2,2.4,7.4,7.9,7.4c5.5,0,7.9-2.2,7.9-7.4v-28.4c0-5.1,3.6-8.7,8.7-8.7s8.7,3.6,8.7,8.7v27.4C751.3,223.4,742,232,725.9,232z"
			/>
		<path fill="#FFFFFF" d="M742.5,175.2c3.6,0,5.9,2.4,5.9,5.9v27.4c0,14.3-8.8,20.7-22.5,20.7c-13.8,0-22.5-6.4-22.5-20.7v-27.4
			c0-3.5,2.3-5.9,5.9-5.9c3.6,0,5.9,2.4,5.9,5.9v28.4c0,7.1,4,10.2,10.7,10.2c6.8,0,10.7-3.2,10.7-10.2v-28.4
			C736.6,177.5,738.9,175.2,742.5,175.2 M742.5,169.5c-6.7,0-11.6,4.9-11.6,11.6v28.4c0,3.2-0.7,4.6-5.1,4.6c-4.4,0-5.1-1.3-5.1-4.6
			v-28.4c0-6.7-4.9-11.6-11.6-11.6s-11.6,4.9-11.6,11.6v27.4c0,8.6,2.7,15.3,8.1,20c4.9,4.2,11.7,6.4,20.1,6.4
			c8.5,0,15.2-2.1,20.1-6.4c5.4-4.6,8.1-11.3,8.1-20v-27.4C754.1,174.4,749.2,169.5,742.5,169.5L742.5,169.5z"/>
	</g>
	<g>
		<path fill="#2E9BFF" d="M785.9,232c-17.6,0-28.1-11.2-28.1-30c0-18.5,11.4-30,29.8-30c14.8,0,22.9,9,22.9,15.3c0,4.9-3.3,8-8.4,8
			c-3.9,0-5.6-2.4-7-4.2c-1.6-2.1-2.9-3.9-8.2-3.9c-9.7,0-11.7,8.5-11.7,15.6c0,4.3,1.2,14.4,11.9,14.4c3.9,0,7.1-1.9,8.6-4.9h-4
			c-5,0-8.2-2.9-8.2-7.4s2.9-7.4,7.4-7.4h14.5c4.9,0,7.7,2.8,7.7,7.8v19.5c0,3.8-3,6.8-6.9,6.8c-3.7,0-5.5-1.8-6.5-4.1
			C796,230.6,791.4,232,785.9,232z"/>
		<path fill="#FFFFFF" d="M787.6,174.9c13.1,0,20.1,7.8,20.1,12.5c0,4.1-3,5.2-5.5,5.2c-5.8,0-3.7-8.1-15.2-8.1
			c-8.1,0-14.5,5.3-14.5,18.4c0,10.2,5,17.3,14.7,17.3c6.3,0,11.7-4.2,12.3-10.6h-7.7c-2.5,0-5.3-0.9-5.3-4.5c0-2.9,1.7-4.5,4.6-4.5
			h14.5c3.5,0,4.8,1.7,4.8,5v19.5c0,2.2-1.7,4-4,4c-3.4,0-4.3-2.1-5-6.7c-3.4,4.2-8.1,7-15.4,7c-18.3,0-25.3-12.6-25.3-27.1
			C760.6,184.5,771.5,174.9,787.6,174.9 M787.6,169.2c-19.8,0-32.7,12.9-32.7,32.8c0,20.2,11.9,32.8,30.9,32.8
			c5.1,0,9.4-1.1,13.2-3.3c1.6,1.7,3.8,3,7.3,3c5.4,0,9.7-4.2,9.7-9.6v-19.5c0-4.9-2.3-8.5-6.2-9.9c2.2-1.9,3.5-4.8,3.5-8.2
			c0-4.3-2.8-9-7.4-12.5C802.5,172.3,796.6,169.2,787.6,169.2L787.6,169.2z M787.1,214.4c-6,0-9-3.9-9-11.6
			c0-12.8,6.7-12.8,8.9-12.8c3.9,0,4.6,0.9,6,2.8c0.4,0.5,0.9,1.2,1.6,1.9H791c-6.1,0-10.3,4.2-10.3,10.2
			C780.7,209.5,783.2,213,787.1,214.4C787.1,214.4,787.1,214.4,787.1,214.4L787.1,214.4z"/>
	</g>
</g>
</svg>
