<?xml version="1.0" encoding="utf-8"?>
<!-- Generator: Adobe Illustrator 19.1.0, SVG Export Plug-In . SVG Version: 6.00 Build 0)  -->
<svg version="1.0" id="Layer_1" xmlns="http://www.w3.org/2000/svg" xmlns:xlink="http://www.w3.org/1999/xlink" x="0px" y="0px"
	 width="646.2px" height="78.1px" viewBox="0 0 646.2 78.1" enable-background="new 0 0 646.2 78.1" xml:space="preserve">
<metadata><?xpacket begin="﻿" id="W5M0MpCehiHzreSzNTczkc9d"?>
<x:xmpmeta xmlns:x="adobe:ns:meta/" x:xmptk="Adobe XMP Core 5.6-c067 79.157747, 2015/03/30-23:40:42        ">
   <rdf:RDF xmlns:rdf="http://www.w3.org/1999/02/22-rdf-syntax-ns#">
      <rdf:Description rdf:about=""
            xmlns:dc="http://purl.org/dc/elements/1.1/"
            xmlns:xmp="http://ns.adobe.com/xap/1.0/"
            xmlns:xmpGImg="http://ns.adobe.com/xap/1.0/g/img/"
            xmlns:xmpMM="http://ns.adobe.com/xap/1.0/mm/"
            xmlns:stRef="http://ns.adobe.com/xap/1.0/sType/ResourceRef#"
            xmlns:stEvt="http://ns.adobe.com/xap/1.0/sType/ResourceEvent#"
            xmlns:illustrator="http://ns.adobe.com/illustrator/1.0/"
            xmlns:xmpTPg="http://ns.adobe.com/xap/1.0/t/pg/"
            xmlns:stDim="http://ns.adobe.com/xap/1.0/sType/Dimensions#"
            xmlns:stFnt="http://ns.adobe.com/xap/1.0/sType/Font#"
            xmlns:xmpG="http://ns.adobe.com/xap/1.0/g/"
            xmlns:pdf="http://ns.adobe.com/pdf/1.3/">
         <dc:format>image/svg+xml</dc:format>
         <dc:title>
            <rdf:Alt>
               <rdf:li xml:lang="x-default">Web</rdf:li>
            </rdf:Alt>
         </dc:title>
         <xmp:CreatorTool>Adobe Illustrator CC 2015 (Windows)</xmp:CreatorTool>
         <xmp:CreateDate>2015-11-09T20:30:32+02:00</xmp:CreateDate>
         <xmp:ModifyDate>2015-11-09T20:30:32+02:00</xmp:ModifyDate>
         <xmp:MetadataDate>2015-11-09T20:30:32+02:00</xmp:MetadataDate>
         <xmp:Thumbnails>
            <rdf:Alt>
               <rdf:li rdf:parseType="Resource">
                  <xmpGImg:width>256</xmpGImg:width>
                  <xmpGImg:height>132</xmpGImg:height>
                  <xmpGImg:format>JPEG</xmpGImg:format>
                  <xmpGImg:image>/9j/4AAQSkZJRgABAgEASABIAAD/7QAsUGhvdG9zaG9wIDMuMAA4QklNA+0AAAAAABAASAAAAAEA&#xA;AQBIAAAAAQAB/+4ADkFkb2JlAGTAAAAAAf/bAIQABgQEBAUEBgUFBgkGBQYJCwgGBggLDAoKCwoK&#xA;DBAMDAwMDAwQDA4PEA8ODBMTFBQTExwbGxscHx8fHx8fHx8fHwEHBwcNDA0YEBAYGhURFRofHx8f&#xA;Hx8fHx8fHx8fHx8fHx8fHx8fHx8fHx8fHx8fHx8fHx8fHx8fHx8fHx8fHx8f/8AAEQgAhAEAAwER&#xA;AAIRAQMRAf/EAaIAAAAHAQEBAQEAAAAAAAAAAAQFAwIGAQAHCAkKCwEAAgIDAQEBAQEAAAAAAAAA&#xA;AQACAwQFBgcICQoLEAACAQMDAgQCBgcDBAIGAnMBAgMRBAAFIRIxQVEGE2EicYEUMpGhBxWxQiPB&#xA;UtHhMxZi8CRygvElQzRTkqKyY3PCNUQnk6OzNhdUZHTD0uIIJoMJChgZhJRFRqS0VtNVKBry4/PE&#xA;1OT0ZXWFlaW1xdXl9WZ2hpamtsbW5vY3R1dnd4eXp7fH1+f3OEhYaHiImKi4yNjo+Ck5SVlpeYmZ&#xA;qbnJ2en5KjpKWmp6ipqqusra6voRAAICAQIDBQUEBQYECAMDbQEAAhEDBCESMUEFURNhIgZxgZEy&#xA;obHwFMHR4SNCFVJicvEzJDRDghaSUyWiY7LCB3PSNeJEgxdUkwgJChgZJjZFGidkdFU38qOzwygp&#xA;0+PzhJSktMTU5PRldYWVpbXF1eX1RlZmdoaWprbG1ub2R1dnd4eXp7fH1+f3OEhYaHiImKi4yNjo&#xA;+DlJWWl5iZmpucnZ6fkqOkpaanqKmqq6ytrq+v/aAAwDAQACEQMRAD8A9U4q7FXYq7FXYq7FXYq7&#xA;FXYq7FXYq7FXYqk723lDS5PTki0+xklUtwZYYWZIwSTQ8ahRX5ZmCeoyiwZyr3lxDDBjNEQjfuCO&#xA;stN0q2YzWVrBA0iqpkhjRCyKKKKqBUAdMoyZsktpEmu8t2PFCO8QB7gisqbXYq7FXYq7FXYq7FXY&#xA;q7FXYq7FXYq7FXYq7FXYq7FXYq7FXYq7FXYq7FXYq7FXYq7FXYq7FXYq7FXYq7FXYq7FXYq7FXYq&#xA;7FXYq7FXYq7FXYq7FXYq7FXYq7FXYq7FXYq7FXYq7FXYq7FXYq7FXYq7FXYqslaRUrGgdv5SeP40&#xA;OGIHVBJ6IaO+uHG9pIrdgdh0Pc++WnGB/EGsZCeiLUkqCRQkbjrTKS2hvFXYqpRuxuZlJPFQlB8w&#xA;cmR6QwB3KrkGbsVdirsVdirsVdirsVdirsVdirsVdirsVdirsVdirsVdirsVdirsVdirsVdirsVd&#xA;irsVdirsVdirqCtabnvirsVdirsVdirsVdirsVdirsVdirsVdirsVdirsVdirsVdirsVdirsVdir&#xA;sVdirsVdirsVdirsVdirsVdirsVdirsVdirsVdirsVdirsVdirsVdirsVdirsVdirsVdirsVdirs&#xA;VdirsVdirsVdirsVdirsVdirsVdirsVdirsVdirsVdirsVdirsVdirsVdirsVdirsVdirsVdirsV&#xA;dirsVdirsVdirsVdirsVdirsVdirsVdirsVdirsVdirsVdirsVdirsVdirsVdirsVdirsVdirsVd&#xA;irsVdirsVdirsVdirsVdirsVdirsVdirsVdirsVdirsVdirsVdirsVdirsVdirsVdirsVdirsVdi&#xA;rsVdirsVdirsVdirsVdirsVdirsVdirsVdirsVdirsVdirsVdirsVdirsVdirsVdirsVdirsVdir&#xA;sVdirsVdirsVdirsVdirsVdirsVdirsVdirsVdirsVdirsVdirsVdirsVdirsVdirsVdirsVdirs&#xA;VdirsVdirsVdirsVdirsVdirsVdirsVdirsVdirsVdirsVdirsVdirsVdirsVdirsVdirsVdirsV&#xA;dirsVdirsVdirsVdirsVdirsVdirsVdirsVdirsVdirsVdirsVdirsVdirsVdirsVdirsVdirsVd&#xA;irsVdirsVdirsVdirsVdirsVdirsVdirsVdirsVdirsVdirsVdirsVdirsVdirsVdirsVdirsVdi&#xA;rsVdirsVdirsVS9zqQY+nE/E7gmRDT23U5kDg6n7C0Hj6D7V5l1H0+IgPJq/HzSq7/IDI8ML5/YU&#xA;3OuX3NOdS4Kqq1aCr8o61ruDUEfhhHB+LU8f4p3LUhHx9Ms3XmWQe1KUpjUL5/etzr+xdGdQbkXB&#xA;SnIqAUIPgvTAeDokcfVYp1MUqjMehBaMDtvsMJ4PxbEcf4psPqILN6TN3CFkAP0jfGod/wB6bn3f&#xA;csU6uQKoy9a/HGenb7OSPh/i2I8T8UqBtRoPgbpvUx9foGQqH4tlc/xS31NV+FRBSlQXLoevQkU7&#xA;Yax96Ln3Lp/rzEFY2FBQhHQA79dwcY8Hf9iZcXc0ovmdVZHVeVTIJE2B3pQLvTE8NfsUcV/tadtT&#xA;LvRGVRy4gNHv4dVxAh+LQTP8UujfUijh4yGoCp5J1ruOnhgIhex+9IM63CmX1bekbdaghovDp08c&#xA;lWPv+9jeTu+5svq3FT6RqCaqGjG3XqQfljWPv+9Nz7vubL6maqISO6uHTw6bjpXBUO/71ufc0p1U&#xA;caqzctmJMfw79RQCu2E+H+LUcf4pwOq1b4GAHQlo9ztv0x/d/i19f4pUZ9Q40WI17nkv8ciBDvZE&#xA;y7lnLUw9fTJWnTklOnyrXDUK5/exud8lznUqtwU0NOO6bV+Y7Yjg/FpPG5G1EGrRFvYunifADARD&#xA;vUGfc07amW2Sg6bFKeFdwcIEFJm5X1IuEaIhRt6gdK9tyKHEiHf96gz7nB9S4hRGa13Yslf1U/DG&#xA;od/3rc+5r1NU5A+jWgJ480oT2HjjWPvRc+5tX1MsCYqA0+EspA+dKHEiHekGfc3/ALkZGeoMHEfB&#xA;QowY/SKiuD0Dz+a+s+TlbUeLAxmtfhYslfnttiRDvUGfcuJu/SUekzOV3PqAEGp8KY+m+f2J9Vcv&#xA;tUFTUS1XSWgINBKlD49FByZMOlfIsAJ+fzCZZjOQ7FXYq7FXYq7FXYq7FXYq7FXYq7FUE9hOZOSX&#xA;ciqBspJO5698uGUVuA0nEb2JXtbTrbiOKZjJUcnck123p1pg4wTZGzLgIFAqf1W+4qPWqy/tVYVH&#xA;uN6/hkuOPcx4Jd6J4XH1fhzHrAfbA2qPnXK7F+TZRrzQo/SUZ/eTw7j4A21SOp2C5Z6DyBavWOZC&#xA;nE19zUPfQstQCBxr8htkiIVtEoBle8gjpY52YGOb0wOq8Qa/flMSBzDdIE8ih1g1TblcqN/iooO3&#xA;am2TModzWIz71eGK4RyZJvUWlAvELQ+NRkJSBGwpnEEcyrZBm7FXYq7FXYq7FXYq7FXYq7FXYq7F&#xA;XYq7FXYq7FXYq7FXYq7FXYq7FXYq7FXYq7FXYqpXFrb3AAmQOFrSte/yycZmPJjKAlzUf0Xp439I&#xA;Cnep7fTkvHn3sPBh3Kcz6R6zmRl9StH3b+GSiMlbcmMjjvduHT9PeroTIrCvHkSN+nT2xllmExxQ&#xA;KIihtrevABAxAO/fsNz75XKUpc2cYiPJRktLSWaryszmoCc6U3qQAPlkxkkBsGJhEncq1taRWwYR&#xA;luJNQpNQPlkJ5DLmyhAR5K2QZuxV2KuxV2KuxV2KuxV2KuxV2KuxV2KuxV2KuxV2KuxV2KuxV2Ku&#xA;xV2KuxV2KuxVxpTfpiqw+j6i14+pT4elae2HekbWuHGp40rX4qePvilJb/8AR/qP9Y9f1KjnTjX2&#xA;zMxcdbU4eTgve1S2/Rn12P6t6vPbhT7NKb/a+LIz4+E8VMocHFtab5iOU7FXYq7FXYq7FXYq7FXY&#xA;q7FX/9k=</xmpGImg:image>
               </rdf:li>
            </rdf:Alt>
         </xmp:Thumbnails>
         <xmpMM:RenditionClass>proof:pdf</xmpMM:RenditionClass>
         <xmpMM:OriginalDocumentID>uuid:65E6390686CF11DBA6E2D887CEACB407</xmpMM:OriginalDocumentID>
         <xmpMM:DocumentID>xmp.did:caf37e73-a6b5-964d-9be3-e623b51bcc16</xmpMM:DocumentID>
         <xmpMM:InstanceID>xmp.iid:caf37e73-a6b5-964d-9be3-e623b51bcc16</xmpMM:InstanceID>
         <xmpMM:DerivedFrom rdf:parseType="Resource">
            <stRef:instanceID>xmp.iid:2c53e5a2-fe80-b44a-8aa4-21ea20129265</stRef:instanceID>
            <stRef:documentID>xmp.did:2c53e5a2-fe80-b44a-8aa4-21ea20129265</stRef:documentID>
            <stRef:originalDocumentID>uuid:65E6390686CF11DBA6E2D887CEACB407</stRef:originalDocumentID>
            <stRef:renditionClass>proof:pdf</stRef:renditionClass>
         </xmpMM:DerivedFrom>
         <xmpMM:History>
            <rdf:Seq>
               <rdf:li rdf:parseType="Resource">
                  <stEvt:action>saved</stEvt:action>
                  <stEvt:instanceID>xmp.iid:2c53e5a2-fe80-b44a-8aa4-21ea20129265</stEvt:instanceID>
                  <stEvt:when>2015-11-09T16:06:53+02:00</stEvt:when>
                  <stEvt:softwareAgent>Adobe Illustrator CC 2015 (Windows)</stEvt:softwareAgent>
                  <stEvt:changed>/</stEvt:changed>
               </rdf:li>
               <rdf:li rdf:parseType="Resource">
                  <stEvt:action>saved</stEvt:action>
                  <stEvt:instanceID>xmp.iid:caf37e73-a6b5-964d-9be3-e623b51bcc16</stEvt:instanceID>
                  <stEvt:when>2015-11-09T20:30:32+02:00</stEvt:when>
                  <stEvt:softwareAgent>Adobe Illustrator CC 2015 (Windows)</stEvt:softwareAgent>
                  <stEvt:changed>/</stEvt:changed>
               </rdf:li>
            </rdf:Seq>
         </xmpMM:History>
         <illustrator:StartupProfile>Web</illustrator:StartupProfile>
         <xmpTPg:NPages>1</xmpTPg:NPages>
         <xmpTPg:HasVisibleTransparency>False</xmpTPg:HasVisibleTransparency>
         <xmpTPg:HasVisibleOverprint>False</xmpTPg:HasVisibleOverprint>
         <xmpTPg:MaxPageSize rdf:parseType="Resource">
            <stDim:w>969.952353</stDim:w>
            <stDim:h>79.343972</stDim:h>
            <stDim:unit>Pixels</stDim:unit>
         </xmpTPg:MaxPageSize>
         <xmpTPg:Fonts>
            <rdf:Bag>
               <rdf:li rdf:parseType="Resource">
                  <stFnt:fontName>HelveticaRoundedLTStd-Bd</stFnt:fontName>
                  <stFnt:fontFamily>Helvetica Rounded LT Std</stFnt:fontFamily>
                  <stFnt:fontFace>Bold</stFnt:fontFace>
                  <stFnt:fontType>Open Type</stFnt:fontType>
                  <stFnt:versionString>OTF 1.029;PS 001.001;Core 1.0.33;makeotf.lib1.4.1585</stFnt:versionString>
                  <stFnt:composite>False</stFnt:composite>
                  <stFnt:fontFileName>HelveticaRoundedLTStd-Bd.otf</stFnt:fontFileName>
               </rdf:li>
            </rdf:Bag>
         </xmpTPg:Fonts>
         <xmpTPg:PlateNames>
            <rdf:Seq>
               <rdf:li>Cyan</rdf:li>
               <rdf:li>Magenta</rdf:li>
            </rdf:Seq>
         </xmpTPg:PlateNames>
         <xmpTPg:SwatchGroups>
            <rdf:Seq>
               <rdf:li rdf:parseType="Resource">
                  <xmpG:groupName>Default Swatch Group</xmpG:groupName>
                  <xmpG:groupType>0</xmpG:groupType>
                  <xmpG:Colorants>
                     <rdf:Seq>
                        <rdf:li rdf:parseType="Resource">
                           <xmpG:swatchName>White</xmpG:swatchName>
                           <xmpG:mode>RGB</xmpG:mode>
                           <xmpG:type>PROCESS</xmpG:type>
                           <xmpG:red>255</xmpG:red>
                           <xmpG:green>255</xmpG:green>
                           <xmpG:blue>255</xmpG:blue>
                        </rdf:li>
                        <rdf:li rdf:parseType="Resource">
                           <xmpG:swatchName>Black</xmpG:swatchName>
                           <xmpG:mode>RGB</xmpG:mode>
                           <xmpG:type>PROCESS</xmpG:type>
                           <xmpG:red>0</xmpG:red>
                           <xmpG:green>0</xmpG:green>
                           <xmpG:blue>0</xmpG:blue>
                        </rdf:li>
                        <rdf:li rdf:parseType="Resource">
                           <xmpG:swatchName>RGB Red</xmpG:swatchName>
                           <xmpG:mode>RGB</xmpG:mode>
                           <xmpG:type>PROCESS</xmpG:type>
                           <xmpG:red>255</xmpG:red>
                           <xmpG:green>0</xmpG:green>
                           <xmpG:blue>0</xmpG:blue>
                        </rdf:li>
                        <rdf:li rdf:parseType="Resource">
                           <xmpG:swatchName>RGB Yellow</xmpG:swatchName>
                           <xmpG:mode>RGB</xmpG:mode>
                           <xmpG:type>PROCESS</xmpG:type>
                           <xmpG:red>255</xmpG:red>
                           <xmpG:green>255</xmpG:green>
                           <xmpG:blue>0</xmpG:blue>
                        </rdf:li>
                        <rdf:li rdf:parseType="Resource">
                           <xmpG:swatchName>RGB Green</xmpG:swatchName>
                           <xmpG:mode>RGB</xmpG:mode>
                           <xmpG:type>PROCESS</xmpG:type>
                           <xmpG:red>0</xmpG:red>
                           <xmpG:green>255</xmpG:green>
                           <xmpG:blue>0</xmpG:blue>
                        </rdf:li>
                        <rdf:li rdf:parseType="Resource">
                           <xmpG:swatchName>RGB Cyan</xmpG:swatchName>
                           <xmpG:mode>RGB</xmpG:mode>
                           <xmpG:type>PROCESS</xmpG:type>
                           <xmpG:red>0</xmpG:red>
                           <xmpG:green>255</xmpG:green>
                           <xmpG:blue>255</xmpG:blue>
                        </rdf:li>
                        <rdf:li rdf:parseType="Resource">
                           <xmpG:swatchName>RGB Blue</xmpG:swatchName>
                           <xmpG:mode>RGB</xmpG:mode>
                           <xmpG:type>PROCESS</xmpG:type>
                           <xmpG:red>0</xmpG:red>
                           <xmpG:green>0</xmpG:green>
                           <xmpG:blue>255</xmpG:blue>
                        </rdf:li>
                        <rdf:li rdf:parseType="Resource">
                           <xmpG:swatchName>RGB Magenta</xmpG:swatchName>
                           <xmpG:mode>RGB</xmpG:mode>
                           <xmpG:type>PROCESS</xmpG:type>
                           <xmpG:red>255</xmpG:red>
                           <xmpG:green>0</xmpG:green>
                           <xmpG:blue>255</xmpG:blue>
                        </rdf:li>
                        <rdf:li rdf:parseType="Resource">
                           <xmpG:swatchName>R=193 G=39 B=45</xmpG:swatchName>
                           <xmpG:mode>RGB</xmpG:mode>
                           <xmpG:type>PROCESS</xmpG:type>
                           <xmpG:red>193</xmpG:red>
                           <xmpG:green>39</xmpG:green>
                           <xmpG:blue>45</xmpG:blue>
                        </rdf:li>
                        <rdf:li rdf:parseType="Resource">
                           <xmpG:swatchName>R=237 G=28 B=36</xmpG:swatchName>
                           <xmpG:mode>RGB</xmpG:mode>
                           <xmpG:type>PROCESS</xmpG:type>
                           <xmpG:red>237</xmpG:red>
                           <xmpG:green>28</xmpG:green>
                           <xmpG:blue>36</xmpG:blue>
                        </rdf:li>
                        <rdf:li rdf:parseType="Resource">
                           <xmpG:swatchName>R=241 G=90 B=36</xmpG:swatchName>
                           <xmpG:mode>RGB</xmpG:mode>
                           <xmpG:type>PROCESS</xmpG:type>
                           <xmpG:red>241</xmpG:red>
                           <xmpG:green>90</xmpG:green>
                           <xmpG:blue>36</xmpG:blue>
                        </rdf:li>
                        <rdf:li rdf:parseType="Resource">
                           <xmpG:swatchName>R=247 G=147 B=30</xmpG:swatchName>
                           <xmpG:mode>RGB</xmpG:mode>
                           <xmpG:type>PROCESS</xmpG:type>
                           <xmpG:red>247</xmpG:red>
                           <xmpG:green>147</xmpG:green>
                           <xmpG:blue>30</xmpG:blue>
                        </rdf:li>
                        <rdf:li rdf:parseType="Resource">
                           <xmpG:swatchName>R=251 G=176 B=59</xmpG:swatchName>
                           <xmpG:mode>RGB</xmpG:mode>
                           <xmpG:type>PROCESS</xmpG:type>
                           <xmpG:red>251</xmpG:red>
                           <xmpG:green>176</xmpG:green>
                           <xmpG:blue>59</xmpG:blue>
                        </rdf:li>
                        <rdf:li rdf:parseType="Resource">
                           <xmpG:swatchName>R=252 G=238 B=33</xmpG:swatchName>
                           <xmpG:mode>RGB</xmpG:mode>
                           <xmpG:type>PROCESS</xmpG:type>
                           <xmpG:red>252</xmpG:red>
                           <xmpG:green>238</xmpG:green>
                           <xmpG:blue>33</xmpG:blue>
                        </rdf:li>
                        <rdf:li rdf:parseType="Resource">
                           <xmpG:swatchName>R=217 G=224 B=33</xmpG:swatchName>
                           <xmpG:mode>RGB</xmpG:mode>
                           <xmpG:type>PROCESS</xmpG:type>
                           <xmpG:red>217</xmpG:red>
                           <xmpG:green>224</xmpG:green>
                           <xmpG:blue>33</xmpG:blue>
                        </rdf:li>
                        <rdf:li rdf:parseType="Resource">
                           <xmpG:swatchName>R=140 G=198 B=63</xmpG:swatchName>
                           <xmpG:mode>RGB</xmpG:mode>
                           <xmpG:type>PROCESS</xmpG:type>
                           <xmpG:red>140</xmpG:red>
                           <xmpG:green>198</xmpG:green>
                           <xmpG:blue>63</xmpG:blue>
                        </rdf:li>
                        <rdf:li rdf:parseType="Resource">
                           <xmpG:swatchName>R=57 G=181 B=74</xmpG:swatchName>
                           <xmpG:mode>RGB</xmpG:mode>
                           <xmpG:type>PROCESS</xmpG:type>
                           <xmpG:red>57</xmpG:red>
                           <xmpG:green>181</xmpG:green>
                           <xmpG:blue>74</xmpG:blue>
                        </rdf:li>
                        <rdf:li rdf:parseType="Resource">
                           <xmpG:swatchName>R=0 G=146 B=69</xmpG:swatchName>
                           <xmpG:mode>RGB</xmpG:mode>
                           <xmpG:type>PROCESS</xmpG:type>
                           <xmpG:red>0</xmpG:red>
                           <xmpG:green>146</xmpG:green>
                           <xmpG:blue>69</xmpG:blue>
                        </rdf:li>
                        <rdf:li rdf:parseType="Resource">
                           <xmpG:swatchName>R=0 G=104 B=55</xmpG:swatchName>
                           <xmpG:mode>RGB</xmpG:mode>
                           <xmpG:type>PROCESS</xmpG:type>
                           <xmpG:red>0</xmpG:red>
                           <xmpG:green>104</xmpG:green>
                           <xmpG:blue>55</xmpG:blue>
                        </rdf:li>
                        <rdf:li rdf:parseType="Resource">
                           <xmpG:swatchName>R=34 G=181 B=115</xmpG:swatchName>
                           <xmpG:mode>RGB</xmpG:mode>
                           <xmpG:type>PROCESS</xmpG:type>
                           <xmpG:red>34</xmpG:red>
                           <xmpG:green>181</xmpG:green>
                           <xmpG:blue>115</xmpG:blue>
                        </rdf:li>
                        <rdf:li rdf:parseType="Resource">
                           <xmpG:swatchName>R=0 G=169 B=157</xmpG:swatchName>
                           <xmpG:mode>RGB</xmpG:mode>
                           <xmpG:type>PROCESS</xmpG:type>
                           <xmpG:red>0</xmpG:red>
                           <xmpG:green>169</xmpG:green>
                           <xmpG:blue>157</xmpG:blue>
                        </rdf:li>
                        <rdf:li rdf:parseType="Resource">
                           <xmpG:swatchName>R=41 G=171 B=226</xmpG:swatchName>
                           <xmpG:mode>RGB</xmpG:mode>
                           <xmpG:type>PROCESS</xmpG:type>
                           <xmpG:red>41</xmpG:red>
                           <xmpG:green>171</xmpG:green>
                           <xmpG:blue>226</xmpG:blue>
                        </rdf:li>
                        <rdf:li rdf:parseType="Resource">
                           <xmpG:swatchName>R=0 G=113 B=188</xmpG:swatchName>
                           <xmpG:mode>RGB</xmpG:mode>
                           <xmpG:type>PROCESS</xmpG:type>
                           <xmpG:red>0</xmpG:red>
                           <xmpG:green>113</xmpG:green>
                           <xmpG:blue>188</xmpG:blue>
                        </rdf:li>
                        <rdf:li rdf:parseType="Resource">
                           <xmpG:swatchName>R=46 G=49 B=146</xmpG:swatchName>
                           <xmpG:mode>RGB</xmpG:mode>
                           <xmpG:type>PROCESS</xmpG:type>
                           <xmpG:red>46</xmpG:red>
                           <xmpG:green>49</xmpG:green>
                           <xmpG:blue>146</xmpG:blue>
                        </rdf:li>
                        <rdf:li rdf:parseType="Resource">
                           <xmpG:swatchName>R=27 G=20 B=100</xmpG:swatchName>
                           <xmpG:mode>RGB</xmpG:mode>
                           <xmpG:type>PROCESS</xmpG:type>
                           <xmpG:red>27</xmpG:red>
                           <xmpG:green>20</xmpG:green>
                           <xmpG:blue>100</xmpG:blue>
                        </rdf:li>
                        <rdf:li rdf:parseType="Resource">
                           <xmpG:swatchName>R=102 G=45 B=145</xmpG:swatchName>
                           <xmpG:mode>RGB</xmpG:mode>
                           <xmpG:type>PROCESS</xmpG:type>
                           <xmpG:red>102</xmpG:red>
                           <xmpG:green>45</xmpG:green>
                           <xmpG:blue>145</xmpG:blue>
                        </rdf:li>
                        <rdf:li rdf:parseType="Resource">
                           <xmpG:swatchName>R=147 G=39 B=143</xmpG:swatchName>
                           <xmpG:mode>RGB</xmpG:mode>
                           <xmpG:type>PROCESS</xmpG:type>
                           <xmpG:red>147</xmpG:red>
                           <xmpG:green>39</xmpG:green>
                           <xmpG:blue>143</xmpG:blue>
                        </rdf:li>
                        <rdf:li rdf:parseType="Resource">
                           <xmpG:swatchName>R=158 G=0 B=93</xmpG:swatchName>
                           <xmpG:mode>RGB</xmpG:mode>
                           <xmpG:type>PROCESS</xmpG:type>
                           <xmpG:red>158</xmpG:red>
                           <xmpG:green>0</xmpG:green>
                           <xmpG:blue>93</xmpG:blue>
                        </rdf:li>
                        <rdf:li rdf:parseType="Resource">
                           <xmpG:swatchName>R=212 G=20 B=90</xmpG:swatchName>
                           <xmpG:mode>RGB</xmpG:mode>
                           <xmpG:type>PROCESS</xmpG:type>
                           <xmpG:red>212</xmpG:red>
                           <xmpG:green>20</xmpG:green>
                           <xmpG:blue>90</xmpG:blue>
                        </rdf:li>
                        <rdf:li rdf:parseType="Resource">
                           <xmpG:swatchName>R=237 G=30 B=121</xmpG:swatchName>
                           <xmpG:mode>RGB</xmpG:mode>
                           <xmpG:type>PROCESS</xmpG:type>
                           <xmpG:red>237</xmpG:red>
                           <xmpG:green>30</xmpG:green>
                           <xmpG:blue>121</xmpG:blue>
                        </rdf:li>
                        <rdf:li rdf:parseType="Resource">
                           <xmpG:swatchName>R=199 G=178 B=153</xmpG:swatchName>
                           <xmpG:mode>RGB</xmpG:mode>
                           <xmpG:type>PROCESS</xmpG:type>
                           <xmpG:red>199</xmpG:red>
                           <xmpG:green>178</xmpG:green>
                           <xmpG:blue>153</xmpG:blue>
                        </rdf:li>
                        <rdf:li rdf:parseType="Resource">
                           <xmpG:swatchName>R=153 G=134 B=117</xmpG:swatchName>
                           <xmpG:mode>RGB</xmpG:mode>
                           <xmpG:type>PROCESS</xmpG:type>
                           <xmpG:red>153</xmpG:red>
                           <xmpG:green>134</xmpG:green>
                           <xmpG:blue>117</xmpG:blue>
                        </rdf:li>
                        <rdf:li rdf:parseType="Resource">
                           <xmpG:swatchName>R=115 G=99 B=87</xmpG:swatchName>
                           <xmpG:mode>RGB</xmpG:mode>
                           <xmpG:type>PROCESS</xmpG:type>
                           <xmpG:red>115</xmpG:red>
                           <xmpG:green>99</xmpG:green>
                           <xmpG:blue>87</xmpG:blue>
                        </rdf:li>
                        <rdf:li rdf:parseType="Resource">
                           <xmpG:swatchName>R=83 G=71 B=65</xmpG:swatchName>
                           <xmpG:mode>RGB</xmpG:mode>
                           <xmpG:type>PROCESS</xmpG:type>
                           <xmpG:red>83</xmpG:red>
                           <xmpG:green>71</xmpG:green>
                           <xmpG:blue>65</xmpG:blue>
                        </rdf:li>
                        <rdf:li rdf:parseType="Resource">
                           <xmpG:swatchName>R=198 G=156 B=109</xmpG:swatchName>
                           <xmpG:mode>RGB</xmpG:mode>
                           <xmpG:type>PROCESS</xmpG:type>
                           <xmpG:red>198</xmpG:red>
                           <xmpG:green>156</xmpG:green>
                           <xmpG:blue>109</xmpG:blue>
                        </rdf:li>
                        <rdf:li rdf:parseType="Resource">
                           <xmpG:swatchName>R=166 G=124 B=82</xmpG:swatchName>
                           <xmpG:mode>RGB</xmpG:mode>
                           <xmpG:type>PROCESS</xmpG:type>
                           <xmpG:red>166</xmpG:red>
                           <xmpG:green>124</xmpG:green>
                           <xmpG:blue>82</xmpG:blue>
                        </rdf:li>
                        <rdf:li rdf:parseType="Resource">
                           <xmpG:swatchName>R=140 G=98 B=57</xmpG:swatchName>
                           <xmpG:mode>RGB</xmpG:mode>
                           <xmpG:type>PROCESS</xmpG:type>
                           <xmpG:red>140</xmpG:red>
                           <xmpG:green>98</xmpG:green>
                           <xmpG:blue>57</xmpG:blue>
                        </rdf:li>
                        <rdf:li rdf:parseType="Resource">
                           <xmpG:swatchName>R=117 G=76 B=36</xmpG:swatchName>
                           <xmpG:mode>RGB</xmpG:mode>
                           <xmpG:type>PROCESS</xmpG:type>
                           <xmpG:red>117</xmpG:red>
                           <xmpG:green>76</xmpG:green>
                           <xmpG:blue>36</xmpG:blue>
                        </rdf:li>
                        <rdf:li rdf:parseType="Resource">
                           <xmpG:swatchName>R=96 G=56 B=19</xmpG:swatchName>
                           <xmpG:mode>RGB</xmpG:mode>
                           <xmpG:type>PROCESS</xmpG:type>
                           <xmpG:red>96</xmpG:red>
                           <xmpG:green>56</xmpG:green>
                           <xmpG:blue>19</xmpG:blue>
                        </rdf:li>
                        <rdf:li rdf:parseType="Resource">
                           <xmpG:swatchName>R=66 G=33 B=11</xmpG:swatchName>
                           <xmpG:mode>RGB</xmpG:mode>
                           <xmpG:type>PROCESS</xmpG:type>
                           <xmpG:red>66</xmpG:red>
                           <xmpG:green>33</xmpG:green>
                           <xmpG:blue>11</xmpG:blue>
                        </rdf:li>
                     </rdf:Seq>
                  </xmpG:Colorants>
               </rdf:li>
               <rdf:li rdf:parseType="Resource">
                  <xmpG:groupName>Grays</xmpG:groupName>
                  <xmpG:groupType>1</xmpG:groupType>
                  <xmpG:Colorants>
                     <rdf:Seq>
                        <rdf:li rdf:parseType="Resource">
                           <xmpG:swatchName>R=0 G=0 B=0</xmpG:swatchName>
                           <xmpG:mode>RGB</xmpG:mode>
                           <xmpG:type>PROCESS</xmpG:type>
                           <xmpG:red>0</xmpG:red>
                           <xmpG:green>0</xmpG:green>
                           <xmpG:blue>0</xmpG:blue>
                        </rdf:li>
                        <rdf:li rdf:parseType="Resource">
                           <xmpG:swatchName>R=26 G=26 B=26</xmpG:swatchName>
                           <xmpG:mode>RGB</xmpG:mode>
                           <xmpG:type>PROCESS</xmpG:type>
                           <xmpG:red>26</xmpG:red>
                           <xmpG:green>26</xmpG:green>
                           <xmpG:blue>26</xmpG:blue>
                        </rdf:li>
                        <rdf:li rdf:parseType="Resource">
                           <xmpG:swatchName>R=51 G=51 B=51</xmpG:swatchName>
                           <xmpG:mode>RGB</xmpG:mode>
                           <xmpG:type>PROCESS</xmpG:type>
                           <xmpG:red>51</xmpG:red>
                           <xmpG:green>51</xmpG:green>
                           <xmpG:blue>51</xmpG:blue>
                        </rdf:li>
                        <rdf:li rdf:parseType="Resource">
                           <xmpG:swatchName>R=77 G=77 B=77</xmpG:swatchName>
                           <xmpG:mode>RGB</xmpG:mode>
                           <xmpG:type>PROCESS</xmpG:type>
                           <xmpG:red>77</xmpG:red>
                           <xmpG:green>77</xmpG:green>
                           <xmpG:blue>77</xmpG:blue>
                        </rdf:li>
                        <rdf:li rdf:parseType="Resource">
                           <xmpG:swatchName>R=102 G=102 B=102</xmpG:swatchName>
                           <xmpG:mode>RGB</xmpG:mode>
                           <xmpG:type>PROCESS</xmpG:type>
                           <xmpG:red>102</xmpG:red>
                           <xmpG:green>102</xmpG:green>
                           <xmpG:blue>102</xmpG:blue>
                        </rdf:li>
                        <rdf:li rdf:parseType="Resource">
                           <xmpG:swatchName>R=128 G=128 B=128</xmpG:swatchName>
                           <xmpG:mode>RGB</xmpG:mode>
                           <xmpG:type>PROCESS</xmpG:type>
                           <xmpG:red>128</xmpG:red>
                           <xmpG:green>128</xmpG:green>
                           <xmpG:blue>128</xmpG:blue>
                        </rdf:li>
                        <rdf:li rdf:parseType="Resource">
                           <xmpG:swatchName>R=153 G=153 B=153</xmpG:swatchName>
                           <xmpG:mode>RGB</xmpG:mode>
                           <xmpG:type>PROCESS</xmpG:type>
                           <xmpG:red>153</xmpG:red>
                           <xmpG:green>153</xmpG:green>
                           <xmpG:blue>153</xmpG:blue>
                        </rdf:li>
                        <rdf:li rdf:parseType="Resource">
                           <xmpG:swatchName>R=179 G=179 B=179</xmpG:swatchName>
                           <xmpG:mode>RGB</xmpG:mode>
                           <xmpG:type>PROCESS</xmpG:type>
                           <xmpG:red>179</xmpG:red>
                           <xmpG:green>179</xmpG:green>
                           <xmpG:blue>179</xmpG:blue>
                        </rdf:li>
                        <rdf:li rdf:parseType="Resource">
                           <xmpG:swatchName>R=204 G=204 B=204</xmpG:swatchName>
                           <xmpG:mode>RGB</xmpG:mode>
                           <xmpG:type>PROCESS</xmpG:type>
                           <xmpG:red>204</xmpG:red>
                           <xmpG:green>204</xmpG:green>
                           <xmpG:blue>204</xmpG:blue>
                        </rdf:li>
                        <rdf:li rdf:parseType="Resource">
                           <xmpG:swatchName>R=230 G=230 B=230</xmpG:swatchName>
                           <xmpG:mode>RGB</xmpG:mode>
                           <xmpG:type>PROCESS</xmpG:type>
                           <xmpG:red>230</xmpG:red>
                           <xmpG:green>230</xmpG:green>
                           <xmpG:blue>230</xmpG:blue>
                        </rdf:li>
                        <rdf:li rdf:parseType="Resource">
                           <xmpG:swatchName>R=242 G=242 B=242</xmpG:swatchName>
                           <xmpG:mode>RGB</xmpG:mode>
                           <xmpG:type>PROCESS</xmpG:type>
                           <xmpG:red>242</xmpG:red>
                           <xmpG:green>242</xmpG:green>
                           <xmpG:blue>242</xmpG:blue>
                        </rdf:li>
                     </rdf:Seq>
                  </xmpG:Colorants>
               </rdf:li>
               <rdf:li rdf:parseType="Resource">
                  <xmpG:groupName>Web Color Group</xmpG:groupName>
                  <xmpG:groupType>1</xmpG:groupType>
                  <xmpG:Colorants>
                     <rdf:Seq>
                        <rdf:li rdf:parseType="Resource">
                           <xmpG:swatchName>R=63 G=169 B=245</xmpG:swatchName>
                           <xmpG:mode>RGB</xmpG:mode>
                           <xmpG:type>PROCESS</xmpG:type>
                           <xmpG:red>63</xmpG:red>
                           <xmpG:green>169</xmpG:green>
                           <xmpG:blue>245</xmpG:blue>
                        </rdf:li>
                        <rdf:li rdf:parseType="Resource">
                           <xmpG:swatchName>R=122 G=201 B=67</xmpG:swatchName>
                           <xmpG:mode>RGB</xmpG:mode>
                           <xmpG:type>PROCESS</xmpG:type>
                           <xmpG:red>122</xmpG:red>
                           <xmpG:green>201</xmpG:green>
                           <xmpG:blue>67</xmpG:blue>
                        </rdf:li>
                        <rdf:li rdf:parseType="Resource">
                           <xmpG:swatchName>R=255 G=147 B=30</xmpG:swatchName>
                           <xmpG:mode>RGB</xmpG:mode>
                           <xmpG:type>PROCESS</xmpG:type>
                           <xmpG:red>255</xmpG:red>
                           <xmpG:green>147</xmpG:green>
                           <xmpG:blue>30</xmpG:blue>
                        </rdf:li>
                        <rdf:li rdf:parseType="Resource">
                           <xmpG:swatchName>R=255 G=29 B=37</xmpG:swatchName>
                           <xmpG:mode>RGB</xmpG:mode>
                           <xmpG:type>PROCESS</xmpG:type>
                           <xmpG:red>255</xmpG:red>
                           <xmpG:green>29</xmpG:green>
                           <xmpG:blue>37</xmpG:blue>
                        </rdf:li>
                        <rdf:li rdf:parseType="Resource">
                           <xmpG:swatchName>R=255 G=123 B=172</xmpG:swatchName>
                           <xmpG:mode>RGB</xmpG:mode>
                           <xmpG:type>PROCESS</xmpG:type>
                           <xmpG:red>255</xmpG:red>
                           <xmpG:green>123</xmpG:green>
                           <xmpG:blue>172</xmpG:blue>
                        </rdf:li>
                        <rdf:li rdf:parseType="Resource">
                           <xmpG:swatchName>R=189 G=204 B=212</xmpG:swatchName>
                           <xmpG:mode>RGB</xmpG:mode>
                           <xmpG:type>PROCESS</xmpG:type>
                           <xmpG:red>189</xmpG:red>
                           <xmpG:green>204</xmpG:green>
                           <xmpG:blue>212</xmpG:blue>
                        </rdf:li>
                     </rdf:Seq>
                  </xmpG:Colorants>
               </rdf:li>
            </rdf:Seq>
         </xmpTPg:SwatchGroups>
         <pdf:Producer>Adobe PDF library 10.01</pdf:Producer>
      </rdf:Description>
   </rdf:RDF>
</x:xmpmeta>
                                                                                                    
                                                                                                    
                                                                                                    
                                                                                                    
                                                                                                    
                                                                                                    
                                                                                                    
                                                                                                    
                                                                                                    
                                                                                                    
                                                                                                    
                                                                                                    
                                                                                                    
                                                                                                    
                                                                                                    
                                                                                                    
                                                                                                    
                                                                                                    
                                                                                                    
                                                                                                    
                           
<?xpacket end="w"?>
	</metadata>
<g>
	<g>
		<path fill="#2E9BFF" d="M44.2,68.7c-5.1,0-8.7-3.6-8.7-8.7V25.9h-8.3c-5.3,0-9-3.2-9-7.8s3.7-7.8,9-7.8h34.1c5.3,0,9,3.2,9,7.8
			s-3.7,7.8-9,7.8H53V60C53,65.2,49.4,68.7,44.2,68.7z"/>
		<path fill="#FFFFFF" d="M61.3,13.1c3.4,0,6.1,1.7,6.1,5s-2.7,5-6.1,5H50.1V60c0,3.5-2.3,5.9-5.9,5.9c-3.6,0-5.9-2.4-5.9-5.9V23.1
			H27.2c-3.4,0-6.1-1.7-6.1-5s2.7-5,6.1-5H61.3 M61.3,7.5H27.2c-6.8,0-11.8,4.5-11.8,10.6s5,10.6,11.8,10.6h5.5V60
			c0,6.7,4.9,11.6,11.6,11.6c6.7,0,11.6-4.9,11.6-11.6V28.7h5.5c6.8,0,11.8-4.5,11.8-10.6S68.1,7.5,61.3,7.5L61.3,7.5z"/>
	</g>
	<g>
		<path fill="#2E9BFF" d="M115.8,68.7c-5.1,0-8.7-3.6-8.7-8.7V45.6H91.3V60c0,5.1-3.6,8.7-8.7,8.7s-8.7-3.6-8.7-8.7V18.1
			c0-5.1,3.6-8.7,8.7-8.7s8.7,3.6,8.7,8.7V30h15.8V18.1c0-5.1,3.6-8.7,8.7-8.7s8.7,3.6,8.7,8.7V60C124.5,65.2,120.9,68.7,115.8,68.7
			z"/>
		<path fill="#FFFFFF" d="M115.8,12.2c3.6,0,5.9,2.4,5.9,5.9V60c0,3.5-2.3,5.9-5.9,5.9c-3.6,0-5.9-2.4-5.9-5.9V42.7H88.4V60
			c0,3.5-2.3,5.9-5.9,5.9c-3.6,0-5.9-2.4-5.9-5.9V18.1c0-3.5,2.3-5.9,5.9-5.9c3.6,0,5.9,2.4,5.9,5.9v14.7h21.5V18.1
			C109.9,14.6,112.2,12.2,115.8,12.2 M115.8,6.5c-6.7,0-11.6,4.9-11.6,11.6v9H94.1v-9c0-6.7-4.9-11.6-11.6-11.6s-11.6,4.9-11.6,11.6
			V60c0,6.7,4.9,11.6,11.6,11.6S94.1,66.7,94.1,60V48.4h10.1V60c0,6.7,4.9,11.6,11.6,11.6c6.7,0,11.6-4.9,11.6-11.6V18.1
			C127.4,11.4,122.5,6.5,115.8,6.5L115.8,6.5z"/>
	</g>
	<g>
		<path fill="#2E9BFF" d="M142.7,67.8c-6.3,0-9.7-3.5-9.7-9.7V20c0-6.3,3.5-9.7,9.7-9.7h27.7c7.7,0,8.8,4.8,8.8,7.6
			s-1.1,7.6-8.8,7.6h-20V31h17.2c7.3,0,8.4,4.6,8.4,7.4s-1.1,7.4-8.4,7.4h-17.2v6.9H171c7.7,0,8.8,4.8,8.8,7.6
			c0,2.8-1.1,7.6-8.8,7.6H142.7z"/>
		<path fill="#FFFFFF" d="M170.4,13.1c3.5,0,6,1,6,4.8s-2.5,4.8-6,4.8h-22.8v11.2h20c3.1,0,5.5,0.9,5.5,4.5s-2.4,4.5-5.5,4.5h-20
			v12.5H171c3.5,0,6,1,6,4.8s-2.5,4.8-6,4.8h-28.3c-4.2,0-6.9-1.7-6.9-6.9V20c0-5.3,2.7-6.9,6.9-6.9H170.4 M170.4,7.5h-27.7
			c-7.9,0-12.6,4.7-12.6,12.6v38c0,7.9,4.7,12.6,12.6,12.6H171c8.6,0,11.6-5.4,11.6-10.4c0-5-3.1-10.4-11.6-10.4h-17.7v-1.2h14.3
			c8.3,0,11.2-5.3,11.2-10.2c0-4.5-2.5-9.3-9.3-10.1h0.9c8.6,0,11.6-5.4,11.6-10.4S179,7.5,170.4,7.5L170.4,7.5z"/>
	</g>
	<g>
		<path fill="#2E9BFF" d="M226.3,68.7c-6,0-9.8-4.4-9.8-11.2c0-9.5-1.8-9.9-5.3-9.9h-8.8V60c0,5.1-3.6,8.7-8.7,8.7s-8.7-3.6-8.7-8.7
			V20c0-6.3,3.5-9.7,9.7-9.7h19.7c19.1,0,20.6,13.2,20.6,17.2c0,5-2.1,9.5-5.4,12.3c3.6,3.2,3.6,8.4,3.6,10.8c0,3.3,0.5,5.2,1,6.9
			c0.3,1.2,0.6,2.4,0.6,3.7C234.7,65.9,230.3,68.7,226.3,68.7z M211.3,33.3c5.6,0,6.1-2,6.1-4.1c0-2.6-0.4-4.1-5.7-4.1h-9.3v8.3
			H211.3z"/>
		<path fill="#FFFFFF" d="M214.3,13.1c14,0,17.8,7.7,17.8,14.4c0,5.6-3.3,11.2-8.9,12.5v0.1c6,0.9,7.1,5.3,7.1,10.5
			c0,6,1.6,8.2,1.6,10.7c0,2.7-2.8,4.6-5.5,4.6c-6.5,0-7-6.3-7-8.4c0-9.1-1.7-12.7-8.1-12.7h-11.7V60c0,3.5-2.3,5.9-5.9,5.9
			s-5.9-2.4-5.9-5.9V20c0-5.3,2.7-6.9,6.9-6.9H214.3 M199.5,36.2h11.8c4.5,0,8.9-1.2,8.9-7c0-5.5-3.4-7-8.6-7h-12.2V36.2 M214.3,7.5
			h-19.7c-7.9,0-12.6,4.7-12.6,12.6v40c0,6.7,4.9,11.6,11.6,11.6c6.7,0,11.6-4.9,11.6-11.6v-9.5h6c1,0,1.5,0.1,1.6,0.2
			c0.2,0.3,0.8,1.6,0.8,6.9c0,8.4,5.1,14,12.7,14c6.2,0,11.2-4.6,11.2-10.3c0-1.7-0.4-3.1-0.7-4.4c-0.4-1.6-0.9-3.3-0.9-6.2
			c0-4.4-0.9-8-2.6-10.6c2.8-3.3,4.4-7.7,4.4-12.5C237.7,17.8,231.6,7.5,214.3,7.5L214.3,7.5z M205.2,27.9h6.5
			c1.7,0,2.5,0.2,2.8,0.3c0,0.2,0.1,0.5,0.1,1c0,0.5-0.1,0.7-0.1,0.9c-0.2,0.1-1,0.5-3.2,0.5h-6.1V27.9L205.2,27.9z"/>
	</g>
	<g>
		<path fill="#2E9BFF" d="M251.1,67.8c-6.3,0-9.7-3.5-9.7-9.7V20c0-6.3,3.5-9.7,9.7-9.7h27.7c7.7,0,8.8,4.8,8.8,7.6
			s-1.1,7.6-8.8,7.6h-20V31h17.2c7.3,0,8.4,4.6,8.4,7.4s-1.1,7.4-8.4,7.4h-17.2v6.9h20.6c7.7,0,8.8,4.8,8.8,7.6
			c0,2.8-1.1,7.6-8.8,7.6H251.1z"/>
		<path fill="#FFFFFF" d="M278.9,13.1c3.5,0,6,1,6,4.8s-2.5,4.8-6,4.8H256v11.2h20c3.1,0,5.5,0.9,5.5,4.5s-2.4,4.5-5.5,4.5h-20v12.5
			h23.4c3.5,0,6,1,6,4.8s-2.5,4.8-6,4.8h-28.3c-4.2,0-6.9-1.7-6.9-6.9V20c0-5.3,2.7-6.9,6.9-6.9H278.9 M278.9,7.5h-27.7
			c-7.9,0-12.6,4.7-12.6,12.6v38c0,7.9,4.7,12.6,12.6,12.6h28.3c8.6,0,11.6-5.4,11.6-10.4c0-5-3.1-10.4-11.6-10.4h-17.7v-1.2h14.3
			c8.3,0,11.2-5.3,11.2-10.2c0-4.5-2.5-9.3-9.3-10.1h0.9c8.6,0,11.6-5.4,11.6-10.4S287.5,7.5,278.9,7.5L278.9,7.5z"/>
	</g>
	<g>
		<path fill="#2E9BFF" d="M337.6,68.7c-5.1,0-8.7-3.6-8.7-8.7V45.5l-14.1-23.4c-0.9-1.5-1.4-3.1-1.4-4.6c0-5.3,4.5-8.2,8.8-8.2
			c4.6,0,6.5,2.5,7.8,5l7.8,14.3l7.7-14.3c1.9-3.5,4.1-4.9,7.6-4.9c4.2,0,8.7,2.9,8.7,8.2c0,1.5-0.5,3-1.4,4.6l-14.1,23.4V60
			C346.4,65.2,342.8,68.7,337.6,68.7z"/>
		<path fill="#FFFFFF" d="M353.2,12.2c2.2,0,5.8,1.4,5.8,5.4c0,1.1-0.4,2.2-1,3.1l-14.5,24V60c0,3.5-2.3,5.9-5.9,5.9
			c-3.6,0-5.9-2.4-5.9-5.9V44.7l-14.5-24c-0.6-0.9-1-2-1-3.1c0-4,3.7-5.4,6-5.4c2.8,0,4.1,1.2,5.3,3.5l10.3,18.9l10.2-18.9
			C349.4,13.1,350.7,12.2,353.2,12.2 M353.2,6.5c-6,0-8.6,3.7-10.1,6.5l-5.2,9.7l-5.3-9.7c-1.5-2.8-4.2-6.4-10.3-6.4
			c-5.6,0-11.6,3.9-11.6,11.1c0,2,0.6,4.1,1.8,6L326,46.3V60c0,6.7,4.9,11.6,11.6,11.6s11.6-4.9,11.6-11.6V46.3l13.6-22.7
			c1.2-2,1.8-4,1.8-6C364.7,10.7,358.8,6.5,353.2,6.5L353.2,6.5z"/>
	</g>
	<g>
		<path fill="#2E9BFF" d="M391.9,69c-18.2,0-29-11.5-29-30.6c0-17.8,11.4-29.3,29-29.3c17.6,0,29,11.5,29,29.3
			C421,53.7,412,69,391.9,69z M391.9,24.2c-10.1,0-11.6,8.9-11.6,14.2c0,13.9,6.6,15.5,11.6,15.5c7.7,0,11.6-5.2,11.6-15.5
			C403.5,33.1,402,24.2,391.9,24.2z"/>
		<path fill="#FFFFFF" d="M391.9,11.9c17,0,26.2,11.3,26.2,26.5c0,14.6-8.5,27.8-26.2,27.8c-18.6,0-26.2-12.1-26.2-27.8
			C365.7,23.2,374.9,11.9,391.9,11.9 M391.9,56.7c10.7,0,14.4-8.4,14.4-18.3s-4.8-17-14.4-17c-9.7,0-14.4,7.1-14.4,17
			S380.8,56.7,391.9,56.7 M391.9,6.2c-9.7,0-17.9,3.2-23.6,9.3c-5.4,5.8-8.3,13.7-8.3,22.8c0,21,11.9,33.5,31.9,33.5
			c10,0,18.3-3.6,24.1-10.4c5-5.9,7.8-14.1,7.8-23c0-9.2-2.9-17.1-8.3-22.8C409.8,9.5,401.6,6.2,391.9,6.2L391.9,6.2z M391.9,51
			c-3.1,0-8.7,0-8.7-12.6c0-7.5,2.9-11.3,8.7-11.3c5.8,0,8.7,3.8,8.7,11.3C400.6,51,394.5,51,391.9,51L391.9,51z"/>
	</g>
	<g>
		<path fill="#2E9BFF" d="M452.2,69c-16.1,0-25.4-8.6-25.4-23.5V18.1c0-5.1,3.6-8.7,8.7-8.7s8.7,3.6,8.7,8.7v28.4
			c0,5.2,2.4,7.4,7.9,7.4c5.5,0,7.9-2.2,7.9-7.4V18.1c0-5.1,3.6-8.7,8.7-8.7s8.7,3.6,8.7,8.7v27.4C477.5,60.5,468.3,69,452.2,69z"/>
		<path fill="#FFFFFF" d="M468.8,12.2c3.6,0,5.9,2.4,5.9,5.9v27.4c0,14.3-8.8,20.7-22.5,20.7c-13.8,0-22.5-6.4-22.5-20.7V18.1
			c0-3.5,2.3-5.9,5.9-5.9c3.6,0,5.9,2.4,5.9,5.9v28.4c0,7.1,4,10.2,10.7,10.2c6.8,0,10.7-3.2,10.7-10.2V18.1
			C462.9,14.6,465.2,12.2,468.8,12.2 M468.8,6.5c-6.7,0-11.6,4.9-11.6,11.6v28.4c0,3.2-0.7,4.6-5.1,4.6c-4.4,0-5.1-1.3-5.1-4.6V18.1
			c0-6.7-4.9-11.6-11.6-11.6S424,11.4,424,18.1v27.4c0,8.6,2.7,15.3,8.1,20c4.9,4.2,11.7,6.4,20.1,6.4c8.5,0,15.2-2.1,20.1-6.4
			c5.4-4.6,8.1-11.3,8.1-20V18.1C480.4,11.4,475.5,6.5,468.8,6.5L468.8,6.5z"/>
	</g>
	<g>
		<path fill="#2E9BFF" d="M537.1,69c-17.6,0-28.1-11.2-28.1-30c0-18.5,11.4-30,29.8-30c14.8,0,22.9,9,22.9,15.3c0,4.9-3.3,8-8.4,8
			c-3.9,0-5.6-2.4-7-4.2c-1.6-2.1-2.9-3.9-8.2-3.9c-9.7,0-11.7,8.5-11.7,15.6c0,4.3,1.2,14.4,11.9,14.4c3.9,0,7.1-1.9,8.6-4.9h-4
			c-5,0-8.2-2.9-8.2-7.4c0-4.5,2.9-7.4,7.4-7.4h14.5c4.9,0,7.7,2.8,7.7,7.8V62c0,3.8-3,6.8-6.9,6.8c-3.7,0-5.5-1.8-6.5-4.1
			C547.2,67.6,542.6,69,537.1,69z"/>
		<path fill="#FFFFFF" d="M538.8,11.9c13.1,0,20.1,7.8,20.1,12.5c0,4.1-3,5.2-5.5,5.2c-5.8,0-3.7-8.1-15.2-8.1
			c-8.1,0-14.5,5.3-14.5,18.4c0,10.2,5,17.3,14.7,17.3c6.3,0,11.7-4.2,12.3-10.6h-7.7c-2.5,0-5.3-0.9-5.3-4.5c0-2.9,1.7-4.5,4.6-4.5
			h14.5c3.5,0,4.8,1.7,4.8,5V62c0,2.2-1.7,4-4,4c-3.4,0-4.3-2.1-5-6.7c-3.4,4.2-8.1,7-15.4,7c-18.3,0-25.3-12.6-25.3-27.1
			C511.8,21.6,522.7,11.9,538.8,11.9 M538.8,6.2c-19.8,0-32.7,12.9-32.7,32.8c0,20.2,11.9,32.8,30.9,32.8c5.1,0,9.4-1.1,13.2-3.3
			c1.6,1.7,3.8,3,7.3,3c5.4,0,9.7-4.2,9.7-9.6V42.4c0-4.9-2.3-8.5-6.2-9.9c2.2-1.9,3.5-4.8,3.5-8.2c0-4.3-2.8-9-7.4-12.5
			C553.7,9.3,547.8,6.2,538.8,6.2L538.8,6.2z M538.3,51.5c-6,0-9-3.9-9-11.6c0-12.8,6.7-12.8,8.9-12.8c3.9,0,4.6,0.9,6,2.8
			c0.4,0.5,0.9,1.2,1.6,1.9h-3.5c-6.1,0-10.3,4.2-10.3,10.2C531.9,46.6,534.4,50,538.3,51.5C538.3,51.5,538.3,51.5,538.3,51.5
			L538.3,51.5z"/>
	</g>
	<g>
		<path fill="#2E9BFF" d="M598.9,69c-18.2,0-29-11.5-29-30.6c0-17.8,11.4-29.3,29-29.3c17.6,0,29,11.5,29,29.3
			C628,53.7,619,69,598.9,69z M598.9,24.2c-10.1,0-11.6,8.9-11.6,14.2c0,13.9,6.6,15.5,11.6,15.5c7.7,0,11.6-5.2,11.6-15.5
			C610.5,33.1,609,24.2,598.9,24.2z"/>
		<path fill="#FFFFFF" d="M598.9,11.9c17,0,26.2,11.3,26.2,26.5c0,14.6-8.5,27.8-26.2,27.8c-18.6,0-26.2-12.1-26.2-27.8
			C572.7,23.2,581.9,11.9,598.9,11.9 M598.9,56.7c10.7,0,14.4-8.4,14.4-18.3s-4.8-17-14.4-17c-9.7,0-14.4,7.1-14.4,17
			S587.8,56.7,598.9,56.7 M598.9,6.2c-9.7,0-17.9,3.2-23.6,9.3c-5.4,5.8-8.3,13.7-8.3,22.8c0,21,11.9,33.5,31.9,33.5
			c10,0,18.3-3.6,24.1-10.4c5-5.9,7.8-14.1,7.8-23c0-9.2-2.9-17.1-8.3-22.8C616.8,9.5,608.6,6.2,598.9,6.2L598.9,6.2z M598.9,51
			c-3.1,0-8.7,0-8.7-12.6c0-7.5,2.9-11.3,8.7-11.3c5.8,0,8.7,3.8,8.7,11.3C607.6,51,601.5,51,598.9,51L598.9,51z"/>
	</g>
</g>
</svg>
