<?xml version="1.0" encoding="utf-8"?>
<!-- Generator: Adobe Illustrator 19.1.0, SVG Export Plug-In . SVG Version: 6.00 Build 0)  -->
<svg version="1.0" id="Layer_1" xmlns="http://www.w3.org/2000/svg" xmlns:xlink="http://www.w3.org/1999/xlink" x="0px" y="0px"
	 width="730.3px" height="78px" viewBox="0 0 730.3 78" enable-background="new 0 0 730.3 78" xml:space="preserve">
<metadata><?xpacket begin="﻿" id="W5M0MpCehiHzreSzNTczkc9d"?>
<x:xmpmeta xmlns:x="adobe:ns:meta/" x:xmptk="Adobe XMP Core 5.6-c067 79.157747, 2015/03/30-23:40:42        ">
   <rdf:RDF xmlns:rdf="http://www.w3.org/1999/02/22-rdf-syntax-ns#">
      <rdf:Description rdf:about=""
            xmlns:dc="http://purl.org/dc/elements/1.1/"
            xmlns:xmp="http://ns.adobe.com/xap/1.0/"
            xmlns:xmpGImg="http://ns.adobe.com/xap/1.0/g/img/"
            xmlns:xmpMM="http://ns.adobe.com/xap/1.0/mm/"
            xmlns:stRef="http://ns.adobe.com/xap/1.0/sType/ResourceRef#"
            xmlns:stEvt="http://ns.adobe.com/xap/1.0/sType/ResourceEvent#"
            xmlns:illustrator="http://ns.adobe.com/illustrator/1.0/"
            xmlns:xmpTPg="http://ns.adobe.com/xap/1.0/t/pg/"
            xmlns:stDim="http://ns.adobe.com/xap/1.0/sType/Dimensions#"
            xmlns:stFnt="http://ns.adobe.com/xap/1.0/sType/Font#"
            xmlns:xmpG="http://ns.adobe.com/xap/1.0/g/"
            xmlns:pdf="http://ns.adobe.com/pdf/1.3/">
         <dc:format>image/svg+xml</dc:format>
         <dc:title>
            <rdf:Alt>
               <rdf:li xml:lang="x-default">Web</rdf:li>
            </rdf:Alt>
         </dc:title>
         <xmp:CreatorTool>Adobe Illustrator CC 2015 (Windows)</xmp:CreatorTool>
         <xmp:CreateDate>2015-11-09T20:30:32+02:00</xmp:CreateDate>
         <xmp:ModifyDate>2015-11-09T20:30:32+02:00</xmp:ModifyDate>
         <xmp:MetadataDate>2015-11-09T20:30:32+02:00</xmp:MetadataDate>
         <xmp:Thumbnails>
            <rdf:Alt>
               <rdf:li rdf:parseType="Resource">
                  <xmpGImg:width>256</xmpGImg:width>
                  <xmpGImg:height>132</xmpGImg:height>
                  <xmpGImg:format>JPEG</xmpGImg:format>
                  <xmpGImg:image>/9j/4AAQSkZJRgABAgEASABIAAD/7QAsUGhvdG9zaG9wIDMuMAA4QklNA+0AAAAAABAASAAAAAEA&#xA;AQBIAAAAAQAB/+4ADkFkb2JlAGTAAAAAAf/bAIQABgQEBAUEBgUFBgkGBQYJCwgGBggLDAoKCwoK&#xA;DBAMDAwMDAwQDA4PEA8ODBMTFBQTExwbGxscHx8fHx8fHx8fHwEHBwcNDA0YEBAYGhURFRofHx8f&#xA;Hx8fHx8fHx8fHx8fHx8fHx8fHx8fHx8fHx8fHx8fHx8fHx8fHx8fHx8fHx8f/8AAEQgAhAEAAwER&#xA;AAIRAQMRAf/EAaIAAAAHAQEBAQEAAAAAAAAAAAQFAwIGAQAHCAkKCwEAAgIDAQEBAQEAAAAAAAAA&#xA;AQACAwQFBgcICQoLEAACAQMDAgQCBgcDBAIGAnMBAgMRBAAFIRIxQVEGE2EicYEUMpGhBxWxQiPB&#xA;UtHhMxZi8CRygvElQzRTkqKyY3PCNUQnk6OzNhdUZHTD0uIIJoMJChgZhJRFRqS0VtNVKBry4/PE&#xA;1OT0ZXWFlaW1xdXl9WZ2hpamtsbW5vY3R1dnd4eXp7fH1+f3OEhYaHiImKi4yNjo+Ck5SVlpeYmZ&#xA;qbnJ2en5KjpKWmp6ipqqusra6voRAAICAQIDBQUEBQYECAMDbQEAAhEDBCESMUEFURNhIgZxgZEy&#xA;obHwFMHR4SNCFVJicvEzJDRDghaSUyWiY7LCB3PSNeJEgxdUkwgJChgZJjZFGidkdFU38qOzwygp&#xA;0+PzhJSktMTU5PRldYWVpbXF1eX1RlZmdoaWprbG1ub2R1dnd4eXp7fH1+f3OEhYaHiImKi4yNjo&#xA;+DlJWWl5iZmpucnZ6fkqOkpaanqKmqq6ytrq+v/aAAwDAQACEQMRAD8A9U4q7FXYq7FXYq7FXYq7&#xA;FXYq7FXYq7FXYqk723lDS5PTki0+xklUtwZYYWZIwSTQ8ahRX5ZmCeoyiwZyr3lxDDBjNEQjfuCO&#xA;stN0q2YzWVrBA0iqpkhjRCyKKKKqBUAdMoyZsktpEmu8t2PFCO8QB7gisqbXYq7FXYq7FXYq7FXY&#xA;q7FXYq7FXYq7FXYq7FXYq7FXYq7FXYq7FXYq7FXYq7FXYq7FXYq7FXYq7FXYq7FXYq7FXYq7FXYq&#xA;7FXYq7FXYq7FXYq7FXYq7FXYq7FXYq7FXYq7FXYq7FXYq7FXYq7FXYq7FXYqslaRUrGgdv5SeP40&#xA;OGIHVBJ6IaO+uHG9pIrdgdh0Pc++WnGB/EGsZCeiLUkqCRQkbjrTKS2hvFXYqpRuxuZlJPFQlB8w&#xA;cmR6QwB3KrkGbsVdirsVdirsVdirsVdirsVdirsVdirsVdirsVdirsVdirsVdirsVdirsVdirsVd&#xA;irsVdirsVdirqCtabnvirsVdirsVdirsVdirsVdirsVdirsVdirsVdirsVdirsVdirsVdirsVdir&#xA;sVdirsVdirsVdirsVdirsVdirsVdirsVdirsVdirsVdirsVdirsVdirsVdirsVdirsVdirsVdirs&#xA;VdirsVdirsVdirsVdirsVdirsVdirsVdirsVdirsVdirsVdirsVdirsVdirsVdirsVdirsVdirsV&#xA;dirsVdirsVdirsVdirsVdirsVdirsVdirsVdirsVdirsVdirsVdirsVdirsVdirsVdirsVdirsVd&#xA;irsVdirsVdirsVdirsVdirsVdirsVdirsVdirsVdirsVdirsVdirsVdirsVdirsVdirsVdirsVdi&#xA;rsVdirsVdirsVdirsVdirsVdirsVdirsVdirsVdirsVdirsVdirsVdirsVdirsVdirsVdirsVdir&#xA;sVdirsVdirsVdirsVdirsVdirsVdirsVdirsVdirsVdirsVdirsVdirsVdirsVdirsVdirsVdirs&#xA;VdirsVdirsVdirsVdirsVdirsVdirsVdirsVdirsVdirsVdirsVdirsVdirsVdirsVdirsVdirsV&#xA;dirsVdirsVdirsVdirsVdirsVdirsVdirsVdirsVdirsVdirsVdirsVdirsVdirsVdirsVdirsVd&#xA;irsVdirsVdirsVdirsVdirsVdirsVdirsVdirsVdirsVdirsVdirsVdirsVdirsVdirsVdirsVdi&#xA;rsVdirsVdirsVS9zqQY+nE/E7gmRDT23U5kDg6n7C0Hj6D7V5l1H0+IgPJq/HzSq7/IDI8ML5/YU&#xA;3OuX3NOdS4Kqq1aCr8o61ruDUEfhhHB+LU8f4p3LUhHx9Ms3XmWQe1KUpjUL5/etzr+xdGdQbkXB&#xA;SnIqAUIPgvTAeDokcfVYp1MUqjMehBaMDtvsMJ4PxbEcf4psPqILN6TN3CFkAP0jfGod/wB6bn3f&#xA;csU6uQKoy9a/HGenb7OSPh/i2I8T8UqBtRoPgbpvUx9foGQqH4tlc/xS31NV+FRBSlQXLoevQkU7&#xA;Yax96Ln3Lp/rzEFY2FBQhHQA79dwcY8Hf9iZcXc0ovmdVZHVeVTIJE2B3pQLvTE8NfsUcV/tadtT&#xA;LvRGVRy4gNHv4dVxAh+LQTP8UujfUijh4yGoCp5J1ruOnhgIhex+9IM63CmX1bekbdaghovDp08c&#xA;lWPv+9jeTu+5svq3FT6RqCaqGjG3XqQfljWPv+9Nz7vubL6maqISO6uHTw6bjpXBUO/71ufc0p1U&#xA;caqzctmJMfw79RQCu2E+H+LUcf4pwOq1b4GAHQlo9ztv0x/d/i19f4pUZ9Q40WI17nkv8ciBDvZE&#xA;y7lnLUw9fTJWnTklOnyrXDUK5/exud8lznUqtwU0NOO6bV+Y7Yjg/FpPG5G1EGrRFvYunifADARD&#xA;vUGfc07amW2Sg6bFKeFdwcIEFJm5X1IuEaIhRt6gdK9tyKHEiHf96gz7nB9S4hRGa13Yslf1U/DG&#xA;od/3rc+5r1NU5A+jWgJ480oT2HjjWPvRc+5tX1MsCYqA0+EspA+dKHEiHekGfc3/ALkZGeoMHEfB&#xA;QowY/SKiuD0Dz+a+s+TlbUeLAxmtfhYslfnttiRDvUGfcuJu/SUekzOV3PqAEGp8KY+m+f2J9Vcv&#xA;tUFTUS1XSWgINBKlD49FByZMOlfIsAJ+fzCZZjOQ7FXYq7FXYq7FXYq7FXYq7FXYq7FUE9hOZOSX&#xA;ciqBspJO5698uGUVuA0nEb2JXtbTrbiOKZjJUcnck123p1pg4wTZGzLgIFAqf1W+4qPWqy/tVYVH&#xA;uN6/hkuOPcx4Jd6J4XH1fhzHrAfbA2qPnXK7F+TZRrzQo/SUZ/eTw7j4A21SOp2C5Z6DyBavWOZC&#xA;nE19zUPfQstQCBxr8htkiIVtEoBle8gjpY52YGOb0wOq8Qa/flMSBzDdIE8ih1g1TblcqN/iooO3&#xA;am2TModzWIz71eGK4RyZJvUWlAvELQ+NRkJSBGwpnEEcyrZBm7FXYq7FXYq7FXYq7FXYq7FXYq7F&#xA;XYq7FXYq7FXYq7FXYq7FXYq7FXYq7FXYq7FXYqpXFrb3AAmQOFrSte/yycZmPJjKAlzUf0Xp439I&#xA;Cnep7fTkvHn3sPBh3Kcz6R6zmRl9StH3b+GSiMlbcmMjjvduHT9PeroTIrCvHkSN+nT2xllmExxQ&#xA;KIihtrevABAxAO/fsNz75XKUpc2cYiPJRktLSWaryszmoCc6U3qQAPlkxkkBsGJhEncq1taRWwYR&#xA;luJNQpNQPlkJ5DLmyhAR5K2QZuxV2KuxV2KuxV2KuxV2KuxV2KuxV2KuxV2KuxV2KuxV2KuxV2Ku&#xA;xV2KuxV2KuxVxpTfpiqw+j6i14+pT4elae2HekbWuHGp40rX4qePvilJb/8AR/qP9Y9f1KjnTjX2&#xA;zMxcdbU4eTgve1S2/Rn12P6t6vPbhT7NKb/a+LIz4+E8VMocHFtab5iOU7FXYq7FXYq7FXYq7FXY&#xA;q7FX/9k=</xmpGImg:image>
               </rdf:li>
            </rdf:Alt>
         </xmp:Thumbnails>
         <xmpMM:RenditionClass>proof:pdf</xmpMM:RenditionClass>
         <xmpMM:OriginalDocumentID>uuid:65E6390686CF11DBA6E2D887CEACB407</xmpMM:OriginalDocumentID>
         <xmpMM:DocumentID>xmp.did:caf37e73-a6b5-964d-9be3-e623b51bcc16</xmpMM:DocumentID>
         <xmpMM:InstanceID>xmp.iid:caf37e73-a6b5-964d-9be3-e623b51bcc16</xmpMM:InstanceID>
         <xmpMM:DerivedFrom rdf:parseType="Resource">
            <stRef:instanceID>xmp.iid:2c53e5a2-fe80-b44a-8aa4-21ea20129265</stRef:instanceID>
            <stRef:documentID>xmp.did:2c53e5a2-fe80-b44a-8aa4-21ea20129265</stRef:documentID>
            <stRef:originalDocumentID>uuid:65E6390686CF11DBA6E2D887CEACB407</stRef:originalDocumentID>
            <stRef:renditionClass>proof:pdf</stRef:renditionClass>
         </xmpMM:DerivedFrom>
         <xmpMM:History>
            <rdf:Seq>
               <rdf:li rdf:parseType="Resource">
                  <stEvt:action>saved</stEvt:action>
                  <stEvt:instanceID>xmp.iid:2c53e5a2-fe80-b44a-8aa4-21ea20129265</stEvt:instanceID>
                  <stEvt:when>2015-11-09T16:06:53+02:00</stEvt:when>
                  <stEvt:softwareAgent>Adobe Illustrator CC 2015 (Windows)</stEvt:softwareAgent>
                  <stEvt:changed>/</stEvt:changed>
               </rdf:li>
               <rdf:li rdf:parseType="Resource">
                  <stEvt:action>saved</stEvt:action>
                  <stEvt:instanceID>xmp.iid:caf37e73-a6b5-964d-9be3-e623b51bcc16</stEvt:instanceID>
                  <stEvt:when>2015-11-09T20:30:32+02:00</stEvt:when>
                  <stEvt:softwareAgent>Adobe Illustrator CC 2015 (Windows)</stEvt:softwareAgent>
                  <stEvt:changed>/</stEvt:changed>
               </rdf:li>
            </rdf:Seq>
         </xmpMM:History>
         <illustrator:StartupProfile>Web</illustrator:StartupProfile>
         <xmpTPg:NPages>1</xmpTPg:NPages>
         <xmpTPg:HasVisibleTransparency>False</xmpTPg:HasVisibleTransparency>
         <xmpTPg:HasVisibleOverprint>False</xmpTPg:HasVisibleOverprint>
         <xmpTPg:MaxPageSize rdf:parseType="Resource">
            <stDim:w>969.952353</stDim:w>
            <stDim:h>79.343972</stDim:h>
            <stDim:unit>Pixels</stDim:unit>
         </xmpTPg:MaxPageSize>
         <xmpTPg:Fonts>
            <rdf:Bag>
               <rdf:li rdf:parseType="Resource">
                  <stFnt:fontName>HelveticaRoundedLTStd-Bd</stFnt:fontName>
                  <stFnt:fontFamily>Helvetica Rounded LT Std</stFnt:fontFamily>
                  <stFnt:fontFace>Bold</stFnt:fontFace>
                  <stFnt:fontType>Open Type</stFnt:fontType>
                  <stFnt:versionString>OTF 1.029;PS 001.001;Core 1.0.33;makeotf.lib1.4.1585</stFnt:versionString>
                  <stFnt:composite>False</stFnt:composite>
                  <stFnt:fontFileName>HelveticaRoundedLTStd-Bd.otf</stFnt:fontFileName>
               </rdf:li>
            </rdf:Bag>
         </xmpTPg:Fonts>
         <xmpTPg:PlateNames>
            <rdf:Seq>
               <rdf:li>Cyan</rdf:li>
               <rdf:li>Magenta</rdf:li>
            </rdf:Seq>
         </xmpTPg:PlateNames>
         <xmpTPg:SwatchGroups>
            <rdf:Seq>
               <rdf:li rdf:parseType="Resource">
                  <xmpG:groupName>Default Swatch Group</xmpG:groupName>
                  <xmpG:groupType>0</xmpG:groupType>
                  <xmpG:Colorants>
                     <rdf:Seq>
                        <rdf:li rdf:parseType="Resource">
                           <xmpG:swatchName>White</xmpG:swatchName>
                           <xmpG:mode>RGB</xmpG:mode>
                           <xmpG:type>PROCESS</xmpG:type>
                           <xmpG:red>255</xmpG:red>
                           <xmpG:green>255</xmpG:green>
                           <xmpG:blue>255</xmpG:blue>
                        </rdf:li>
                        <rdf:li rdf:parseType="Resource">
                           <xmpG:swatchName>Black</xmpG:swatchName>
                           <xmpG:mode>RGB</xmpG:mode>
                           <xmpG:type>PROCESS</xmpG:type>
                           <xmpG:red>0</xmpG:red>
                           <xmpG:green>0</xmpG:green>
                           <xmpG:blue>0</xmpG:blue>
                        </rdf:li>
                        <rdf:li rdf:parseType="Resource">
                           <xmpG:swatchName>RGB Red</xmpG:swatchName>
                           <xmpG:mode>RGB</xmpG:mode>
                           <xmpG:type>PROCESS</xmpG:type>
                           <xmpG:red>255</xmpG:red>
                           <xmpG:green>0</xmpG:green>
                           <xmpG:blue>0</xmpG:blue>
                        </rdf:li>
                        <rdf:li rdf:parseType="Resource">
                           <xmpG:swatchName>RGB Yellow</xmpG:swatchName>
                           <xmpG:mode>RGB</xmpG:mode>
                           <xmpG:type>PROCESS</xmpG:type>
                           <xmpG:red>255</xmpG:red>
                           <xmpG:green>255</xmpG:green>
                           <xmpG:blue>0</xmpG:blue>
                        </rdf:li>
                        <rdf:li rdf:parseType="Resource">
                           <xmpG:swatchName>RGB Green</xmpG:swatchName>
                           <xmpG:mode>RGB</xmpG:mode>
                           <xmpG:type>PROCESS</xmpG:type>
                           <xmpG:red>0</xmpG:red>
                           <xmpG:green>255</xmpG:green>
                           <xmpG:blue>0</xmpG:blue>
                        </rdf:li>
                        <rdf:li rdf:parseType="Resource">
                           <xmpG:swatchName>RGB Cyan</xmpG:swatchName>
                           <xmpG:mode>RGB</xmpG:mode>
                           <xmpG:type>PROCESS</xmpG:type>
                           <xmpG:red>0</xmpG:red>
                           <xmpG:green>255</xmpG:green>
                           <xmpG:blue>255</xmpG:blue>
                        </rdf:li>
                        <rdf:li rdf:parseType="Resource">
                           <xmpG:swatchName>RGB Blue</xmpG:swatchName>
                           <xmpG:mode>RGB</xmpG:mode>
                           <xmpG:type>PROCESS</xmpG:type>
                           <xmpG:red>0</xmpG:red>
                           <xmpG:green>0</xmpG:green>
                           <xmpG:blue>255</xmpG:blue>
                        </rdf:li>
                        <rdf:li rdf:parseType="Resource">
                           <xmpG:swatchName>RGB Magenta</xmpG:swatchName>
                           <xmpG:mode>RGB</xmpG:mode>
                           <xmpG:type>PROCESS</xmpG:type>
                           <xmpG:red>255</xmpG:red>
                           <xmpG:green>0</xmpG:green>
                           <xmpG:blue>255</xmpG:blue>
                        </rdf:li>
                        <rdf:li rdf:parseType="Resource">
                           <xmpG:swatchName>R=193 G=39 B=45</xmpG:swatchName>
                           <xmpG:mode>RGB</xmpG:mode>
                           <xmpG:type>PROCESS</xmpG:type>
                           <xmpG:red>193</xmpG:red>
                           <xmpG:green>39</xmpG:green>
                           <xmpG:blue>45</xmpG:blue>
                        </rdf:li>
                        <rdf:li rdf:parseType="Resource">
                           <xmpG:swatchName>R=237 G=28 B=36</xmpG:swatchName>
                           <xmpG:mode>RGB</xmpG:mode>
                           <xmpG:type>PROCESS</xmpG:type>
                           <xmpG:red>237</xmpG:red>
                           <xmpG:green>28</xmpG:green>
                           <xmpG:blue>36</xmpG:blue>
                        </rdf:li>
                        <rdf:li rdf:parseType="Resource">
                           <xmpG:swatchName>R=241 G=90 B=36</xmpG:swatchName>
                           <xmpG:mode>RGB</xmpG:mode>
                           <xmpG:type>PROCESS</xmpG:type>
                           <xmpG:red>241</xmpG:red>
                           <xmpG:green>90</xmpG:green>
                           <xmpG:blue>36</xmpG:blue>
                        </rdf:li>
                        <rdf:li rdf:parseType="Resource">
                           <xmpG:swatchName>R=247 G=147 B=30</xmpG:swatchName>
                           <xmpG:mode>RGB</xmpG:mode>
                           <xmpG:type>PROCESS</xmpG:type>
                           <xmpG:red>247</xmpG:red>
                           <xmpG:green>147</xmpG:green>
                           <xmpG:blue>30</xmpG:blue>
                        </rdf:li>
                        <rdf:li rdf:parseType="Resource">
                           <xmpG:swatchName>R=251 G=176 B=59</xmpG:swatchName>
                           <xmpG:mode>RGB</xmpG:mode>
                           <xmpG:type>PROCESS</xmpG:type>
                           <xmpG:red>251</xmpG:red>
                           <xmpG:green>176</xmpG:green>
                           <xmpG:blue>59</xmpG:blue>
                        </rdf:li>
                        <rdf:li rdf:parseType="Resource">
                           <xmpG:swatchName>R=252 G=238 B=33</xmpG:swatchName>
                           <xmpG:mode>RGB</xmpG:mode>
                           <xmpG:type>PROCESS</xmpG:type>
                           <xmpG:red>252</xmpG:red>
                           <xmpG:green>238</xmpG:green>
                           <xmpG:blue>33</xmpG:blue>
                        </rdf:li>
                        <rdf:li rdf:parseType="Resource">
                           <xmpG:swatchName>R=217 G=224 B=33</xmpG:swatchName>
                           <xmpG:mode>RGB</xmpG:mode>
                           <xmpG:type>PROCESS</xmpG:type>
                           <xmpG:red>217</xmpG:red>
                           <xmpG:green>224</xmpG:green>
                           <xmpG:blue>33</xmpG:blue>
                        </rdf:li>
                        <rdf:li rdf:parseType="Resource">
                           <xmpG:swatchName>R=140 G=198 B=63</xmpG:swatchName>
                           <xmpG:mode>RGB</xmpG:mode>
                           <xmpG:type>PROCESS</xmpG:type>
                           <xmpG:red>140</xmpG:red>
                           <xmpG:green>198</xmpG:green>
                           <xmpG:blue>63</xmpG:blue>
                        </rdf:li>
                        <rdf:li rdf:parseType="Resource">
                           <xmpG:swatchName>R=57 G=181 B=74</xmpG:swatchName>
                           <xmpG:mode>RGB</xmpG:mode>
                           <xmpG:type>PROCESS</xmpG:type>
                           <xmpG:red>57</xmpG:red>
                           <xmpG:green>181</xmpG:green>
                           <xmpG:blue>74</xmpG:blue>
                        </rdf:li>
                        <rdf:li rdf:parseType="Resource">
                           <xmpG:swatchName>R=0 G=146 B=69</xmpG:swatchName>
                           <xmpG:mode>RGB</xmpG:mode>
                           <xmpG:type>PROCESS</xmpG:type>
                           <xmpG:red>0</xmpG:red>
                           <xmpG:green>146</xmpG:green>
                           <xmpG:blue>69</xmpG:blue>
                        </rdf:li>
                        <rdf:li rdf:parseType="Resource">
                           <xmpG:swatchName>R=0 G=104 B=55</xmpG:swatchName>
                           <xmpG:mode>RGB</xmpG:mode>
                           <xmpG:type>PROCESS</xmpG:type>
                           <xmpG:red>0</xmpG:red>
                           <xmpG:green>104</xmpG:green>
                           <xmpG:blue>55</xmpG:blue>
                        </rdf:li>
                        <rdf:li rdf:parseType="Resource">
                           <xmpG:swatchName>R=34 G=181 B=115</xmpG:swatchName>
                           <xmpG:mode>RGB</xmpG:mode>
                           <xmpG:type>PROCESS</xmpG:type>
                           <xmpG:red>34</xmpG:red>
                           <xmpG:green>181</xmpG:green>
                           <xmpG:blue>115</xmpG:blue>
                        </rdf:li>
                        <rdf:li rdf:parseType="Resource">
                           <xmpG:swatchName>R=0 G=169 B=157</xmpG:swatchName>
                           <xmpG:mode>RGB</xmpG:mode>
                           <xmpG:type>PROCESS</xmpG:type>
                           <xmpG:red>0</xmpG:red>
                           <xmpG:green>169</xmpG:green>
                           <xmpG:blue>157</xmpG:blue>
                        </rdf:li>
                        <rdf:li rdf:parseType="Resource">
                           <xmpG:swatchName>R=41 G=171 B=226</xmpG:swatchName>
                           <xmpG:mode>RGB</xmpG:mode>
                           <xmpG:type>PROCESS</xmpG:type>
                           <xmpG:red>41</xmpG:red>
                           <xmpG:green>171</xmpG:green>
                           <xmpG:blue>226</xmpG:blue>
                        </rdf:li>
                        <rdf:li rdf:parseType="Resource">
                           <xmpG:swatchName>R=0 G=113 B=188</xmpG:swatchName>
                           <xmpG:mode>RGB</xmpG:mode>
                           <xmpG:type>PROCESS</xmpG:type>
                           <xmpG:red>0</xmpG:red>
                           <xmpG:green>113</xmpG:green>
                           <xmpG:blue>188</xmpG:blue>
                        </rdf:li>
                        <rdf:li rdf:parseType="Resource">
                           <xmpG:swatchName>R=46 G=49 B=146</xmpG:swatchName>
                           <xmpG:mode>RGB</xmpG:mode>
                           <xmpG:type>PROCESS</xmpG:type>
                           <xmpG:red>46</xmpG:red>
                           <xmpG:green>49</xmpG:green>
                           <xmpG:blue>146</xmpG:blue>
                        </rdf:li>
                        <rdf:li rdf:parseType="Resource">
                           <xmpG:swatchName>R=27 G=20 B=100</xmpG:swatchName>
                           <xmpG:mode>RGB</xmpG:mode>
                           <xmpG:type>PROCESS</xmpG:type>
                           <xmpG:red>27</xmpG:red>
                           <xmpG:green>20</xmpG:green>
                           <xmpG:blue>100</xmpG:blue>
                        </rdf:li>
                        <rdf:li rdf:parseType="Resource">
                           <xmpG:swatchName>R=102 G=45 B=145</xmpG:swatchName>
                           <xmpG:mode>RGB</xmpG:mode>
                           <xmpG:type>PROCESS</xmpG:type>
                           <xmpG:red>102</xmpG:red>
                           <xmpG:green>45</xmpG:green>
                           <xmpG:blue>145</xmpG:blue>
                        </rdf:li>
                        <rdf:li rdf:parseType="Resource">
                           <xmpG:swatchName>R=147 G=39 B=143</xmpG:swatchName>
                           <xmpG:mode>RGB</xmpG:mode>
                           <xmpG:type>PROCESS</xmpG:type>
                           <xmpG:red>147</xmpG:red>
                           <xmpG:green>39</xmpG:green>
                           <xmpG:blue>143</xmpG:blue>
                        </rdf:li>
                        <rdf:li rdf:parseType="Resource">
                           <xmpG:swatchName>R=158 G=0 B=93</xmpG:swatchName>
                           <xmpG:mode>RGB</xmpG:mode>
                           <xmpG:type>PROCESS</xmpG:type>
                           <xmpG:red>158</xmpG:red>
                           <xmpG:green>0</xmpG:green>
                           <xmpG:blue>93</xmpG:blue>
                        </rdf:li>
                        <rdf:li rdf:parseType="Resource">
                           <xmpG:swatchName>R=212 G=20 B=90</xmpG:swatchName>
                           <xmpG:mode>RGB</xmpG:mode>
                           <xmpG:type>PROCESS</xmpG:type>
                           <xmpG:red>212</xmpG:red>
                           <xmpG:green>20</xmpG:green>
                           <xmpG:blue>90</xmpG:blue>
                        </rdf:li>
                        <rdf:li rdf:parseType="Resource">
                           <xmpG:swatchName>R=237 G=30 B=121</xmpG:swatchName>
                           <xmpG:mode>RGB</xmpG:mode>
                           <xmpG:type>PROCESS</xmpG:type>
                           <xmpG:red>237</xmpG:red>
                           <xmpG:green>30</xmpG:green>
                           <xmpG:blue>121</xmpG:blue>
                        </rdf:li>
                        <rdf:li rdf:parseType="Resource">
                           <xmpG:swatchName>R=199 G=178 B=153</xmpG:swatchName>
                           <xmpG:mode>RGB</xmpG:mode>
                           <xmpG:type>PROCESS</xmpG:type>
                           <xmpG:red>199</xmpG:red>
                           <xmpG:green>178</xmpG:green>
                           <xmpG:blue>153</xmpG:blue>
                        </rdf:li>
                        <rdf:li rdf:parseType="Resource">
                           <xmpG:swatchName>R=153 G=134 B=117</xmpG:swatchName>
                           <xmpG:mode>RGB</xmpG:mode>
                           <xmpG:type>PROCESS</xmpG:type>
                           <xmpG:red>153</xmpG:red>
                           <xmpG:green>134</xmpG:green>
                           <xmpG:blue>117</xmpG:blue>
                        </rdf:li>
                        <rdf:li rdf:parseType="Resource">
                           <xmpG:swatchName>R=115 G=99 B=87</xmpG:swatchName>
                           <xmpG:mode>RGB</xmpG:mode>
                           <xmpG:type>PROCESS</xmpG:type>
                           <xmpG:red>115</xmpG:red>
                           <xmpG:green>99</xmpG:green>
                           <xmpG:blue>87</xmpG:blue>
                        </rdf:li>
                        <rdf:li rdf:parseType="Resource">
                           <xmpG:swatchName>R=83 G=71 B=65</xmpG:swatchName>
                           <xmpG:mode>RGB</xmpG:mode>
                           <xmpG:type>PROCESS</xmpG:type>
                           <xmpG:red>83</xmpG:red>
                           <xmpG:green>71</xmpG:green>
                           <xmpG:blue>65</xmpG:blue>
                        </rdf:li>
                        <rdf:li rdf:parseType="Resource">
                           <xmpG:swatchName>R=198 G=156 B=109</xmpG:swatchName>
                           <xmpG:mode>RGB</xmpG:mode>
                           <xmpG:type>PROCESS</xmpG:type>
                           <xmpG:red>198</xmpG:red>
                           <xmpG:green>156</xmpG:green>
                           <xmpG:blue>109</xmpG:blue>
                        </rdf:li>
                        <rdf:li rdf:parseType="Resource">
                           <xmpG:swatchName>R=166 G=124 B=82</xmpG:swatchName>
                           <xmpG:mode>RGB</xmpG:mode>
                           <xmpG:type>PROCESS</xmpG:type>
                           <xmpG:red>166</xmpG:red>
                           <xmpG:green>124</xmpG:green>
                           <xmpG:blue>82</xmpG:blue>
                        </rdf:li>
                        <rdf:li rdf:parseType="Resource">
                           <xmpG:swatchName>R=140 G=98 B=57</xmpG:swatchName>
                           <xmpG:mode>RGB</xmpG:mode>
                           <xmpG:type>PROCESS</xmpG:type>
                           <xmpG:red>140</xmpG:red>
                           <xmpG:green>98</xmpG:green>
                           <xmpG:blue>57</xmpG:blue>
                        </rdf:li>
                        <rdf:li rdf:parseType="Resource">
                           <xmpG:swatchName>R=117 G=76 B=36</xmpG:swatchName>
                           <xmpG:mode>RGB</xmpG:mode>
                           <xmpG:type>PROCESS</xmpG:type>
                           <xmpG:red>117</xmpG:red>
                           <xmpG:green>76</xmpG:green>
                           <xmpG:blue>36</xmpG:blue>
                        </rdf:li>
                        <rdf:li rdf:parseType="Resource">
                           <xmpG:swatchName>R=96 G=56 B=19</xmpG:swatchName>
                           <xmpG:mode>RGB</xmpG:mode>
                           <xmpG:type>PROCESS</xmpG:type>
                           <xmpG:red>96</xmpG:red>
                           <xmpG:green>56</xmpG:green>
                           <xmpG:blue>19</xmpG:blue>
                        </rdf:li>
                        <rdf:li rdf:parseType="Resource">
                           <xmpG:swatchName>R=66 G=33 B=11</xmpG:swatchName>
                           <xmpG:mode>RGB</xmpG:mode>
                           <xmpG:type>PROCESS</xmpG:type>
                           <xmpG:red>66</xmpG:red>
                           <xmpG:green>33</xmpG:green>
                           <xmpG:blue>11</xmpG:blue>
                        </rdf:li>
                     </rdf:Seq>
                  </xmpG:Colorants>
               </rdf:li>
               <rdf:li rdf:parseType="Resource">
                  <xmpG:groupName>Grays</xmpG:groupName>
                  <xmpG:groupType>1</xmpG:groupType>
                  <xmpG:Colorants>
                     <rdf:Seq>
                        <rdf:li rdf:parseType="Resource">
                           <xmpG:swatchName>R=0 G=0 B=0</xmpG:swatchName>
                           <xmpG:mode>RGB</xmpG:mode>
                           <xmpG:type>PROCESS</xmpG:type>
                           <xmpG:red>0</xmpG:red>
                           <xmpG:green>0</xmpG:green>
                           <xmpG:blue>0</xmpG:blue>
                        </rdf:li>
                        <rdf:li rdf:parseType="Resource">
                           <xmpG:swatchName>R=26 G=26 B=26</xmpG:swatchName>
                           <xmpG:mode>RGB</xmpG:mode>
                           <xmpG:type>PROCESS</xmpG:type>
                           <xmpG:red>26</xmpG:red>
                           <xmpG:green>26</xmpG:green>
                           <xmpG:blue>26</xmpG:blue>
                        </rdf:li>
                        <rdf:li rdf:parseType="Resource">
                           <xmpG:swatchName>R=51 G=51 B=51</xmpG:swatchName>
                           <xmpG:mode>RGB</xmpG:mode>
                           <xmpG:type>PROCESS</xmpG:type>
                           <xmpG:red>51</xmpG:red>
                           <xmpG:green>51</xmpG:green>
                           <xmpG:blue>51</xmpG:blue>
                        </rdf:li>
                        <rdf:li rdf:parseType="Resource">
                           <xmpG:swatchName>R=77 G=77 B=77</xmpG:swatchName>
                           <xmpG:mode>RGB</xmpG:mode>
                           <xmpG:type>PROCESS</xmpG:type>
                           <xmpG:red>77</xmpG:red>
                           <xmpG:green>77</xmpG:green>
                           <xmpG:blue>77</xmpG:blue>
                        </rdf:li>
                        <rdf:li rdf:parseType="Resource">
                           <xmpG:swatchName>R=102 G=102 B=102</xmpG:swatchName>
                           <xmpG:mode>RGB</xmpG:mode>
                           <xmpG:type>PROCESS</xmpG:type>
                           <xmpG:red>102</xmpG:red>
                           <xmpG:green>102</xmpG:green>
                           <xmpG:blue>102</xmpG:blue>
                        </rdf:li>
                        <rdf:li rdf:parseType="Resource">
                           <xmpG:swatchName>R=128 G=128 B=128</xmpG:swatchName>
                           <xmpG:mode>RGB</xmpG:mode>
                           <xmpG:type>PROCESS</xmpG:type>
                           <xmpG:red>128</xmpG:red>
                           <xmpG:green>128</xmpG:green>
                           <xmpG:blue>128</xmpG:blue>
                        </rdf:li>
                        <rdf:li rdf:parseType="Resource">
                           <xmpG:swatchName>R=153 G=153 B=153</xmpG:swatchName>
                           <xmpG:mode>RGB</xmpG:mode>
                           <xmpG:type>PROCESS</xmpG:type>
                           <xmpG:red>153</xmpG:red>
                           <xmpG:green>153</xmpG:green>
                           <xmpG:blue>153</xmpG:blue>
                        </rdf:li>
                        <rdf:li rdf:parseType="Resource">
                           <xmpG:swatchName>R=179 G=179 B=179</xmpG:swatchName>
                           <xmpG:mode>RGB</xmpG:mode>
                           <xmpG:type>PROCESS</xmpG:type>
                           <xmpG:red>179</xmpG:red>
                           <xmpG:green>179</xmpG:green>
                           <xmpG:blue>179</xmpG:blue>
                        </rdf:li>
                        <rdf:li rdf:parseType="Resource">
                           <xmpG:swatchName>R=204 G=204 B=204</xmpG:swatchName>
                           <xmpG:mode>RGB</xmpG:mode>
                           <xmpG:type>PROCESS</xmpG:type>
                           <xmpG:red>204</xmpG:red>
                           <xmpG:green>204</xmpG:green>
                           <xmpG:blue>204</xmpG:blue>
                        </rdf:li>
                        <rdf:li rdf:parseType="Resource">
                           <xmpG:swatchName>R=230 G=230 B=230</xmpG:swatchName>
                           <xmpG:mode>RGB</xmpG:mode>
                           <xmpG:type>PROCESS</xmpG:type>
                           <xmpG:red>230</xmpG:red>
                           <xmpG:green>230</xmpG:green>
                           <xmpG:blue>230</xmpG:blue>
                        </rdf:li>
                        <rdf:li rdf:parseType="Resource">
                           <xmpG:swatchName>R=242 G=242 B=242</xmpG:swatchName>
                           <xmpG:mode>RGB</xmpG:mode>
                           <xmpG:type>PROCESS</xmpG:type>
                           <xmpG:red>242</xmpG:red>
                           <xmpG:green>242</xmpG:green>
                           <xmpG:blue>242</xmpG:blue>
                        </rdf:li>
                     </rdf:Seq>
                  </xmpG:Colorants>
               </rdf:li>
               <rdf:li rdf:parseType="Resource">
                  <xmpG:groupName>Web Color Group</xmpG:groupName>
                  <xmpG:groupType>1</xmpG:groupType>
                  <xmpG:Colorants>
                     <rdf:Seq>
                        <rdf:li rdf:parseType="Resource">
                           <xmpG:swatchName>R=63 G=169 B=245</xmpG:swatchName>
                           <xmpG:mode>RGB</xmpG:mode>
                           <xmpG:type>PROCESS</xmpG:type>
                           <xmpG:red>63</xmpG:red>
                           <xmpG:green>169</xmpG:green>
                           <xmpG:blue>245</xmpG:blue>
                        </rdf:li>
                        <rdf:li rdf:parseType="Resource">
                           <xmpG:swatchName>R=122 G=201 B=67</xmpG:swatchName>
                           <xmpG:mode>RGB</xmpG:mode>
                           <xmpG:type>PROCESS</xmpG:type>
                           <xmpG:red>122</xmpG:red>
                           <xmpG:green>201</xmpG:green>
                           <xmpG:blue>67</xmpG:blue>
                        </rdf:li>
                        <rdf:li rdf:parseType="Resource">
                           <xmpG:swatchName>R=255 G=147 B=30</xmpG:swatchName>
                           <xmpG:mode>RGB</xmpG:mode>
                           <xmpG:type>PROCESS</xmpG:type>
                           <xmpG:red>255</xmpG:red>
                           <xmpG:green>147</xmpG:green>
                           <xmpG:blue>30</xmpG:blue>
                        </rdf:li>
                        <rdf:li rdf:parseType="Resource">
                           <xmpG:swatchName>R=255 G=29 B=37</xmpG:swatchName>
                           <xmpG:mode>RGB</xmpG:mode>
                           <xmpG:type>PROCESS</xmpG:type>
                           <xmpG:red>255</xmpG:red>
                           <xmpG:green>29</xmpG:green>
                           <xmpG:blue>37</xmpG:blue>
                        </rdf:li>
                        <rdf:li rdf:parseType="Resource">
                           <xmpG:swatchName>R=255 G=123 B=172</xmpG:swatchName>
                           <xmpG:mode>RGB</xmpG:mode>
                           <xmpG:type>PROCESS</xmpG:type>
                           <xmpG:red>255</xmpG:red>
                           <xmpG:green>123</xmpG:green>
                           <xmpG:blue>172</xmpG:blue>
                        </rdf:li>
                        <rdf:li rdf:parseType="Resource">
                           <xmpG:swatchName>R=189 G=204 B=212</xmpG:swatchName>
                           <xmpG:mode>RGB</xmpG:mode>
                           <xmpG:type>PROCESS</xmpG:type>
                           <xmpG:red>189</xmpG:red>
                           <xmpG:green>204</xmpG:green>
                           <xmpG:blue>212</xmpG:blue>
                        </rdf:li>
                     </rdf:Seq>
                  </xmpG:Colorants>
               </rdf:li>
            </rdf:Seq>
         </xmpTPg:SwatchGroups>
         <pdf:Producer>Adobe PDF library 10.01</pdf:Producer>
      </rdf:Description>
   </rdf:RDF>
</x:xmpmeta>
                                                                                                    
                                                                                                    
                                                                                                    
                                                                                                    
                                                                                                    
                                                                                                    
                                                                                                    
                                                                                                    
                                                                                                    
                                                                                                    
                                                                                                    
                                                                                                    
                                                                                                    
                                                                                                    
                                                                                                    
                                                                                                    
                                                                                                    
                                                                                                    
                                                                                                    
                                                                                                    
                           
<?xpacket end="w"?>
	</metadata>
<g>
	<g>
		<path fill="#2E9BFF" d="M63.4,68.7c-6.9,0-8.8-4-9.8-8l-5-20.6l-5,20.6c-0.9,3.7-2.8,8-9.8,8c-5.5,0-8.4-2.3-9.9-7.7L13.7,21.6
			C13.3,20.3,13,19,13,17.5c0-5.3,4.4-8.2,8.5-8.2c3.1,0,7.1,1.2,8.3,7.1l4.5,22l5.2-22.5c1-4.6,3.7-6.6,9-6.6
			c7.7,0,8.9,5.3,9.5,7.8l5,21.3l4.5-22.1c1.2-5.9,5.1-7.1,8.1-7.1c4.1,0,8.5,2.9,8.5,8.2c0,1.5-0.3,2.8-0.7,4.1L73.2,61
			C71.8,66.4,68.9,68.7,63.4,68.7z"/>
		<path fill="#FFFFFF" d="M75.5,12.2c2.7,0,5.7,1.7,5.7,5.3c0,1.2-0.3,2.3-0.6,3.4L70.5,60.3c-1.1,4.1-2.8,5.6-7.1,5.6
			c-4.5,0-6-1.9-7.1-5.8l-7.7-31.6h-0.1L40.7,60c-0.9,4-2.6,5.8-7.1,5.8c-4.3,0-6-1.5-7.1-5.6L16.4,20.9c-0.3-1.1-0.6-2.2-0.6-3.4
			c0-3.6,3-5.3,5.7-5.3c3,0,4.8,1.4,5.5,4.8l7,34.4h0.1l8.1-34.9c0.6-2.9,1.8-4.4,6.2-4.4c5,0,6,2.4,6.7,5.6L63,51.4h0.1L70.2,17
			C70.9,13.5,72.7,12.2,75.5,12.2 M75.5,6.5c-5.7,0-9.6,3.4-10.9,9.3l-1.9,9.4l-2-8.7c-0.6-2.8-2.3-10-12.2-10
			c-6.6,0-10.4,2.9-11.7,8.8L34.5,25l-1.9-9.2c-1.2-6-5.3-9.4-11.1-9.4c-6.5,0-11.4,4.7-11.4,11c0,1.8,0.4,3.5,0.8,4.8l10.1,39.3
			c1.8,6.7,5.8,9.9,12.6,9.9c6.8,0,11-3.3,12.6-10.2l2.3-9.3l2.3,9.3l0,0l0,0c0.6,2.5,2.6,10.1,12.6,10.1c6.8,0,10.8-3.1,12.6-9.8
			l10.2-39.4c0.4-1.3,0.8-3,0.8-4.8C86.9,11.2,82,6.5,75.5,6.5L75.5,6.5z"/>
	</g>
	<g>
		<path fill="#2E9BFF" d="M129.4,68.7c-5.1,0-8.7-3.6-8.7-8.7V45.5h-15.8V60c0,5.1-3.6,8.7-8.7,8.7s-8.7-3.6-8.7-8.7V18.1
			c0-5.1,3.6-8.7,8.7-8.7s8.7,3.6,8.7,8.7v11.9h15.8V18.1c0-5.1,3.6-8.7,8.7-8.7c5.1,0,8.7,3.6,8.7,8.7V60
			C138.1,65.1,134.5,68.7,129.4,68.7z"/>
		<path fill="#FFFFFF" d="M129.4,12.2c3.6,0,5.9,2.4,5.9,5.9V60c0,3.5-2.3,5.9-5.9,5.9c-3.6,0-5.9-2.4-5.9-5.9V42.7H102V60
			c0,3.5-2.3,5.9-5.9,5.9c-3.6,0-5.9-2.4-5.9-5.9V18.1c0-3.5,2.3-5.9,5.9-5.9c3.6,0,5.9,2.4,5.9,5.9v14.7h21.5V18.1
			C123.5,14.5,125.8,12.2,129.4,12.2 M129.4,6.5c-6.7,0-11.6,4.9-11.6,11.6v9h-10.1v-9c0-6.7-4.9-11.6-11.6-11.6
			s-11.6,4.9-11.6,11.6V60c0,6.7,4.9,11.6,11.6,11.6s11.6-4.9,11.6-11.6V48.4h10.1V60c0,6.7,4.9,11.6,11.6,11.6
			c6.7,0,11.6-4.9,11.6-11.6V18.1C141,11.4,136.1,6.5,129.4,6.5L129.4,6.5z"/>
	</g>
	<g>
		<path fill="#2E9BFF" d="M173,69c-18.2,0-29-11.5-29-30.6C144,20.6,155.4,9,173,9s29,11.5,29,29.3C202.1,53.6,193.1,69,173,69z
			 M173,24.2c-10.1,0-11.6,8.9-11.6,14.2c0,13.9,6.6,15.5,11.6,15.5c7.7,0,11.6-5.2,11.6-15.5C184.6,33.1,183.1,24.2,173,24.2z"/>
		<path fill="#FFFFFF" d="M173,11.9c17,0,26.2,11.3,26.2,26.5c0,14.6-8.5,27.8-26.2,27.8c-18.6,0-26.2-12.1-26.2-27.8
			C146.8,23.2,156,11.9,173,11.9 M173,56.7c10.7,0,14.4-8.4,14.4-18.3c0-9.9-4.8-17-14.4-17s-14.4,7.1-14.4,17
			C158.6,48.3,161.9,56.7,173,56.7 M173,6.2c-9.7,0-17.9,3.2-23.6,9.3c-5.4,5.8-8.3,13.7-8.3,22.8c0,21,11.9,33.5,31.9,33.5
			c10,0,18.3-3.6,24.1-10.4c5-5.9,7.8-14.1,7.8-23c0-9.2-2.9-17.1-8.3-22.8C190.9,9.4,182.7,6.2,173,6.2L173,6.2z M173,51
			c-3.1,0-8.7,0-8.7-12.6c0-7.5,2.9-11.3,8.7-11.3c5.8,0,8.7,3.8,8.7,11.3C181.7,51,175.6,51,173,51L173,51z"/>
	</g>
	<g>
		<path fill="#2E9BFF" d="M234.6,69c-18.2,0-29-11.5-29-30.6c0-17.8,11.4-29.3,29-29.3s29,11.5,29,29.3
			C263.7,53.6,254.7,69,234.6,69z M234.6,24.2c-10.1,0-11.6,8.9-11.6,14.2c0,13.9,6.6,15.5,11.6,15.5c7.7,0,11.6-5.2,11.6-15.5
			C246.2,33.1,244.7,24.2,234.6,24.2z"/>
		<path fill="#FFFFFF" d="M234.6,11.9c17,0,26.2,11.3,26.2,26.5c0,14.6-8.5,27.8-26.2,27.8c-18.6,0-26.2-12.1-26.2-27.8
			C208.4,23.2,217.7,11.9,234.6,11.9 M234.6,56.7c10.7,0,14.4-8.4,14.4-18.3c0-9.9-4.8-17-14.4-17s-14.4,7.1-14.4,17
			C220.2,48.3,223.6,56.7,234.6,56.7 M234.6,6.2c-9.7,0-17.9,3.2-23.6,9.3c-5.4,5.8-8.3,13.7-8.3,22.8c0,21,11.9,33.5,31.9,33.5
			c10,0,18.3-3.6,24.1-10.4c5-5.9,7.8-14.1,7.8-23c0-9.2-2.9-17.1-8.3-22.8C252.5,9.4,244.4,6.2,234.6,6.2L234.6,6.2z M234.6,51
			c-3.1,0-8.7,0-8.7-12.6c0-7.5,2.9-11.3,8.7-11.3s8.7,3.8,8.7,11.3C243.4,51,237.3,51,234.6,51L234.6,51z"/>
	</g>
	<g>
		<path fill="#2E9BFF" d="M296.3,69c-18.2,0-29-11.5-29-30.6c0-17.8,11.4-29.3,29-29.3c17.6,0,29,11.5,29,29.3
			C325.3,53.6,316.3,69,296.3,69z M296.3,24.2c-10.1,0-11.6,8.9-11.6,14.2c0,13.9,6.6,15.5,11.6,15.5c7.7,0,11.6-5.2,11.6-15.5
			C307.8,33.1,306.3,24.2,296.3,24.2z"/>
		<path fill="#FFFFFF" d="M296.3,11.9c17,0,26.2,11.3,26.2,26.5c0,14.6-8.5,27.8-26.2,27.8c-18.6,0-26.2-12.1-26.2-27.8
			C270.1,23.2,279.3,11.9,296.3,11.9 M296.3,56.7c10.7,0,14.4-8.4,14.4-18.3c0-9.9-4.8-17-14.4-17s-14.4,7.1-14.4,17
			C281.9,48.3,285.2,56.7,296.3,56.7 M296.3,6.2c-9.7,0-17.9,3.2-23.6,9.3c-5.4,5.8-8.3,13.7-8.3,22.8c0,21,11.9,33.5,31.9,33.5
			c10,0,18.3-3.6,24.1-10.4c5-5.9,7.8-14.1,7.8-23c0-9.2-2.9-17.1-8.3-22.8C314.2,9.4,306,6.2,296.3,6.2L296.3,6.2z M296.3,51
			c-3.1,0-8.7,0-8.7-12.6c0-7.5,2.9-11.3,8.7-11.3c5.8,0,8.7,3.8,8.7,11.3C305,51,298.9,51,296.3,51L296.3,51z"/>
	</g>
	<g>
		<path fill="#2E9BFF" d="M357.9,69c-18.2,0-29-11.5-29-30.6c0-17.8,11.4-29.3,29-29.3c17.6,0,29,11.5,29,29.3
			C387,53.6,378,69,357.9,69z M357.9,24.2c-10.1,0-11.6,8.9-11.6,14.2c0,13.9,6.6,15.5,11.6,15.5c7.7,0,11.6-5.2,11.6-15.5
			C369.5,33.1,368,24.2,357.9,24.2z"/>
		<path fill="#FFFFFF" d="M357.9,11.9c17,0,26.2,11.3,26.2,26.5c0,14.6-8.5,27.8-26.2,27.8c-18.6,0-26.2-12.1-26.2-27.8
			C331.7,23.2,340.9,11.9,357.9,11.9 M357.9,56.7c10.7,0,14.4-8.4,14.4-18.3c0-9.9-4.8-17-14.4-17c-9.6,0-14.4,7.1-14.4,17
			C343.5,48.3,346.8,56.7,357.9,56.7 M357.9,6.2c-9.7,0-17.9,3.2-23.6,9.3c-5.4,5.8-8.3,13.7-8.3,22.8c0,21,11.9,33.5,31.9,33.5
			c10,0,18.3-3.6,24.1-10.4c5-5.9,7.8-14.1,7.8-23c0-9.2-2.9-17.1-8.3-22.8C375.8,9.4,367.6,6.2,357.9,6.2L357.9,6.2z M357.9,51
			c-3.1,0-8.7,0-8.7-12.6c0-7.5,2.9-11.3,8.7-11.3c5.8,0,8.7,3.8,8.7,11.3C366.6,51,360.5,51,357.9,51L357.9,51z"/>
	</g>
	<g>
		<path fill="#2E9BFF" d="M419.5,69c-18.2,0-29-11.5-29-30.6c0-17.8,11.4-29.3,29-29.3c17.6,0,29,11.5,29,29.3
			C448.6,53.6,439.6,69,419.5,69z M419.5,24.2c-10.1,0-11.6,8.9-11.6,14.2c0,13.9,6.6,15.5,11.6,15.5c7.7,0,11.6-5.2,11.6-15.5
			C431.1,33.1,429.6,24.2,419.5,24.2z"/>
		<path fill="#FFFFFF" d="M419.5,11.9c17,0,26.2,11.3,26.2,26.5c0,14.6-8.5,27.8-26.2,27.8c-18.6,0-26.2-12.1-26.2-27.8
			C393.3,23.2,402.5,11.9,419.5,11.9 M419.5,56.7c10.7,0,14.4-8.4,14.4-18.3c0-9.9-4.8-17-14.4-17c-9.6,0-14.4,7.1-14.4,17
			C405.1,48.3,408.5,56.7,419.5,56.7 M419.5,6.2c-9.7,0-17.9,3.2-23.6,9.3c-5.4,5.8-8.3,13.7-8.3,22.8c0,21,11.9,33.5,31.9,33.5
			c10,0,18.3-3.6,24.1-10.4c5-5.9,7.8-14.1,7.8-23c0-9.2-2.9-17.1-8.3-22.8C437.4,9.4,429.3,6.2,419.5,6.2L419.5,6.2z M419.5,51
			c-3.1,0-8.7,0-8.7-12.6c0-7.5,2.9-11.3,8.7-11.3s8.7,3.8,8.7,11.3C428.3,51,422.2,51,419.5,51L419.5,51z"/>
	</g>
	<g>
		<path fill="#2E9BFF" d="M521.3,68.7c-5.1,0-8.7-3.6-8.7-8.7V45.5h-15.8V60c0,5.1-3.6,8.7-8.7,8.7s-8.7-3.6-8.7-8.7V18.1
			c0-5.1,3.6-8.7,8.7-8.7s8.7,3.6,8.7,8.7v11.9h15.8V18.1c0-5.1,3.6-8.7,8.7-8.7s8.7,3.6,8.7,8.7V60
			C530.1,65.1,526.5,68.7,521.3,68.7z"/>
		<path fill="#FFFFFF" d="M521.3,12.2c3.6,0,5.9,2.4,5.9,5.9V60c0,3.5-2.3,5.9-5.9,5.9c-3.6,0-5.9-2.4-5.9-5.9V42.7H494V60
			c0,3.5-2.3,5.9-5.9,5.9s-5.9-2.4-5.9-5.9V18.1c0-3.5,2.3-5.9,5.9-5.9s5.9,2.4,5.9,5.9v14.7h21.5V18.1
			C515.4,14.5,517.7,12.2,521.3,12.2 M521.3,6.5c-6.7,0-11.6,4.9-11.6,11.6v9h-10.1v-9c0-6.7-4.9-11.6-11.6-11.6
			s-11.6,4.9-11.6,11.6V60c0,6.7,4.9,11.6,11.6,11.6s11.6-4.9,11.6-11.6V48.4h10.1V60c0,6.7,4.9,11.6,11.6,11.6
			c6.7,0,11.6-4.9,11.6-11.6V18.1C532.9,11.4,528.1,6.5,521.3,6.5L521.3,6.5z"/>
	</g>
	<g>
		<path fill="#2E9BFF" d="M565,69c-18.2,0-29-11.5-29-30.6c0-17.8,11.4-29.3,29-29.3c17.6,0,29,11.5,29,29.3C594,53.6,585,69,565,69
			z M565,24.2c-10.1,0-11.6,8.9-11.6,14.2c0,13.9,6.6,15.5,11.6,15.5c7.7,0,11.6-5.2,11.6-15.5C576.5,33.1,575,24.2,565,24.2z"/>
		<path fill="#FFFFFF" d="M565,11.9c17,0,26.2,11.3,26.2,26.5c0,14.6-8.5,27.8-26.2,27.8c-18.6,0-26.2-12.1-26.2-27.8
			C538.8,23.2,548,11.9,565,11.9 M565,56.7c10.7,0,14.4-8.4,14.4-18.3c0-9.9-4.8-17-14.4-17c-9.6,0-14.4,7.1-14.4,17
			C550.6,48.3,553.9,56.7,565,56.7 M565,6.2c-9.7,0-17.9,3.2-23.6,9.3c-5.4,5.8-8.3,13.7-8.3,22.8c0,21,11.9,33.5,31.9,33.5
			c10,0,18.3-3.6,24.1-10.4c5-5.9,7.8-14.1,7.8-23c0-9.2-2.9-17.1-8.3-22.8C582.9,9.4,574.7,6.2,565,6.2L565,6.2z M565,51
			c-3.1,0-8.7,0-8.7-12.6c0-7.5,2.9-11.3,8.7-11.3s8.7,3.8,8.7,11.3C573.7,51,567.6,51,565,51L565,51z"/>
	</g>
	<g>
		<path fill="#2E9BFF" d="M626.6,69c-18.2,0-29-11.5-29-30.6c0-17.8,11.4-29.3,29-29.3c17.6,0,29,11.5,29,29.3
			C655.7,53.6,646.7,69,626.6,69z M626.6,24.2c-10.1,0-11.6,8.9-11.6,14.2c0,13.9,6.6,15.5,11.6,15.5c7.7,0,11.6-5.2,11.6-15.5
			C638.2,33.1,636.7,24.2,626.6,24.2z"/>
		<path fill="#FFFFFF" d="M626.6,11.9c17,0,26.2,11.3,26.2,26.5c0,14.6-8.5,27.8-26.2,27.8c-18.6,0-26.2-12.1-26.2-27.8
			C600.4,23.2,609.6,11.9,626.6,11.9 M626.6,56.7c10.7,0,14.4-8.4,14.4-18.3c0-9.9-4.8-17-14.4-17c-9.6,0-14.4,7.1-14.4,17
			C612.2,48.3,615.5,56.7,626.6,56.7 M626.6,6.2c-9.7,0-17.9,3.2-23.6,9.3c-5.4,5.8-8.3,13.7-8.3,22.8c0,21,11.9,33.5,31.9,33.5
			c10,0,18.3-3.6,24.1-10.4c5-5.9,7.8-14.1,7.8-23c0-9.2-2.9-17.1-8.3-22.8C644.5,9.4,636.3,6.2,626.6,6.2L626.6,6.2z M626.6,51
			c-3.1,0-8.7,0-8.7-12.6c0-7.5,2.9-11.3,8.7-11.3c5.8,0,8.7,3.8,8.7,11.3C635.3,51,629.2,51,626.6,51L626.6,51z"/>
	</g>
	<g>
		<path fill="#2E9BFF" d="M688.2,69c-18.2,0-29-11.5-29-30.6c0-17.8,11.4-29.3,29-29.3c17.6,0,29,11.5,29,29.3
			C717.3,53.6,708.3,69,688.2,69z M688.2,24.2c-10.1,0-11.6,8.9-11.6,14.2c0,13.9,6.6,15.5,11.6,15.5c7.7,0,11.6-5.2,11.6-15.5
			C699.8,33.1,698.3,24.2,688.2,24.2z"/>
		<path fill="#FFFFFF" d="M688.2,11.9c17,0,26.2,11.3,26.2,26.5c0,14.6-8.5,27.8-26.2,27.8c-18.6,0-26.2-12.1-26.2-27.8
			C662,23.2,671.2,11.9,688.2,11.9 M688.2,56.7c10.7,0,14.4-8.4,14.4-18.3c0-9.9-4.8-17-14.4-17c-9.6,0-14.4,7.1-14.4,17
			C673.8,48.3,677.2,56.7,688.2,56.7 M688.2,6.2c-9.7,0-17.9,3.2-23.6,9.3c-5.4,5.8-8.3,13.7-8.3,22.8c0,21,11.9,33.5,31.9,33.5
			c10,0,18.3-3.6,24.1-10.4c5-5.9,7.8-14.1,7.8-23c0-9.2-2.9-17.1-8.3-22.8C706.1,9.4,698,6.2,688.2,6.2L688.2,6.2z M688.2,51
			c-3.1,0-8.7,0-8.7-12.6c0-7.5,2.9-11.3,8.7-11.3s8.7,3.8,8.7,11.3C697,51,690.9,51,688.2,51L688.2,51z"/>
	</g>
</g>
</svg>
