<?xml version="1.0" encoding="utf-8"?>
<!-- Generator: Adobe Illustrator 19.1.0, SVG Export Plug-In . SVG Version: 6.00 Build 0)  -->
<svg version="1.1" id="Layer_1" xmlns="http://www.w3.org/2000/svg" xmlns:xlink="http://www.w3.org/1999/xlink" x="0px" y="0px"
	 viewBox="-175 266.8 260 260.2" style="enable-background:new -175 266.8 260 260.2;" xml:space="preserve">
<style type="text/css">
	.st0{fill:#2F9BFF;}
	.st1{fill:#FFFFFF;}
</style>
<g id="Layer_1_2_">
	<g>
		<path class="st0" d="M8.4,509.7c-2.9,0-5.7-0.8-8.1-2.4l-42.6-27.8v-0.1c-3.2-2.6-5.2-6.4-5.5-10.6l-3.5-46.2l-3.6-0.8l-14.8,41.1
			c-0.9,2.7-2.5,5-4.8,6.8l-41.9,33c-2.7,2.1-5.9,3.2-9.3,3.2c-3,0-5.9-0.9-8.4-2.5c-1.5-1-2.7-2-3.6-3.3c-2.5-3.1-3.6-7.1-3.1-11.1
			s2.5-7.6,5.6-10.1l38.6-30.5l16.7-46.5v-0.1c0.1-0.3,0.2-0.6,0.4-0.9l9.4-45.3l-21,6.1c-1,0.3-2.1,0.5-3.1,0.5
			c-2.1,0-4.2-0.6-6-1.8c-1.7-1.1-3-2.6-3.8-4.4l-17.5-36.2c-1.3-2.6-1.4-5.6-0.5-8.3c0.9-2.8,2.9-5,5.5-6.2
			c1.5-0.7,3.1-1.1,4.8-1.1c4.1,0,7.9,2.4,9.7,6.2l13.6,28.2l27.9-8.1c1-0.3,2-0.4,3.1-0.4s2.2,0.2,3.2,0.5h0.1l35.8,7.4l34.1-5
			c0.5-0.1,1.1-0.1,1.7-0.1c3.4,0,6.5,1.6,8.6,4.3l22.8,30.7c3.5,4.8,2.5,11.6-2.3,15.2c-1.9,1.4-4.1,2.1-6.4,2.1
			c-3.4,0-6.7-1.6-8.7-4.4l-19-25.5l-22.2,3.3L-21.5,416l3.3,43.1l35.1,22.8c3.3,2.1,5.7,5.4,6.5,9.4c0.9,4,0.1,8-2.1,11.5
			C18.4,507.1,13.6,509.7,8.4,509.7L8.4,509.7z"/>
		<path class="st1" d="M-111.8,307.3c3,0,5.8,1.7,7.2,4.5l14.6,30.4l30.2-8.8c0.8-0.2,1.5-0.3,2.3-0.3c0.9,0,1.8,0.2,2.6,0.4h0.1
			l36.3,7.5l34.6-5.1c0.4-0.1,0.9-0.1,1.3-0.1c2.4,0,4.8,1.2,6.3,3.2l22.8,30.7c2.6,3.6,1.8,8.6-1.7,11.2c-1.4,1-3.1,1.5-4.7,1.5
			c-2.5,0-4.9-1.1-6.5-3.2l-20-26.8l-25.8,3.8l-12.3,59.7l3.4,44.9l36.3,23.6c5.7,3.6,7.3,11.2,3.6,16.9c-2.4,3.6-6.3,5.6-10.4,5.6
			c-2.3,0-4.6-0.6-6.6-1.9l-41.3-26.9c0-0.1-0.1-0.1-0.1-0.1c-3.1-2.1-5.1-5.5-5.4-9.3l-3.7-48.3l-8.1-1.7l-15.6,43.5
			c-0.7,2.2-2.1,4.1-3.9,5.5l-41.9,33c-2.3,1.8-4.9,2.6-7.6,2.6c-2.4,0-4.8-0.7-6.8-2c-1.1-0.7-2.1-1.5-2.9-2.6
			c-4.2-5.3-3.3-13,2-17.2l39.2-31l17-47.3c0.1-0.3,0.2-0.7,0.4-1l10.4-50.3l-25.5,7.4c-0.8,0.2-1.6,0.3-2.3,0.3
			c-1.6,0-3.1-0.5-4.4-1.3c-1.2-0.8-2.2-1.9-2.8-3.2l-17.5-36.2c-1.9-4-0.3-8.8,3.7-10.7C-114.2,307.6-113,307.3-111.8,307.3
			 M-111.8,301.7L-111.8,301.7c-2.1,0-4.1,0.5-6,1.4c-3.3,1.6-5.8,4.4-6.9,7.8c-1.2,3.4-1,7.1,0.6,10.4l17.5,36.2
			c1,2.2,2.7,4.1,4.8,5.5c2.2,1.5,4.8,2.3,7.5,2.3c1.3,0,2.6-0.2,3.9-0.6l16.5-4.8l-8.4,40.4c-0.2,0.4-0.3,0.7-0.3,1l0,0L-99,447
			l-37.9,30c-7.7,6.1-9,17.3-3,25.1c1.1,1.5,2.5,2.8,4.3,3.9c3,1.9,6.4,2.9,9.9,2.9c4.1,0,7.9-1.3,11.1-3.9l41.9-33
			c2.7-2.1,4.7-4.9,5.8-8.1l13.2-36.7l3.2,41.8c0.4,4.5,2.3,8.6,5.5,11.6v0.4l2.6,1.7l1.2,0.8h0.1l0,0l40,26.1l0,0l0,0
			c2.9,1.8,6.2,2.8,9.6,2.8c6.1,0,11.8-3.1,15.1-8.2c2.6-4.1,3.5-8.9,2.5-13.6c-1-4.6-3.8-8.6-7.8-11.1l-33.9-22.1l-3.1-41.3
			l11.3-55l18.5-2.7l18,24.2c2.6,3.5,6.7,5.5,11,5.5c2.9,0,5.7-0.9,8.1-2.6l0,0l0,0c6-4.4,7.3-13,2.9-19.1l0,0l0,0l-22.8-30.7
			c-2.6-3.5-6.6-5.5-10.8-5.5c-0.7,0-1.5,0.1-2.2,0.2l-33.6,4.9l-35.3-7.3l0,0c-1.2-0.4-2.5-0.5-3.8-0.5s-2.6,0.2-3.9,0.6l-25.6,7.5
			l-12.5-26.1C-101.7,304.7-106.6,301.7-111.8,301.7L-111.8,301.7L-111.8,301.7z"/>
	</g>
	<g>
		<path class="st0" d="M-30.2,335.1c-1.7,0-3.4-0.2-5.1-0.5c-13.7-2.8-22.5-16.3-19.7-29.9c2.4-11.7,12.8-20.2,24.8-20.2
			c1.7,0,3.4,0.2,5.1,0.5c6.6,1.4,12.3,5.2,16.1,10.9c3.7,5.6,5,12.4,3.6,19.1C-7.8,326.6-18.3,335.1-30.2,335.1L-30.2,335.1z"/>
		<path class="st1" d="M-30.3,287.2c1.5,0,3,0.2,4.6,0.5c12.2,2.5,20,14.4,17.5,26.6c-2.2,10.7-11.6,18-22,18c-1.5,0-3-0.2-4.6-0.5
			c-12.1-2.5-20-14.4-17.5-26.6C-50.1,294.5-40.8,287.2-30.3,287.2 M-30.3,281.5c-13.3,0-24.9,9.5-27.6,22.5
			c-3.1,15.2,6.7,30.2,21.9,33.3c1.9,0.4,3.8,0.6,5.7,0.6c13.3,0,24.9-9.5,27.6-22.5c3.1-15.2-6.7-30.2-21.9-33.3
			C-26.5,281.7-28.4,281.5-30.3,281.5L-30.3,281.5z"/>
	</g>
</g>
</svg>
