<?xml version="1.0" encoding="utf-8"?>
<!-- Generator: Adobe Illustrator 19.1.0, SVG Export Plug-In . SVG Version: 6.00 Build 0)  -->
<svg version="1.1" id="Layer_1" xmlns="http://www.w3.org/2000/svg" xmlns:xlink="http://www.w3.org/1999/xlink" x="0px" y="0px"
	 viewBox="0 0 114.1 266.9" style="enable-background:new 0 0 114.1 266.9;" xml:space="preserve">
<style type="text/css">
	.st0{opacity:0.25;}
	.st1{fill:#2F9BFF;}
	.st2{fill:#FFFFFF;}
</style>
<g>
	<g>
		<g class="st0">
			<path d="M58.7,63c-9.8,0-18.5-5.9-22.2-15c-2.4-5.9-2.3-12.4,0.2-18.3c2.5-5.9,7.2-10.4,13.1-12.8c2.9-1.1,5.9-1.7,8.9-1.7
				c9.8,0,18.5,5.9,22.2,15c4.9,12.2-1,26.2-13.3,31.1C64.8,62.4,61.8,63,58.7,63C58.7,63,58.7,63,58.7,63z M66.7,44.4
				c-1.5,0-3,0.4-4.5,1.1c-3.7,1.7-5.9,5.1-4.8,7.3c0.6,1.2,2.1,2,4.2,2c1.5,0,3-0.4,4.5-1.1c3.7-1.7,5.9-5.1,4.8-7.3
				C70.4,45.2,68.8,44.4,66.7,44.4z"/>
			<path d="M58.7,16.5c8.9,0,17.4,5.3,20.9,14.1c4.6,11.5-1,24.6-12.5,29.3c-2.7,1.1-5.6,1.6-8.4,1.6c-8.9,0-17.4-5.3-20.9-14.1
				c-4.6-11.5,1-24.6,12.5-29.3C53.1,17.1,55.9,16.5,58.7,16.5 M61.6,56.1c1.6,0,3.4-0.4,5.1-1.2c4.4-2.1,6.9-6.2,5.5-9.2
				c-0.9-1.8-3-2.8-5.5-2.8c-1.6,0-3.4,0.4-5.1,1.2c-4.4,2.1-6.9,6.2-5.5,9.2C57,55.2,59.1,56.1,61.6,56.1 M58.7,13.7
				c-3.2,0-6.4,0.6-9.4,1.8c-6.3,2.5-11.2,7.3-13.9,13.6c-2.7,6.2-2.7,13.1-0.2,19.4c3.9,9.7,13.1,15.9,23.5,15.9
				c3.2,0,6.4-0.6,9.4-1.8c13-5.2,19.3-20,14.1-32.9C78.4,20,69.1,13.7,58.7,13.7L58.7,13.7z M61.6,53.3c-1.4,0-2.6-0.5-2.9-1.1
				c-0.5-1.1,0.8-3.8,4.2-5.4c1.3-0.6,2.6-0.9,3.9-0.9c1.4,0,2.6,0.5,2.9,1.2c0.5,1.1-0.8,3.8-4.2,5.4C64.2,53,62.8,53.3,61.6,53.3
				L61.6,53.3z"/>
		</g>
		<g>
			<path class="st1" d="M56.7,61c-9.8,0-18.5-5.9-22.2-15c-2.4-5.9-2.3-12.4,0.2-18.3c2.5-5.9,7.2-10.4,13.1-12.8
				c2.9-1.1,5.9-1.7,8.9-1.7c9.8,0,18.5,5.9,22.2,15c4.9,12.2-1,26.2-13.3,31.1C62.8,60.4,59.8,61,56.7,61C56.7,61,56.7,61,56.7,61z
				 M64.7,42.4c-1.5,0-3,0.4-4.5,1.1c-3.7,1.7-5.9,5.1-4.8,7.3c0.6,1.2,2.1,2,4.2,2c1.5,0,3-0.4,4.5-1.1c3.7-1.7,5.9-5.1,4.8-7.3
				C68.4,43.2,66.8,42.4,64.7,42.4z"/>
			<path class="st2" d="M56.7,14.5c8.9,0,17.4,5.3,20.9,14.1c4.6,11.5-1,24.6-12.5,29.3c-2.7,1.1-5.6,1.6-8.4,1.6
				c-8.9,0-17.4-5.3-20.9-14.1c-4.6-11.5,1-24.6,12.5-29.3C51.1,15.1,53.9,14.5,56.7,14.5 M59.6,54.1c1.6,0,3.4-0.4,5.1-1.2
				c4.4-2.1,6.9-6.2,5.5-9.2c-0.9-1.8-3-2.8-5.5-2.8c-1.6,0-3.4,0.4-5.1,1.2c-4.4,2.1-6.9,6.2-5.5,9.2C55,53.2,57.1,54.1,59.6,54.1
				 M56.7,11.7c-3.2,0-6.4,0.6-9.4,1.8c-6.3,2.5-11.2,7.3-13.9,13.6c-2.7,6.2-2.7,13.1-0.2,19.4c3.9,9.7,13.1,15.9,23.5,15.9
				c3.2,0,6.4-0.6,9.4-1.8c13-5.2,19.3-20,14.1-32.9C76.4,18,67.1,11.7,56.7,11.7L56.7,11.7z M59.6,51.3c-1.4,0-2.6-0.5-2.9-1.1
				c-0.5-1.1,0.8-3.8,4.2-5.4c1.3-0.6,2.6-0.9,3.9-0.9c1.4,0,2.6,0.5,2.9,1.2c0.5,1.1-0.8,3.8-4.2,5.4C62.2,51,60.8,51.3,59.6,51.3
				L59.6,51.3z"/>
		</g>
	</g>
	<g>
		<g class="st0">
			<path d="M73.7,255.8c-7.6,0-13.8-6.2-13.8-13.8v-88.9h-1.8V242c0,7.6-6.2,13.8-13.8,13.8c-7.6,0-13.8-6.2-13.8-13.8V99.7
				c-2.2,7.5-4.2,19.3-4.1,37.2c0,5.6,0.2,11.7,0.6,18.1c0.1,2.5-0.7,4.9-2.4,6.8c-1.7,1.9-4,3-6.5,3.1c-0.2,0-0.4,0-0.6,0
				c-5,0-9.1-3.9-9.4-8.9c-0.4-6.7-0.6-13.2-0.6-19.2c0-20.8,2.3-36.7,7-48.6C18.3,79,23.9,72,30.5,68.8c3.8-1.9,7.2-2.3,8.8-2.3
				l0.1,0c0.1,0,0.2,0,0.3,0h38.6c0.1,0,0.2,0,0.3,0c1.7,0,5.1,0.4,8.9,2.3c2.9,1.5,7.3,4.5,11.2,10.4c7.8,11.9,11.6,30.8,11.7,57.7
				c0,6-0.2,12.5-0.6,19.2c-0.3,5-4.4,8.9-9.4,8.9c-0.2,0-0.4,0-0.6,0c-5.2-0.3-9.2-4.8-8.9-10c0.4-6.4,0.6-12.5,0.6-18.1
				c0-18.6-2.1-30.2-4.1-37.2V242C87.5,249.6,81.3,255.8,73.7,255.8z"/>
			<path d="M78.4,67.9c0.1,0,0.2,0,0.4,0c1.8,0,4.8,0.4,8.2,2.1c3.6,1.8,7.4,5,10.7,10c6.6,10,11.4,26.7,11.4,56.9
				c0,5.9-0.2,12.2-0.6,19.2c-0.2,4.3-3.8,7.5-8,7.5c-0.2,0-0.3,0-0.5,0c-4.4-0.3-7.8-4-7.5-8.5c0.4-6.7,0.6-12.7,0.6-18.2
				c0-20-2.4-32.8-5.2-40.6c-0.6-1.6-1.2-3-1.8-4.2v150c0,6.8-5.5,12.4-12.4,12.4c-6.8,0-12.4-5.5-12.4-12.4v-90.3h-4.6V242
				c0,6.8-5.5,12.4-12.4,12.4c-6.8,0-12.4-5.5-12.4-12.4V92c-3.5,7.1-7,20.7-7,44.9c0,5.5,0.2,11.6,0.6,18.2
				c0.3,4.4-3.1,8.2-7.5,8.5c-0.2,0-0.3,0-0.5,0c-4.2,0-7.7-3.3-8-7.5C9.2,149.1,9,142.8,9,136.9c0-22.7,2.8-37.7,6.9-48
				C20,78.5,25.8,72.7,31.1,70c3.4-1.7,6.4-2.1,8.2-2.1c0.1,0,0.3,0,0.4,0H78.4 M78.4,65.1H39.7c-0.1,0-0.3,0-0.4,0l0,0
				c-2.2,0-5.5,0.5-9.4,2.4C23,70.9,17.1,78.1,13.3,87.8c-4.7,12-7.1,28.1-7.1,49.1c0,6.1,0.2,12.6,0.6,19.3
				c0.3,5.7,5.1,10.2,10.8,10.2c0.2,0,0.4,0,0.6,0c2.9-0.2,5.5-1.5,7.5-3.6c1.9-2.2,2.9-4.9,2.7-7.8c-0.4-6.4-0.6-12.4-0.6-18.1
				c0-9.2,0.5-16.8,1.3-22.9V242c0,8.4,6.8,15.2,15.2,15.2c7,0,12.9-4.8,14.7-11.3c1.7,6.5,7.7,11.3,14.7,11.3
				c8.4,0,15.2-6.8,15.2-15.2V114c0.8,6.1,1.3,13.6,1.3,22.9c0,5.6-0.2,11.7-0.6,18.1c-0.3,6,4.2,11.1,10.2,11.4c0.2,0,0.4,0,0.6,0
				c5.7,0,10.5-4.5,10.8-10.2c0.4-6.8,0.6-13.3,0.6-19.3c0-27.2-3.9-46.3-11.9-58.5c-4.1-6.2-8.7-9.4-11.8-10.9
				c-3.9-1.9-7.2-2.4-9.4-2.4l0,0C78.6,65.1,78.5,65.1,78.4,65.1L78.4,65.1z"/>
		</g>
		<g>
			<path class="st1" d="M71.7,253.8c-7.6,0-13.8-6.2-13.8-13.8v-88.9h-1.8V240c0,7.6-6.2,13.8-13.8,13.8c-7.6,0-13.8-6.2-13.8-13.8
				V97.7c-2.2,7.5-4.2,19.3-4.1,37.2c0,5.6,0.2,11.7,0.6,18.1c0.1,2.5-0.7,4.9-2.4,6.8c-1.7,1.9-4,3-6.5,3.1c-0.2,0-0.4,0-0.6,0
				c-5,0-9.1-3.9-9.4-8.9c-0.4-6.7-0.6-13.2-0.6-19.2c0-20.8,2.3-36.7,7-48.6C16.3,77,21.9,70,28.5,66.8c3.8-1.9,7.2-2.3,8.8-2.3
				l0.1,0c0.1,0,0.2,0,0.3,0h38.6c0.1,0,0.2,0,0.3,0c1.7,0,5.1,0.4,8.9,2.3c2.9,1.5,7.3,4.5,11.2,10.4c7.8,11.9,11.6,30.8,11.7,57.7
				c0,6-0.2,12.5-0.6,19.2c-0.3,5-4.4,8.9-9.4,8.9c-0.2,0-0.4,0-0.6,0c-5.2-0.3-9.2-4.8-8.9-10c0.4-6.4,0.6-12.5,0.6-18.1
				c0-18.6-2.1-30.2-4.1-37.2V240C85.5,247.6,79.3,253.8,71.7,253.8z"/>
			<path class="st2" d="M76.4,65.9c0.1,0,0.2,0,0.4,0c1.8,0,4.8,0.4,8.2,2.1c3.6,1.8,7.4,5,10.7,10c6.6,10,11.4,26.7,11.4,56.9
				c0,5.9-0.2,12.2-0.6,19.2c-0.2,4.3-3.8,7.5-8,7.5c-0.2,0-0.3,0-0.5,0c-4.4-0.3-7.8-4-7.5-8.5c0.4-6.7,0.6-12.7,0.6-18.2
				c0-20-2.4-32.8-5.2-40.6c-0.6-1.6-1.2-3-1.8-4.2v150c0,6.8-5.5,12.4-12.4,12.4c-6.8,0-12.4-5.5-12.4-12.4v-90.3h-4.6V240
				c0,6.8-5.5,12.4-12.4,12.4c-6.8,0-12.4-5.5-12.4-12.4V90c-3.5,7.1-7,20.7-7,44.9c0,5.5,0.2,11.6,0.6,18.2
				c0.3,4.4-3.1,8.2-7.5,8.5c-0.2,0-0.3,0-0.5,0c-4.2,0-7.7-3.3-8-7.5C7.2,147.1,7,140.8,7,134.9c0-22.7,2.8-37.7,6.9-48
				C18,76.5,23.8,70.7,29.1,68c3.4-1.7,6.4-2.1,8.2-2.1c0.1,0,0.3,0,0.4,0H76.4 M76.4,63.1H37.7c-0.1,0-0.3,0-0.4,0l0,0
				c-2.2,0-5.5,0.5-9.4,2.4C21,68.9,15.1,76.1,11.3,85.8c-4.7,12-7.1,28.1-7.1,49.1c0,6.1,0.2,12.6,0.6,19.3
				c0.3,5.7,5.1,10.2,10.8,10.2c0.2,0,0.4,0,0.6,0c2.9-0.2,5.5-1.5,7.5-3.6c1.9-2.2,2.9-4.9,2.7-7.8c-0.4-6.4-0.6-12.4-0.6-18.1
				c0-9.2,0.5-16.8,1.3-22.9V240c0,8.4,6.8,15.2,15.2,15.2c7,0,12.9-4.8,14.7-11.3c1.7,6.5,7.7,11.3,14.7,11.3
				c8.4,0,15.2-6.8,15.2-15.2V112c0.8,6.1,1.3,13.6,1.3,22.9c0,5.6-0.2,11.7-0.6,18.1c-0.3,6,4.2,11.1,10.2,11.4c0.2,0,0.4,0,0.6,0
				c5.7,0,10.5-4.5,10.8-10.2c0.4-6.8,0.6-13.3,0.6-19.3c0-27.2-3.9-46.3-11.9-58.5c-4.1-6.2-8.7-9.4-11.8-10.9
				c-3.9-1.9-7.2-2.4-9.4-2.4l0,0C76.6,63.1,76.5,63.1,76.4,63.1L76.4,63.1z"/>
		</g>
	</g>
</g>
</svg>
