<?xml version="1.0" encoding="utf-8"?>
<!-- Generator: Adobe Illustrator 19.1.0, SVG Export Plug-In . SVG Version: 6.00 Build 0)  -->
<svg version="1.1" id="Layer_1" xmlns="http://www.w3.org/2000/svg" xmlns:xlink="http://www.w3.org/1999/xlink" x="0px" y="0px"
	 viewBox="0 0 157.9 260.2" style="enable-background:new 0 0 157.9 260.2;" xml:space="preserve">
<style type="text/css">
	.st0{opacity:0.25;}
	.st1{fill:#2F9BFF;}
	.st2{fill:#FFFFFF;}
</style>
<g>
	<g class="st0">
		<path d="M121.9,258.8c-7.3,0-13.2-5.7-13.5-12.9l-2-44.9l-15.1-36.7h-22l-20.9,38.5l-1.9,43.1c-0.3,7.3-6.3,12.9-13.5,12.9
			c-0.2,0-0.4,0-0.6,0c-7.5-0.3-13.3-6.7-12.9-14.1l2.1-45.7c0.1-2.9,1.2-5.7,3-7.9c0,0,0.1-0.1,0.1-0.1l28.2-51.8V78.5l-28,16.3
			L35,133.7c1.4,5.2-1.7,10.6-7,12c-0.8,0.2-1.7,0.3-2.5,0.3c-4.4,0-8.3-3-9.5-7.3L4.1,93.6c-0.9-2.4-0.9-5.1,0.2-7.4
			c0.1-0.1,0.1-0.3,0.1-0.3l0-0.1c1-2,2.7-3.7,4.8-4.7l40.3-23.5c1-0.6,2-0.9,3.1-1.1v-0.2l1.4,0h55.1V57c0.4,0.2,0.8,0.4,1.2,0.6
			l40.3,23.5c2.1,1,3.8,2.6,4.8,4.7c0.1,0.1,0.1,0.2,0.1,0.3c1.1,2.4,1.1,5.1,0.2,7.5l-11.9,45.1c-1.1,4.3-5,7.3-9.5,7.3
			c0,0,0,0,0,0c-0.8,0-1.7-0.1-2.5-0.3c-5.2-1.4-8.4-6.8-7-12l10.3-38.9l-26.1-15.2v59.9c0,0,21.2,51.4,21.2,51.4
			c1.9,2.3,2.9,5.1,3.1,8l2.1,45.7c0.2,3.6-1.1,7.1-3.5,9.8c-2.4,2.7-5.8,4.2-9.4,4.4C122.4,258.8,122.1,258.8,121.9,258.8z"/>
		<path d="M107.8,57.7V58c0.6,0.2,1.3,0.4,1.9,0.8L150,82.4c1.9,0.8,3.4,2.3,4.2,4.1c0,0,0,0,0,0c0,0.1,0.1,0.2,0.1,0.3
			c0.9,2,1,4.3,0.1,6.4l-11.9,45.2c-1,3.8-4.4,6.2-8.1,6.2c-0.7,0-1.4-0.1-2.1-0.3c-4.5-1.2-7.2-5.8-6-10.3l10.6-39.9l-29.1-17v62.6
			l21.4,51.9c0.1,0.1,0.1,0.2,0.2,0.2c1.6,1.9,2.6,4.4,2.7,7.1l2.1,45.7c0.3,6.7-4.9,12.4-11.6,12.7h0c-0.2,0-0.4,0-0.6,0
			c-6.5,0-11.8-5.1-12.1-11.6l-2-45.1l-15.6-37.8H68.4l-21.5,39.5L45,245.8c-0.3,6.5-5.7,11.6-12.1,11.6c-0.2,0-0.4,0-0.6,0
			c-6.7-0.3-11.9-6-11.6-12.7l2.1-45.7c0.1-2.7,1.1-5.2,2.7-7.1c0.1-0.1,0.1-0.2,0.2-0.2L54,139.5V76.1L23,94.1l10.6,39.9
			c1.2,4.5-1.5,9.1-6,10.3c-0.7,0.2-1.4,0.3-2.1,0.3c-3.7,0-7.1-2.5-8.1-6.2L5.4,93.2c-0.8-2.1-0.7-4.4,0.1-6.4
			c0-0.1,0.1-0.2,0.1-0.3c0,0,0,0,0,0c0.8-1.8,2.3-3.3,4.2-4.1l40.4-23.5c1.2-0.7,2.5-1.1,3.8-1.1v0H107.8 M110.6,54.9h-2.8H54h-2.8
			v0.5c-0.8,0.2-1.6,0.6-2.3,1L8.6,79.8c-2.4,1.1-4.3,3-5.4,5.3l0,0l0,0.1C3.1,85.4,3,85.5,3,85.6l0,0.1c-1.2,2.7-1.3,5.7-0.2,8.4
			l11.9,45c1.3,4.9,5.8,8.4,10.8,8.4c1,0,1.9-0.1,2.9-0.4c6-1.6,9.6-7.7,8-13.7l-10-37.9L51.2,81v57.7l-27.9,51.4c0,0,0,0,0,0
			c-2,2.5-3.2,5.5-3.3,8.7l-2.1,45.7c-0.2,4,1.2,7.8,3.9,10.8c2.7,3,6.4,4.7,10.4,4.9c0.2,0,0.5,0,0.7,0c8,0,14.6-6.3,14.9-14.3
			l1.9-42.8l20.4-37.4h20.2l14.7,35.6l2,44.6c0.4,8,6.9,14.3,14.9,14.3c0.2,0,0.5,0,0.7,0c8.2-0.4,14.7-7.4,14.3-15.6l-2.1-45.7
			c-0.1-3.2-1.3-6.1-3.2-8.6l-21-51V82.1l23,13.4l-10,37.9c-1.6,6,2,12.1,8,13.7c0.9,0.2,1.9,0.4,2.9,0.4c5.1,0,9.5-3.4,10.8-8.4
			l11.9-45c1-2.8,0.9-5.7-0.2-8.4l0,0c0-0.1-0.1-0.2-0.1-0.3l0-0.1l0,0c-1.1-2.3-3-4.2-5.4-5.3l-40.3-23.4c-0.2-0.1-0.3-0.2-0.5-0.3
			V54.9L110.6,54.9z"/>
	</g>
	<g>
		<path class="st1" d="M119.9,256.8c-7.3,0-13.2-5.7-13.5-12.9l-2-44.9l-15.1-36.7h-22l-20.9,38.5l-1.9,43.1
			c-0.3,7.3-6.3,12.9-13.5,12.9c-0.2,0-0.4,0-0.6,0c-7.5-0.3-13.3-6.7-12.9-14.1l2.1-45.7c0.1-2.9,1.2-5.7,3-7.9
			c0,0,0.1-0.1,0.1-0.1l28.2-51.8V76.5l-28,16.3L33,131.7c1.4,5.2-1.7,10.6-7,12c-0.8,0.2-1.7,0.3-2.5,0.3c-4.4,0-8.3-3-9.5-7.3
			L2.1,91.6c-0.9-2.4-0.9-5.1,0.2-7.4c0.1-0.1,0.1-0.3,0.1-0.3l0-0.1c1-2,2.7-3.7,4.8-4.7l40.3-23.5c1-0.6,2-0.9,3.1-1.1v-0.2l1.4,0
			h55.1V55c0.4,0.2,0.8,0.4,1.2,0.6l40.3,23.5c2.1,1,3.8,2.6,4.8,4.7c0.1,0.1,0.1,0.2,0.1,0.3c1.1,2.4,1.1,5.1,0.2,7.5l-11.9,45.1
			c-1.1,4.3-5,7.3-9.5,7.3c0,0,0,0,0,0c-0.8,0-1.7-0.1-2.5-0.3c-5.2-1.4-8.4-6.8-7-12l10.3-38.9l-26.1-15.2v59.9
			c0,0,21.2,51.4,21.2,51.4c1.9,2.3,2.9,5.1,3.1,8l2.1,45.7c0.2,3.6-1.1,7.1-3.5,9.8c-2.4,2.7-5.8,4.2-9.4,4.4
			C120.4,256.8,120.1,256.8,119.9,256.8z"/>
		<path class="st2" d="M105.8,55.7V56c0.6,0.2,1.3,0.4,1.9,0.8L148,80.4c1.9,0.8,3.4,2.3,4.2,4.1c0,0,0,0,0,0c0,0.1,0.1,0.2,0.1,0.3
			c0.9,2,1,4.3,0.1,6.4l-11.9,45.2c-1,3.8-4.4,6.2-8.1,6.2c-0.7,0-1.4-0.1-2.1-0.3c-4.5-1.2-7.2-5.8-6-10.3l10.6-39.9l-29.1-17v62.6
			l21.4,51.9c0.1,0.1,0.1,0.2,0.2,0.2c1.6,1.9,2.6,4.4,2.7,7.1l2.1,45.7c0.3,6.7-4.9,12.4-11.6,12.7h0c-0.2,0-0.4,0-0.6,0
			c-6.5,0-11.8-5.1-12.1-11.6l-2-45.1l-15.6-37.8H66.4l-21.5,39.5L43,243.8c-0.3,6.5-5.7,11.6-12.1,11.6c-0.2,0-0.4,0-0.6,0
			c-6.7-0.3-11.9-6-11.6-12.7l2.1-45.7c0.1-2.7,1.1-5.2,2.7-7.1c0.1-0.1,0.1-0.2,0.2-0.2L52,137.5V74.1L21,92.1l10.6,39.9
			c1.2,4.5-1.5,9.1-6,10.3c-0.7,0.2-1.4,0.3-2.1,0.3c-3.7,0-7.1-2.5-8.1-6.2L3.4,91.2c-0.8-2.1-0.7-4.4,0.1-6.4
			c0-0.1,0.1-0.2,0.1-0.3c0,0,0,0,0,0c0.8-1.8,2.3-3.3,4.2-4.1l40.4-23.5c1.2-0.7,2.5-1.1,3.8-1.1v0H105.8 M108.6,52.9h-2.8H52h-2.8
			v0.5c-0.8,0.2-1.6,0.6-2.3,1L6.6,77.8c-2.4,1.1-4.3,3-5.4,5.3l0,0l0,0.1C1.1,83.4,1,83.5,1,83.6l0,0.1c-1.2,2.7-1.3,5.7-0.2,8.4
			l11.9,45c1.3,4.9,5.8,8.4,10.8,8.4c1,0,1.9-0.1,2.9-0.4c6-1.6,9.6-7.7,8-13.7l-10-37.9L49.2,79v57.7l-27.9,51.4c0,0,0,0,0,0
			c-2,2.5-3.2,5.5-3.3,8.7l-2.1,45.7c-0.2,4,1.2,7.8,3.9,10.8c2.7,3,6.4,4.7,10.4,4.9c0.2,0,0.5,0,0.7,0c8,0,14.6-6.3,14.9-14.3
			l1.9-42.8l20.4-37.4h20.2l14.7,35.6l2,44.6c0.4,8,6.9,14.3,14.9,14.3c0.2,0,0.5,0,0.7,0c8.2-0.4,14.7-7.4,14.3-15.6l-2.1-45.7
			c-0.1-3.2-1.3-6.1-3.2-8.6l-21-51V80.1l23,13.4l-10,37.9c-1.6,6,2,12.1,8,13.7c0.9,0.2,1.9,0.4,2.9,0.4c5.1,0,9.5-3.4,10.8-8.4
			l11.9-45c1-2.8,0.9-5.7-0.2-8.4l0,0c0-0.1-0.1-0.2-0.1-0.3l0-0.1l0,0c-1.1-2.3-3-4.2-5.4-5.3l-40.3-23.4c-0.2-0.1-0.3-0.2-0.5-0.3
			V52.9L108.6,52.9z"/>
	</g>
</g>
<g>
	<g class="st0">
		<path d="M75.9,53.3C62.7,53.3,52,42.5,52,29.3S62.7,5.4,75.9,5.4c13.2,0,23.9,10.7,23.9,23.9S89.1,53.3,75.9,53.3z M73.7,43.9
			c1.6,0.7,3.2,1.1,4.8,1.1c3,0,6.1-1.4,8.3-3.8c0.9-0.9,1.5-1.9,2-3C84.3,41.5,77.8,43.1,73.7,43.9z"/>
		<path d="M75.9,6.8c12.4,0,22.5,10.1,22.5,22.5c0,12.4-10.1,22.5-22.5,22.5c-12.4,0-22.5-10.1-22.5-22.5
			C53.4,16.9,63.5,6.8,75.9,6.8 M78.5,46.4c7.3,0,13-6.8,12.6-12.3C85.7,41.5,69.8,43,69.8,43C72.8,45.4,75.8,46.4,78.5,46.4
			 M75.9,4c-14,0-25.3,11.4-25.3,25.3s11.4,25.3,25.3,25.3s25.3-11.4,25.3-25.3S89.9,4,75.9,4L75.9,4z"/>
	</g>
	<g>
		<path class="st1" d="M73.9,51.3C60.7,51.3,50,40.5,50,27.3S60.7,3.4,73.9,3.4c13.2,0,23.9,10.7,23.9,23.9S87.1,51.3,73.9,51.3z
			 M71.7,41.9c1.6,0.7,3.2,1.1,4.8,1.1c3,0,6.1-1.4,8.3-3.8c0.9-0.9,1.5-1.9,2-3C82.3,39.5,75.8,41.1,71.7,41.9z"/>
		<path class="st2" d="M73.9,4.8c12.4,0,22.5,10.1,22.5,22.5c0,12.4-10.1,22.5-22.5,22.5c-12.4,0-22.5-10.1-22.5-22.5
			C51.4,14.9,61.5,4.8,73.9,4.8 M76.5,44.4c7.3,0,13-6.8,12.6-12.3C83.7,39.5,67.8,41,67.8,41C70.8,43.4,73.8,44.4,76.5,44.4
			 M73.9,2c-14,0-25.3,11.4-25.3,25.3s11.4,25.3,25.3,25.3s25.3-11.4,25.3-25.3S87.9,2,73.9,2L73.9,2z"/>
	</g>
</g>
</svg>
