<?xml version="1.0" encoding="utf-8"?>
<!-- Generator: Adobe Illustrator 19.1.0, SVG Export Plug-In . SVG Version: 6.00 Build 0)  -->
<svg version="1.1" id="Layer_1" xmlns="http://www.w3.org/2000/svg" xmlns:xlink="http://www.w3.org/1999/xlink" x="0px" y="0px"
	 viewBox="0 0 199.7 302.1" style="enable-background:new 0 0 199.7 302.1;" xml:space="preserve">
<style type="text/css">
	.st0{opacity:0.25;}
	.st1{fill:#2F9BFF;}
	.st2{fill:#FFFFFF;}
</style>
<g>
	<g class="st0">
		<path d="M108.4,114c-1.6,0-3.2-0.2-4.7-0.5c-6.3-1.3-11.7-4.9-15.2-10.2c-3.5-5.3-4.8-11.7-3.5-18c2.2-11.1,12.1-19.2,23.4-19.2
			c1.6,0,3.2,0.2,4.7,0.5c12.9,2.6,21.3,15.2,18.7,28.2C129.5,105.9,119.7,114,108.4,114C108.4,114,108.4,114,108.4,114z
			 M103.6,96.1c2,5.3,6.5,7.2,10.6,7.2c1.5,0,2.9-0.3,4.1-0.7C112.8,101.8,107,98.4,103.6,96.1z"/>
		<path d="M108.3,67.5c1.5,0,3,0.1,4.5,0.4c12.2,2.5,20.1,14.3,17.6,26.5c-2.1,10.7-11.5,18.1-22,18.1c-1.5,0-3-0.1-4.5-0.4
			c-12.2-2.5-20.1-14.3-17.6-26.5C88.4,74.9,97.8,67.5,108.3,67.5 M114.2,104.8c3.5,0,6.8-1.3,8.6-3.5c-0.6,0.1-1.3,0.2-1.9,0.2
			c-8.7,0-19.6-8.7-19.6-8.7C102.4,101.3,108.5,104.8,114.2,104.8 M108.3,64.7c-12,0-22.4,8.6-24.8,20.3c-1.3,6.6,0,13.4,3.7,19
			c3.7,5.6,9.5,9.5,16.1,10.8c1.7,0.3,3.3,0.5,5,0.5c12,0,22.4-8.6,24.8-20.3c2.8-13.7-6.1-27.1-19.8-29.8
			C111.7,64.9,110,64.7,108.3,64.7L108.3,64.7z"/>
		<path d="M25.3,295c-2.2,0-4.3-0.5-6.2-1.5c-6.7-3.4-9.4-11.7-6-18.4l45.1-88.2c0-0.2,0.1-0.4,0.1-0.6l9.2-45.6l-44.6,31.8
			c-1.6,1.1-3.5,1.7-5.5,1.7c-3,0-5.9-1.5-7.7-4c-1.5-2-2-4.5-1.6-7c0.4-2.5,1.8-4.7,3.8-6.1l61.5-43.8c1.6-1.1,3.5-1.7,5.4-1.7
			c0.9,0,1.7,0.1,2.5,0.3c0.4,0,0.8,0.1,1.2,0.2l37.3,7.5l60.4-49.5c1.7-1.4,3.8-2.1,6-2.1c2.8,0,5.5,1.3,7.3,3.4
			c3.3,4,2.7,10-1.3,13.3L125.9,139l-8.4,41.7l27.7-3.5c0.6-0.1,1.2-0.1,1.7-0.1c4.5,0,8.7,2.2,11.2,5.9c2.9,4.2,3.2,9.6,0.9,14.2
			l-26.7,50.7c-2.4,4.5-7,7.3-12.1,7.3c-2.2,0-4.4-0.5-6.4-1.6c-3.2-1.7-5.6-4.6-6.7-8c-1.1-3.5-0.7-7.2,1-10.4l14.4-27.4L95.7,211
			c-0.6,0.1-1.2,0.1-1.7,0.1c-5.8,0-10.9-3.7-12.8-9l-43.7,85.4C35.2,292.2,30.5,295,25.3,295z"/>
		<path d="M186.3,69.4c2.3,0,4.6,1,6.2,2.9c2.8,3.4,2.3,8.5-1.1,11.3l-66.7,54.7c0,0,0,0,0,0l-8.9,44.1l29.7-3.8
			c0.5-0.1,1-0.1,1.6-0.1c4,0,7.8,1.9,10.1,5.3c2.6,3.8,2.9,8.6,0.8,12.7l-26.7,50.7c-2.2,4.2-6.4,6.5-10.9,6.5
			c-1.9,0-3.9-0.5-5.7-1.4c-6-3.2-8.3-10.6-5.1-16.5l15.7-29.8l-29.6,3.8c-0.5,0.1-1,0.1-1.6,0.1c-6.1,0-11.3-4.5-12.1-10.7
			c0,0,0,0,0-0.1l-0.6-0.1l-45,88.1c-2.2,4.2-6.5,6.7-10.9,6.7c-1.9,0-3.8-0.4-5.6-1.3c-6-3.1-8.4-10.5-5.3-16.5l45.2-88.4
			c0-0.2,0.1-0.5,0.1-0.8l9.9-49.1l-47.6,33.9c-1.4,1-3,1.5-4.6,1.5c-2.5,0-5-1.2-6.5-3.4c-2.6-3.6-1.7-8.6,1.9-11.2l61.5-43.8
			c1.4-1,3-1.5,4.6-1.5c0.8,0,1.5,0.1,2.3,0.3c0.4,0,0.8,0.1,1.1,0.1l37.9,7.6c0,0,0,0,0.1,0l60.9-50
			C182.7,70,184.5,69.4,186.3,69.4 M186.3,66.5c-2.5,0-4.9,0.9-6.9,2.5l-59.9,49.1l-36.6-7.4c-0.4-0.1-0.8-0.1-1.2-0.2
			c-0.9-0.2-1.8-0.4-2.8-0.4c-2.3,0-4.4,0.7-6.3,2L11.1,156c-2.4,1.7-3.9,4.2-4.4,7c-0.5,2.9,0.2,5.7,1.9,8.1c2,2.8,5.3,4.5,8.8,4.5
			c2.3,0,4.4-0.7,6.3-2L65.4,144L57,186c0,0.1-0.1,0.3-0.1,0.5l-45,88c-3.8,7.4-0.8,16.5,6.6,20.3c2.1,1.1,4.5,1.7,6.9,1.7
			c5.7,0,10.8-3.2,13.4-8.2l42.4-82.9c2.7,4.4,7.5,7.2,12.9,7.2c0.6,0,1.3,0,1.9-0.1l24.2-3.1l-13.2,25c-1.9,3.6-2.3,7.6-1.1,11.5
			c1.2,3.8,3.8,7,7.4,8.9c2.2,1.1,4.6,1.7,7,1.7c5.6,0,10.7-3.1,13.4-8.1l26.7-50.7c2.6-5,2.3-11-1-15.6c-2.8-4.1-7.4-6.5-12.4-6.5
			c-0.6,0-1.3,0-1.9,0.1l-25.8,3.3l7.9-39.2l65.9-54c4.6-3.8,5.3-10.6,1.5-15.2C192.6,68,189.5,66.5,186.3,66.5L186.3,66.5z"/>
		<path d="M66.3,74.9c-2.6,0-5.1-0.8-7.1-2.4c-2.3,1.6-5,2.4-7.8,2.4c-2.9,0-5.7-0.9-8-2.5C41.9,73.4,40,74,38.1,74
			c-4.9,0-8.8-4-8.8-8.8c0-4.8,3.9-8.8,8.8-8.8c0.7-2.1,1.9-4.1,3.6-5.7c2.6-2.5,6.1-3.9,9.7-3.9c4.3,0,8.2,1.9,10.7,5l1.8-0.4
			c0.8-0.2,1.6-0.2,2.4-0.2c6.5,0,11.8,5.3,11.8,11.8C78.1,69.6,72.8,74.9,66.3,74.9z"/>
		<path d="M51.4,48.2c7,0,12.6,5.6,12.6,12.6c0,2.6-0.8,5.1-2.2,7.1c2.4-2.3,3.9-5.5,3.9-9.1c0-2.2-0.5-4.2-1.5-6
			c0.7-0.1,1.4-0.2,2.1-0.2c5.8,0,10.4,4.7,10.4,10.4c0,5.8-4.7,10.4-10.4,10.4c-2.7,0-5.2-1.1-7-2.8c-2.2,1.7-4.9,2.8-7.9,2.8
			c-3.1,0-5.9-1.1-8.1-2.9c-1.3,1.3-3.2,2.1-5.2,2.1c-4.1,0-7.4-3.3-7.4-7.4c0-4.1,3.3-7.4,7.4-7.4c0.3,0,0.7,0,1,0.1
			c0.6-2.4,1.8-4.5,3.5-6.1C44.9,49.6,48,48.2,51.4,48.2 M51.4,45.4c-4,0-7.8,1.5-10.7,4.3c-1.6,1.5-2.8,3.3-3.6,5.3
			c-5.2,0.5-9.2,4.9-9.2,10.2c0,5.6,4.6,10.2,10.2,10.2c1.9,0,3.7-0.5,5.2-1.4c2.4,1.5,5.2,2.3,8,2.3c2.8,0,5.4-0.7,7.8-2.1
			c2.1,1.4,4.6,2.1,7.1,2.1c7.3,0,13.3-5.9,13.3-13.2c0-7.3-5.9-13.3-13.3-13.3c-0.9,0-1.8,0.1-2.7,0.3l-1,0.2
			C59.8,47.3,55.8,45.4,51.4,45.4L51.4,45.4z"/>
		<path d="M159.5,52.6c-3.4,0-6.6-1.5-8.9-4.1l-1-1.2l1.2-0.9c4.4-3.2,7.1-8.4,7.1-13.9c0-0.6,0-1.2-0.1-1.8l-0.2-1.5l1.5,0
			c0.1,0,0.2,0,0.2,0c6.5,0,11.7,5.3,11.7,11.7S166,52.6,159.5,52.6z"/>
		<path d="M159.5,30.6c5.7,0,10.3,4.6,10.3,10.3s-4.6,10.3-10.3,10.3c-3.1,0-5.9-1.4-7.8-3.6c4.7-3.4,7.7-8.9,7.7-15.1
			c0-0.7,0-1.3-0.1-2C159.4,30.6,159.4,30.6,159.5,30.6 M159.5,27.7c-0.1,0-0.2,0-0.3,0l-3.1,0.1l0.4,3c0.1,0.6,0.1,1.1,0.1,1.7
			c0,5-2.4,9.8-6.5,12.8l-2.5,1.8l2,2.3c2.5,2.9,6.1,4.6,9.9,4.6c7.2,0,13.1-5.9,13.1-13.1C172.6,33.6,166.7,27.7,159.5,27.7
			L159.5,27.7z"/>
		<path d="M113.1,53.2c-4.8,0-8.7-3.9-8.7-8.7c0-0.3,0-0.6,0-0.9c0.3-3.4,2.6-6.2,5.6-7.3l0.2-0.8c1.2-5.2,5.3-9.1,10.3-10.3
			l0.8-1.6c3.4-6.9,10.3-11.1,17.9-11.1c0.2,0,0.4,0,0.6,0l0.3,0c10.8,0.5,19.2,9.2,19.2,20s-8.4,19.5-19.2,20l-0.3,0
			c-0.2,0-0.4,0-0.6,0c-3,0-5.8-0.6-8.5-1.9c-2.1,1.2-4.5,1.9-7,1.9c-1.9,0-3.7-0.4-5.4-1.1C116.8,52.6,115,53.2,113.1,53.2z"/>
		<path d="M139.2,13.9c0.3,0,0.5,0,0.8,0c9.9,0.4,17.8,8.6,17.8,18.6c0,10-7.9,18.2-17.8,18.6c-0.3,0-0.5,0-0.8,0
			c-3.1,0-6-0.8-8.5-2.1c-2,1.3-4.4,2.1-6.9,2.1c-2,0-3.9-0.5-5.6-1.4c-1.3,1.2-3,2-5,2c-4,0-7.3-3.3-7.3-7.3c0-0.3,0-0.5,0-0.7
			c0.4-3.7,3.5-6.6,7.3-6.6c3.8,0,6.9,2.9,7.3,6.6c0-0.2,0-0.5,0-0.7c0-4-3.3-7.3-7.3-7.3c-0.5,0-1,0.1-1.5,0.2
			c1.3-5.5,6.2-9.6,12.1-9.6c3.4,0,6.4,1.3,8.6,3.5c-2.2-3.2-5.8-5.3-9.8-5.4C125.6,18.1,131.9,13.9,139.2,13.9 M139.2,11.1
			c-8.2,0-15.5,4.6-19.2,11.9l-0.5,1c-5.2,1.5-9.3,5.7-10.7,11.2l0,0.1c-3.2,1.5-5.4,4.5-5.8,8.2c0,0.3-0.1,0.7-0.1,1
			c0,5.6,4.6,10.2,10.2,10.2c1.9,0,3.8-0.5,5.4-1.5c1.7,0.6,3.4,0.9,5.3,0.9c2.5,0,4.9-0.6,7.1-1.7c2.7,1.1,5.5,1.7,8.4,1.7
			c0.2,0,0.5,0,0.7,0c0.1,0,0.2,0,0.2,0c11.5-0.5,20.6-9.9,20.6-21.4c0-11.5-9-20.9-20.5-21.4c-0.1,0-0.2,0-0.2,0
			C139.6,11.1,139.4,11.1,139.2,11.1L139.2,11.1z"/>
	</g>
	<g>
		<g>
			<g>
				<path class="st1" d="M106.4,112c-1.6,0-3.2-0.2-4.7-0.5c-6.3-1.3-11.7-4.9-15.2-10.2c-3.5-5.3-4.8-11.7-3.5-18
					c2.2-11.1,12.1-19.2,23.4-19.2c1.6,0,3.2,0.2,4.7,0.5c12.9,2.6,21.3,15.2,18.7,28.2C127.5,103.9,117.7,112,106.4,112
					C106.4,112,106.4,112,106.4,112z M101.6,94.1c2,5.3,6.5,7.2,10.6,7.2c1.5,0,2.9-0.3,4.1-0.7C110.8,99.8,105,96.4,101.6,94.1z"/>
				<path class="st2" d="M106.3,65.5c1.5,0,3,0.1,4.5,0.4c12.2,2.5,20.1,14.3,17.6,26.5c-2.1,10.7-11.5,18.1-22,18.1
					c-1.5,0-3-0.1-4.5-0.4c-12.2-2.5-20.1-14.3-17.6-26.5C86.4,72.9,95.8,65.5,106.3,65.5 M112.2,102.8c3.5,0,6.8-1.3,8.6-3.5
					c-0.6,0.1-1.3,0.2-1.9,0.2c-8.7,0-19.6-8.7-19.6-8.7C100.4,99.3,106.5,102.8,112.2,102.8 M106.3,62.7c-12,0-22.4,8.6-24.8,20.3
					c-1.3,6.6,0,13.4,3.7,19c3.7,5.6,9.5,9.5,16.1,10.8c1.7,0.3,3.3,0.5,5,0.5c12,0,22.4-8.6,24.8-20.3c2.8-13.7-6.1-27.1-19.8-29.8
					C109.7,62.9,108,62.7,106.3,62.7L106.3,62.7z"/>
			</g>
			<g>
				<path class="st1" d="M23.3,293c-2.2,0-4.3-0.5-6.2-1.5c-6.7-3.4-9.4-11.7-6-18.4l45.1-88.2c0-0.2,0.1-0.4,0.1-0.6l9.2-45.6
					l-44.6,31.8c-1.6,1.1-3.5,1.7-5.5,1.7c-3,0-5.9-1.5-7.7-4c-1.5-2-2-4.5-1.6-7s1.8-4.7,3.8-6.1l61.5-43.8
					c1.6-1.1,3.5-1.7,5.4-1.7c0.9,0,1.7,0.1,2.5,0.3c0.4,0,0.8,0.1,1.2,0.2l37.3,7.5l60.4-49.5c1.7-1.4,3.8-2.1,6-2.1
					c2.8,0,5.5,1.3,7.3,3.4c3.3,4,2.7,10-1.3,13.3L123.9,137l-8.4,41.7l27.7-3.5c0.6-0.1,1.2-0.1,1.7-0.1c4.5,0,8.7,2.2,11.2,5.9
					c2.9,4.2,3.2,9.6,0.9,14.2l-26.7,50.7c-2.4,4.5-7,7.3-12.1,7.3c-2.2,0-4.4-0.5-6.4-1.6c-3.2-1.7-5.6-4.6-6.7-8
					c-1.1-3.5-0.7-7.2,1-10.4l14.4-27.4L93.7,209c-0.6,0.1-1.2,0.1-1.7,0.1c-5.8,0-10.9-3.7-12.8-9l-43.7,85.4
					C33.2,290.2,28.5,293,23.3,293z"/>
				<path class="st2" d="M184.3,67.4c2.3,0,4.6,1,6.2,2.9c2.8,3.4,2.3,8.5-1.1,11.3l-66.7,54.7c0,0,0,0,0,0l-8.9,44.1l29.7-3.8
					c0.5-0.1,1-0.1,1.6-0.1c4,0,7.8,1.9,10.1,5.3c2.6,3.8,2.9,8.6,0.8,12.7l-26.7,50.7c-2.2,4.2-6.4,6.5-10.9,6.5
					c-1.9,0-3.9-0.5-5.7-1.4c-6-3.2-8.3-10.6-5.1-16.5l15.7-29.8l-29.6,3.8c-0.5,0.1-1,0.1-1.6,0.1c-6.1,0-11.3-4.5-12.1-10.7
					c0,0,0,0,0-0.1l-0.6-0.1l-45,88.1c-2.2,4.2-6.5,6.7-10.9,6.7c-1.9,0-3.8-0.4-5.6-1.3c-6-3.1-8.4-10.5-5.3-16.5l45.2-88.4
					c0-0.2,0.1-0.5,0.1-0.8l9.9-49.1l-47.6,33.9c-1.4,1-3,1.5-4.6,1.5c-2.5,0-5-1.2-6.5-3.4c-2.6-3.6-1.7-8.6,1.9-11.2l61.5-43.8
					c1.4-1,3-1.5,4.6-1.5c0.8,0,1.5,0.1,2.3,0.3c0.4,0,0.8,0.1,1.1,0.1l37.9,7.6c0,0,0,0,0.1,0l60.9-50
					C180.7,68,182.5,67.4,184.3,67.4 M184.3,64.5c-2.5,0-4.9,0.9-6.9,2.5l-59.9,49.1l-36.6-7.4c-0.4-0.1-0.8-0.1-1.2-0.2
					c-0.9-0.2-1.8-0.4-2.8-0.4c-2.3,0-4.4,0.7-6.3,2L9.1,154c-2.4,1.7-3.9,4.2-4.4,7c-0.5,2.9,0.2,5.7,1.9,8.1
					c2,2.8,5.3,4.5,8.8,4.5c2.3,0,4.4-0.7,6.3-2L63.4,142L55,184c0,0.1-0.1,0.3-0.1,0.5l-45,88c-3.8,7.4-0.8,16.5,6.6,20.3
					c2.1,1.1,4.5,1.7,6.9,1.7c5.7,0,10.8-3.2,13.4-8.2l42.4-82.9c2.7,4.4,7.5,7.2,12.9,7.2c0.6,0,1.3,0,1.9-0.1l24.2-3.1l-13.2,25
					c-1.9,3.6-2.3,7.6-1.1,11.5c1.2,3.8,3.8,7,7.4,8.9c2.2,1.1,4.6,1.7,7,1.7c5.6,0,10.7-3.1,13.4-8.1l26.7-50.7
					c2.6-5,2.3-11-1-15.6c-2.8-4.1-7.4-6.5-12.4-6.5c-0.6,0-1.3,0-1.9,0.1l-25.8,3.3l7.9-39.2l65.9-54c4.6-3.8,5.3-10.6,1.5-15.2
					C190.6,66,187.5,64.5,184.3,64.5L184.3,64.5z"/>
			</g>
			<g>
				<path class="st1" d="M64.3,72.9c-2.6,0-5.1-0.8-7.1-2.4c-2.3,1.6-5,2.4-7.8,2.4c-2.9,0-5.7-0.9-8-2.5C39.9,71.4,38,72,36.1,72
					c-4.9,0-8.8-4-8.8-8.8c0-4.8,3.9-8.8,8.8-8.8c0.7-2.1,1.9-4.1,3.6-5.7c2.6-2.5,6.1-3.9,9.7-3.9c4.3,0,8.2,1.9,10.7,5l1.8-0.4
					c0.8-0.2,1.6-0.2,2.4-0.2c6.5,0,11.8,5.3,11.8,11.8C76.1,67.6,70.8,72.9,64.3,72.9z"/>
				<path class="st2" d="M49.4,46.2c7,0,12.6,5.6,12.6,12.6c0,2.6-0.8,5.1-2.2,7.1c2.4-2.3,3.9-5.5,3.9-9.1c0-2.2-0.5-4.2-1.5-6
					c0.7-0.1,1.4-0.2,2.1-0.2c5.8,0,10.4,4.7,10.4,10.4c0,5.8-4.7,10.4-10.4,10.4c-2.7,0-5.2-1.1-7-2.8c-2.2,1.7-4.9,2.8-7.9,2.8
					c-3.1,0-5.9-1.1-8.1-2.9c-1.3,1.3-3.2,2.1-5.2,2.1c-4.1,0-7.4-3.3-7.4-7.4c0-4.1,3.3-7.4,7.4-7.4c0.3,0,0.7,0,1,0.1
					c0.6-2.4,1.8-4.5,3.5-6.1C42.9,47.6,46,46.2,49.4,46.2 M49.4,43.4c-4,0-7.8,1.5-10.7,4.3c-1.6,1.5-2.8,3.3-3.6,5.3
					c-5.2,0.5-9.2,4.9-9.2,10.2c0,5.6,4.6,10.2,10.2,10.2c1.9,0,3.7-0.5,5.2-1.4c2.4,1.5,5.2,2.3,8,2.3c2.8,0,5.4-0.7,7.8-2.1
					c2.1,1.4,4.6,2.1,7.1,2.1c7.3,0,13.3-5.9,13.3-13.2c0-7.3-5.9-13.3-13.3-13.3c-0.9,0-1.8,0.1-2.7,0.3l-1,0.2
					C57.8,45.3,53.8,43.4,49.4,43.4L49.4,43.4z"/>
			</g>
			<g>
				<path class="st1" d="M157.5,50.6c-3.4,0-6.6-1.5-8.9-4.1l-1-1.2l1.2-0.9c4.4-3.2,7.1-8.4,7.1-13.9c0-0.6,0-1.2-0.1-1.8l-0.2-1.5
					l1.5,0c0.1,0,0.2,0,0.2,0c6.5,0,11.7,5.3,11.7,11.7S164,50.6,157.5,50.6z"/>
				<path class="st2" d="M157.5,28.6c5.7,0,10.3,4.6,10.3,10.3s-4.6,10.3-10.3,10.3c-3.1,0-5.9-1.4-7.8-3.6
					c4.7-3.4,7.7-8.9,7.7-15.1c0-0.7,0-1.3-0.1-2C157.4,28.6,157.4,28.6,157.5,28.6 M157.5,25.7c-0.1,0-0.2,0-0.3,0l-3.1,0.1l0.4,3
					c0.1,0.6,0.1,1.1,0.1,1.7c0,5-2.4,9.8-6.5,12.8l-2.5,1.8l2,2.3c2.5,2.9,6.1,4.6,9.9,4.6c7.2,0,13.1-5.9,13.1-13.1
					C170.6,31.6,164.7,25.7,157.5,25.7L157.5,25.7z"/>
			</g>
			<g>
				<path class="st1" d="M111.1,51.2c-4.8,0-8.7-3.9-8.7-8.7c0-0.3,0-0.6,0-0.9c0.3-3.4,2.6-6.2,5.6-7.3l0.2-0.8
					c1.2-5.2,5.3-9.1,10.3-10.3l0.8-1.6c3.4-6.9,10.3-11.1,17.9-11.1c0.2,0,0.4,0,0.6,0l0.3,0c10.8,0.5,19.2,9.2,19.2,20
					s-8.4,19.5-19.2,20l-0.3,0c-0.2,0-0.4,0-0.6,0c-3,0-5.8-0.6-8.5-1.9c-2.1,1.2-4.5,1.9-7,1.9c-1.9,0-3.7-0.4-5.4-1.1
					C114.8,50.6,113,51.2,111.1,51.2z"/>
				<path class="st2" d="M137.2,11.9c0.3,0,0.5,0,0.8,0c9.9,0.4,17.8,8.6,17.8,18.6c0,10-7.9,18.2-17.8,18.6c-0.3,0-0.5,0-0.8,0
					c-3.1,0-6-0.8-8.5-2.1c-2,1.3-4.4,2.1-6.9,2.1c-2,0-3.9-0.5-5.6-1.4c-1.3,1.2-3,2-5,2c-4,0-7.3-3.3-7.3-7.3c0-0.3,0-0.5,0-0.7
					c0.4-3.7,3.5-6.6,7.3-6.6c3.8,0,6.9,2.9,7.3,6.6c0-0.2,0-0.5,0-0.7c0-4-3.3-7.3-7.3-7.3c-0.5,0-1,0.1-1.5,0.2
					c1.3-5.5,6.2-9.6,12.1-9.6c3.4,0,6.4,1.3,8.6,3.5c-2.2-3.2-5.8-5.3-9.8-5.4C123.6,16.1,129.9,11.9,137.2,11.9 M137.2,9.1
					c-8.2,0-15.5,4.6-19.2,11.9l-0.5,1c-5.2,1.5-9.3,5.7-10.7,11.2l0,0.1c-3.2,1.5-5.4,4.5-5.8,8.2c0,0.3-0.1,0.7-0.1,1
					c0,5.6,4.6,10.2,10.2,10.2c1.9,0,3.8-0.5,5.4-1.5c1.7,0.6,3.4,0.9,5.3,0.9c2.5,0,4.9-0.6,7.1-1.7c2.7,1.1,5.5,1.7,8.4,1.7
					c0.2,0,0.5,0,0.7,0c0.1,0,0.2,0,0.2,0c11.5-0.5,20.6-9.9,20.6-21.4c0-11.5-9-20.9-20.5-21.4c-0.1,0-0.2,0-0.2,0
					C137.6,9.1,137.4,9.1,137.2,9.1L137.2,9.1z"/>
			</g>
		</g>
	</g>
</g>
</svg>
