<?xml version="1.0" encoding="utf-8"?>
<!-- Generator: Adobe Illustrator 19.1.0, SVG Export Plug-In . SVG Version: 6.00 Build 0)  -->
<svg version="1.1" id="Layer_1" xmlns="http://www.w3.org/2000/svg" xmlns:xlink="http://www.w3.org/1999/xlink" x="0px" y="0px"
	 viewBox="0 0 128.4 278.6" style="enable-background:new 0 0 128.4 278.6;" xml:space="preserve">
<style type="text/css">
	.st0{opacity:0.25;}
	.st1{fill:#2F9BFF;}
	.st2{fill:#FFFFFF;}
</style>
<g>
	<g class="st0">
		<path d="M68.1,86.1c-1.6,0-3.2-0.2-4.7-0.5c-6.3-1.3-11.7-4.9-15.2-10.2c-3.5-5.3-4.8-11.7-3.5-18C46.9,46.4,56.7,38.3,68,38.3
			c1.6,0,3.2,0.2,4.7,0.5C85.7,41.4,94.1,54,91.5,66.9C89.3,78.1,79.4,86.1,68.1,86.1C68.1,86.1,68.1,86.1,68.1,86.1z M63.3,68.3
			c2,5.3,6.5,7.2,10.6,7.2c1.5,0,2.9-0.3,4.1-0.7C72.5,74,66.7,70.6,63.3,68.3z"/>
		<path d="M68,39.7c1.5,0,3,0.1,4.5,0.4c12.2,2.5,20.1,14.3,17.6,26.5c-2.1,10.7-11.5,18.1-22,18.1c-1.5,0-3-0.1-4.5-0.4
			C51.4,81.8,43.6,70,46,57.8C48.2,47.1,57.6,39.7,68,39.7 M73.9,77c3.5,0,6.8-1.3,8.6-3.5c-0.6,0.1-1.3,0.2-1.9,0.2
			c-8.7,0-19.6-8.7-19.6-8.7C62.1,73.5,68.3,77,73.9,77 M68,36.9c-12,0-22.4,8.6-24.8,20.3c-1.3,6.6,0,13.4,3.7,19
			c3.7,5.6,9.5,9.5,16.1,10.8c1.7,0.3,3.3,0.5,5,0.5c12,0,22.4-8.6,24.8-20.3c2.8-13.7-6.1-27.1-19.8-29.8
			C71.4,37.1,69.7,36.9,68,36.9L68,36.9z"/>
	</g>
	<g>
		<path class="st1" d="M66.1,84.1c-1.6,0-3.2-0.2-4.7-0.5c-6.3-1.3-11.7-4.9-15.2-10.2c-3.5-5.3-4.8-11.7-3.5-18
			C44.9,44.4,54.7,36.3,66,36.3c1.6,0,3.2,0.2,4.7,0.5C83.7,39.4,92.1,52,89.5,64.9C87.3,76.1,77.4,84.1,66.1,84.1
			C66.1,84.1,66.1,84.1,66.1,84.1z M61.3,66.3c2,5.3,6.5,7.2,10.6,7.2c1.5,0,2.9-0.3,4.1-0.7C70.5,72,64.7,68.6,61.3,66.3z"/>
		<path class="st2" d="M66,37.7c1.5,0,3,0.1,4.5,0.4c12.2,2.5,20.1,14.3,17.6,26.5c-2.1,10.7-11.5,18.1-22,18.1
			c-1.5,0-3-0.1-4.5-0.4C49.4,79.8,41.6,68,44,55.8C46.2,45.1,55.6,37.7,66,37.7 M71.9,75c3.5,0,6.8-1.3,8.6-3.5
			c-0.6,0.1-1.3,0.2-1.9,0.2c-8.7,0-19.6-8.7-19.6-8.7C60.1,71.5,66.3,75,71.9,75 M66,34.9c-12,0-22.4,8.6-24.8,20.3
			c-1.3,6.6,0,13.4,3.7,19c3.7,5.6,9.5,9.5,16.1,10.8c1.7,0.3,3.3,0.5,5,0.5c12,0,22.4-8.6,24.8-20.3c2.8-13.7-6.1-27.1-19.8-29.8
			C69.4,35.1,67.7,34.9,66,34.9L66,34.9z"/>
	</g>
</g>
<g>
	<g class="st0">
		<path d="M32.7,277.2c-7.6,0-13.8-6.2-13.8-13.8V161.7c0-0.1,0-0.3,0-0.4l0-0.1c-0.1-0.9-0.1-1.9,0.1-2.8l12-59.5
			c-3.7-2.2-7.2-4.8-10.4-7.9C14.2,84.7,3.3,70.4,3.4,45.2c0-10.6,1.9-22.4,5.6-35.1c1.2-4,4.9-6.7,9-6.7c0.9,0,1.8,0.1,2.7,0.4
			c5,1.5,7.8,6.7,6.4,11.7c-3.2,10.9-4.9,20.9-4.9,29.7c0.1,13.3,3.5,23.5,10.6,31.3c4.8,5.2,10,7.4,11.2,7.9l37.2,7.5
			c0.7,0.1,1.5,0.4,2.2,0.7c0.7,0.2,1.3,0.5,1.9,0.9c2.9,1.9,4.2,3.8,5.6,5.7l0.5,0.6c1.6,2.2,3,4.6,4.5,7.1l0.6,1
			c2.9,4.8,5.8,9.7,8.5,13.1c0.5,0.6,0.9,1.1,1.3,1.6c0.6-1.3,1.3-3.3,2.1-6.2c1.1-4.1,4.9-6.9,9.1-6.9c0.8,0,1.7,0.1,2.5,0.3
			c5,1.4,8,6.6,6.6,11.6c-1.3,4.8-2.7,8.4-4.4,11.5c-2.1,3.8-4.4,6.4-7.3,8.1c-2.2,1.4-5,2.2-7.6,2.2c-2.7,0-5.2-0.7-7.7-2
			c-1.8-1-3.5-2.2-5.2-3.9c-3.1-3-5.6-6.4-7.6-9.4c-1-1.4-1.9-2.9-2.8-4.3l-5.3,26.3l16.2-3.7c1-0.2,2-0.3,3.1-0.3
			c6.3,0,11.8,4.3,13.3,10.5l12,50.3c1.7,7.3-2.8,14.7-10.1,16.5c-1,0.2-2.1,0.4-3.2,0.4c-6.3,0-11.8-4.3-13.3-10.5l-8.9-37.2
			l-30.1,6.9c-1,0.2-2,0.3-3,0.3c-3,0-5.9-1-8.2-2.8v82.9C46.5,271,40.3,277.2,32.7,277.2z"/>
		<path d="M18.1,4.8c0.8,0,1.5,0.1,2.3,0.3c4.2,1.3,6.7,5.7,5.4,9.9c-3.5,12-4.9,21.9-4.9,30.1c0.1,16.8,5.5,26.2,11,32.2
			c5,5.4,10.3,7.7,11.9,8.3l37.3,7.5c0.7,0.1,1.3,0.4,1.9,0.7c0.6,0.2,1.2,0.5,1.7,0.8c2.9,1.9,4.1,3.8,5.7,6c1.5,2.1,3,4.5,4.5,7
			c3,5,6.3,10.5,9.2,14.2c1,1.3,2,2.4,2.8,3.1c0.8-1.4,2-4.2,3.1-8.2c1-3.6,4.2-5.9,7.7-5.9c0.7,0,1.4,0.1,2.1,0.3
			c4.3,1.2,6.8,5.6,5.6,9.8c-1.2,4.5-2.6,8.1-4.3,11.2c-1.7,3.1-3.7,5.7-6.8,7.6c-2,1.2-4.5,2-6.8,2c0,0,0,0,0,0c0,0-0.1,0-0.1,0
			c-2.7,0-5-0.8-6.9-1.8c-1.9-1-3.5-2.3-4.9-3.6c-2.8-2.7-5.2-5.9-7.4-9.2c-1.6-2.4-3.2-4.9-4.6-7.3L77,152l18.3-4.2
			c0.9-0.2,1.8-0.3,2.7-0.3c5.5,0,10.6,3.8,11.9,9.4l12,50.3c1.6,6.6-2.5,13.2-9.1,14.8c-1,0.2-1.9,0.3-2.9,0.3
			c-5.5,0-10.6-3.8-11.9-9.4L89,174.4l-31.5,7.2h0c-0.9,0.2-1.8,0.3-2.7,0.3c-3.8,0-7.4-1.8-9.7-4.7v86.3c0,6.8-5.5,12.4-12.4,12.4
			c-6.8,0-12.4-5.5-12.4-12.4V161.7c0-0.2,0-0.3,0-0.5c-0.1-0.8-0.1-1.6,0.1-2.4l12.2-60.5c-3.1-1.7-7-4.4-11-8.2
			C13.1,81.6,4.8,67,4.8,45.2c0-10,1.7-21.5,5.6-34.7C11.4,7.1,14.6,4.8,18.1,4.8 M18.1,2C13.3,2,9,5.2,7.7,9.8
			C3.9,22.5,2,34.5,2,45.2C1.9,70.9,13.1,85.5,19.7,92c3,2.9,6.3,5.5,9.8,7.6l-11.8,58.5c-0.2,1-0.3,2-0.2,3.1c0,0.1,0,0.3,0,0.4
			v101.7c0,8.4,6.8,15.2,15.2,15.2c8.4,0,15.2-6.8,15.2-15.2V183c2.1,1.1,4.4,1.7,6.8,1.7c1.1,0,2.2-0.1,3.3-0.4l24.6-5.6h0l4.1-0.9
			l8.5,35.8c1.6,6.8,7.7,11.6,14.7,11.6c1.2,0,2.4-0.1,3.5-0.4c8.1-1.9,13.1-10.1,11.2-18.2l-12-50.3c-1.6-6.8-7.7-11.6-14.7-11.6
			c-1.1,0-2.3,0.1-3.4,0.4l-14.1,3.2l4.2-20.7c0.3,0.4,0.6,0.9,0.9,1.3c2.1,3.1,4.6,6.6,7.8,9.7c1.9,1.8,3.6,3.1,5.5,4.1
			c2.7,1.4,5.5,2.2,8.3,2.2h0.1c2.9,0,5.8-0.8,8.3-2.4c3.1-1.9,5.6-4.7,7.8-8.7c1.7-3.2,3.2-7,4.5-11.8c1.6-5.8-1.8-11.7-7.6-13.3
			c-0.9-0.3-1.9-0.4-2.9-0.4c-4.9,0-9.2,3.3-10.4,8c-0.4,1.5-0.8,2.8-1.2,3.8c-2.6-3.3-5.4-8.1-8.2-12.7l-0.6-1
			c-1.5-2.5-3-5-4.6-7.2l0,0l0,0l-0.5-0.6c-1.4-2-2.9-4-6-6l0,0l0,0c-0.7-0.4-1.4-0.8-2.1-1c-0.8-0.4-1.6-0.6-2.4-0.8l-37-7.5
			c-1.3-0.5-6.1-2.7-10.6-7.5c-6.8-7.5-10.2-17.4-10.2-30.3c0-8.7,1.6-18.6,4.8-29.3c1.7-5.7-1.6-11.8-7.3-13.5
			C20.1,2.2,19.1,2,18.1,2L18.1,2z"/>
	</g>
	<g>
		<path class="st1" d="M30.7,275.2c-7.6,0-13.8-6.2-13.8-13.8V159.7c0-0.1,0-0.3,0-0.4l0-0.1c-0.1-0.9-0.1-1.9,0.1-2.8l12-59.5
			c-3.7-2.2-7.2-4.8-10.4-7.9C12.2,82.7,1.3,68.4,1.4,43.2C1.4,32.6,3.3,20.8,7,8.2c1.2-4,4.9-6.7,9-6.7c0.9,0,1.8,0.1,2.7,0.4
			c5,1.5,7.8,6.7,6.4,11.7c-3.2,10.9-4.9,20.9-4.9,29.7c0.1,13.3,3.5,23.5,10.6,31.3c4.8,5.2,10,7.4,11.2,7.9l37.2,7.5
			c0.7,0.1,1.5,0.4,2.2,0.7c0.7,0.2,1.3,0.5,1.9,0.9c2.9,1.9,4.2,3.8,5.6,5.7l0.5,0.6c1.6,2.2,3,4.6,4.5,7.1l0.6,1
			c2.9,4.8,5.8,9.7,8.5,13.1c0.5,0.6,0.9,1.1,1.3,1.6c0.6-1.3,1.3-3.3,2.1-6.2c1.1-4.1,4.9-6.9,9.1-6.9c0.8,0,1.7,0.1,2.5,0.3
			c5,1.4,8,6.6,6.6,11.6c-1.3,4.8-2.7,8.4-4.4,11.5c-2.1,3.8-4.4,6.4-7.3,8.1c-2.2,1.4-5,2.2-7.6,2.2c-2.7,0-5.2-0.7-7.7-2
			c-1.8-1-3.5-2.2-5.2-3.9c-3.1-3-5.6-6.4-7.6-9.4c-1-1.4-1.9-2.9-2.8-4.3l-5.3,26.3l16.2-3.7c1-0.2,2-0.3,3.1-0.3
			c6.3,0,11.8,4.3,13.3,10.5l12,50.3c1.7,7.3-2.8,14.7-10.1,16.5c-1,0.2-2.1,0.4-3.2,0.4c-6.3,0-11.8-4.3-13.3-10.5l-8.9-37.2
			l-30.1,6.9c-1,0.2-2,0.3-3,0.3c-3,0-5.9-1-8.2-2.8v82.9C44.5,269,38.3,275.2,30.7,275.2z"/>
		<path class="st2" d="M16.1,2.8c0.8,0,1.5,0.1,2.3,0.3c4.2,1.3,6.7,5.7,5.4,9.9c-3.5,12-4.9,21.9-4.9,30.1
			c0.1,16.8,5.5,26.2,11,32.2c5,5.4,10.3,7.7,11.9,8.3l37.3,7.5c0.7,0.1,1.3,0.4,1.9,0.7c0.6,0.2,1.2,0.5,1.7,0.8
			c2.9,1.9,4.1,3.8,5.7,6c1.5,2.1,3,4.5,4.5,7c3,5,6.3,10.5,9.2,14.2c1,1.3,2,2.4,2.8,3.1c0.8-1.4,2-4.2,3.1-8.2
			c1-3.6,4.2-5.9,7.7-5.9c0.7,0,1.4,0.1,2.1,0.3c4.3,1.2,6.8,5.6,5.6,9.8c-1.2,4.5-2.6,8.1-4.3,11.2c-1.7,3.1-3.7,5.7-6.8,7.6
			c-2,1.2-4.5,2-6.8,2c0,0,0,0,0,0c0,0-0.1,0-0.1,0c-2.7,0-5-0.8-6.9-1.8c-1.9-1-3.5-2.3-4.9-3.6c-2.8-2.7-5.2-5.9-7.4-9.2
			c-1.6-2.4-3.2-4.9-4.6-7.3L75,150l18.3-4.2c0.9-0.2,1.8-0.3,2.7-0.3c5.5,0,10.6,3.8,11.9,9.4l12,50.3c1.6,6.6-2.5,13.2-9.1,14.8
			c-1,0.2-1.9,0.3-2.9,0.3c-5.5,0-10.6-3.8-11.9-9.4L87,172.4l-31.5,7.2h0c-0.9,0.2-1.8,0.3-2.7,0.3c-3.8,0-7.4-1.8-9.7-4.7v86.3
			c0,6.8-5.5,12.4-12.4,12.4c-6.8,0-12.4-5.5-12.4-12.4V159.7c0-0.2,0-0.3,0-0.5c-0.1-0.8-0.1-1.6,0.1-2.4l12.2-60.5
			c-3.1-1.7-7-4.4-11-8.2C11.1,79.6,2.8,65,2.8,43.2c0-10,1.7-21.5,5.6-34.7C9.4,5.1,12.6,2.8,16.1,2.8 M16.1,0
			C11.3,0,7,3.2,5.7,7.8C1.9,20.5,0,32.5,0,43.2C-0.1,68.9,11.1,83.5,17.7,90c3,2.9,6.3,5.5,9.8,7.6l-11.8,58.5
			c-0.2,1-0.3,2-0.2,3.1c0,0.1,0,0.3,0,0.4v101.7c0,8.4,6.8,15.2,15.2,15.2c8.4,0,15.2-6.8,15.2-15.2V181c2.1,1.1,4.4,1.7,6.8,1.7
			c1.1,0,2.2-0.1,3.3-0.4l24.6-5.6h0l4.1-0.9l8.5,35.8c1.6,6.8,7.7,11.6,14.7,11.6c1.2,0,2.4-0.1,3.5-0.4
			c8.1-1.9,13.1-10.1,11.2-18.2l-12-50.3c-1.6-6.8-7.7-11.6-14.7-11.6c-1.1,0-2.3,0.1-3.4,0.4l-14.1,3.2l4.2-20.7
			c0.3,0.4,0.6,0.9,0.9,1.3c2.1,3.1,4.6,6.6,7.8,9.7c1.9,1.8,3.6,3.1,5.5,4.1c2.7,1.4,5.5,2.2,8.3,2.2h0.1c2.9,0,5.8-0.8,8.3-2.4
			c3.1-1.9,5.6-4.7,7.8-8.7c1.7-3.2,3.2-7,4.5-11.8c1.6-5.8-1.8-11.7-7.6-13.3c-0.9-0.3-1.9-0.4-2.9-0.4c-4.9,0-9.2,3.3-10.4,8
			c-0.4,1.5-0.8,2.8-1.2,3.8c-2.6-3.3-5.4-8.1-8.2-12.7l-0.6-1c-1.5-2.5-3-5-4.6-7.2l0,0l0,0l-0.5-0.6c-1.4-2-2.9-4-6-6l0,0l0,0
			c-0.7-0.4-1.4-0.8-2.1-1c-0.8-0.4-1.6-0.6-2.4-0.8l-37-7.5c-1.3-0.5-6.1-2.7-10.6-7.5c-6.8-7.5-10.2-17.4-10.2-30.3
			c0-8.7,1.6-18.6,4.8-29.3c1.7-5.7-1.6-11.8-7.3-13.5C18.1,0.2,17.1,0,16.1,0L16.1,0z"/>
	</g>
</g>
</svg>
