<?xml version="1.0" encoding="utf-8"?>
<!-- Generator: Adobe Illustrator 19.1.0, SVG Export Plug-In . SVG Version: 6.00 Build 0)  -->
<svg version="1.1" id="Layer_1" xmlns="http://www.w3.org/2000/svg" xmlns:xlink="http://www.w3.org/1999/xlink" x="0px" y="0px"
	 viewBox="0 0 167.3 246" style="enable-background:new 0 0 167.3 246;" xml:space="preserve">
<style type="text/css">
	.st0{opacity:0.25;}
	.st1{fill:#2F9BFF;}
	.st2{fill:#FFFFFF;}
</style>
<g>
	<g class="st0">
		<path d="M99.3,244.9c-7.6,0-13.8-6.2-13.8-13.8v-88.9h-1.8v88.9c0,7.6-6.2,13.8-13.8,13.8c-7.6,0-13.8-6.2-13.8-13.8V93.2
			c-2.5,3.9-6,8.3-10.8,12.1c-4.6,3.7-12.5,8.1-23.6,8.1l-0.2,0c-3.5,0-7.2-0.4-11-1.3c-2.5-0.5-4.6-2-5.9-4.1
			c-1.4-2.1-1.8-4.6-1.3-7.1c0.9-4.3,4.8-7.4,9.2-7.4c0.7,0,1.4,0.1,2,0.2c2.5,0.5,4.8,0.8,6.9,0.8c6.8-0.1,10.7-2.5,14.3-6
			c3.9-3.9,7.1-9.7,9.6-14.9c0.4-0.7,0.7-1.4,1.1-2.1c1.5-3,2.9-5.8,4.8-8.5c1.4-2,3.1-4.1,6.1-5.8c1.9-1,4-1.6,6.1-1.6
			c0.3,0,0.5,0,0.7,0c0.4,0,0.7-0.1,1-0.1H104c0.3,0,0.6,0,1,0.1c0.2,0,0.5,0,0.7,0c4.2,0,7.2,2.1,8.3,3c1.9,1.6,3.1,3.2,4.2,4.7
			c1.7,2.6,3.1,5.3,4.5,8.1l0.8,1.7c3.2,6.4,7,13.5,12.1,17.3c3.7,2.9,7.2,4,12.1,4.1c2.1,0,4.5-0.3,6.9-0.8c0.7-0.1,1.4-0.2,2-0.2
			c4.4,0,8.2,3.1,9.2,7.4c1.1,5.1-2.1,10.1-7.2,11.2c-3.8,0.8-7.5,1.3-11,1.3c-6,0-11.6-1.2-16.7-3.7c-4.4-2.1-8.4-5.1-12-9
			c-2.1-2.2-4-4.7-5.9-7.6v138C113.1,238.7,106.9,244.9,99.3,244.9z"/>
		<path d="M104,57c0.3,0,0.7,0,1,0.1c0.2,0,0.5,0,0.7,0c0,0,0,0,0.1,0c3,0,5.7,1.3,7.4,2.7c1.7,1.4,2.9,2.9,3.9,4.4
			c2,3,3.5,6.2,5.2,9.6c3.3,6.8,7.3,13.8,12.5,17.8c3.5,2.7,7.2,4.3,13,4.4c2.1,0,4.5-0.3,7.2-0.9c0.6-0.1,1.2-0.2,1.7-0.2
			c3.7,0,7,2.5,7.8,6.3c0.9,4.3-1.8,8.6-6.1,9.5c-3.7,0.8-7.3,1.2-10.7,1.2c0,0,0,0-0.1,0c-6,0-11.4-1.3-16-3.5
			c-4.6-2.2-8.5-5.3-11.6-8.7c-3.5-3.7-6.1-7.8-8.3-11.6v143c0,6.8-5.5,12.4-12.4,12.4c-6.8,0-12.4-5.5-12.4-12.4v-90.3h-4.6v90.3
			c0,6.8-5.5,12.4-12.4,12.4c-6.8,0-12.4-5.5-12.4-12.4v-143c-3.1,5.4-7.1,11.3-13.1,16c-5.7,4.6-13.5,7.8-22.7,7.8
			c-0.1,0-0.1,0-0.2,0c0,0,0,0,0,0c-3.4,0-6.9-0.4-10.7-1.2c-4.3-1-7-5.2-6.1-9.5c0.8-3.7,4.1-6.3,7.8-6.3c0.6,0,1.2,0.1,1.7,0.2
			c2.7,0.6,5.1,0.9,7.2,0.9c7-0.1,11.2-2.5,15.3-6.4c4-4,7.2-9.7,9.9-15.2c1.9-3.7,3.5-7.2,5.7-10.5c1.3-1.8,2.8-3.8,5.6-5.4
			c1.5-0.8,3.4-1.4,5.4-1.4c0,0,0,0,0.1,0c0.2,0,0.5,0,0.7,0c0.3,0,0.6-0.1,1-0.1H104 M104,54.1H65.3c-0.3,0-0.7,0-1,0.1
			c-0.2,0-0.5,0-0.7,0l-0.1,0c-2.3,0-4.7,0.6-6.7,1.7c-3.3,1.8-5.1,4.1-6.6,6.2l0,0l0,0c-1.9,2.8-3.3,5.7-4.9,8.7
			c-0.3,0.7-0.7,1.4-1.1,2.1c-2.5,5.1-5.6,10.7-9.4,14.5c-3.5,3.4-6.9,5.5-13.3,5.6c-2,0-4.2-0.3-6.6-0.8c-0.8-0.2-1.6-0.3-2.3-0.3
			c-5,0-9.5,3.6-10.6,8.5c-0.6,2.8-0.1,5.7,1.4,8.2c1.6,2.4,4,4.1,6.8,4.7c3.9,0.9,7.7,1.3,11.3,1.3l0.2,0c11.5,0,19.6-4.6,24.5-8.4
			c3.4-2.7,6.2-5.8,8.5-8.7v133.5c0,8.4,6.8,15.2,15.2,15.2c7,0,12.9-4.8,14.7-11.3c1.7,6.5,7.7,11.3,14.7,11.3
			c8.4,0,15.2-6.8,15.2-15.2V97.6c1.1,1.5,2.2,2.8,3.4,4.1c3.7,4,7.9,7.1,12.4,9.3c5.2,2.5,11.1,3.8,17.2,3.8h0.1
			c3.6,0,7.4-0.4,11.3-1.3c5.8-1.3,9.5-7.1,8.3-12.9c-1.1-4.9-5.5-8.5-10.6-8.5c-0.8,0-1.6,0.1-2.3,0.3c-2.4,0.5-4.6,0.8-6.6,0.8
			c-4.6,0-7.8-1.1-11.3-3.8c-4.8-3.7-8.6-10.6-11.7-16.8c-0.3-0.6-0.6-1.1-0.8-1.7c-1.4-2.9-2.8-5.6-4.5-8.2c-1.1-1.6-2.4-3.4-4.5-5
			c-1.2-1-4.6-3.4-9.2-3.4l-0.1,0c0,0,0,0,0,0c-0.2,0-0.4,0-0.7,0C104.6,54.2,104.3,54.1,104,54.1L104,54.1z"/>
	</g>
	<g>
		<path class="st1" d="M97.3,242.9c-7.6,0-13.8-6.2-13.8-13.8v-88.9h-1.8v88.9c0,7.6-6.2,13.8-13.8,13.8c-7.6,0-13.8-6.2-13.8-13.8
			V91.2c-2.5,3.9-6,8.3-10.8,12.1c-4.6,3.7-12.5,8.1-23.6,8.1l-0.2,0c-3.5,0-7.2-0.4-11-1.3c-2.5-0.5-4.6-2-5.9-4.1
			c-1.4-2.1-1.8-4.6-1.3-7.1c0.9-4.3,4.8-7.4,9.2-7.4c0.7,0,1.4,0.1,2,0.2c2.5,0.5,4.8,0.8,6.9,0.8c6.8-0.1,10.7-2.5,14.3-6
			c3.9-3.9,7.1-9.7,9.6-14.9c0.4-0.7,0.7-1.4,1.1-2.1c1.5-3,2.9-5.8,4.8-8.5c1.4-2,3.1-4.1,6.1-5.8c1.9-1,4-1.6,6.1-1.6
			c0.3,0,0.5,0,0.7,0c0.4,0,0.7-0.1,1-0.1H102c0.3,0,0.6,0,1,0.1c0.2,0,0.5,0,0.7,0c4.2,0,7.2,2.1,8.3,3c1.9,1.6,3.1,3.2,4.2,4.7
			c1.7,2.6,3.1,5.3,4.5,8.1l0.8,1.7c3.2,6.4,7,13.5,12.1,17.3c3.7,2.9,7.2,4,12.1,4.1c2.1,0,4.5-0.3,6.9-0.8c0.7-0.1,1.4-0.2,2-0.2
			c4.4,0,8.2,3.1,9.2,7.4c1.1,5.1-2.1,10.1-7.2,11.2c-3.8,0.8-7.5,1.3-11,1.3c-6,0-11.6-1.2-16.7-3.7c-4.4-2.1-8.4-5.1-12-9
			c-2.1-2.2-4-4.7-5.9-7.6v138C111.1,236.7,104.9,242.9,97.3,242.9z"/>
		<path class="st2" d="M102,55c0.3,0,0.7,0,1,0.1c0.2,0,0.5,0,0.7,0c0,0,0,0,0.1,0c3,0,5.7,1.3,7.4,2.7c1.7,1.4,2.9,2.9,3.9,4.4
			c2,3,3.5,6.2,5.2,9.6c3.3,6.8,7.3,13.8,12.5,17.8c3.5,2.7,7.2,4.3,13,4.4c2.1,0,4.5-0.3,7.2-0.9c0.6-0.1,1.2-0.2,1.7-0.2
			c3.7,0,7,2.5,7.8,6.3c0.9,4.3-1.8,8.6-6.1,9.5c-3.7,0.8-7.3,1.2-10.7,1.2c0,0,0,0-0.1,0c-6,0-11.4-1.3-16-3.5
			c-4.6-2.2-8.5-5.3-11.6-8.7c-3.5-3.7-6.1-7.8-8.3-11.6v143c0,6.8-5.5,12.4-12.4,12.4c-6.8,0-12.4-5.5-12.4-12.4v-90.3h-4.6v90.3
			c0,6.8-5.5,12.4-12.4,12.4c-6.8,0-12.4-5.5-12.4-12.4v-143c-3.1,5.4-7.1,11.3-13.1,16c-5.7,4.6-13.5,7.8-22.7,7.8
			c-0.1,0-0.1,0-0.2,0c0,0,0,0,0,0c-3.4,0-6.9-0.4-10.7-1.2c-4.3-1-7-5.2-6.1-9.5c0.8-3.7,4.1-6.3,7.8-6.3c0.6,0,1.2,0.1,1.7,0.2
			c2.7,0.6,5.1,0.9,7.2,0.9c7-0.1,11.2-2.5,15.3-6.4c4-4,7.2-9.7,9.9-15.2c1.9-3.7,3.5-7.2,5.7-10.5c1.3-1.8,2.8-3.8,5.6-5.4
			c1.5-0.8,3.4-1.4,5.4-1.4c0,0,0,0,0.1,0c0.2,0,0.5,0,0.7,0c0.3,0,0.6-0.1,1-0.1H102 M102,52.1H63.3c-0.3,0-0.7,0-1,0.1
			c-0.2,0-0.5,0-0.7,0l-0.1,0c-2.3,0-4.7,0.6-6.7,1.7c-3.3,1.8-5.1,4.1-6.6,6.2l0,0l0,0c-1.9,2.8-3.3,5.7-4.9,8.7
			c-0.3,0.7-0.7,1.4-1.1,2.1c-2.5,5.1-5.6,10.7-9.4,14.5c-3.5,3.4-6.9,5.5-13.3,5.6c-2,0-4.2-0.3-6.6-0.8c-0.8-0.2-1.6-0.3-2.3-0.3
			c-5,0-9.5,3.6-10.6,8.5c-0.6,2.8-0.1,5.7,1.4,8.2c1.6,2.4,4,4.1,6.8,4.7c3.9,0.9,7.7,1.3,11.3,1.3l0.2,0c11.5,0,19.6-4.6,24.5-8.4
			c3.4-2.7,6.2-5.8,8.5-8.7v133.5c0,8.4,6.8,15.2,15.2,15.2c7,0,12.9-4.8,14.7-11.3c1.7,6.5,7.7,11.3,14.7,11.3
			c8.4,0,15.2-6.8,15.2-15.2V95.6c1.1,1.5,2.2,2.8,3.4,4.1c3.7,4,7.9,7.1,12.4,9.3c5.2,2.5,11.1,3.8,17.2,3.8h0.1
			c3.6,0,7.4-0.4,11.3-1.3c5.8-1.3,9.5-7.1,8.3-12.9c-1.1-4.9-5.5-8.5-10.6-8.5c-0.8,0-1.6,0.1-2.3,0.3c-2.4,0.5-4.6,0.8-6.6,0.8
			c-4.6,0-7.8-1.1-11.3-3.8c-4.8-3.7-8.6-10.6-11.7-16.8c-0.3-0.6-0.6-1.1-0.8-1.7c-1.4-2.9-2.8-5.6-4.5-8.2c-1.1-1.6-2.4-3.4-4.5-5
			c-1.2-1-4.6-3.4-9.2-3.4l-0.1,0c0,0,0,0,0,0c-0.2,0-0.4,0-0.7,0C102.6,52.2,102.3,52.1,102,52.1L102,52.1z"/>
	</g>
</g>
<g>
	<g class="st0">
		<path d="M84.7,52.7c-13.2,0-23.9-10.7-23.9-23.9S71.5,4.9,84.7,4.9s23.9,10.7,23.9,23.9S97.8,52.7,84.7,52.7z M77.7,40.9
			c2,1.7,4.8,2.7,7.7,2.7c3.3,0,6.2-1.4,8.4-4c-3,0.8-7.3,1.7-11.6,1.7c0,0,0,0,0,0C80.5,41.3,79,41.2,77.7,40.9z"/>
		<path d="M84.7,6.3c12.4,0,22.5,10.1,22.5,22.5c0,12.4-10.1,22.5-22.5,22.5c-12.4,0-22.5-10.1-22.5-22.5
			C62.2,16.4,72.2,6.3,84.7,6.3 M97,37.2c0,0-7.6,2.7-14.9,2.7c-3,0-5.9-0.5-8.3-1.7c1.4,3.9,6.3,6.9,11.4,6.9
			C89.7,45.1,94.2,42.9,97,37.2 M84.7,3.4c-14,0-25.3,11.4-25.3,25.3s11.4,25.3,25.3,25.3c14,0,25.3-11.4,25.3-25.3
			S98.6,3.4,84.7,3.4L84.7,3.4z"/>
	</g>
	<g>
		<path class="st1" d="M82.7,50.7c-13.2,0-23.9-10.7-23.9-23.9S69.5,2.9,82.7,2.9s23.9,10.7,23.9,23.9S95.8,50.7,82.7,50.7z
			 M75.7,38.9c2,1.7,4.8,2.7,7.7,2.7c3.3,0,6.2-1.4,8.4-4c-3,0.8-7.3,1.7-11.6,1.7c0,0,0,0,0,0C78.5,39.3,77,39.2,75.7,38.9z"/>
		<path class="st2" d="M82.7,4.3c12.4,0,22.5,10.1,22.5,22.5c0,12.4-10.1,22.5-22.5,22.5c-12.4,0-22.5-10.1-22.5-22.5
			C60.2,14.4,70.2,4.3,82.7,4.3 M95,35.2c0,0-7.6,2.7-14.9,2.7c-3,0-5.9-0.5-8.3-1.7c1.4,3.9,6.3,6.9,11.4,6.9
			C87.7,43.1,92.2,40.9,95,35.2 M82.7,1.4c-14,0-25.3,11.4-25.3,25.3s11.4,25.3,25.3,25.3c14,0,25.3-11.4,25.3-25.3
			S96.6,1.4,82.7,1.4L82.7,1.4z"/>
	</g>
</g>
</svg>
