<?xml version="1.0" encoding="utf-8"?>
<!-- Generator: Adobe Illustrator 19.1.0, SVG Export Plug-In . SVG Version: 6.00 Build 0)  -->
<svg version="1.1" id="Layer_1" xmlns="http://www.w3.org/2000/svg" xmlns:xlink="http://www.w3.org/1999/xlink" x="0px" y="0px"
	 viewBox="0 0 103.1 271.9" style="enable-background:new 0 0 103.1 271.9;" xml:space="preserve">
<style type="text/css">
	.st0{opacity:0.25;}
	.st1{fill:#2F9BFF;}
	.st2{fill:#FFFFFF;}
</style>
<g>
	<g class="st0">
		<path d="M67.2,260.5c-7,0-12.9-4.8-14.7-11.3c-1.7,6.5-7.7,11.3-14.7,11.3c-8.4,0-15.2-6.8-15.2-15.2v-82.6
			c-0.5-0.7-0.9-1.4-1.2-2.2C12.6,139,8.1,120.2,8.1,104.8c0-7.6,1.1-14.3,3.3-19.9c2.3-5.8,5.6-10.2,9.8-13.1
			c3.2-2.2,6.8-3.3,10.4-3.3c0.2,0,0.4,0,0.6,0c0.4,0,0.7-0.1,1-0.1h38.6c0.3,0,0.6,0,1,0.1c0.2,0,0.4,0,0.6,0
			c3.6,0,7.2,1.2,10.4,3.3c2.8,1.9,5.3,4.6,7.3,7.9C95,86.1,97,94.6,97,104.8c0,15.4-4.5,34.2-13.4,55.8c-0.3,0.8-0.7,1.5-1.2,2.2
			v82.6C82.4,253.7,75.6,260.5,67.2,260.5z"/>
		<path d="M71.9,71.2c0.3,0,0.6,0,0.9,0.1c0.2,0,0.4,0,0.6,0c0,0,0,0,0,0c3.2,0,6.3,1.1,8.8,2.8c2.6,1.8,4.7,4.2,6.5,7.1
			c3.5,5.8,5.4,13.6,5.4,23.6c0,13.6-3.6,31.5-13.2,54.7c-0.3,0.8-0.8,1.6-1.4,2.2v83.6c0,6.8-5.5,12.4-12.4,12.4
			c-6.8,0-12.4-5.5-12.4-12.4V155h-4.6v90.3c0,6.8-5.5,12.4-12.4,12.4c-6.8,0-12.4-5.5-12.4-12.4v-83.6c-0.6-0.7-1.1-1.4-1.4-2.3
			c-9.6-23.3-13.2-41.1-13.2-54.7c0-7.5,1.1-13.8,3.1-18.9c2-5.1,4.9-9.1,8.8-11.8c2.6-1.8,5.6-2.8,8.8-2.8c0.2,0,0.4,0,0.6,0
			c0.3,0,0.6-0.1,0.9-0.1H71.9 M71.9,65.5H33.2c-0.3,0-0.7,0-1,0c-0.2,0-0.3,0-0.5,0c-4.2,0-8.4,1.3-12,3.8
			c-4.7,3.2-8.4,8.1-10.9,14.4c-2.3,6-3.5,13-3.5,21c0,15.8,4.6,35,13.6,56.9c0.3,0.7,0.6,1.3,1,1.9v81.7c0,9.9,8.1,18,18,18
			c6,0,11.4-3,14.7-7.6c3.3,4.6,8.6,7.6,14.7,7.6c9.9,0,18-8.1,18-18v-81.7c0.4-0.6,0.7-1.3,1-1.9c9-21.9,13.6-41.1,13.6-56.9
			c0-10.7-2.1-19.7-6.2-26.6c-2.2-3.7-5-6.7-8.1-8.8c-3.7-2.5-7.8-3.8-12-3.8c-0.2,0-0.4,0-0.5,0C72.5,65.5,72.2,65.5,71.9,65.5
			L71.9,65.5z"/>
	</g>
	<g>
		<path class="st1" d="M65.2,258.5c-7,0-12.9-4.8-14.7-11.3c-1.7,6.5-7.7,11.3-14.7,11.3c-8.4,0-15.2-6.8-15.2-15.2v-82.6
			c-0.5-0.7-0.9-1.4-1.2-2.2C10.6,137,6.1,118.2,6.1,102.8c0-7.6,1.1-14.3,3.3-19.9c2.3-5.8,5.6-10.2,9.8-13.1
			c3.2-2.2,6.8-3.3,10.4-3.3c0.2,0,0.4,0,0.6,0c0.4,0,0.7-0.1,1-0.1h38.6c0.3,0,0.6,0,1,0.1c0.2,0,0.4,0,0.6,0
			c3.6,0,7.2,1.2,10.4,3.3c2.8,1.9,5.3,4.6,7.3,7.9C93,84.1,95,92.6,95,102.8c0,15.4-4.5,34.2-13.4,55.8c-0.3,0.8-0.7,1.5-1.2,2.2
			v82.6C80.4,251.7,73.6,258.5,65.2,258.5z"/>
		<path class="st2" d="M69.9,69.2c0.3,0,0.6,0,0.9,0.1c0.2,0,0.4,0,0.6,0c0,0,0,0,0,0c3.2,0,6.3,1.1,8.8,2.8
			c2.6,1.8,4.7,4.2,6.5,7.1c3.5,5.8,5.4,13.6,5.4,23.6c0,13.6-3.6,31.5-13.2,54.7c-0.3,0.8-0.8,1.6-1.4,2.2v83.6
			c0,6.8-5.5,12.4-12.4,12.4c-6.8,0-12.4-5.5-12.4-12.4V153h-4.6v90.3c0,6.8-5.5,12.4-12.4,12.4c-6.8,0-12.4-5.5-12.4-12.4v-83.6
			c-0.6-0.7-1.1-1.4-1.4-2.3c-9.6-23.3-13.2-41.1-13.2-54.7C8.9,95.2,10,89,12,83.9c2-5.1,4.9-9.1,8.8-11.8c2.6-1.8,5.6-2.8,8.8-2.8
			c0.2,0,0.4,0,0.6,0c0.3,0,0.6-0.1,0.9-0.1H69.9 M69.9,63.5H31.2c-0.3,0-0.7,0-1,0c-0.2,0-0.3,0-0.5,0c-4.2,0-8.4,1.3-12,3.8
			c-4.7,3.2-8.4,8.1-10.9,14.4c-2.3,6-3.5,13-3.5,21c0,15.8,4.6,35,13.6,56.9c0.3,0.7,0.6,1.3,1,1.9v81.7c0,9.9,8.1,18,18,18
			c6,0,11.4-3,14.7-7.6c3.3,4.6,8.6,7.6,14.7,7.6c9.9,0,18-8.1,18-18v-81.7c0.4-0.6,0.7-1.3,1-1.9c9-21.9,13.6-41.1,13.6-56.9
			c0-10.7-2.1-19.7-6.2-26.6c-2.2-3.7-5-6.7-8.1-8.8c-3.7-2.5-7.8-3.8-12-3.8c-0.2,0-0.4,0-0.5,0C70.5,63.5,70.2,63.5,69.9,63.5
			L69.9,63.5z"/>
	</g>
</g>
<g>
	<g class="st0">
		<path d="M52.5,68.3c-14,0-25.3-11.4-25.3-25.3s11.4-25.3,25.3-25.3S77.9,29,77.9,43S66.5,68.3,52.5,68.3z"/>
		<path d="M52.5,20.5C65,20.5,75,30.6,75,43C75,55.4,65,65.5,52.5,65.5C40.1,65.5,30,55.4,30,43C30,30.6,40.1,20.5,52.5,20.5
			 M43.4,57h18.3v-2.4H43.4V57 M52.5,14.8C37,14.8,24.4,27.5,24.4,43S37,71.2,52.5,71.2S80.7,58.5,80.7,43S68.1,14.8,52.5,14.8
			L52.5,14.8z"/>
	</g>
	<g>
		<path class="st1" d="M50.5,66.3c-14,0-25.3-11.4-25.3-25.3s11.4-25.3,25.3-25.3S75.9,27,75.9,41S64.5,66.3,50.5,66.3z"/>
		<path class="st2" d="M50.5,18.5C63,18.5,73,28.6,73,41C73,53.4,63,63.5,50.5,63.5C38.1,63.5,28,53.4,28,41
			C28,28.6,38.1,18.5,50.5,18.5 M41.4,55h18.3v-2.4H41.4V55 M50.5,12.8C35,12.8,22.4,25.5,22.4,41S35,69.2,50.5,69.2
			S78.7,56.5,78.7,41S66.1,12.8,50.5,12.8L50.5,12.8z"/>
	</g>
</g>
</svg>
