<?xml version="1.0" encoding="utf-8"?>
<!-- Generator: Adobe Illustrator 19.1.0, SVG Export Plug-In . SVG Version: 6.00 Build 0)  -->
<svg version="1.1" id="Layer_1" xmlns="http://www.w3.org/2000/svg" xmlns:xlink="http://www.w3.org/1999/xlink" x="0px" y="0px"
	 viewBox="0 0 612 792" style="enable-background:new 0 0 612 792;" xml:space="preserve">
<style type="text/css">
	.st0{fill:#2F9BCA;}
	.st1{fill:#0F1031;}
	.st2{fill:#FBA919;}
</style>
<g>
	<g>
		<path class="st0" d="M195.1,406.4c0,0,12.6-7.8,23.9-6.5s17.5,9.3,19.8,11.8c0,0-7.3-15.5-4.1-28.5s12.4-36.4,14.6-40.1
			c0,0-17,27-25.9,37.3S198,403.6,195.1,406.4z"/>
	</g>
	<path class="st1" d="M205.1,302c4.3,0,2.1,4.6,0,10.8c-2.1,6.2-18.5,53-19.7,56.7c-1.2,3.7-0.3,4.5-5.5,4.7
		c-1.7,0.1-3.5,0.1-5.3,0.1c-3.5,0-7-0.1-9.5-0.1c-3.8,0-5.4-1.9-0.2-8.2c0.1-0.2,0.2-0.3,0.2-0.3c-0.1,0.1-0.2,0.2-0.2,0.3
		c-1.5,1.8-10.2,11.7-18.6,13.1c-1.8,0.3-3.5,0.4-5,0.4c-6.5,0-10.9-2.6-13.1-9.3c-2.7-8.3,6.2-22.4,12.2-40.8
		c5.9-18.4,5.9-20.6,11.9-21.5c5.9-0.9,12.8-1.3,16.2-1.6c0.5,0,0.9-0.1,1.3-0.1c2.6,0,3.8,1.2,0.9,8.5c-3.3,8.5-10.4,30-12.2,35.7
		c-0.9,3-1.7,6.1-0.6,6.1c1,0,3.4-2.6,8.6-10.3c0,0,9.8-16.8,13.1-29.7c3.3-12.9,3.6-13.5,9.9-13.9C195.8,302.3,200.8,302,205.1,302
		 M205.1,299c-4.3,0-9.3,0.3-15.9,0.7c-3,0.2-6.2,0.4-8.4,3.6c-1.6,2.3-2.5,5.7-4.3,12.6c-3,11.9-12,27.5-12.7,28.8
		c-0.3,0.5-0.6,0.9-0.9,1.3c2.9-8.8,7.9-23.7,10.4-30.2c1.8-4.6,2.6-8.1,0.9-10.5c-1-1.4-2.5-2.1-4.7-2.1c-0.6,0-1.1,0-1.6,0.1
		c-0.7,0.1-1.4,0.1-2.3,0.2c-3.6,0.3-9.2,0.7-14,1.5c-7.1,1.1-8.2,4.3-12.5,18c-0.5,1.7-1.1,3.5-1.8,5.5c-2,6.1-4.3,11.9-6.4,17
		c-4.4,10.7-7.8,19.1-5.7,25.7c2.4,7.6,7.8,11.4,15.9,11.4c1.7,0,3.5-0.2,5.5-0.5c4.7-0.8,9.3-3.7,13-6.8c0.9,1,2.5,1.9,5.3,1.9
		c1.2,0,2.5,0,4,0.1c1.7,0,3.6,0.1,5.6,0.1c2.1,0,3.9,0,5.5-0.1c5.1-0.3,6.7-1.4,7.7-5.3c0.1-0.5,0.2-1,0.4-1.5
		c0.6-1.8,5.2-15.1,9.7-28c4.4-12.6,9-25.6,10-28.7c0.3-0.8,0.5-1.5,0.8-2.2c1.5-4.4,2.7-7.9,0.9-10.5
		C209,300.1,207.7,299,205.1,299L205.1,299z"/>
	<path class="st1" d="M141.4,286.9c2.8,0,3.6,1,1.2,7.3c-2.4,6.2-26.4,76.4-27.9,80.8c-1.5,4.5-2.4,4.6-6.7,5.2
		c-4.3,0.6-8.9,0.6-10.4,0.6c-0.1,0-0.1,0-0.2,0c-1.4,0-3-0.1-5.6-6.2c-2.7-6.4-15-38.1-15-38.1s-13.8,40.3-15.6,45.4s-3,4.7-5.5,5
		s-8.8,0.7-12.5,0.7s-5.3-0.7-3.3-6.1c2.1-5.3,26.8-74.9,28.8-80c1.9-5,2.5-7.1,6.5-7.6c4-0.4,6.7-0.6,9-0.7c0.5,0,1-0.1,1.5-0.1
		c1.6,0,2.7,0.5,3.7,3.5c1.3,3.9,17.2,40.5,17.2,40.5s13.8-37.4,15.9-42.7s1.6-6.2,7.7-6.8C136.5,287,138.6,286.9,141.4,286.9
		 M141.4,283.9c-3,0-5.4,0.2-11.3,0.8c-6.7,0.7-7.8,2.3-9.6,7.1c-0.2,0.5-0.4,1-0.6,1.6c-1.5,3.9-9.2,24.6-13.3,35.7
		c-5.3-12.2-13.3-30.9-14.2-33.4c-0.9-2.6-2.4-5.5-6.6-5.5c-0.5,0-0.9,0-1.3,0.1l-0.3,0l-0.6,0c-2.3,0.1-4.9,0.3-8.6,0.7
		c-5.6,0.6-6.9,4-8.7,8.8l-0.3,0.7c-0.9,2.4-6.7,18.6-12.9,35.8c-6.9,19.4-14.8,41.3-15.9,44.1c-1,2.6-1.8,5.5-0.2,7.8
		c1.6,2.4,4.7,2.4,6.3,2.4c3.9,0,10.2-0.5,12.8-0.8c0.2,0,0.4,0,0.5-0.1c3.6-0.4,5.5-1.5,7.4-7c1.3-3.6,8.8-25.6,12.9-37.6
		c3.8,9.8,10.2,26.1,12,30.5c2.5,5.9,4.7,8.1,8.4,8.1l0.1,0l0.1,0c1.6,0,6.3,0,10.8-0.6c5.2-0.7,7.2-1.5,9.1-7.2
		c1.4-4.2,25.5-74.6,27.8-80.7c1.6-4.3,2.3-7.1,0.8-9.3C144.8,283.9,142.4,283.9,141.4,283.9L141.4,283.9z"/>
	<path class="st0" d="M250.6,240.3c4.9-4.6,11-9,19.7-9.3c8.7-0.3,11.7,9.5,3.5,21.3c-8.2,11.8-16.5,15.7-21.5,17.3
		c-5,1.7-15,1.3-13.3-8.8C240.6,250.7,246.3,244.3,250.6,240.3z"/>
	<path class="st1" d="M316.3,285.8c1.1,0,1.5,0.5,1.6,1.4c0.3,2.1-2.1,11.7-3.7,16.8c-1.6,5-2.2,5.6-5.5,6.4s-9.6,2.5-16.9,13.4
		s-14.7,30.7-15.7,34.1c-1,3.4-1.8,4.2-4.6,4.3c-2.8,0.1-13.6,0.9-16.5,1c-0.1,0-0.2,0-0.3,0c-2.7,0-4.8-1.8-2.9-6.5
		c1.9-4.9,19.6-54.4,19.6-54.4l11.4-12.5c0,0,8.6,0,12.6,0s2.4,4.6-1.5,12.2c0,0,7.3-10.5,14.7-13.6
		C312.7,286.6,315,285.8,316.3,285.8 M316.3,282.8c-1.8,0-4.2,0.7-8.9,2.7c-2.4,1-4.8,2.7-7,4.6c-0.1-0.4-0.3-0.7-0.5-1.1
		c-0.5-0.9-1.8-2.3-4.6-2.3h-12.6h-1.3l-0.9,1l-11.4,12.5l-0.4,0.4l-0.2,0.6c-0.2,0.5-17.7,49.6-19.5,54.3c-1.6,4-0.8,6.5,0.2,7.9
		c1.2,1.7,3.2,2.7,5.6,2.7c0.2,0,0.3,0,0.5,0c1.4-0.1,4.9-0.3,8.3-0.5c3.3-0.2,6.8-0.4,8.2-0.5c4.6-0.2,6.1-2.4,7.3-6.4
		c1-3.4,8.3-22.8,15.3-33.3c6.9-10.2,12.6-11.5,15.1-12.1c4.7-1.1,5.9-2.7,7.7-8.4c1-3,4.3-14.8,3.8-18.1
		C320.6,284.4,318.8,282.8,316.3,282.8L316.3,282.8z"/>
	<path class="st1" d="M346.1,284.4c0.4,0,0.9,0,1.2,0c5,0.1,4.3,1.9,2.4,7.6c-1.9,5.6-17.7,52.8-19.1,57.4s-1.6,4.7-5.8,5.5
		c-4.2,0.7-12.6,0.9-15.7,1.5c-0.4,0.1-0.8,0.1-1.1,0.1c-2.4,0-3.7-1.9-1.8-6.9c2.1-5.8,19.3-53.8,20.5-58.3
		c1.2-4.5,3.9-5.9,5.7-6.1C332.3,285.2,340.8,284.4,346.1,284.4 M346.1,281.4L346.1,281.4c-5.4,0-13.7,0.7-14.1,0.8
		c-3,0.3-6.8,2.6-8.3,8.3c-1.1,4-16.4,46.8-20.4,58.1c-1.4,3.9-1.4,6.7,0,8.7c1,1.4,2.7,2.2,4.7,2.2c0.5,0,1.1-0.1,1.7-0.2
		c1.3-0.2,4-0.4,6.7-0.6c3.3-0.2,6.7-0.4,9-0.9c5.6-1,6.4-2.1,8.1-7.5c1.5-4.6,17.2-51.7,19.1-57.4l0.1-0.4c1.3-3.9,2.2-6.5,0.6-8.8
		c-1.4-2-3.7-2.3-5.9-2.3C347,281.4,346.6,281.4,346.1,281.4L346.1,281.4z"/>
	<g>
		<path class="st1" d="M398.2,275c0.2,0,0.3,0,0.5,0c5.6,0.1,7.1,1.6,6.7,5.6s-3.7,23.1-13.5,37.2c-8.1,11.6-14.9,12.7-17,12.7
			c-0.4,0-0.7,0-0.7,0s14.7-42.7,17.7-50.7C392.7,277.4,393,275,398.2,275 M398.2,272c-6.9,0-8.2,3.9-9,6.2
			c-0.1,0.2-0.1,0.4-0.2,0.6c-2.9,8-17.5,50.3-17.7,50.8l-1.1,3.3l3.4,0.6c0.2,0,0.6,0.1,1.2,0.1c2.9,0,10.7-1.4,19.4-13.9
			c9.5-13.7,13.3-32.5,14-38.6c0.2-1.7,0.3-4.3-1.5-6.3c-1.9-2.2-5.2-2.6-8.1-2.7C398.5,272,398.4,272,398.2,272L398.2,272z"/>
		<path class="st1" d="M410.6,255.3c8.4,0,16.5,3.1,21.7,11.7c5.8,9.5-0.7,29.8-4.5,38.9c-3.7,9-12.3,23.9-27.4,33.5
			s-33.1,9.8-41.7,10.8c-7.5,0.9-11.3,1.4-13.9,1.4c-0.4,0-0.7,0-1.1,0c-2.7-0.1-6.1,0.7-3.3-6.4s28.5-78.5,29.7-82.2
			c1.2-3.7,3.9-3.6,8-4.2c0,0,20.3-2.7,29.7-3.4C408.8,255.4,409.7,255.3,410.6,255.3 M410.6,252.3c-1,0-2,0-3,0.1
			c-9.3,0.7-29,3.3-29.8,3.4c-0.4,0.1-0.8,0.1-1.2,0.1c-3.6,0.4-7.6,0.9-9.3,6.1c-1.2,3.8-26.8,75-29.6,82c-1.1,2.8-2,5.9-0.4,8.3
			c1.5,2.2,4,2.2,5.5,2.2c0.3,0,0.5,0,0.8,0c0.4,0,0.8,0,1.2,0c2.8,0,6.6-0.5,14.3-1.4c1.3-0.2,2.7-0.3,4.4-0.4
			c9.4-0.8,25.1-2.3,38.5-10.8c17.5-11.1,25.8-28.1,28.6-34.9c2-4.8,11.5-29.6,4.2-41.6C429.7,256.9,421.3,252.3,410.6,252.3
			L410.6,252.3z"/>
	</g>
	<path class="st1" d="M349.4,254.7c1.8,0,3.5,0.5,5,1.5c4.8,3.3,5.3,10.8,1.2,16.9c-2.9,4.2-7.2,6.6-11.2,6.6c-1.8,0-3.5-0.5-5-1.5
		c-4.8-3.3-5.3-10.8-1.2-16.9C341,257.1,345.4,254.7,349.4,254.7 M349.4,251.7L349.4,251.7c-5.1,0-10.4,3-13.7,7.9
		c-5.1,7.4-4.2,16.9,2,21.1c1.9,1.3,4.2,2,6.7,2c5.1,0,10.4-3,13.7-7.9c5.1-7.4,4.2-16.9-2-21.1
		C354.1,252.4,351.8,251.7,349.4,251.7L349.4,251.7z"/>
	<g>
		<path class="st1" d="M495.6,265.6c4.9,0,8,0.6,8,0.6c6.1,0.6,7.7,3.4,6.2,7.9c-1.5,4.5-21.5,62.6-21.5,62.6l-24,1.9l1.3-5.3
			c-4.5,5.2-12.8,9.3-20.2,9.3c-1.5,0-3-0.2-4.4-0.6c-8.3-2.2-13.4-13.9-6.5-29.1s13.4-28.5,31.7-39.5
			C477.1,266.9,488.3,265.6,495.6,265.6 M495.6,262.6c-7.8,0-19.5,1.4-30.9,8.3c-18.5,11-25.3,23.9-32.9,40.8
			c-4,9-4.5,17.9-1.4,24.6c2.1,4.4,5.6,7.5,9.9,8.6c1.6,0.4,3.4,0.7,5.2,0.7c4.9,0,10.4-1.7,15.1-4.4l-0.2,0.8l4.2-0.3l24-1.9l2-0.2
			l0.6-1.9c0.8-2.4,20-58.2,21.5-62.6c1-3.1,0.9-5.7-0.5-7.8c-1.5-2.3-4.2-3.6-8.2-4C503.2,263.1,500.1,262.6,495.6,262.6
			L495.6,262.6z"/>
		<path class="st1" d="M479.1,283.4c1.4,0,2.2,1.7,0.2,8.3c-3.3,10.9-16,28.1-19.9,28.1c-1.2,0-1.6-1.7-0.6-5.7
			c4.3-17.1,17.1-29.1,17.1-29.1S477.8,283.4,479.1,283.4 M479.1,280.4c-2.2,0-4.4,1.7-5.2,2.4l0,0l0,0
			c-0.5,0.5-13.4,12.8-17.9,30.5c-1,4-0.9,6.3,0.3,7.9c0.8,1,1.9,1.5,3.2,1.5c1.1,0,4.6,0,12.6-11.2c4.7-6.6,8.5-13.7,10.2-19
			c1.7-5.5,1.8-8.5,0.3-10.5C481.7,281,480.5,280.4,479.1,280.4L479.1,280.4z"/>
	</g>
	<path class="st1" d="M578.9,261.3c2.8,0,4.5,1.9-1.2,12s-24.6,41.5-43.5,64.5s-19,20.9-20.6,22.5s-19.9,2.7-23.4,2.7
		c-3.6,0-4.7-4,0-6.5c4.7-2.5,26.4-18.1,28.6-23.1c2.2-5,4.3-19.9,3-36.3c-1.3-16.5-3.1-21.8-4.3-25.7c-1.2-3.9,0.4-4.7,5.8-4.9
		c5.3-0.1,9.6-0.6,12.9-0.9c1.6-0.1,2.9-0.5,3.9-0.5c1.1,0,1.9,0.4,2.6,1.7c1.3,2.5,2.4,4.5,2.7,5.8c0,0,2.5,11.3,2.2,19
		c0,0,12.2-20.8,13.8-25.4c1.6-4.6,2.2-4.9,7.7-4.9S576.1,261.3,578.9,261.3 M578.9,258.3h-9.8c-6.5,0-8.4,0.8-10.5,6.9
		c-0.8,2.2-4.7,9.3-8.6,16.3c-0.7-5-1.6-9.3-1.7-9.5c-0.3-1.6-1.4-3.6-2.9-6.4l-0.1-0.1c-1.1-2.2-2.9-3.2-5.3-3.2
		c-0.8,0-1.6,0.1-2.4,0.2c-0.6,0.1-1.1,0.2-1.7,0.2l-1.2,0.1c-3.1,0.3-6.9,0.6-11.5,0.8c-3.2,0.1-6.4,0.4-8.1,2.7
		c-1.5,2-1,4.4-0.5,6l0.1,0.4c1.2,3.8,2.8,9,4.1,24.6c1.3,16.6-0.8,30.6-2.7,34.9c-1.7,3.8-21.8,18.8-27.3,21.7
		c-4.3,2.3-5.1,5.6-4.6,7.9c0.6,2.6,3,4.3,6,4.3c1.8,0,7.4-0.3,12.7-0.7c11-1,12-2,12.9-2.8c0.1-0.1,0.2-0.2,0.5-0.4
		c1.6-1.1,4.7-3.3,20.3-22.4c19.1-23.4,38.5-55.5,43.8-65c4-7.2,5-11.3,3.4-14C583.1,259.6,581.7,258.3,578.9,258.3L578.9,258.3z"/>
	<path class="st2" d="M164.8,402.8c0,0,18.8-13.6,36.6-43.1s22-38,24-46.8s0.5-17.1-12.4-17.6s-26,1.5-29.4-0.6s-7.8-3.3-3-17.4
		s10.5-16.3,18-14.4s17,6.3,30.3,10.5s25.9,1.4,39.1-4.6c13.3-6,31.8-16.1,46-31.4s17.4-22.6,18.3-13.4s-4.6,28-34.4,54
		s-28.5,25.5-62.6,78.3s-60.5,58.2-70.5,57.2S154.6,411.7,164.8,402.8z"/>
</g>
</svg>
