<?xml version="1.0" encoding="utf-8"?>
<!-- Generator: Adobe Illustrator 19.1.0, SVG Export Plug-In . SVG Version: 6.00 Build 0)  -->
<svg version="1.1" id="Layer_1" xmlns="http://www.w3.org/2000/svg" xmlns:xlink="http://www.w3.org/1999/xlink" x="0px" y="0px"
	 viewBox="0 0 556.7 207.3" style="enable-background:new 0 0 556.7 207.3;" xml:space="preserve">
<style type="text/css">
	.st0{fill:#FFFFFF;}
	.st1{fill:#2F9BCA;}
	.st2{fill:#0F1031;}
	.st3{fill:#FBA919;}
</style>
<g>
	<path class="st0" d="M400,54c-5.8-9.5-15.1-12.3-24.5-11.6c-9.3,0.7-29.7,3.4-29.7,3.4c-4.1,0.5-6.8,0.4-8,4.2
		c-1.2,3.7-26.8,75.1-29.7,82.2c-2.8,7.1,0.6,6.2,3.3,6.4c2.7,0.1,6.4-0.3,15-1.3s26.6-1.2,41.7-10.8s23.7-24.5,27.4-33.5
		C399.2,83.8,405.8,63.5,400,54z M373,67.7c-0.4,4-3.7,23.1-13.5,37.2c-9.8,14.1-17.7,12.6-17.7,12.6s14.7-42.7,17.7-50.7
		c0.9-2.4,1.2-4.9,6.8-4.7C372,62.2,373.4,63.6,373,67.7z"/>
	<g>
		<path class="st0" d="M471.2,53.2c0,0-19-3.7-37.4,7.3c-18.4,11-24.9,24.3-31.7,39.5c-6.8,15.1-1.8,26.8,6.5,29.1
			c8.3,2.2,19.1-2.5,24.6-8.8l-1.3,5.3l24-1.9c0,0,20-58.1,21.5-62.6S477.3,53.8,471.2,53.2z M447,78.7
			c-4.3,14.3-24.8,39.5-20.5,22.4C430.9,84,443.6,72,443.6,72S451,65.5,447,78.7z"/>
	</g>
	<g>
		<g>
			<path class="st1" d="M162.8,193.4c0,0,12.6-7.8,23.9-6.5s17.5,9.3,19.8,11.8c0,0-7.3-15.5-4.1-28.5s12.4-36.4,14.6-40.1
				c0,0-17,27-25.9,37.3S165.7,190.6,162.8,193.4z"/>
		</g>
		<g>
			<path class="st0" d="M108.9,168c-7.5,0-12.3-3.4-14.5-10.4c-1.9-6,1.4-14.2,5.7-24.6c2.1-5.1,4.5-10.9,6.5-17.1
				c0.7-2,1.2-3.9,1.8-5.5c4.3-13.6,5.1-16.1,11.3-17c4.8-0.7,10.3-1.2,13.9-1.5c0.9-0.1,1.7-0.1,2.3-0.2c0.5,0,1-0.1,1.4-0.1
				c1,0,2.5,0.2,3.4,1.5c1.1,1.6,0.8,4.2-1.1,9.1c-3.2,8.3-10.3,29.8-12.1,35.6c-0.4,1.2-0.6,2.1-0.8,2.8c1.1-1.3,3-3.7,6.1-8.2
				c0-0.1,9.7-16.6,12.8-29.2c3.2-12.6,3.7-14.5,11.3-15.1c6.6-0.5,11.5-0.7,15.8-0.7c1.5,0,2.6,0.5,3.3,1.4
				c1.4,1.9,0.3,4.9-1.1,9.1c-0.3,0.7-0.5,1.5-0.8,2.3c-1,3.1-5.6,16.1-10,28.6c-4.5,12.8-9.1,26.1-9.7,28c-0.2,0.6-0.3,1.1-0.5,1.6
				c-0.8,3.1-1.6,3.9-6.4,4.2c-1.6,0.1-3.3,0.1-5.4,0.1c-1.9,0-3.8,0-5.5-0.1c-1.5,0-2.8-0.1-4-0.1c-2.5,0-4-0.7-4.7-2.2
				c-0.1-0.2-0.2-0.4-0.2-0.6c-3.7,3.3-8.7,6.8-13.7,7.6C112.2,167.9,110.5,168,108.9,168z"/>
			<g>
				<path class="st2" d="M172.8,89c4.3,0,2.1,4.6,0,10.8c-2.1,6.2-18.5,53-19.7,56.7c-1.2,3.7-0.3,4.5-5.5,4.7
					c-1.7,0.1-3.5,0.1-5.3,0.1c-3.5,0-7-0.1-9.5-0.1c-3.8,0-5.4-1.9-0.2-8.2c0.1-0.2,0.2-0.3,0.2-0.3c-0.1,0.1-0.2,0.2-0.2,0.3
					c-1.5,1.8-10.2,11.7-18.6,13.1c-1.8,0.3-3.5,0.4-5,0.4c-6.5,0-10.9-2.6-13.1-9.3c-2.7-8.3,6.2-22.4,12.2-40.8
					c5.9-18.4,5.9-20.6,11.9-21.5c5.9-0.9,12.8-1.3,16.2-1.6c0.5,0,0.9-0.1,1.3-0.1c2.6,0,3.8,1.2,0.9,8.5
					c-3.3,8.5-10.4,30-12.2,35.7c-0.9,3-1.7,6.1-0.6,6.1c1,0,3.4-2.6,8.6-10.3c0,0,9.8-16.8,13.1-29.7c3.3-12.9,3.6-13.5,9.9-13.9
					C163.4,89.3,168.5,89,172.8,89 M172.8,86c-4.3,0-9.3,0.3-15.9,0.7c-3,0.2-6.2,0.4-8.4,3.6c-1.6,2.3-2.5,5.7-4.3,12.6
					c-3,11.9-12,27.5-12.7,28.8c-0.3,0.5-0.6,0.9-0.9,1.3c2.9-8.8,7.9-23.7,10.4-30.2c1.8-4.6,2.6-8.1,0.9-10.5
					c-1-1.4-2.5-2.1-4.7-2.1c-0.6,0-1.1,0-1.6,0.1c-0.7,0.1-1.4,0.1-2.3,0.2c-3.6,0.3-9.2,0.7-14,1.5c-7.1,1.1-8.2,4.3-12.5,18
					c-0.5,1.7-1.1,3.5-1.8,5.5c-2,6.1-4.3,11.9-6.4,17c-4.4,10.7-7.8,19.1-5.7,25.7c2.4,7.6,7.8,11.4,15.9,11.4
					c1.7,0,3.5-0.2,5.5-0.5c4.7-0.8,9.3-3.7,13-6.8c0.9,1,2.5,1.9,5.3,1.9c1.2,0,2.5,0,4,0.1c1.7,0,3.6,0.1,5.6,0.1
					c2.1,0,3.9,0,5.5-0.1c5.1-0.3,6.7-1.4,7.7-5.3c0.1-0.5,0.2-1,0.4-1.5c0.6-1.8,5.2-15.1,9.7-28c4.4-12.6,9-25.6,10-28.7
					c0.3-0.8,0.5-1.5,0.8-2.2c1.5-4.4,2.7-7.9,0.9-10.5C176.7,87.1,175.3,86,172.8,86L172.8,86z"/>
			</g>
		</g>
		<g>
			<path class="st0" d="M11,176.1c-1.9,0-4-0.1-5.1-1.7c-0.9-1.4-0.8-3.3,0.4-6.4c1.1-2.8,9-24.8,15.9-44.1
				c6.2-17.2,12-33.4,12.9-35.8l0.3-0.7c1.7-4.5,2.8-7.3,7.5-7.8c3.7-0.4,6.3-0.6,8.6-0.7l0.9-0.1c0.4,0,0.8-0.1,1.2-0.1
				c2.5,0,4,1.3,5.1,4.5c1.1,3.1,11.7,27.8,15.7,37c3.5-9.4,12.9-34.9,14.6-39.2c0.2-0.6,0.4-1.2,0.6-1.7c1.6-4.3,2.3-5.5,8.3-6.1
				c6.2-0.6,8.3-0.7,11.1-0.7c1.2,0,2.7,0.2,3.5,1.4c1,1.4,0.7,3.5-1,7.9c-2.3,6.1-26.5,76.6-27.9,80.8c-1.7,5.1-3.2,5.5-7.9,6.2
				c-4.4,0.6-9.1,0.6-10.6,0.6l-0.2,0c-2.5,0-4.5-1.2-7-7.2c-2.1-5-10.1-25.7-13.5-34.3c-3.5,10.2-12.8,37.5-14.3,41.5
				c-1.8,5-3.3,5.7-6.2,6l-0.6,0.1C21.1,175.7,14.8,176.1,11,176.1z"/>
			<path class="st2" d="M109.1,73.9c2.8,0,3.6,1,1.2,7.3c-2.4,6.2-26.4,76.4-27.9,80.8c-1.5,4.5-2.4,4.6-6.7,5.2
				c-4.3,0.6-8.9,0.6-10.4,0.6c-0.1,0-0.1,0-0.2,0c-1.4,0-3-0.1-5.6-6.2c-2.7-6.4-15-38.1-15-38.1S30.8,163.8,29,168.8s-3,4.7-5.5,5
				s-8.8,0.7-12.5,0.7s-5.3-0.7-3.3-6.1c2.1-5.3,26.8-74.9,28.8-80c1.9-5,2.5-7.1,6.5-7.6c4-0.4,6.7-0.6,9-0.7c0.5,0,1-0.1,1.5-0.1
				c1.6,0,2.7,0.5,3.7,3.5c1.3,3.9,17.2,40.5,17.2,40.5s13.8-37.4,15.9-42.7s1.6-6.2,7.7-6.8C104.2,74,106.3,73.9,109.1,73.9
				 M109.1,70.9c-3,0-5.4,0.2-11.3,0.8c-6.7,0.7-7.8,2.3-9.6,7.1c-0.2,0.5-0.4,1-0.6,1.6c-1.5,3.9-9.2,24.6-13.3,35.7
				C69,103.9,61,85.2,60.2,82.7c-0.9-2.6-2.4-5.5-6.6-5.5c-0.5,0-0.9,0-1.3,0.1l-0.3,0l-0.6,0c-2.3,0.1-4.9,0.3-8.6,0.7
				c-5.6,0.6-6.9,4-8.7,8.8l-0.3,0.7c-0.9,2.4-6.7,18.6-12.9,35.8C14,142.7,6.1,164.6,5,167.4c-1,2.6-1.8,5.5-0.2,7.8
				c1.6,2.4,4.7,2.4,6.3,2.4c3.9,0,10.2-0.5,12.8-0.8c0.2,0,0.4,0,0.5-0.1c3.6-0.4,5.5-1.5,7.4-7c1.3-3.6,8.8-25.6,12.9-37.6
				c3.8,9.8,10.2,26.1,12,30.5c2.5,5.9,4.7,8.1,8.4,8.1l0.1,0l0.1,0c1.6,0,6.3,0,10.8-0.6c5.2-0.7,7.2-1.5,9.1-7.2
				c1.4-4.2,25.5-74.6,27.8-80.7c1.6-4.3,2.3-7.1,0.8-9.3C112.5,70.9,110,70.9,109.1,70.9L109.1,70.9z"/>
		</g>
		<path class="st1" d="M218.3,27.3c4.5-4.6,11-9,19.7-9.3c8.7-0.3,11.7,9.5,3.5,21.3c-8.2,11.8-16.5,15.7-21.5,17.3
			c-5,1.7-15,1.3-13.3-8.8C208.3,37.7,214.3,31.4,218.3,27.3z"/>
		<g>
			<path class="st0" d="M222.4,151.7c-1.9,0-3.4-0.7-4.3-2c-1.1-1.6-1.1-3.8,0-6.6c1.9-4.8,19.4-53.9,19.6-54.4l0.1-0.3l12.1-13.2
				h13.3c1.9,0,2.9,0.9,3.3,1.6c0.6,0.9,0.7,2.1,0.3,3.7c2.6-2.6,5.8-5.2,9-6.6c4.5-1.9,6.8-2.6,8.3-2.6c1,0,2.8,0.4,3.1,2.7
				c0.4,2.6-2.3,12.9-3.8,17.4c-1.7,5.1-2.5,6.4-6.6,7.4c-2.6,0.6-8.8,2-16,12.7c-7.1,10.6-14.5,30.3-15.5,33.7
				c-1.1,3.6-2.2,5.2-6,5.4c-1.4,0.1-4.8,0.3-8.2,0.5c-3.4,0.2-6.8,0.4-8.3,0.5C222.7,151.7,222.5,151.7,222.4,151.7z"/>
			<g>
				<path class="st2" d="M284,72.8c1.1,0,1.5,0.5,1.6,1.4c0.3,2.1-2.1,11.7-3.7,16.8c-1.6,5-2.2,5.6-5.5,6.4s-9.6,2.5-16.9,13.4
					c-7.3,10.8-14.7,30.7-15.7,34.1c-1,3.4-1.8,4.2-4.6,4.3c-2.8,0.1-13.6,0.9-16.5,1c-0.1,0-0.2,0-0.3,0c-2.7,0-4.8-1.8-2.9-6.5
					c1.9-4.9,19.6-54.4,19.6-54.4l11.4-12.5c0,0,8.6,0,12.6,0s2.4,4.6-1.5,12.2c0,0,7.3-10.5,14.7-13.6
					C280.4,73.6,282.7,72.8,284,72.8 M284,69.8c-1.8,0-4.2,0.7-8.9,2.7c-2.4,1-4.8,2.7-7,4.6c-0.1-0.4-0.3-0.7-0.5-1.1
					c-0.5-0.9-1.8-2.3-4.6-2.3h-12.6h-1.3l-0.9,1l-11.4,12.5l-0.4,0.4l-0.2,0.6c-0.2,0.5-17.7,49.6-19.5,54.3
					c-1.6,4-0.8,6.5,0.2,7.9c1.2,1.7,3.2,2.7,5.6,2.7c0.2,0,0.3,0,0.5,0c1.4-0.1,4.9-0.3,8.3-0.5c3.3-0.2,6.8-0.4,8.2-0.5
					c4.6-0.2,6.1-2.4,7.3-6.4c1-3.4,8.3-22.8,15.3-33.3c6.9-10.2,12.6-11.5,15.1-12.1c4.7-1.1,5.9-2.7,7.7-8.4
					c1-3,4.3-14.8,3.8-18.1C288.2,71.4,286.5,69.8,284,69.8L284,69.8z"/>
			</g>
		</g>
		<g>
			<path class="st0" d="M275.6,145c-1.9,0-2.9-0.9-3.4-1.6c-1.1-1.6-1-4,0.2-7.3c4-11.3,19.3-54.1,20.4-58.2c1.3-5,4.5-7,7-7.2
				c0.3,0,8.6-0.8,13.9-0.8c0.5,0,0.9,0,1.3,0c1.9,0.1,3.8,0.3,4.7,1.7c1.1,1.7,0.4,3.8-0.8,7.4l-0.1,0.4
				c-1.9,5.6-17.6,52.8-19.1,57.4c-1.6,5-2.1,5.6-6.9,6.5c-2.3,0.4-5.6,0.6-8.8,0.8c-2.8,0.2-5.5,0.4-6.9,0.6
				C276.5,145,276,145,275.6,145z"/>
			<g>
				<path class="st2" d="M313.8,71.4c0.4,0,0.9,0,1.2,0c5,0.1,4.3,1.9,2.4,7.6c-1.9,5.6-17.7,52.8-19.1,57.4s-1.6,4.7-5.8,5.5
					c-4.2,0.7-12.6,0.9-15.7,1.5c-0.4,0.1-0.8,0.1-1.1,0.1c-2.4,0-3.7-1.9-1.8-6.9c2.1-5.8,19.3-53.8,20.5-58.3
					c1.2-4.5,3.9-5.9,5.7-6.1C299.9,72.2,308.5,71.4,313.8,71.4 M313.8,68.4L313.8,68.4c-5.4,0-13.7,0.7-14.1,0.8
					c-3,0.3-6.8,2.6-8.3,8.3c-1.1,4-16.4,46.8-20.4,58.1c-1.4,3.9-1.4,6.7,0,8.7c1,1.4,2.7,2.2,4.7,2.2c0.5,0,1.1-0.1,1.7-0.2
					c1.3-0.2,4-0.4,6.7-0.6c3.3-0.2,6.7-0.4,9-0.9c5.6-1,6.4-2.1,8.1-7.5c1.5-4.6,17.2-51.7,19.1-57.4l0.1-0.4
					c1.3-3.9,2.2-6.5,0.6-8.8c-1.4-2-3.7-2.3-5.9-2.3C314.7,68.4,314.2,68.4,313.8,68.4L313.8,68.4z"/>
			</g>
		</g>
		<g>
			<g>
				<path class="st2" d="M365.9,62c0.2,0,0.3,0,0.5,0c5.6,0.1,7.1,1.6,6.7,5.6c-0.4,4-3.7,23.1-13.5,37.2
					c-8.1,11.6-14.9,12.7-17,12.7c-0.4,0-0.7,0-0.7,0s14.7-42.7,17.7-50.7C360.3,64.4,360.7,62,365.9,62 M365.9,59
					c-6.9,0-8.2,3.9-9,6.2c-0.1,0.2-0.1,0.4-0.2,0.6c-2.9,8-17.5,50.3-17.7,50.8l-1.1,3.3l3.4,0.6c0.2,0,0.6,0.1,1.2,0.1
					c2.9,0,10.7-1.4,19.4-13.9c9.5-13.7,13.3-32.5,14-38.6c0.2-1.7,0.3-4.3-1.5-6.3c-1.9-2.2-5.2-2.6-8.1-2.7
					C366.2,59,366,59,365.9,59L365.9,59z"/>
			</g>
			<g>
				<path class="st2" d="M378.3,42.3c8.4,0,16.5,3.1,21.7,11.7c5.8,9.5-0.7,29.8-4.4,38.9c-3.7,9-12.3,23.9-27.4,33.5
					s-33.1,9.8-41.7,10.8c-7.5,0.9-11.3,1.4-13.9,1.4c-0.4,0-0.7,0-1.1,0c-2.7-0.1-6.1,0.7-3.3-6.4s28.5-78.5,29.7-82.2
					c1.2-3.7,3.9-3.6,8-4.2c0,0,20.3-2.7,29.7-3.4C376.4,42.4,377.4,42.3,378.3,42.3 M378.3,39.3c-1,0-2,0-3,0.1
					c-9.3,0.7-29,3.3-29.8,3.4c-0.4,0.1-0.8,0.1-1.2,0.1c-3.6,0.4-7.6,0.9-9.3,6.1c-1.2,3.8-26.8,75-29.6,82c-1.1,2.8-2,5.9-0.4,8.3
					c1.5,2.2,4,2.2,5.5,2.2c0.3,0,0.5,0,0.8,0c0.4,0,0.8,0,1.2,0c2.8,0,6.6-0.5,14.3-1.4c1.3-0.2,2.7-0.3,4.4-0.4
					c9.4-0.8,25.1-2.3,38.5-10.8c17.5-11.1,25.8-28.1,28.6-34.9c2-4.8,11.5-29.6,4.2-41.6C397.3,43.9,388.9,39.3,378.3,39.3
					L378.3,39.3z"/>
			</g>
		</g>
		<g>
			<path class="st0" d="M312,68.2c-2.1,0-4.1-0.6-5.8-1.7c-2.7-1.8-4.3-4.9-4.6-8.5c-0.3-3.5,0.8-7.2,3-10.5c3-4.5,7.8-7.3,12.4-7.3
				c2.1,0,4.1,0.6,5.8,1.7c5.5,3.7,6.2,12.2,1.6,19C321.4,65.5,316.6,68.2,312,68.2z"/>
			<g>
				<path class="st2" d="M317,41.7c1.8,0,3.5,0.5,5,1.5c4.8,3.3,5.3,10.8,1.2,16.9c-2.9,4.2-7.2,6.6-11.2,6.6c-1.8,0-3.5-0.5-5-1.5
					c-4.8-3.3-5.3-10.8-1.2-16.9C308.7,44.1,313,41.7,317,41.7 M317,38.7L317,38.7c-5.1,0-10.4,3-13.7,7.9c-5.1,7.4-4.2,16.9,2,21.1
					c1.9,1.3,4.2,2,6.7,2c5.1,0,10.4-3,13.7-7.9c5.1-7.4,4.2-16.9-2-21.1C321.8,39.4,319.5,38.7,317,38.7L317,38.7z"/>
			</g>
		</g>
		<g>
			<g>
				<path class="st2" d="M463.2,52.6c4.9,0,8,0.6,8,0.6c6.1,0.6,7.7,3.4,6.2,7.9c-1.5,4.5-21.5,62.6-21.5,62.6l-24,1.9l1.3-5.3
					c-4.5,5.2-12.8,9.3-20.2,9.3c-1.5,0-3-0.2-4.4-0.6c-8.3-2.2-13.3-13.9-6.5-29.1s13.3-28.5,31.7-39.5
					C444.8,53.9,456,52.6,463.2,52.6 M463.2,49.6c-7.8,0-19.5,1.4-30.9,8.3c-18.5,11-25.3,23.9-32.9,40.8c-4,9-4.5,17.9-1.4,24.6
					c2.1,4.4,5.6,7.5,9.9,8.6c1.6,0.4,3.4,0.7,5.2,0.7c4.9,0,10.4-1.7,15.1-4.4l-0.2,0.8l4.2-0.3l24-1.9l2-0.2l0.6-1.9
					c0.8-2.4,20-58.2,21.5-62.6c1-3.1,0.9-5.7-0.5-7.8c-1.5-2.3-4.2-3.6-8.2-4C470.9,50.1,467.8,49.6,463.2,49.6L463.2,49.6z"/>
			</g>
			<g>
				<path class="st2" d="M446.8,70.4c1.4,0,2.2,1.7,0.2,8.3c-3.3,10.9-16,28.1-19.9,28.1c-1.2,0-1.6-1.7-0.6-5.7
					C430.9,84,443.6,72,443.6,72S445.4,70.4,446.8,70.4 M446.8,67.4c-2.2,0-4.4,1.7-5.2,2.4l0,0l0,0c-0.5,0.5-13.4,12.8-17.9,30.5
					c-1,4-0.9,6.3,0.3,7.9c0.8,1,1.9,1.5,3.2,1.5c1.1,0,4.6,0,12.6-11.2c4.7-6.6,8.5-13.7,10.2-19c1.7-5.5,1.8-8.5,0.3-10.5
					C449.4,68,448.2,67.4,446.8,67.4L446.8,67.4z"/>
			</g>
		</g>
		<g>
			<path class="st0" d="M457.9,151.5c-2.3,0-4-1.2-4.5-3.1c-0.4-1.8,0.3-4.4,3.8-6.2c5.3-2.8,26.1-18.1,28-22.4
				c2-4.4,4.2-18.8,2.8-35.6c-1.3-15.8-2.9-21.1-4.1-25l-0.1-0.4c-0.4-1.3-0.8-3.2,0.2-4.7c1.2-1.6,3.5-2,6.9-2.1
				c4.7-0.1,8.5-0.5,11.6-0.8l1.2-0.1c0.7-0.1,1.3-0.2,1.8-0.2c0.8-0.1,1.5-0.2,2.2-0.2c1.8,0,3.1,0.8,4,2.4l0.1,0.1
				c1.4,2.7,2.4,4.6,2.7,6c0.1,0.4,1.6,7.2,2.1,14c3.7-6.4,9.9-17.4,11-20.5c1.9-5.4,3.2-5.9,9.1-5.9h9.8c1.7,0,2.9,0.6,3.6,1.7
				c1.3,2.2,0.3,5.9-3.4,12.5c-5.3,9.4-24.5,41.5-43.6,64.7c-15.5,19-18.5,21-20,22.1c-0.3,0.2-0.5,0.3-0.7,0.5
				C479.9,150.9,458.1,151.5,457.9,151.5z"/>
			<g>
				<path class="st2" d="M546.6,48.3c2.8,0,4.5,1.9-1.2,12s-24.6,41.5-43.5,64.5c-18.8,23-19,20.9-20.6,22.5s-19.9,2.7-23.4,2.7
					c-3.6,0-4.7-4,0-6.5c4.7-2.5,26.4-18.1,28.6-23.1c2.2-5,4.3-19.9,3-36.3c-1.3-16.5-3.1-21.8-4.3-25.7c-1.2-3.9,0.4-4.7,5.8-4.9
					c5.3-0.1,9.6-0.6,12.9-0.9c1.6-0.1,2.9-0.5,3.9-0.5c1.1,0,1.9,0.4,2.6,1.7c1.3,2.5,2.4,4.5,2.7,5.8c0,0,2.5,11.3,2.2,19
					c0,0,12.2-20.8,13.8-25.4c1.6-4.6,2.2-4.9,7.7-4.9S543.8,48.3,546.6,48.3 M546.6,45.3h-9.8c-6.5,0-8.4,0.8-10.5,6.9
					c-0.8,2.2-4.7,9.3-8.6,16.3c-0.7-5-1.6-9.3-1.7-9.5c-0.3-1.6-1.4-3.6-2.9-6.4l-0.1-0.1c-1.1-2.2-2.9-3.2-5.3-3.2
					c-0.8,0-1.6,0.1-2.4,0.2c-0.6,0.1-1.1,0.2-1.7,0.2l-1.2,0.1c-3.1,0.3-6.9,0.6-11.5,0.8c-3.2,0.1-6.4,0.4-8.1,2.7
					c-1.5,2-1,4.4-0.5,6l0.1,0.4c1.2,3.8,2.8,9,4.1,24.6c1.3,16.6-0.8,30.6-2.7,34.9c-1.7,3.8-21.8,18.8-27.3,21.7
					c-4.3,2.3-5.1,5.6-4.6,7.9c0.6,2.6,3,4.3,6,4.3c1.8,0,7.4-0.3,12.7-0.7c11-1,12-2,12.9-2.8c0.1-0.1,0.2-0.2,0.5-0.4
					c1.6-1.1,4.7-3.3,20.3-22.4c19.1-23.4,38.5-55.5,43.8-65c4-7.2,5-11.3,3.4-14C550.8,46.6,549.4,45.3,546.6,45.3L546.6,45.3z"/>
			</g>
		</g>
		<path class="st3" d="M132.4,189.8c0,0,18.8-13.6,36.6-43.1s22-38,24-46.8s0.5-17.1-12.4-17.6s-26,1.5-29.4-0.6s-7.8-3.3-3-17.4
			s10.5-16.3,18-14.4s17,6.3,30.3,10.5s25.9,1.4,39.1-4.6s31.8-16.1,46-31.4S299,1.8,299.9,11s-4.6,28-34.4,54s-28.5,25.5-62.6,78.3
			s-60.5,58.2-70.5,57.2S122.3,198.7,132.4,189.8z"/>
	</g>
</g>
</svg>
