<?xml version="1.0" encoding="utf-8"?>
<!-- Generator: Adobe Illustrator 19.1.0, SVG Export Plug-In . SVG Version: 6.00 Build 0)  -->
<svg version="1.1" xmlns="http://www.w3.org/2000/svg" xmlns:xlink="http://www.w3.org/1999/xlink" x="0px" y="0px"
	 viewBox="0 0 303 372" style="enable-background:new 0 0 303 372;" xml:space="preserve">
<style type="text/css">
	.st0{fill:#2E9BFF;}
</style>
<g id="white_background">
</g>
<g id="Layer_1">
	<g>
		<path class="st0" d="M270.5,254c-0.1-6.8-5.6-12.2-12.4-12.1l-43.3,0.4l-27.6-35.4l-22.7-56.6l19.4-17.4l31.5,11.4
			c4.2,1.5,8.7-0.7,10.2-4.8c1.5-4.2-0.7-8.7-4.8-10.2l-36-13c-2.8-1-5.9-0.4-8.1,1.6l-26,23.4l-34.4,13.8c0,0-0.1,0-0.1,0
			c-1.6,0.4-3,1.3-4.2,2.6v0l-20.3,24L63,164.3c-3.8-2.3-8.7-1-11,2.8c-2.3,3.8-1,8.7,2.8,11l34.7,20.6c1.3,0.8,2.7,1.1,4.1,1.1
			c2.3,0,4.5-1,6.1-2.8l17.1-20.3l19.1,47.7c0.1,0.4,0.1,0.7,0.2,1.1l0,0l12,48.8l-15.6,47.3c-2.1,6.4,1.4,13.4,7.8,15.5
			c1.3,0.4,2.6,0.6,3.8,0.6c5.1,0,9.9-3.3,11.6-8.4l16.7-50.7c0.7-2.2,0.8-4.5,0.3-6.7l-11-44.9l7.7-3.1l29.8,38.2
			c2.3,3,5.9,4.7,9.7,4.7c0,0,0.1,0,0.1,0l49.3-0.4C265.1,266.3,270.6,260.8,270.5,254z"/>
		<path class="st0" d="M132.2,142.3c11.5-4.6,17.1-17.7,12.5-29.3c-4.6-11.5-17.7-17.1-29.3-12.5c-11.5,4.6-17.1,17.7-12.5,29.3
			C107.6,141.4,120.7,147,132.2,142.3z"/>
		<path class="st0" d="M107.6,152.4c0.5-0.1,0.9-0.6,0.8-1.1c-0.1-0.5-0.6-0.9-1.1-0.8c-2.7,0.4-4.4,1.6-5.3,3.1
			c-0.9,1.4-1.1,3-1.1,4c0,0.7,0.1,1.2,0.1,1.3c0.1,0.5,0.5,0.8,1,0.8c0.1,0,0.1,0,0.2,0c0.5-0.1,0.9-0.6,0.8-1.2v0c0,0,0-0.1,0-0.2
			c0-0.2,0-0.4,0-0.7c0-0.8,0.2-1.9,0.8-2.9C104.3,153.7,105.4,152.8,107.6,152.4z"/>
		<path class="st0" d="M106.4,148.1c0.5-0.1,0.9-0.6,0.9-1.1c-0.1-0.5-0.6-0.9-1.1-0.9c-4.4,0.5-7,2.4-8.4,4.6
			c-1.4,2.2-1.6,4.5-1.6,5.9c0,0.7,0.1,1.1,0.1,1.2c0.1,0.5,0.5,0.9,1,0.9c0,0,0.1,0,0.1,0c0.5-0.1,0.9-0.6,0.8-1.1h0
			c0,0,0-0.3,0-0.9c0-1.1,0.2-3.1,1.3-4.8C100.6,150.2,102.5,148.6,106.4,148.1z"/>
		<path class="st0" d="M51.5,160.8c0,0,0-0.2,0.2-0.6c0.5-1.2,1.6-3.3,4.5-3.2c0.6,0,1.3,0.1,2,0.3c0.5,0.1,1.1-0.2,1.2-0.7
			c0.2-0.5-0.2-1.1-0.7-1.2c-0.9-0.3-1.8-0.4-2.6-0.4c-2.6,0-4.4,1.4-5.3,2.7c-1,1.3-1.3,2.6-1.3,2.7c-0.1,0.5,0.2,1.1,0.7,1.2
			c0.1,0,0.2,0,0.2,0C51,161.6,51.4,161.3,51.5,160.8z"/>
		<path class="st0" d="M55.2,152.3c1.1,0,2.3,0.2,3.7,0.6c0.5,0.2,1.1-0.1,1.3-0.6c0.2-0.5-0.1-1.1-0.6-1.3c-1.6-0.5-3-0.7-4.3-0.7
			c-3.7,0-6.2,1.9-7.6,3.7c-1.4,1.8-2,3.6-2,3.6c-0.2,0.5,0.1,1.1,0.7,1.2c0.1,0,0.2,0,0.3,0c0.4,0,0.8-0.3,1-0.7
			c0,0,0.1-0.3,0.4-0.9C48.7,155.5,50.8,152.3,55.2,152.3z"/>
		<path class="st0" d="M223.5,123.4c0,0,0.3-0.1,0.9-0.1c0.8,0,1.9,0.2,2.9,0.8c1,0.6,1.8,1.7,2.2,4c0.1,0.5,0.5,0.9,1,0.9
			c0,0,0.1,0,0.1,0c0.5-0.1,0.9-0.6,0.8-1.1c-0.4-2.7-1.6-4.4-3.1-5.3c-1.4-0.9-3-1.1-4-1.1c-0.7,0-1.2,0.1-1.3,0.1
			c-0.5,0.1-0.9,0.6-0.8,1.2C222.4,123.2,222.9,123.5,223.5,123.4z"/>
		<path class="st0" d="M224.3,118.7c0,0,0.3,0,0.9,0c1.1,0,3.1,0.2,4.8,1.3c1.7,1.1,3.3,3,3.7,6.9c0.1,0.5,0.5,0.9,1,0.9
			c0,0,0.1,0,0.1,0c0.5-0.1,0.9-0.6,0.9-1.1c-0.5-4.4-2.4-7-4.7-8.4c-2.2-1.4-4.6-1.6-5.9-1.6c-0.7,0-1.1,0.1-1.1,0.1
			c-0.5,0.1-0.9,0.6-0.8,1.1C223.3,118.4,223.8,118.8,224.3,118.7z"/>
		<path class="st0" d="M266.1,269.9c-0.5-0.1-1,0.3-1.1,0.9c-0.1,0.5,0.3,1,0.9,1.1c0.4,0,0.8,0.1,1.2,0.1c0,0,0.1,0,0.1,0
			c3.1,0,5-1.7,5.9-3.3c0.9-1.6,1-3.1,1-3.2c0-0.6-0.4-1-0.9-1.1c-0.5,0-1,0.4-1.1,0.9l0,0c0,0,0,0.3-0.1,0.7
			c-0.4,1.4-1.3,3.9-4.9,3.9C266.8,270,266.5,270,266.1,269.9z"/>
		<path class="st0" d="M277.6,266.6c-0.5-0.1-1,0.3-1.1,0.9c0,0,0,0.4-0.3,1.1c-0.7,2.1-2.4,6-8,6c-0.6,0-1.3-0.1-2.1-0.2
			c-0.5-0.1-1.1,0.3-1.1,0.8c-0.1,0.5,0.3,1.1,0.8,1.1c0.8,0.1,1.6,0.2,2.4,0.2c0,0,0,0,0.1,0c4.4,0,7.1-2.3,8.5-4.5
			c1.4-2.2,1.7-4.3,1.7-4.4C278.5,267.1,278.1,266.6,277.6,266.6z"/>
		<path class="st0" d="M198.1,276.5C198.1,276.5,198.1,276.5,198.1,276.5c2.9,0,4.8-1.8,4.8-1.9c0.4-0.4,0.4-1,0.1-1.4
			c-0.4-0.4-1-0.4-1.4-0.1l0,0c0,0-0.1,0.1-0.2,0.2c-0.5,0.4-1.8,1.2-3.2,1.2c-1.2,0-2.5-0.4-4-2.2c-0.4-0.4-1-0.5-1.4-0.1
			c-0.4,0.4-0.5,1-0.1,1.4C194.3,275.7,196.3,276.5,198.1,276.5z"/>
		<path class="st0" d="M191,275.5c-0.3-0.4-1-0.5-1.4-0.2c-0.4,0.3-0.5,1-0.2,1.4c2.7,3.6,5.8,4.8,8.5,4.8c0,0,0,0,0.1,0
			c3.8,0,6.5-2.3,6.6-2.3c0.4-0.3,0.5-1,0.1-1.4c-0.3-0.4-1-0.5-1.4-0.1l0,0c0,0-0.1,0.1-0.4,0.3c-0.8,0.5-2.7,1.6-5,1.6
			C195.8,279.4,193.4,278.6,191,275.5z"/>
		<path class="st0" d="M220.3,229.8c-1.4-0.9-3-1.1-4-1.1c-0.7,0-1.2,0.1-1.3,0.1c-0.5,0.1-0.9,0.6-0.8,1.2c0.1,0.5,0.6,0.9,1.2,0.8
			v0c0,0,0.3-0.1,0.9-0.1c0.8,0,1.9,0.2,2.9,0.8c1,0.6,1.8,1.7,2.2,4c0.1,0.5,0.5,0.9,1,0.9c0,0,0.1,0,0.1,0
			c0.5-0.1,0.9-0.6,0.8-1.1C223,232.4,221.8,230.7,220.3,229.8z"/>
		<path class="st0" d="M226.7,235.1c0,0,0.1,0,0.1,0c0.5-0.1,0.9-0.6,0.9-1.1c-0.5-4.4-2.4-7-4.7-8.4c-2.2-1.4-4.6-1.6-5.9-1.6
			c-0.7,0-1.1,0.1-1.1,0.1c-0.5,0.1-0.9,0.6-0.8,1.1c0.1,0.5,0.6,0.9,1.1,0.8c0,0,0.3,0,0.9,0c1.1,0,3.1,0.2,4.8,1.3
			c1.7,1.1,3.3,3,3.7,6.9C225.8,234.8,226.2,235.1,226.7,235.1z"/>
		<path class="st0" d="M140.4,268.9c0.5-0.3,0.6-0.9,0.3-1.4c-0.3-0.5-0.9-0.6-1.4-0.3c-2.8,1.7-3.8,4.1-3.8,6c0,2.4,1.2,4,1.2,4.1
			c0.2,0.3,0.5,0.4,0.8,0.4c0.2,0,0.4-0.1,0.6-0.2c0.5-0.3,0.6-0.9,0.3-1.4l0,0c0,0,0-0.1-0.1-0.2c-0.3-0.4-0.8-1.6-0.8-2.8
			C137.6,271.9,138,270.4,140.4,268.9z"/>
		<path class="st0" d="M136.6,263.7c-4.6,2.6-6,6.2-6,9.1c0,3.1,1.4,5.5,1.5,5.5c0.2,0.3,0.5,0.5,0.9,0.5c0.2,0,0.4,0,0.5-0.1
			c0.5-0.3,0.6-0.9,0.3-1.4v0c0,0-0.1-0.1-0.2-0.3c-0.3-0.7-1-2.3-1-4.2c0-2.3,0.9-5,5-7.4c0.5-0.3,0.6-0.9,0.4-1.4
			C137.7,263.6,137.1,263.4,136.6,263.7z"/>
		<path class="st0" d="M95.1,206.7c-0.5,0.5-1.9,1.4-3.4,1.4c-1.1,0-2.4-0.4-3.9-2c-0.4-0.4-1-0.4-1.4,0c-0.4,0.4-0.4,1,0,1.4
			c1.8,1.9,3.7,2.6,5.3,2.6c0,0,0,0,0,0c3.1,0,5-2.1,5.1-2.2c0.4-0.4,0.4-1,0-1.4c-0.4-0.4-1-0.4-1.4,0v0
			C95.4,206.5,95.3,206.5,95.1,206.7z"/>
		<path class="st0" d="M97.4,210.8L97.4,210.8c0,0-0.1,0.1-0.4,0.3c-0.8,0.6-2.9,1.9-5.3,1.9c-2,0-4.2-0.8-6.7-3.5
			c-0.4-0.4-1-0.5-1.4-0.1c-0.4,0.4-0.5,1-0.1,1.4c2.7,3.1,5.7,4.2,8.2,4.2c0,0,0,0,0,0c4.2,0,7-2.7,7.1-2.8c0.4-0.4,0.4-1,0-1.4
			C98.4,210.4,97.8,210.4,97.4,210.8z"/>
	</g>
</g>
</svg>
