<?xml version="1.0" encoding="utf-8"?>
<!-- Generator: Adobe Illustrator 19.1.0, SVG Export Plug-In . SVG Version: 6.00 Build 0)  -->
<svg version="1.0" id="Layer_1" xmlns="http://www.w3.org/2000/svg" xmlns:xlink="http://www.w3.org/1999/xlink" x="0px" y="0px"
	 viewBox="-264.7 266.8 260 260.2" style="enable-background:new -264.7 266.8 260 260.2;" xml:space="preserve">
<style type="text/css">
	.st0{fill:#2F9BFF;}
	.st1{fill:#FFFFFF;}
</style>
<g id="Layer_1_1_">
	<g>
		<g>
			<path class="st0" d="M-153.6,519.1c-1.5,0-3.1-0.2-4.6-0.7c-3.9-1.3-7-4-8.8-7.6c-1.8-3.6-2.1-7.7-0.9-11.5l15.3-46.5l-11.8-48
				c-0.1-0.3-0.1-0.6-0.2-0.8c0,0,0-0.1,0-0.1l-17.3-43.1l-14.1,16.7c-2.2,2.4-5.2,3.8-8.3,3.8c-2.1,0-3.9-0.5-5.6-1.5l-34.7-20.6
				c-5.2-3.1-6.9-9.8-3.8-14.9c2-3.3,5.6-5.3,9.4-5.3c1.9,0,3.9,0.5,5.5,1.6l26.6,16.1l18.8-22.2c1.6-1.8,3.5-2.9,5.6-3.4l0.1,0
				l33.6-13.5l25.6-23.1c2-1.8,4.6-2.8,7.3-2.8c1.3,0,2.5,0.2,3.7,0.6l36,13c5.6,2,8.5,8.2,6.5,13.8c-1.6,4.3-5.7,7.2-10.2,7.2
				c-1.2,0-2.5-0.2-3.7-0.6l-29.9-10.8l-16.7,14.9l21.8,54.4l26.5,34l42.1-0.4c8.3,0,14.9,6.5,15,14.9c0.1,8.3-6.6,15.2-15,15.3
				l-49.4,0.4c-4.7,0-9.2-2.2-11.9-5.8l-28.5-36.5l-3.4,1.4l10.4,42.5c0.6,2.7,0.5,5.6-0.4,8.2l-16.7,50.7
				C-141.3,515-147.1,519.1-153.6,519.1z"/>
			<path class="st1" d="M-115.6,294.4c0.9,0,1.8,0.2,2.7,0.5l36,13c4.1,1.5,6.3,6,4.8,10.2c-1.2,3.2-4.2,5.3-7.5,5.3
				c-0.9,0-1.8-0.2-2.7-0.5l-31.5-11.4l-19.4,17.4l22.7,56.6l27.6,35.4l43.3-0.4c0.1,0,0.1,0,0.2,0c6.7,0,12.1,5.4,12.2,12.1
				c0.1,6.8-5.4,12.3-12.2,12.4l-49.3,0.4h-0.1c-3.8,0-7.4-1.7-9.7-4.7l-29.8-38.2l-7.7,3.1l11,44.9c0.5,2.2,0.4,4.5-0.3,6.7
				l-16.7,50.7c-1.7,5.1-6.5,8.4-11.6,8.4c-1.2,0-2.5-0.2-3.8-0.6c-6.4-2.1-9.9-9.1-7.8-15.5l15.6-47.3l-12-48.8
				c-0.1-0.4-0.1-0.7-0.2-1.1l-19.1-47.7l-17.1,20.3c-1.6,1.8-3.8,2.8-6.1,2.8c-1.4,0-2.8-0.3-4.1-1.1l-34.7-20.6
				c-3.8-2.3-5.1-7.2-2.8-11c1.5-2.5,4.2-3.9,6.9-3.9c1.4,0,2.8,0.4,4.1,1.1l28.7,17.4l20.3-24c1.2-1.3,2.6-2.2,4.2-2.6h0.1
				l34.4-13.8l26-23.4C-119.5,295.1-117.5,294.4-115.6,294.4 M-115.6,288.8c-3.4,0-6.7,1.3-9.2,3.5L-150,315l-32.9,13.2
				c-2.6,0.7-4.9,2.1-6.9,4.2l-0.1,0.1l-0.1,0.1l-17.2,20.3l-24.6-14.9c-2.1-1.3-4.5-2-7-2c-4.8,0-9.3,2.6-11.8,6.7
				c-1.9,3.1-2.4,6.8-1.5,10.4c0.9,3.5,3.1,6.5,6.2,8.4l34.7,20.6c2.1,1.3,4.4,1.9,7,1.9c3.9,0,7.7-1.7,10.3-4.7l0.1-0.1l0-0.1
				l11-13.1l15.4,38.4c0,0.2,0.1,0.6,0.2,0.9l11.6,47.2l-15.1,45.8c-3.1,9.4,2,19.6,11.4,22.7l0,0l0.1,0c1.8,0.6,3.7,0.9,5.5,0.9
				c7.7,0,14.5-4.9,17-12.3l16.7-50.7l0,0l0,0c1-3.1,1.1-6.5,0.4-9.7l0,0l0,0l-9.3-38.1l25.9,33.2c3.3,4.3,8.6,6.9,14.2,6.9h0.1
				l49.3-0.4c10-0.1,18-8.3,17.8-18.2c-0.1-9.9-8-17.7-17.9-17.7l-0.3,0l-40.5,0.4l-25.4-32.6l-20.9-52.2l13.9-12.5l28.3,10.2
				c1.5,0.5,3.1,0.8,4.6,0.8c5.7,0,10.9-3.6,12.8-9c2.5-7.1-1.1-14.9-8.2-17.5l-36-13C-112.4,289-114,288.8-115.6,288.8
				L-115.6,288.8z"/>
		</g>
		<g>
			<path class="st0" d="M-173.9,325.4c-10.4,0-19.6-6.3-23.5-15.9c-5.2-13,1.1-27.8,14.1-33c3-1.2,6.2-1.8,9.4-1.8
				c10.4,0,19.7,6.2,23.6,15.9c5.2,13-1.2,27.8-14.1,33C-167.4,324.8-170.6,325.4-173.9,325.4C-173.9,325.4-173.9,325.4-173.9,325.4
				z"/>
			<path class="st1" d="M-173.9,277.5c9,0,17.4,5.3,20.9,14.1c4.6,11.6-1,24.7-12.5,29.3c-2.8,1.1-5.6,1.7-8.4,1.7
				c-8.9,0-17.3-5.4-20.9-14.2c-4.6-11.6,1-24.7,12.5-29.3C-179.5,278-176.7,277.5-173.9,277.5 M-173.9,271.8c-3.6,0-7.1,0.7-10.5,2
				c-14.4,5.8-21.4,22.2-15.7,36.7c4.4,10.8,14.6,17.7,26.1,17.7c3.6,0,7.2-0.7,10.6-2.1c14.3-5.7,21.4-22.2,15.6-36.6
				C-152,278.8-162.3,271.8-173.9,271.8L-173.9,271.8z"/>
		</g>
		<g>
			<path class="st0" d="M-195.7,341.1c-1.9,0-3.4-1.3-3.8-3.1l-0.1-0.3v-0.1c0-0.3-0.1-0.8-0.1-1.5c0-1.2,0.2-3.4,1.6-5.5
				c1-1.6,3-3.7,7.2-4.4c0.2,0,0.4-0.1,0.6-0.1c1.8,0,3.4,1.3,3.7,3.1c0.4,2-0.9,4-3,4.4c-1.2,0.2-1.7,0.6-1.8,0.8l0,0.1l-0.1,0.1
				c-0.3,0.5-0.4,1.1-0.4,1.4v0.7c0.2,2-1.1,3.8-3.1,4.1l-0.3,0.1H-195.7z"/>
			<path class="st1" d="M-190.2,329.1c0.4,0,0.9,0.4,0.9,0.8c0.1,0.5-0.3,1-0.8,1.1c-2.2,0.4-3.3,1.3-3.8,2.3
				c-0.6,1-0.8,2.1-0.8,2.9c0,0.3,0,0.5,0,0.7c0,0.1,0,0.2,0,0.2c0.1,0.6-0.3,1.1-0.8,1.2c-0.1,0-0.1,0-0.2,0c-0.5,0-0.9-0.3-1-0.8
				c0-0.1-0.1-0.6-0.1-1.3c0-1,0.2-2.6,1.1-4c0.9-1.5,2.6-2.7,5.3-3.1C-190.3,329.1-190.2,329.1-190.2,329.1 M-190.2,323.4
				c-0.4,0-0.7,0-1.1,0.1c-4.1,0.6-7.3,2.6-9.2,5.7c-1.7,2.7-2,5.5-2,7c0,0.7,0.1,1.3,0.1,1.6v0.2l0.1,0.6c0.6,3.2,3.3,5.4,6.6,5.4
				h0.2h0.6l0.6-0.1c3.3-0.7,5.6-3.7,5.4-7v-0.2l0,0c1.6-0.3,3.1-1.2,4-2.6c1.1-1.5,1.6-3.4,1.2-5.2
				C-184.3,325.7-187.1,323.4-190.2,323.4L-190.2,323.4z"/>
		</g>
		<g>
			<path class="st0" d="M-200.4,340.1c-1.8,0-3.4-1.3-3.8-3.2l-0.1-0.3v-0.1c0-0.3-0.1-0.8-0.1-1.4c0-2.8,0.7-5.3,2-7.4
				c1.5-2.3,4.5-5.2,10.5-5.9l0.2,0h0.2c1.9,0,3.5,1.4,3.9,3.2l0.1,0.3v0.3c0,1.8-1.4,3.5-3.2,3.9l-0.1,0l-0.1,0
				c-3.1,0.4-4.3,1.6-4.9,2.5c-0.8,1.2-0.8,2.8-0.8,3.3v0.7c0.2,1.9-1.1,3.7-3.1,4.1l-0.3,0.1H-200.4z"/>
			<path class="st1" d="M-191.5,324.7c0.5,0,1,0.4,1.1,0.9c0,0.5-0.4,1-0.9,1.1c-3.9,0.5-5.8,2.1-6.9,3.8s-1.3,3.7-1.3,4.8
				c0,0.6,0,0.9,0,0.9c0.1,0.5-0.3,1-0.8,1.1h-0.1c-0.5,0-0.9-0.4-1-0.9c0-0.1-0.1-0.5-0.1-1.2c0-1.4,0.2-3.7,1.6-5.9
				C-198.5,327.1-195.9,325.2-191.5,324.7 M-191.5,319h-0.3l-0.3,0c-7.1,0.8-10.7,4.4-12.5,7.2c-1.6,2.6-2.5,5.6-2.5,8.9
				c0,0.7,0.1,1.2,0.1,1.6v0.2l0.1,0.6c0.6,3.2,3.4,5.5,6.6,5.5h0.1h0.6l0.6-0.1c3.3-0.7,5.6-3.7,5.4-7v-0.6c0-0.7,0.2-1.4,0.4-1.7
				c0.2-0.3,0.6-1,2.9-1.3l0.2,0l0.2,0c3.2-0.6,5.5-3.4,5.5-6.7V325l-0.1-0.6C-185.4,321.3-188.2,319-191.5,319L-191.5,319z"/>
		</g>
		<g>
			<path class="st0" d="M-247.7,343l-0.3-0.1c-1-0.2-2-0.9-2.5-1.9c-0.5-0.8-0.6-1.8-0.4-2.7l0,0c0.2-1,0.8-2.5,1.8-3.8
				c1.7-2.4,4.5-3.9,7.6-3.9c1.2,0,2.3,0.2,3.4,0.5c1,0.3,1.9,1,2.4,1.9c0.5,0.9,0.6,1.9,0.3,2.9c-0.4,1.6-2,2.7-3.7,2.7
				c-0.3,0-0.5,0-0.8-0.1l-0.1,0l-0.1,0c-0.4-0.1-0.9-0.2-1.2-0.2l-0.2,0c-0.6,0-1.1,0.1-1.7,1.5l0,0.1c-0.4,1.8-1.9,3-3.9,3H-247.7
				z"/>
			<path class="st1" d="M-241.6,333.6c0.8,0,1.7,0.1,2.6,0.4c0.5,0.1,0.9,0.7,0.7,1.2c-0.1,0.4-0.6,0.7-1,0.7c-0.1,0-0.1,0-0.2,0
				c-0.7-0.2-1.4-0.3-2-0.3c-0.1,0-0.1,0-0.2,0c-2.8,0-3.8,2-4.3,3.2c-0.2,0.4-0.2,0.6-0.2,0.6c-0.1,0.5-0.5,0.8-1.1,0.8
				c0,0-0.1,0-0.2,0c-0.5-0.1-0.8-0.7-0.7-1.2c0-0.1,0.3-1.4,1.3-2.7C-246,335-244.2,333.6-241.6,333.6 M-241.6,327.9
				c-4,0-7.6,1.9-9.9,5c-1.1,1.5-2,3.4-2.3,4.9l0,0c-0.7,3.6,1.6,7.2,5.1,7.9l0.6,0.1h0.6h0.2c3,0,5.5-1.8,6.4-4.5l0,0l0.2,0
				c0.4,0.1,0.9,0.1,1.3,0.1c3,0,5.6-2,6.4-4.8c0.5-1.7,0.3-3.5-0.5-5c-0.9-1.6-2.3-2.8-4.1-3.2
				C-238.7,328.1-240.1,327.9-241.6,327.9L-241.6,327.9z"/>
		</g>
		<g>
			<path class="st0" d="M-251.5,340.2l-0.2,0c-1.1-0.2-2.1-0.9-2.7-1.9c-0.5-1-0.6-2.1-0.2-3.1c0.2-0.4,0.9-2.4,2.4-4.4
				c1.4-1.8,4.5-4.8,9.8-4.8c1.7,0,3.4,0.3,5.1,0.8l0.1,0l0.1,0c2,0.8,3,3,2.2,5c-0.6,1.5-2,2.4-3.6,2.4c-0.4,0-0.8-0.1-1.2-0.2
				c-1.1-0.3-2-0.5-2.8-0.5c-3.3,0-4.3,2.7-4.4,3l-0.1,0.2l-0.1,0.2c-0.2,0.3-0.2,0.5-0.3,0.6l-0.1,0.1l-0.1,0.2
				c-0.7,1.4-2.1,2.3-3.5,2.3H-251.5z"/>
			<path class="st1" d="M-242.4,328.9c1.3,0,2.7,0.2,4.3,0.7c0.5,0.2,0.8,0.8,0.6,1.3c-0.2,0.4-0.6,0.7-1,0.7c-0.1,0-0.2,0-0.3-0.1
				c-1.4-0.4-2.6-0.6-3.7-0.6c-4.4,0-6.5,3.2-7.1,4.9c-0.3,0.6-0.4,0.9-0.4,0.9c-0.2,0.4-0.6,0.7-1,0.7c-0.1,0-0.2,0-0.3,0
				c-0.6-0.1-0.9-0.7-0.7-1.2c0,0,0.6-1.8,2-3.6C-248.6,330.8-246.1,328.9-242.4,328.9 M-242.4,323.2c-4.8,0-9.2,2.1-12.1,5.9
				c-1.8,2.3-2.6,4.5-2.9,5.2c-0.7,1.8-0.5,3.8,0.4,5.5c1,1.7,2.7,2.9,4.7,3.3l0.5,0.1h0.5h0.3c2.5,0,4.9-1.5,6.1-3.8l0.3-0.5l0-0.2
				c0-0.1,0.1-0.1,0.1-0.2l0.2-0.3l0.1-0.3c0.1-0.3,0.5-1.1,1.8-1.1c0.5,0,1.2,0.1,2,0.3c0.7,0.2,1.3,0.3,2,0.3
				c2.7,0,5.2-1.7,6.2-4.2c0.7-1.7,0.6-3.6-0.2-5.3c-0.7-1.5-2-2.7-3.6-3.4l-0.2-0.1l-0.2-0.1C-238.4,323.5-240.4,323.2-242.4,323.2
				L-242.4,323.2z"/>
		</g>
		<g>
			<path class="st0" d="M-67.2,310.4c-1.8,0-3.4-1.3-3.8-3.2c-0.1-0.9-0.4-1.8-0.9-2.1c-0.5-0.3-1.1-0.4-1.4-0.4c0,0-0.1,0-0.1,0
				l-0.3,0.2l0-0.1c-0.2,0-0.5,0.1-0.7,0.1c-1.5,0-2.9-0.9-3.6-2.2l-0.2-0.4l-0.1-0.4c-0.3-2.1,1-4,3-4.4l0.3-0.1h0.1
				c0.3,0,0.8-0.1,1.5-0.1c1.2,0,3.4,0.2,5.5,1.6c1.6,1,3.7,3,4.4,7.2c0.3,2-1,3.9-3,4.3l-0.3,0.1H-67.2z"/>
			<path class="st1" d="M-73.4,300.1c1,0,2.6,0.2,4,1.1c1.5,0.9,2.7,2.6,3.1,5.3c0.1,0.5-0.3,1-0.8,1.1h-0.1c-0.5,0-0.9-0.4-1-0.9
				c-0.4-2.3-1.2-3.4-2.2-4s-2.1-0.8-2.9-0.8c-0.6,0-0.9,0.1-0.9,0.1c-0.1,0-0.2,0-0.2,0c-0.5,0-0.9-0.3-1.1-0.6
				c-0.1-0.6,0.3-1.1,0.8-1.2C-74.6,300.2-74.1,300.1-73.4,300.1 M-73.4,294.4c-0.7,0-1.3,0.1-1.6,0.1h-0.2l-0.6,0.1
				c-3.6,0.7-5.9,4.1-5.3,7.7l0.1,0.8l0.4,0.8c1.1,2.3,3.5,3.8,6.1,3.8c0.2,0,0.4,0,0.6,0c0,0,0,0,0,0l0,0.1l0,0.1
				c0.6,3.2,3.4,5.5,6.6,5.5h0.1h0.6l0.6-0.1c1.6-0.3,3.1-1.2,4-2.6c1.1-1.4,1.5-3.3,1.2-5c-0.6-4.1-2.6-7.3-5.7-9.2
				C-69,294.7-71.9,294.4-73.4,294.4L-73.4,294.4z"/>
		</g>
		<g>
			<path class="st0" d="M-63,309.2c-1.8,0-3.4-1.3-3.8-3.2l0-0.1l0-0.1c-0.3-3.1-1.5-4.2-2.4-4.8c-1.2-0.8-2.8-0.8-3.3-0.8h-0.7
				c-0.1,0-0.2,0-0.3,0c0,0,0,0,0,0c-1.8,0-3.4-1.3-3.7-3.1c-0.4-2,0.9-4,3-4.4c0.2-0.1,0.8-0.2,1.7-0.2c1.9,0,4.8,0.4,7.4,2
				c2.3,1.4,5.3,4.4,6,10.5l0,0.2v0.2c0,1.9-1.4,3.5-3.2,3.9l-0.3,0.1H-63z"/>
			<path class="st1" d="M-72.6,295.3c1.3,0,3.7,0.2,5.9,1.6c2.3,1.4,4.2,4,4.7,8.4c0,0.5-0.4,1-0.9,1.1H-63c-0.5,0-0.9-0.4-1-0.9
				c-0.4-3.9-2-5.8-3.7-6.9c-1.7-1.1-3.7-1.3-4.8-1.3c-0.6,0-0.9,0-0.9,0c-0.1,0-0.1,0-0.2,0c-0.4,0-0.9-0.4-0.9-0.8
				c-0.1-0.5,0.3-1,0.8-1.1C-73.7,295.4-73.3,295.3-72.6,295.3 M-72.6,289.6c-1.1,0-1.9,0.1-2.3,0.2c-3.5,0.8-5.8,4.2-5.1,7.7
				c0.6,3.1,3.4,5.4,6.5,5.4c0.1,0,0.3,0,0.4,0h0.6c0.7,0,1.4,0.2,1.7,0.4c0.3,0.2,0.9,0.6,1.1,2.7l0,0.3l0.1,0.3
				c0.6,3.2,3.4,5.5,6.6,5.5h0.1h0.6l0.6-0.1c3.2-0.6,5.5-3.4,5.5-6.7V305l0-0.3c-0.8-7.2-4.4-10.8-7.3-12.6
				C-66.9,290.1-70.3,289.6-72.6,289.6L-72.6,289.6z"/>
		</g>
		<g>
			<path class="st0" d="M-30.6,453.4c-0.3,0-0.6,0-1-0.1c-0.1,0-0.2,0-0.3,0l-0.2,0l-0.3,0c-1.1-0.2-2-0.8-2.6-1.6
				c-0.6-0.8-0.8-1.8-0.6-2.8c0.3-1.8,1.9-3.2,3.7-3.2c0.2,0,0.4,0,0.6,0l0.1,0h0.5c1.4,0,1.8-0.5,2.2-1.8c0,0,0,0,0,0c0,0,0,0,0,0
				l0-0.4l0.1-0.1c0.4-1.8,2-3.2,3.9-3.2h0.3l0.3,0.1c1.9,0.4,3.2,2,3.2,3.9c0,0,0,2.2-1.4,4.6c-1.7,3-4.8,4.7-8.4,4.7H-30.6z"/>
			<path class="st1" d="M-24.5,443c0.5,0.1,0.9,0.5,0.9,1.1c0,0.1-0.1,1.6-1,3.2c-0.9,1.6-2.8,3.3-5.9,3.3h-0.1
				c-0.4,0-0.8-0.1-1.2-0.1c-0.6-0.1-1-0.6-0.9-1.1c0.1-0.5,0.5-0.9,0.9-0.9c0.1,0,0.1,0,0.2,0c0.2,0,0.4,0.1,0.5,0.1
				c0.2,0,0.3,0,0.5-0.1c3.6,0,4.5-2.5,4.9-3.9c0.1-0.4,0.1-0.7,0.1-0.7C-25.5,443.4-25,443-24.5,443 M-23.9,437.3h-0.6
				c-3.2,0-6,2.3-6.7,5.5l0,0h-0.1c-0.1,0-0.3,0-0.4,0c-3.2,0-5.9,2.3-6.5,5.6c-0.3,1.7,0.1,3.4,1.1,4.9c1,1.5,2.7,2.5,4.5,2.8
				l0.5,0.1h0.3l0.1,0c0.3,0,0.8,0.1,1.3,0.1h0.1c4.6,0,8.7-2.3,10.8-6.2c1.7-3,1.7-5.7,1.7-6c0-3.3-2.2-6-5.5-6.7L-23.9,437.3
				L-23.9,437.3z"/>
		</g>
		<g>
			<path class="st0" d="M-29.5,457.9c-0.9,0-1.8-0.1-2.6-0.2c-1-0.1-1.9-0.5-2.5-1.3c-0.7-0.8-1-1.9-0.8-2.9
				c0.2-1.8,1.8-3.4,3.8-3.4c0.2,0,0.4,0,0.6,0l0.2,0c0.6,0.1,1.1,0.1,1.4,0.1c3.5,0,4.6-2,5.3-4.1l0-0.1c0,0,0.1-0.2,0.1-0.2
				l-0.1-0.4l0.1,0c0.3-1.9,1.9-3.3,3.7-3.3c0.1,0,0.3,0,0.4,0c1.9,0.1,3.5,1.8,3.5,3.8c0,0.8-0.5,3.4-2.1,5.9
				C-20.8,455.8-24.8,457.9-29.5,457.9L-29.5,457.9z"/>
			<path class="st1" d="M-20.2,445.2c0.1,0,0.1,0,0.2,0c0.5,0,0.9,0.5,0.9,1c0,0.1-0.3,2.2-1.7,4.4c-1.4,2.2-4.1,4.5-8.5,4.5
				c-0.1,0-0.1,0-0.1,0c-0.8,0-1.6-0.1-2.4-0.2c-0.5,0-0.9-0.6-0.8-1.1c0-0.4,0.5-0.8,0.9-0.8c0.1,0,0.1,0,0.2,0
				c0.8,0.1,1.5,0.2,2.1,0.2c5.6,0,7.3-3.9,8-6c0.3-0.7,0.3-1.1,0.3-1.1C-21.1,445.6-20.7,445.2-20.2,445.2 M-20.2,439.5
				c-3.2,0-6,2.4-6.5,5.6l0,0l-0.1,0.2c-0.6,1.8-1.2,2.1-2.6,2.1c-0.2,0-0.7-0.1-1.1-0.1l-0.2,0c-0.3,0-0.6-0.1-1-0.1
				c-1.6,0-3.1,0.6-4.3,1.6c-1.3,1.1-2.2,2.7-2.3,4.3c-0.2,1.8,0.3,3.6,1.5,5c1.1,1.4,2.7,2.2,4.4,2.4c0.9,0.1,1.8,0.2,2.9,0.2h0.1
				c5.6,0,10.4-2.6,13.3-7.1c1.9-3,2.6-6.1,2.6-7.4c0-3.5-2.7-6.4-6-6.6C-19.7,439.5-20,439.5-20.2,439.5L-20.2,439.5z"/>
		</g>
		<g>
			<path class="st0" d="M-99.6,457.9c-2.9,0-5.6-1.4-7.6-3.9c-0.6-0.7-0.9-1.5-0.9-2.4c0-1,0.4-2,1.2-2.8c0.7-0.7,1.6-1.1,2.6-1.1
				c1,0,2,0.4,2.8,1.2l0.1,0.1l0.1,0.1c1,1.2,1.5,1.2,1.8,1.2c0.4,0,1-0.3,1.3-0.5l0.2-0.2l0.2-0.1c0.7-0.5,1.5-0.8,2.3-0.8
				c1,0,2,0.4,2.8,1.1l0.1,0.1l0.1,0.2c1.2,1.5,1,3.7-0.4,5.1l0,0C-94.2,456.9-97.3,457.9-99.6,457.9z"/>
			<path class="st1" d="M-104.2,450.5c0.3,0,0.6,0.1,0.8,0.4c1.5,1.8,2.8,2.2,4,2.2c1.4,0,2.7-0.8,3.2-1.2c0.1-0.1,0.2-0.2,0.2-0.2
				c0.2-0.1,0.4-0.2,0.6-0.2c0.3,0,0.5,0.1,0.8,0.3c0.3,0.4,0.3,1-0.1,1.4c0,0.1-1.9,1.9-4.8,1.9c-1.8,0-3.8-0.8-5.4-2.9
				c-0.4-0.4-0.3-1,0.1-1.4C-104.7,450.6-104.5,450.5-104.2,450.5 M-104.2,444.9c-1.7,0-3.4,0.7-4.6,1.9c-2.5,2.5-2.7,6.4-0.4,9.1
				c2.5,3.1,6,4.9,9.7,4.9c3,0,6.8-1.3,8.9-3.7c2.2-2.4,2.5-6.1,0.5-8.7l-0.2-0.3l-0.3-0.3c-1.3-1.3-3-2-4.8-2
				c-1.4,0-2.8,0.4-3.9,1.2l-0.2-0.2C-100.7,445.6-102.5,444.9-104.2,444.9L-104.2,444.9z"/>
		</g>
		<g>
			<path class="st0" d="M-99.8,462.9c-2.9,0-7.1-1-10.8-5.9c-1.2-1.7-0.9-4.1,0.8-5.4c0.6-0.5,1.4-0.7,2.3-0.7
				c1.2,0,2.4,0.6,3.1,1.5c1.8,2.3,3.4,2.8,4.8,3c1,0,2.2-0.4,3.4-1.2c0,0,0,0,0,0c0,0,0,0,0,0c0.7-0.6,1.6-1,2.5-1
				c1.1,0,2.2,0.5,2.9,1.3c0.7,0.7,1,1.8,0.9,2.8c-0.1,1.1-0.6,2.1-1.5,2.8l-0.8,0.6h-0.1c-2.4,1.5-4.9,2.3-7.4,2.3H-99.8z"/>
			<path class="st1" d="M-107.5,453.7c0.3,0,0.6,0.1,0.8,0.4c2.4,3.1,4.8,3.9,6.9,4.1c2.3,0,4.2-1.1,5-1.6c0.3-0.2,0.4-0.3,0.4-0.3
				c0.2-0.2,0.4-0.3,0.6-0.3c0.3,0,0.6,0.1,0.8,0.4c0.4,0.4,0.3,1.1-0.1,1.4c-0.1,0-2.8,2.3-6.6,2.3c-0.1,0-0.1,0-0.1,0
				c-2.7,0-5.8-1.2-8.5-4.8c-0.3-0.4-0.2-1.1,0.2-1.4C-107.9,453.8-107.7,453.7-107.5,453.7 M-107.5,448.1c-1.4,0-2.8,0.5-4,1.3
				c-1.4,1-2.3,2.6-2.6,4.4c-0.3,1.8,0.2,3.6,1.2,4.9c3.4,4.6,8,7.1,13,7.1h0.1c2.8,0,5.6-0.8,8.2-2.3h0.2l1.5-1.1
				c1.5-1.1,2.5-2.9,2.6-4.8c0.1-1.8-0.5-3.5-1.6-4.8c-1.2-1.4-3.1-2.3-5-2.3c-1.6,0-3,0.5-4.2,1.5c-0.7,0.4-1.3,0.6-1.6,0.6
				c-0.6-0.1-1.5-0.4-2.6-1.9C-103.4,449-105.4,448.1-107.5,448.1L-107.5,448.1z"/>
		</g>
		<g>
			<path class="st0" d="M-75.3,417.8c-1.8,0-3.4-1.3-3.8-3.2c-0.1-0.9-0.4-1.8-0.9-2.1c-0.5-0.3-1.1-0.4-1.4-0.4c0,0-0.1,0-0.1,0
				l-0.3,0.1l0-0.1c-0.2,0-0.4,0.1-0.7,0.1c-1.8,0-3.4-1.3-3.8-3.1c-0.4-2.2,1-4.1,3-4.5l0.3-0.1h0.1c0.3,0,0.8-0.1,1.5-0.1
				c1.2,0,3.4,0.2,5.5,1.5c1.7,1,3.8,3.1,4.3,7.5c0.3,2-1,3.9-3.1,4.3l-0.3,0.1H-75.3z"/>
			<path class="st1" d="M-81.4,407.3c1,0,2.6,0.2,4,1.1c1.5,0.9,2.7,2.6,3,5.5c0.1,0.5-0.3,1-0.8,1.1h-0.1c-0.5,0-0.9-0.4-1-0.9
				c-0.4-2.3-1.2-3.4-2.2-4s-2.1-0.8-2.9-0.8c-0.6,0-0.9,0.1-0.9,0.1c-0.1,0-0.1,0-0.2,0c-0.5,0-0.9-0.4-1-0.8
				c-0.1-0.6,0.3-1.1,0.8-1.2C-82.6,407.4-82.1,407.3-81.4,407.3 M-81.4,401.6c-0.7,0-1.3,0.1-1.6,0.1h-0.2l-0.6,0.1
				c-3.6,0.7-5.9,4.1-5.3,7.7l0,0.1l0,0.1c0.6,3.1,3.4,5.4,6.6,5.4c0.2,0,0.4,0,0.6,0c0,0,0,0,0,0l0,0.1l0,0.1
				c0.6,3.2,3.4,5.5,6.6,5.5h0.1h0.6l0.6-0.1c3.5-0.7,5.8-4,5.3-7.4c-0.5-4.3-2.5-7.6-5.6-9.6C-77,401.9-79.9,401.6-81.4,401.6
				L-81.4,401.6z"/>
		</g>
		<g>
			<path class="st0" d="M-71,416.5c-1.9,0-3.5-1.3-3.8-3.3l0-0.2c-0.3-3.1-1.5-4.2-2.4-4.8c-1.2-0.8-2.8-0.8-3.3-0.8h-0.7
				c-0.1,0-0.2,0-0.3,0c-1.8,0-3.4-1.3-3.7-3.1c-0.4-2,0.9-4,3-4.4c0.3-0.1,0.8-0.2,1.7-0.2c1.9,0,4.8,0.4,7.4,2
				c2.3,1.4,5.3,4.4,6,10.5l0,0.2v0.2c0,1.8-1.4,3.5-3.2,3.9l-0.3,0.1H-71z"/>
			<path class="st1" d="M-80.6,402.6c1.3,0,3.7,0.2,5.9,1.6c2.3,1.4,4.2,4,4.7,8.4c0,0.5-0.4,1-0.9,1.1H-71c-0.5,0-0.9-0.3-1-0.9
				c-0.4-3.9-2-5.8-3.7-6.9c-1.7-1.1-3.7-1.3-4.8-1.3c-0.6,0-0.9,0-0.9,0c-0.1,0-0.1,0-0.2,0c-0.4,0-0.9-0.4-0.9-0.8
				c-0.1-0.5,0.3-1,0.8-1.1C-81.7,402.7-81.3,402.6-80.6,402.6 M-80.6,396.9c-1.1,0-1.9,0.1-2.3,0.2c-3.5,0.8-5.8,4.2-5.1,7.7
				c0.6,3.1,3.4,5.4,6.5,5.4c0.1,0,0.3,0,0.4,0h0.6c0.7,0,1.4,0.2,1.7,0.4c0.3,0.2,0.9,0.6,1.1,2.7l0,0.2l0,0.2
				c0.6,3.3,3.3,5.6,6.6,5.6h0.1h0.6l0.6-0.1c3.2-0.6,5.5-3.4,5.5-6.7v-0.3l0-0.3c-0.8-7.2-4.4-10.8-7.3-12.6
				C-74.9,397.4-78.3,396.9-80.6,396.9L-80.6,396.9z"/>
		</g>
		<g>
			<path class="st0" d="M-160.2,459.1c-1.3,0-2.5-0.6-3.2-1.7l-0.5-0.7v-0.1c-0.5-0.9-1.2-2.6-1.2-4.8c0-3.3,1.9-6.5,5.2-8.4
				c0.6-0.4,1.3-0.6,2.1-0.6c1.3,0,2.6,0.7,3.2,1.8c1.1,1.9,0.6,4.2-1.3,5.3c-1.3,0.8-1.5,1.4-1.5,1.9c0,0.4,0.2,0.9,0.3,1.1
				c0.2,0.2,0.3,0.5,0.4,0.8c0.3,0.8,0.5,1.6,0.3,2.4c-0.2,1-0.9,1.9-1.8,2.5l-0.1,0.1l-0.1,0C-158.6,458.8-159.3,459.1-160.2,459.1
				z"/>
			<path class="st1" d="M-157.8,445.6c0.3,0,0.6,0.2,0.8,0.5c0.3,0.5,0.2,1.1-0.3,1.4c-2.4,1.5-2.8,3-2.9,4.2c0,1.2,0.5,2.4,0.8,2.8
				c0.1,0.1,0.1,0.2,0.1,0.2c0.3,0.5,0.2,1.1-0.3,1.4c-0.2,0.1-0.4,0.2-0.6,0.2c-0.3,0-0.6-0.1-0.8-0.4c0-0.1-1.2-1.7-1.2-4.1
				c0-1.9,1-4.3,3.8-6C-158.2,445.7-158,445.6-157.8,445.6 M-157.8,440c-1.2,0-2.4,0.3-3.5,1c-4.1,2.5-6.6,6.6-6.6,10.9
				c0,1.9,0.4,3.7,1.2,5.5v0.4l1,1.4c1.2,1.8,3.3,2.9,5.5,2.9c1.5,0,2.7-0.6,3.1-0.8l0.2-0.1l0.2-0.1c1.6-1,2.7-2.6,3.1-4.4
				c0.3-1.4,0.1-2.8-0.5-4.1c0-0.1-0.1-0.2-0.1-0.3c1.5-1,2.5-2.5,2.9-4.2c0.3-1.6,0-3.3-0.8-4.8C-153.3,441.2-155.4,440-157.8,440
				L-157.8,440z"/>
		</g>
		<g>
			<path class="st0" d="M-164.7,460.2c-1.3,0-2.5-0.6-3.3-1.8l0,0c-1.8-2.3-2-7-2-7.1c0-4.7,2.7-8.9,7.4-11.6
				c0.5-0.3,1.2-0.5,1.9-0.5c1.2,0,2.4,0.6,3.1,1.6l0.2,0.3l0.1,0.3c0.7,1.8,0.1,3.9-1.6,4.9c-3.2,1.9-3.6,3.6-3.6,5
				c0,1.1,0.4,2.2,0.6,2.8l0.1,0.2c0.5,0.9,0.7,1.8,0.5,2.8c-0.2,1-0.8,1.8-1.6,2.4C-163.3,460.2-164.3,460.2-164.7,460.2z"/>
			<path class="st1" d="M-160.5,442.2c0.3,0,0.7,0.2,0.9,0.4c0.2,0.5,0.1,1.1-0.4,1.4c-4.1,2.4-5,5.1-5,7.4c0,1.9,0.7,3.5,1,4.2
				c0.1,0.2,0.2,0.3,0.2,0.3c0.3,0.5,0.2,1.1-0.3,1.4c-0.1,0.1-0.3,0.1-0.5,0.1c-0.4,0-0.7-0.2-0.9-0.5c-0.1,0-1.5-2.4-1.5-5.5
				c0-2.9,1.4-6.5,6-9.1C-160.9,442.2-160.7,442.2-160.5,442.2 M-160.5,436.5c-1.2,0-2.3,0.3-3.3,0.9c-5.6,3.2-8.8,8.3-8.8,14
				c0,0.1,0.1,5.5,2.5,8.7c1.3,1.8,3.3,2.9,5.6,2.9c1.5,0,2.8-0.4,3.9-1.2c1.3-1,2.3-2.4,2.6-4.1c0.3-1.6,0-3.3-0.8-4.8l0-0.1
				c-0.2-0.4-0.4-1-0.4-1.5c0-0.4,0-1.2,2.2-2.5l0,0l0,0c2.8-1.7,4-5.2,2.7-8.4l-0.3-0.7l-0.4-0.6
				C-156.4,437.5-158.4,436.5-160.5,436.5L-160.5,436.5z"/>
		</g>
		<g>
			<path class="st0" d="M-206,391.5c-2.6,0-5.2-1.2-7.4-3.5c-1.5-1.5-1.5-3.8,0.1-5.4c0.7-0.7,1.7-1.1,2.7-1.1c1,0,2,0.4,2.7,1.1
				c1.1,1.2,1.7,1.2,1.9,1.2c0.5,0,1.2-0.4,1.4-0.6c0.3-0.3,0.5-0.5,0.8-0.6c0.6-0.5,1.4-0.7,2.2-0.7c1,0,2,0.4,2.7,1.1
				c0.7,0.7,1.1,1.7,1.1,2.7c0,1-0.4,2-1.1,2.7C-199.5,389.2-202.1,391.5-206,391.5z"/>
			<path class="st1" d="M-210.6,384.4c0.3,0,0.5,0.1,0.7,0.3c1.5,1.6,2.8,2,3.9,2c1.5,0,2.9-0.9,3.4-1.4c0.2-0.2,0.3-0.2,0.3-0.2
				c0.2-0.2,0.4-0.3,0.7-0.3s0.5,0.1,0.7,0.3c0.4,0.4,0.4,1,0,1.4c-0.1,0.1-2,2.2-5.1,2.2c-1.6,0-3.5-0.7-5.3-2.6
				c-0.4-0.4-0.4-1,0-1.4C-211.1,384.5-210.8,384.4-210.6,384.4 M-210.6,378.7c-1.8,0-3.4,0.7-4.7,2c-2.6,2.6-2.6,6.7-0.1,9.3
				c2.7,2.8,6,4.3,9.4,4.3c4.9,0,8-2.7,9.2-3.9c2.5-2.6,2.5-6.8-0.1-9.4c-1.3-1.3-2.9-2-4.7-2c-1.4,0-2.7,0.4-3.8,1.2
				c-0.2,0.1-0.3,0.2-0.5,0.3C-207.1,379.4-208.8,378.7-210.6,378.7L-210.6,378.7z"/>
		</g>
		<g>
			<path class="st0" d="M-206,396.4c-3.7,0-7.4-1.8-10.3-5.1c-0.7-0.8-1.1-1.8-1-2.9c0.1-0.9,0.5-1.8,1.2-2.4
				c0.7-0.7,1.6-1.1,2.6-1.1c1,0,2,0.4,2.8,1.2l0.1,0.1c2.2,2.3,3.7,2.6,4.6,2.6c1.8,0,3.4-1.2,3.6-1.3c0,0,0.2-0.1,0.2-0.1
				c0.7-0.7,1.6-1,2.6-1c1,0,2,0.4,2.7,1.1c1.5,1.5,1.5,3.9,0,5.4C-197,393-200.5,396.4-206,396.4z"/>
			<path class="st1" d="M-213.4,387.7c0.3,0,0.6,0.1,0.8,0.4c2.5,2.7,4.7,3.5,6.7,3.5c2.4,0,4.5-1.3,5.3-1.9
				c0.3-0.2,0.4-0.3,0.4-0.3c0.2-0.2,0.4-0.3,0.7-0.3c0.2,0,0.5,0.1,0.7,0.3c0.4,0.4,0.4,1,0,1.4c-0.1,0.1-2.9,2.8-7.1,2.8
				c-2.5,0-5.5-1.1-8.2-4.2c-0.4-0.4-0.3-1,0.1-1.4C-213.9,387.8-213.7,387.7-213.4,387.7 M-213.4,382.1c-1.7,0-3.4,0.7-4.6,1.9
				c-1.1,1.1-1.8,2.6-2,4.1c-0.2,1.9,0.4,3.7,1.7,5.1c3.4,3.9,7.8,6.1,12.4,6.1c6.5,0,10.7-4,11.1-4.5c2.6-2.6,2.6-6.8,0-9.4
				c-1.3-1.3-2.9-2-4.7-2c-1.6,0-3.1,0.6-4.3,1.6l0,0l-0.1,0.1c-0.4,0.3-1.3,0.8-1.9,0.8c-0.7,0-1.5-0.6-2.5-1.7l-0.1-0.1l-0.1-0.1
				C-209.9,382.8-211.7,382.1-213.4,382.1L-213.4,382.1z"/>
		</g>
	</g>
</g>
</svg>
