<?xml version="1.0" encoding="utf-8"?>
<!-- Generator: Adobe Illustrator 19.1.0, SVG Export Plug-In . SVG Version: 6.00 Build 0)  -->
<svg version="1.1" id="Layer_1" xmlns="http://www.w3.org/2000/svg" xmlns:xlink="http://www.w3.org/1999/xlink" x="0px" y="0px"
	 viewBox="0 0 211.7 315.8" style="enable-background:new 0 0 211.7 315.8;" xml:space="preserve">
<style type="text/css">
	.st0{opacity:0.25;}
	.st1{fill:#2F9BFF;}
	.st2{fill:#FFFFFF;}
</style>
<g>
	<g class="st0">
		<path d="M134.9,305.3c-7.6,0-14.1-5.7-15.1-13.3l-11.2-88.9h-3.6L93.9,292c-1,7.6-7.4,13.3-15.1,13.3c-0.6,0-1.3,0-1.9-0.1
			c-4-0.5-7.6-2.5-10.1-5.8s-3.6-7.2-3.1-11.2L77,182.9v-52.6L13.9,77.7c-2.2-1.9-3.6-4.5-3.9-7.3c-0.3-2.9,0.6-5.7,2.5-7.9
			c2.1-2.5,5.1-3.9,8.3-3.9c2.5,0,5,0.9,6.9,2.5l63.1,52.6h32.1L186,61c1.9-1.6,4.4-2.5,6.9-2.5c3.2,0,6.3,1.4,8.3,3.9
			c1.9,2.2,2.7,5,2.5,7.9c-0.3,2.9-1.6,5.5-3.9,7.3l-63.1,52.7v52.6L150,288.2c0.5,4-0.6,8-3.1,11.2s-6.1,5.2-10.1,5.8
			C136.2,305.3,135.5,305.3,134.9,305.3z"/>
		<path d="M192.9,61.3c2.3,0,4.6,1,6.1,2.9c2.8,3.4,2.4,8.4-1,11.3L133.9,129V183l13.2,105.5c0.9,6.8-4,13-10.7,13.8
			c-0.5,0.1-1,0.1-1.6,0.1c-6.1,0-11.5-4.6-12.3-10.8l-11.5-91.4h-8.6l-11.5,91.4c-0.8,6.3-6.1,10.8-12.3,10.8c-0.5,0-1,0-1.6-0.1
			c-6.8-0.8-11.6-7-10.7-13.8L79.8,183V129L15.7,75.5c-3.4-2.8-3.8-7.9-1-11.3c1.6-1.9,3.9-2.9,6.1-2.9c1.8,0,3.6,0.6,5.1,1.9
			l63.9,53.3h34.2l63.9-53.3C189.3,61.9,191.1,61.3,192.9,61.3 M192.9,55.7c-3.2,0-6.3,1.1-8.8,3.2l-62.3,52h-30l-62.3-52
			c-2.5-2-5.6-3.2-8.8-3.2c-4.1,0-7.9,1.8-10.5,4.9c-2.3,2.8-3.4,6.3-3.1,10c0.3,3.6,2.1,6.9,4.9,9.3l62.1,51.8v51L60.9,287.9
			c-0.6,4.8,0.7,9.5,3.7,13.3c3,3.8,7.2,6.2,12,6.8c0.7,0.1,1.5,0.1,2.3,0.1c9.1,0,16.7-6.8,17.9-15.8l10.1-80.7l10.1,80.7
			c1.1,9,8.8,15.8,17.9,15.8c0.8,0,1.5,0,2.3-0.1c4.8-0.6,9-3,12-6.8c3-3.8,4.3-8.5,3.7-13.3l-13.2-105.2v-51l62.1-51.8
			c2.8-2.3,4.5-5.6,4.9-9.3c0.3-3.6-0.8-7.2-3.1-10C200.8,57.5,197,55.7,192.9,55.7L192.9,55.7z"/>
	</g>
	<g>
		<path class="st1" d="M132.9,303.3c-7.6,0-14.1-5.7-15.1-13.3l-11.2-88.9h-3.6L91.9,290c-1,7.6-7.4,13.3-15.1,13.3
			c-0.6,0-1.3,0-1.9-0.1c-4-0.5-7.6-2.5-10.1-5.8s-3.6-7.2-3.1-11.2L75,180.9v-52.6L11.9,75.7c-2.2-1.9-3.6-4.5-3.9-7.3
			c-0.3-2.9,0.6-5.7,2.5-7.9c2.1-2.5,5.1-3.9,8.3-3.9c2.5,0,5,0.9,6.9,2.5l63.1,52.6h32.1L184,59c1.9-1.6,4.4-2.5,6.9-2.5
			c3.2,0,6.3,1.4,8.3,3.9c1.9,2.2,2.7,5,2.5,7.9c-0.3,2.9-1.6,5.5-3.9,7.3l-63.1,52.7v52.6L148,286.2c0.5,4-0.6,8-3.1,11.2
			s-6.1,5.2-10.1,5.8C134.2,303.3,133.5,303.3,132.9,303.3z"/>
		<path class="st2" d="M190.9,59.3c2.3,0,4.6,1,6.1,2.9c2.8,3.4,2.4,8.4-1,11.3L131.9,127V181l13.2,105.5c0.9,6.8-4,13-10.7,13.8
			c-0.5,0.1-1,0.1-1.6,0.1c-6.1,0-11.5-4.6-12.3-10.8l-11.5-91.4h-8.6l-11.5,91.4c-0.8,6.3-6.1,10.8-12.3,10.8c-0.5,0-1,0-1.6-0.1
			c-6.8-0.8-11.6-7-10.7-13.8L77.8,181V127L13.7,73.5c-3.4-2.8-3.8-7.9-1-11.3c1.6-1.9,3.9-2.9,6.1-2.9c1.8,0,3.6,0.6,5.1,1.9
			l63.9,53.3h34.2l63.9-53.3C187.3,59.9,189.1,59.3,190.9,59.3 M190.9,53.7c-3.2,0-6.3,1.1-8.8,3.2l-62.3,52h-30l-62.3-52
			c-2.5-2-5.6-3.2-8.8-3.2c-4.1,0-7.9,1.8-10.5,4.9c-2.3,2.8-3.4,6.3-3.1,10c0.3,3.6,2.1,6.9,4.9,9.3l62.1,51.8v51L58.9,285.9
			c-0.6,4.8,0.7,9.5,3.7,13.3c3,3.8,7.2,6.2,12,6.8c0.7,0.1,1.5,0.1,2.3,0.1c9.1,0,16.7-6.8,17.9-15.8l10.1-80.7l10.1,80.7
			c1.1,9,8.8,15.8,17.9,15.8c0.8,0,1.5,0,2.3-0.1c4.8-0.6,9-3,12-6.8c3-3.8,4.3-8.5,3.7-13.3l-13.2-105.2v-51l62.1-51.8
			c2.8-2.3,4.5-5.6,4.9-9.3c0.3-3.6-0.8-7.2-3.1-10C198.8,55.5,195,53.7,190.9,53.7L190.9,53.7z"/>
	</g>
</g>
<g>
	<g class="st0">
		<path d="M106.9,113.6c-14,0-25.3-11.4-25.3-25.3s11.4-25.3,25.3-25.3s25.3,11.4,25.3,25.3S120.8,113.6,106.9,113.6z"/>
		<path d="M106.9,65.8c12.4,0,22.5,10.1,22.5,22.5c0,12.4-10.1,22.5-22.5,22.5c-12.4,0-22.5-10.1-22.5-22.5
			C84.4,75.8,94.4,65.8,106.9,65.8 M119,97.9c0,0-7.6,2.7-14.9,2.7c-3,0-5.9-0.5-8.3-1.7c1.4,3.9,6.3,6.9,11.4,6.9
			C111.6,105.8,116.1,103.6,119,97.9 M106.9,60.1c-15.5,0-28.2,12.6-28.2,28.2s12.6,28.2,28.2,28.2S135,103.8,135,88.3
			S122.4,60.1,106.9,60.1L106.9,60.1z"/>
	</g>
	<g>
		<path class="st1" d="M104.9,111.6c-14,0-25.3-11.4-25.3-25.3s11.4-25.3,25.3-25.3s25.3,11.4,25.3,25.3S118.8,111.6,104.9,111.6z"
			/>
		<path class="st2" d="M104.9,63.8c12.4,0,22.5,10.1,22.5,22.5c0,12.4-10.1,22.5-22.5,22.5c-12.4,0-22.5-10.1-22.5-22.5
			C82.4,73.8,92.4,63.8,104.9,63.8 M117,95.9c0,0-7.6,2.7-14.9,2.7c-3,0-5.9-0.5-8.3-1.7c1.4,3.9,6.3,6.9,11.4,6.9
			C109.6,103.8,114.1,101.6,117,95.9 M104.9,58.1c-15.5,0-28.2,12.6-28.2,28.2s12.6,28.2,28.2,28.2S133,101.8,133,86.3
			S120.4,58.1,104.9,58.1L104.9,58.1z"/>
	</g>
</g>
<g>
	<g class="st0">
		<path d="M108.8,46.1c1.1-5,4.7-7.9,9.8-7.9c2.7,0,5.3,0.8,7.1,1.5c2-2.4,5.9-6.2,10.6-6.2c1.9,0,4.7,0.6,7.3,3.6l5.8,6.5l-8.5-1.8
			c-0.4-0.1-0.8-0.1-1.1-0.1c-4.1,0-8,4.9-9.6,7.5l-1.4,2.5l-2.5-1.5c-2.1-1.2-5.6-2.7-8.7-2.7c-1.8,0-3.2,0.5-4.2,1.4l-6.5,5.7
			L108.8,46.1z"/>
		<path d="M136.3,36.4c1.7,0,3.5,0.7,5.2,2.7c-0.6-0.1-1.2-0.2-1.7-0.2c-5.8,0-10.4,6.2-12,8.9c-1.9-1.1-6.1-3.1-10.1-3.1
			c-2.2,0-4.3,0.6-6.1,2.1c1-4.5,4-5.7,7-5.7c4,0,8.1,2.2,8.1,2.2S131.1,36.4,136.3,36.4 M136.3,30.7L136.3,30.7
			c-4.9,0-8.9,3-11.5,5.7c-1.8-0.6-4-1-6.3-1c-6.4,0-11.1,3.8-12.5,10.2l-3.8,17L115.3,51c0.3-0.3,1-0.7,2.4-0.7
			c2.7,0,5.8,1.4,7.2,2.3l4.9,2.9l2.9-4.9c1.8-3,4.9-6.1,7.1-6.1c0.2,0,0.3,0,0.5,0.1l17,3.7l-11.5-13
			C142.4,31.5,138.7,30.7,136.3,30.7L136.3,30.7z"/>
	</g>
	<g>
		<path class="st1" d="M106.8,44.1c1.1-5,4.7-7.9,9.8-7.9c2.7,0,5.3,0.8,7.1,1.5c2-2.4,5.9-6.2,10.6-6.2c1.9,0,4.7,0.6,7.3,3.6
			l5.8,6.5l-8.5-1.8c-0.4-0.1-0.8-0.1-1.1-0.1c-4.1,0-8,4.9-9.6,7.5l-1.4,2.5l-2.5-1.5c-2.1-1.2-5.6-2.7-8.7-2.7
			c-1.8,0-3.2,0.5-4.2,1.4l-6.5,5.7L106.8,44.1z"/>
		<path class="st2" d="M134.3,34.4c1.7,0,3.5,0.7,5.2,2.7c-0.6-0.1-1.2-0.2-1.7-0.2c-5.8,0-10.4,6.2-12,8.9
			c-1.9-1.1-6.1-3.1-10.1-3.1c-2.2,0-4.3,0.6-6.1,2.1c1-4.5,4-5.7,7-5.7c4,0,8.1,2.2,8.1,2.2S129.1,34.4,134.3,34.4 M134.3,28.7
			L134.3,28.7c-4.9,0-8.9,3-11.5,5.7c-1.8-0.6-4-1-6.3-1c-6.4,0-11.1,3.8-12.5,10.2l-3.8,17L113.3,49c0.3-0.3,1-0.7,2.4-0.7
			c2.7,0,5.8,1.4,7.2,2.3l4.9,2.9l2.9-4.9c1.8-3,4.9-6.1,7.1-6.1c0.2,0,0.3,0,0.5,0.1l17,3.7l-11.5-13
			C140.4,29.5,136.7,28.7,134.3,28.7L134.3,28.7z"/>
	</g>
</g>
<g>
	<g class="st0">
		<path d="M139.1,59.2c1.1-5,4.7-7.9,9.8-7.9c2.7,0,5.3,0.8,7.1,1.5c2-2.4,5.9-6.2,10.6-6.2c1.9,0,4.7,0.6,7.3,3.6l5.8,6.5l-8.5-1.8
			c-0.4-0.1-0.8-0.1-1.1-0.1c-4.1,0-8,4.9-9.6,7.5l-1.4,2.5l-2.5-1.5c-2.1-1.2-5.6-2.7-8.7-2.7c-1.8,0-3.2,0.5-4.2,1.4l-6.5,5.7
			L139.1,59.2z"/>
		<path d="M166.6,49.4c1.7,0,3.5,0.7,5.2,2.7c-0.6-0.1-1.2-0.2-1.7-0.2c-5.8,0-10.4,6.2-12,8.9c-1.9-1.1-6.1-3.1-10.1-3.1
			c-2.2,0-4.3,0.6-6.1,2.1c1-4.5,4-5.7,7-5.7c4,0,8.1,2.2,8.1,2.2S161.4,49.4,166.6,49.4 M166.6,43.7c-4.9,0-8.9,3-11.5,5.7
			c-1.8-0.6-4-1-6.3-1c-6.4,0-11.1,3.8-12.5,10.2l-3.8,17l13.1-11.4c0.3-0.3,1-0.7,2.4-0.7c2.7,0,5.8,1.4,7.2,2.3l4.9,2.9l2.9-4.9
			c1.8-3,4.9-6.1,7.1-6.1c0.2,0,0.3,0,0.5,0.1l17,3.7l-11.5-13C172.7,44.5,169.1,43.7,166.6,43.7L166.6,43.7L166.6,43.7z"/>
	</g>
	<g>
		<path class="st1" d="M137.1,57.2c1.1-5,4.7-7.9,9.8-7.9c2.7,0,5.3,0.8,7.1,1.5c2-2.4,5.9-6.2,10.6-6.2c1.9,0,4.7,0.6,7.3,3.6
			l5.8,6.5l-8.5-1.8c-0.4-0.1-0.8-0.1-1.1-0.1c-4.1,0-8,4.9-9.6,7.5l-1.4,2.5l-2.5-1.5c-2.1-1.2-5.6-2.7-8.7-2.7
			c-1.8,0-3.2,0.5-4.2,1.4l-6.5,5.7L137.1,57.2z"/>
		<path class="st2" d="M164.6,47.4c1.7,0,3.5,0.7,5.2,2.7c-0.6-0.1-1.2-0.2-1.7-0.2c-5.8,0-10.4,6.2-12,8.9
			c-1.9-1.1-6.1-3.1-10.1-3.1c-2.2,0-4.3,0.6-6.1,2.1c1-4.5,4-5.7,7-5.7c4,0,8.1,2.2,8.1,2.2S159.4,47.4,164.6,47.4 M164.6,41.7
			c-4.9,0-8.9,3-11.5,5.7c-1.8-0.6-4-1-6.3-1c-6.4,0-11.1,3.8-12.5,10.2l-3.8,17l13.1-11.4c0.3-0.3,1-0.7,2.4-0.7
			c2.7,0,5.8,1.4,7.2,2.3l4.9,2.9l2.9-4.9c1.8-3,4.9-6.1,7.1-6.1c0.2,0,0.3,0,0.5,0.1l17,3.7l-11.5-13
			C170.7,42.5,167.1,41.7,164.6,41.7L164.6,41.7L164.6,41.7z"/>
	</g>
</g>
<g>
	<g class="st0">
		<path d="M143.9,24.3c1.1-5,4.7-7.9,9.8-7.9c2.7,0,5.3,0.8,7.1,1.5c2-2.4,5.9-6.2,10.6-6.2c1.9,0,4.7,0.6,7.3,3.6l5.8,6.5l-8.5-1.8
			c-0.4-0.1-0.8-0.1-1.1-0.1c-4.1,0-8,4.9-9.6,7.5l-1.4,2.5l-2.5-1.5c-2.1-1.2-5.6-2.7-8.7-2.7c-1.8,0-3.2,0.5-4.2,1.4l-6.5,5.7
			L143.9,24.3z"/>
		<path d="M171.5,14.5c1.7,0,3.5,0.7,5.2,2.7c-0.6-0.1-1.2-0.2-1.7-0.2c-5.8,0-10.4,6.2-12,8.9c-1.9-1.1-6.1-3.1-10.1-3.1
			c-2.2,0-4.3,0.6-6.1,2.1c1-4.5,4-5.7,7-5.7c4,0,8.1,2.2,8.1,2.2S166.2,14.5,171.5,14.5 M171.5,8.8L171.5,8.8
			c-4.9,0-8.9,3-11.5,5.7c-1.8-0.6-4-1-6.3-1c-6.4,0-11.1,3.8-12.5,10.2l-3.8,16.9l13.1-11.4c0.3-0.3,1-0.7,2.4-0.7
			c2.7,0,5.8,1.4,7.2,2.3l4.9,2.9l2.9-4.9c1.8-3,4.9-6.1,7.1-6.1c0.2,0,0.3,0,0.5,0.1l17,3.7l-11.5-13
			C177.5,9.6,173.9,8.8,171.5,8.8L171.5,8.8z"/>
	</g>
	<g>
		<path class="st1" d="M141.9,22.3c1.1-5,4.7-7.9,9.8-7.9c2.7,0,5.3,0.8,7.1,1.5c2-2.4,5.9-6.2,10.6-6.2c1.9,0,4.7,0.6,7.3,3.6
			l5.8,6.5l-8.5-1.8c-0.4-0.1-0.8-0.1-1.1-0.1c-4.1,0-8,4.9-9.6,7.5l-1.4,2.5l-2.5-1.5c-2.1-1.2-5.6-2.7-8.7-2.7
			c-1.8,0-3.2,0.5-4.2,1.4l-6.5,5.7L141.9,22.3z"/>
		<path class="st2" d="M169.5,12.5c1.7,0,3.5,0.7,5.2,2.7c-0.6-0.1-1.2-0.2-1.7-0.2c-5.8,0-10.4,6.2-12,8.9
			c-1.9-1.1-6.1-3.1-10.1-3.1c-2.2,0-4.3,0.6-6.1,2.1c1-4.5,4-5.7,7-5.7c4,0,8.1,2.2,8.1,2.2S164.2,12.5,169.5,12.5 M169.5,6.8
			L169.5,6.8c-4.9,0-8.9,3-11.5,5.7c-1.8-0.6-4-1-6.3-1c-6.4,0-11.1,3.8-12.5,10.2l-3.8,16.9l13.1-11.4c0.3-0.3,1-0.7,2.4-0.7
			c2.7,0,5.8,1.4,7.2,2.3l4.9,2.9l2.9-4.9c1.8-3,4.9-6.1,7.1-6.1c0.2,0,0.3,0,0.5,0.1l17,3.7l-11.5-13
			C175.5,7.6,171.9,6.8,169.5,6.8L169.5,6.8z"/>
	</g>
</g>
</svg>
