<?xml version="1.0" encoding="utf-8"?>
<!-- Generator: Adobe Illustrator 19.1.0, SVG Export Plug-In . SVG Version: 6.00 Build 0)  -->
<svg version="1.1" id="Layer_1" xmlns="http://www.w3.org/2000/svg" xmlns:xlink="http://www.w3.org/1999/xlink" x="0px" y="0px"
	 viewBox="0 0 145 307.6" style="enable-background:new 0 0 145 307.6;" xml:space="preserve">
<style type="text/css">
	.st0{opacity:0.25;}
	.st1{fill:#2F9BFF;}
	.st2{fill:#FFFFFF;}
	.st3{stroke:#000000;}
	.st4{fill:#2E9BFF;stroke:#FFFFFF;}
	.st5{fill:#2E9BFF;}
</style>
<g>
	<g class="st0">
		<path d="M65,86.6c-13.2,0-23.9-10.7-23.9-23.9S51.8,38.8,65,38.8s23.9,10.7,23.9,23.9S78.2,86.6,65,86.6z M62.8,77.3
			c1.6,0.7,3.2,1.1,4.8,1.1c3,0,6.1-1.4,8.3-3.8c0.9-0.9,1.5-1.9,2-3C73.4,74.9,66.9,76.5,62.8,77.3z"/>
		<path d="M65,40.2c12.4,0,22.5,10.1,22.5,22.5c0,12.4-10.1,22.5-22.5,22.5c-12.4,0-22.5-10.1-22.5-22.5
			C42.5,50.3,52.6,40.2,65,40.2 M67.6,79.8c7.3,0,13-6.8,12.6-12.3c-5.4,7.4-21.3,8.9-21.3,8.9C61.9,78.8,64.9,79.8,67.6,79.8
			 M65,37.4c-14,0-25.3,11.4-25.3,25.3S51,88.1,65,88.1s25.3-11.4,25.3-25.3S79,37.4,65,37.4L65,37.4z"/>
	</g>
	<g>
		<path class="st1" d="M63,84.6c-13.2,0-23.9-10.7-23.9-23.9S49.8,36.8,63,36.8s23.9,10.7,23.9,23.9S76.2,84.6,63,84.6z M60.8,75.3
			c1.6,0.7,3.2,1.1,4.8,1.1c3,0,6.1-1.4,8.3-3.8c0.9-0.9,1.5-1.9,2-3C71.4,72.9,64.9,74.5,60.8,75.3z"/>
		<path class="st2" d="M63,38.2c12.4,0,22.5,10.1,22.5,22.5c0,12.4-10.1,22.5-22.5,22.5c-12.4,0-22.5-10.1-22.5-22.5
			C40.5,48.3,50.6,38.2,63,38.2 M65.6,77.8c7.3,0,13-6.8,12.6-12.3c-5.4,7.4-21.3,8.9-21.3,8.9C59.9,76.8,62.9,77.8,65.6,77.8
			 M63,35.4c-14,0-25.3,11.4-25.3,25.3S49,86.1,63,86.1s25.3-11.4,25.3-25.3S77,35.4,63,35.4L63,35.4z"/>
	</g>
</g>
<g>
	<g class="st0">
		<path d="M101,277.7c-7.6,0-13.8-6.2-13.8-13.8V181c-2.4,1.8-5.3,2.8-8.2,2.8c-1,0-2-0.1-3-0.3l-30.1-6.9L37,213.8
			c-1.5,6.2-6.9,10.5-13.3,10.5c-1.1,0-2.1-0.1-3.2-0.4c-7.3-1.7-11.9-9.1-10.1-16.5l12-50.3c1.5-6.2,6.9-10.5,13.3-10.5
			c1,0,2,0.1,3.1,0.3l16.2,3.7l-5.3-26.3c-0.9,1.4-1.8,2.8-2.8,4.3c-2,3-4.5,6.4-7.6,9.4c-1.8,1.7-3.4,2.9-5.2,3.9
			c-2.5,1.3-5,2-7.6,2c-2.7,0-5.4-0.8-7.7-2.2c-2.9-1.8-5.2-4.4-7.3-8.1c-1.7-3.1-3.1-6.8-4.4-11.5c-1.4-5,1.6-10.2,6.6-11.6
			c0.8-0.2,1.7-0.3,2.5-0.3c4.2,0,8,2.8,9.1,6.9c0.8,2.9,1.5,4.9,2.1,6.2c0.4-0.4,0.8-1,1.3-1.6c2.7-3.4,5.7-8.4,8.5-13.1l0.6-1
			c1.5-2.5,3-4.9,4.5-7.1l0.5-0.7c1.4-1.9,2.8-3.8,5.6-5.7c0.6-0.4,1.3-0.7,2-0.9c0.7-0.3,1.4-0.6,2.2-0.7l37.2-7.5
			c1.2-0.5,6.4-2.7,11.2-7.9c7.1-7.7,10.5-18,10.6-31.2c0-8.8-1.6-18.8-4.9-29.7c-1.5-5,1.4-10.2,6.4-11.7c0.9-0.3,1.8-0.4,2.7-0.4
			c4.1,0,7.9,2.8,9,6.7c3.7,12.6,5.6,24.4,5.6,35.1c0.1,25.1-10.8,39.5-17.3,45.8c-3.2,3.1-6.7,5.8-10.4,7.9l12,59.5
			c0.2,0.9,0.2,1.8,0.1,2.8l0,0.1c0,0.1,0,0.3,0,0.4v101.7C114.8,271.5,108.6,277.7,101,277.7z"/>
		<path d="M115.7,5.3c3.5,0,6.6,2.3,7.7,5.7c3.9,13.2,5.6,24.7,5.6,34.7c0.1,21.8-8.2,36.4-16.8,44.7c-3.9,3.9-7.8,6.5-11,8.2
			l12.2,60.5c0.2,0.8,0.2,1.6,0.1,2.4c0,0.2,0,0.3,0,0.5v101.7c0,6.8-5.5,12.4-12.4,12.4c-6.8,0-12.4-5.5-12.4-12.4v-86.3
			c-2.3,2.9-5.8,4.7-9.7,4.7c-0.9,0-1.8-0.1-2.7-0.3h0l-31.5-7.2l-9.2,38.6c-1.3,5.6-6.4,9.4-11.9,9.4c-0.9,0-1.9-0.1-2.9-0.3
			c-6.6-1.6-10.6-8.2-9.1-14.8l12-50.3c1.3-5.6,6.3-9.4,11.9-9.4c0.9,0,1.8,0.1,2.7,0.3l18.3,4.2l-6.4-32c-1.4,2.4-3,4.9-4.6,7.3
			c-2.2,3.3-4.6,6.5-7.4,9.2c-1.4,1.4-3,2.6-4.9,3.6c-1.9,1-4.2,1.8-6.9,1.8c0,0-0.1,0-0.1,0c0,0,0,0,0,0c-2.4,0-4.8-0.7-6.8-2
			c-3.1-1.9-5.1-4.6-6.8-7.6c-1.7-3.1-3-6.7-4.3-11.2c-1.2-4.3,1.3-8.7,5.6-9.8c0.7-0.2,1.4-0.3,2.1-0.3c3.5,0,6.7,2.3,7.7,5.9
			c1.1,4,2.3,6.7,3.1,8.2c0.8-0.7,1.8-1.8,2.8-3.1c2.9-3.7,6.2-9.3,9.2-14.2c1.5-2.5,3-4.9,4.5-7c1.6-2.1,2.8-4,5.7-6
			c0.5-0.3,1.1-0.6,1.7-0.8c0.6-0.3,1.2-0.5,1.9-0.7l37.3-7.5c1.6-0.6,6.9-3,11.9-8.3c5.5-6,10.9-15.4,11-32.2
			c0-8.2-1.4-18.1-4.9-30.1c-1.3-4.2,1.2-8.7,5.4-9.9C114.1,5.4,114.9,5.3,115.7,5.3 M115.7,2.5c-1,0-2.1,0.2-3.1,0.4
			c-5.7,1.7-9,7.7-7.3,13.5c3.2,10.8,4.8,20.6,4.8,29.3c0,12.9-3.4,22.8-10.2,30.3c-4.4,4.8-9.2,7-10.6,7.5l-37,7.5
			c-0.8,0.2-1.6,0.4-2.4,0.8c-0.8,0.3-1.5,0.6-2.1,1l0,0l0,0c-3,2-4.5,4.1-6,6l-0.5,0.6l0,0l0,0c-1.6,2.2-3.1,4.7-4.6,7.2l-0.6,1
			c-2.8,4.6-5.6,9.4-8.2,12.7c-0.4-1-0.8-2.3-1.2-3.8c-1.3-4.7-5.6-8-10.4-8c-1,0-1.9,0.1-2.9,0.4c-5.8,1.6-9.2,7.6-7.6,13.3
			c1.3,4.9,2.8,8.6,4.5,11.8c2.2,4,4.7,6.8,7.8,8.7c2.5,1.5,5.4,2.4,8.3,2.4h0.1c2.8,0,5.6-0.7,8.3-2.2c1.9-1,3.7-2.3,5.5-4.1
			c3.2-3.1,5.8-6.6,7.8-9.7c0.3-0.4,0.6-0.9,0.9-1.3l4.2,20.7L39,145.5c-1.1-0.3-2.2-0.4-3.4-0.4c-7,0-13,4.8-14.7,11.6L9,207.1
			c-1.9,8.1,3.1,16.2,11.2,18.2c1.2,0.3,2.3,0.4,3.5,0.4c7,0,13-4.8,14.7-11.6l8.5-35.8l18.3,4.2l10.5,2.4c1.1,0.3,2.2,0.4,3.3,0.4
			c2.4,0,4.7-0.6,6.8-1.7v80.4c0,8.4,6.8,15.2,15.2,15.2c8.4,0,15.2-6.8,15.2-15.2V162.2c0-0.1,0-0.3,0-0.4c0.1-1,0-2.1-0.2-3.1
			l-11.8-58.5c3.5-2.1,6.8-4.7,9.8-7.6c6.6-6.5,17.8-21.1,17.7-46.8c0-10.8-1.9-22.7-5.7-35.5C124.7,5.7,120.4,2.5,115.7,2.5
			L115.7,2.5z"/>
	</g>
	<g>
		<path class="st1" d="M99,275.7c-7.6,0-13.8-6.2-13.8-13.8V179c-2.4,1.8-5.3,2.8-8.2,2.8c-1,0-2-0.1-3-0.3l-30.1-6.9L35,211.8
			c-1.5,6.2-6.9,10.5-13.3,10.5c-1.1,0-2.1-0.1-3.2-0.4c-7.3-1.7-11.9-9.1-10.1-16.5l12-50.3c1.5-6.2,6.9-10.5,13.3-10.5
			c1,0,2,0.1,3.1,0.3l16.2,3.7l-5.3-26.3c-0.9,1.4-1.8,2.8-2.8,4.3c-2,3-4.5,6.4-7.6,9.4c-1.8,1.7-3.4,2.9-5.2,3.9
			c-2.5,1.3-5,2-7.6,2c-2.7,0-5.4-0.8-7.7-2.2c-2.9-1.8-5.2-4.4-7.3-8.1c-1.7-3.1-3.1-6.8-4.4-11.5c-1.4-5,1.6-10.2,6.6-11.6
			c0.8-0.2,1.7-0.3,2.5-0.3c4.2,0,8,2.8,9.1,6.9c0.8,2.9,1.5,4.9,2.1,6.2c0.4-0.4,0.8-1,1.3-1.6c2.7-3.4,5.7-8.4,8.5-13.1l0.6-1
			c1.5-2.5,3-4.9,4.5-7.1l0.5-0.7c1.4-1.9,2.8-3.8,5.6-5.7c0.6-0.4,1.3-0.7,2-0.9c0.7-0.3,1.4-0.6,2.2-0.7l37.2-7.5
			c1.2-0.5,6.4-2.7,11.2-7.9c7.1-7.7,10.5-18,10.6-31.2c0-8.8-1.6-18.8-4.9-29.7C103.2,9,106,3.8,111,2.3c0.9-0.3,1.8-0.4,2.7-0.4
			c4.1,0,7.9,2.8,9,6.7c3.7,12.6,5.6,24.4,5.6,35.1c0.1,25.1-10.8,39.5-17.3,45.8c-3.2,3.1-6.7,5.8-10.4,7.9l12,59.5
			c0.2,0.9,0.2,1.8,0.1,2.8l0,0.1c0,0.1,0,0.3,0,0.4v101.7C112.8,269.5,106.6,275.7,99,275.7z"/>
		<path class="st2" d="M113.7,3.3c3.5,0,6.6,2.3,7.7,5.7c3.9,13.2,5.6,24.7,5.6,34.7c0.1,21.8-8.2,36.4-16.8,44.7
			c-3.9,3.9-7.8,6.5-11,8.2l12.2,60.5c0.2,0.8,0.2,1.6,0.1,2.4c0,0.2,0,0.3,0,0.5v101.7c0,6.8-5.5,12.4-12.4,12.4
			c-6.8,0-12.4-5.5-12.4-12.4v-86.3c-2.3,2.9-5.8,4.7-9.7,4.7c-0.9,0-1.8-0.1-2.7-0.3h0l-31.5-7.2l-9.2,38.6
			c-1.3,5.6-6.4,9.4-11.9,9.4c-0.9,0-1.9-0.1-2.9-0.3c-6.6-1.6-10.6-8.2-9.1-14.8l12-50.3c1.3-5.6,6.3-9.4,11.9-9.4
			c0.9,0,1.8,0.1,2.7,0.3l18.3,4.2l-6.4-32c-1.4,2.4-3,4.9-4.6,7.3c-2.2,3.3-4.6,6.5-7.4,9.2c-1.4,1.4-3,2.6-4.9,3.6
			c-1.9,1-4.2,1.8-6.9,1.8c0,0-0.1,0-0.1,0c0,0,0,0,0,0c-2.4,0-4.8-0.7-6.8-2c-3.1-1.9-5.1-4.6-6.8-7.6c-1.7-3.1-3-6.7-4.3-11.2
			c-1.2-4.3,1.3-8.7,5.6-9.8c0.7-0.2,1.4-0.3,2.1-0.3c3.5,0,6.7,2.3,7.7,5.9c1.1,4,2.3,6.7,3.1,8.2c0.8-0.7,1.8-1.8,2.8-3.1
			c2.9-3.7,6.2-9.3,9.2-14.2c1.5-2.5,3-4.9,4.5-7c1.6-2.1,2.8-4,5.7-6c0.5-0.3,1.1-0.6,1.7-0.8c0.6-0.3,1.2-0.5,1.9-0.7l37.3-7.5
			c1.6-0.6,6.9-3,11.9-8.3c5.5-6,10.9-15.4,11-32.2c0-8.2-1.4-18.1-4.9-30.1c-1.3-4.2,1.2-8.7,5.4-9.9
			C112.1,3.4,112.9,3.3,113.7,3.3 M113.7,0.5c-1,0-2.1,0.2-3.1,0.4c-5.7,1.7-9,7.7-7.3,13.5c3.2,10.8,4.8,20.6,4.8,29.3
			c0,12.9-3.4,22.8-10.2,30.3c-4.4,4.8-9.2,7-10.6,7.5l-37,7.5c-0.8,0.2-1.6,0.4-2.4,0.8c-0.8,0.3-1.5,0.6-2.1,1l0,0l0,0
			c-3,2-4.5,4.1-6,6l-0.5,0.6l0,0l0,0c-1.6,2.2-3.1,4.7-4.6,7.2l-0.6,1c-2.8,4.6-5.6,9.4-8.2,12.7c-0.4-1-0.8-2.3-1.2-3.8
			c-1.3-4.7-5.6-8-10.4-8c-1,0-1.9,0.1-2.9,0.4c-5.8,1.6-9.2,7.6-7.6,13.3c1.3,4.9,2.8,8.6,4.5,11.8c2.2,4,4.7,6.8,7.8,8.7
			c2.5,1.5,5.4,2.4,8.3,2.4h0.1c2.8,0,5.6-0.7,8.3-2.2c1.9-1,3.7-2.3,5.5-4.1c3.2-3.1,5.8-6.6,7.8-9.7c0.3-0.4,0.6-0.9,0.9-1.3
			l4.2,20.7L37,143.5c-1.1-0.3-2.2-0.4-3.4-0.4c-7,0-13,4.8-14.7,11.6L7,205.1c-1.9,8.1,3.1,16.2,11.2,18.2c1.2,0.3,2.3,0.4,3.5,0.4
			c7,0,13-4.8,14.7-11.6l8.5-35.8l18.3,4.2l10.5,2.4c1.1,0.3,2.2,0.4,3.3,0.4c2.4,0,4.7-0.6,6.8-1.7v80.4c0,8.4,6.8,15.2,15.2,15.2
			c8.4,0,15.2-6.8,15.2-15.2V160.2c0-0.1,0-0.3,0-0.4c0.1-1,0-2.1-0.2-3.1l-11.8-58.5c3.5-2.1,6.8-4.7,9.8-7.6
			c6.6-6.5,17.8-21.1,17.7-46.8c0-10.8-1.9-22.7-5.7-35.5C122.7,3.7,118.4,0.5,113.7,0.5L113.7,0.5z"/>
	</g>
</g>
<g>
	<g class="st0">
		<path class="st3" d="M96.9,299.4c5.1,4.5,40.1,10.4,47.3-16.1c-4.1,3.2-24.2,19.9-40.4,8l3.9-4.9l-22.3-0.6l7.5,18.3L96.9,299.4z"
			/>
		<path d="M121.5,293.7c0.1,0,2.9-0.3,5-3.3c2.1-3.1,3.8-9.5,0-23.1l0.8-0.5l9.5,10.1l7-13.3l0.2-0.1c0,0,0.2-0.1,0.4-0.1
			c0.3,0,0.8,0.1,1.2,0.6c1.6,2,1.1,8.4-1.4,19.1l0,0.1l-0.1,0.1c-3.1,3-14.7,10.8-22.5,11.1L121.5,293.7z"/>
		<path d="M144.4,264.1c0.8,0,3.5,1.2-0.7,19.2c-2.9,2.8-14.5,10.7-22.2,10.9c0,0,12.9-0.9,5.4-27l10,10.6l7.2-13.7
			C144.2,264.1,144.3,264.1,144.4,264.1 M144.4,263.1c-0.3,0-0.5,0.1-0.6,0.1l-0.4,0.1l-0.2,0.3l-6.6,12.5l-9.1-9.6l-1.7,1
			c3.8,13.3,2.2,19.6,0.1,22.6c-2,2.8-4.5,3.1-4.6,3.1l0.1,2c8-0.2,19.7-8.2,22.8-11.2l0.2-0.2l0.1-0.3c2.6-11,3-17.4,1.3-19.6
			C145.4,263.2,144.7,263.1,144.4,263.1L144.4,263.1z"/>
	</g>
	<g>
		<g>
			<path class="st4" d="M94.9,297.4c5.1,4.5,40.1,10.4,47.3-16.1c-4.1,3.2-24.2,19.9-40.4,8l3.9-4.9l-22.3-0.6l7.5,18.3L94.9,297.4z
				"/>
			<g>
				<path class="st5" d="M119.5,291.7c0.1,0,2.9-0.3,5-3.3c2.1-3.1,3.8-9.5,0-23.1l0.8-0.5l9.5,10.1l7-13.3l0.2-0.1
					c0,0,0.2-0.1,0.4-0.1c0.3,0,0.8,0.1,1.2,0.6c1.6,2,1.1,8.4-1.4,19.1l0,0.1l-0.1,0.1c-3.1,3-14.7,10.8-22.5,11.1L119.5,291.7z"/>
				<path class="st2" d="M142.4,262.1c0.8,0,3.5,1.2-0.7,19.2c-2.9,2.8-14.5,10.7-22.2,10.9c0,0,12.9-0.9,5.4-27l10,10.6l7.2-13.7
					C142.2,262.1,142.3,262.1,142.4,262.1 M142.4,261.1c-0.3,0-0.5,0.1-0.6,0.1l-0.4,0.1l-0.2,0.3l-6.6,12.5l-9.1-9.6l-1.7,1
					c3.8,13.3,2.2,19.6,0.1,22.6c-2,2.8-4.5,3.1-4.6,3.1l0.1,2c8-0.2,19.7-8.2,22.8-11.2l0.2-0.2l0.1-0.3c2.6-11,3-17.4,1.3-19.6
					C143.4,261.2,142.7,261.1,142.4,261.1L142.4,261.1z"/>
			</g>
		</g>
	</g>
</g>
</svg>
